<?xml version="1.0" encoding="UTF-8" standalone="no"?>
<!DOCTYPE svg PUBLIC "-//W3C//DTD SVG 1.1//EN"
 "http://www.w3.org/Graphics/SVG/1.1/DTD/svg11.dtd">
<!-- Generated by graphviz version 2.40.1 (20161225.0304)
 -->
<!-- Title: public.students Pages: 1 -->
<svg width="876pt" height="1349pt"
 viewBox="0.00 0.00 876.00 1349.00" xmlns="http://www.w3.org/2000/svg" xmlns:xlink="http://www.w3.org/1999/xlink">
<g id="graph0" class="graph" transform="scale(1 1) rotate(0) translate(4 1345)">
<title>public.students</title>
<polygon fill="#ffffff" stroke="transparent" points="-4,4 -4,-1345 872,-1345 872,4 -4,4"/>
<!-- public.students -->
<g id="node1" class="node">
<title>public.students</title>
<polygon fill="#efefef" stroke="transparent" points="306.5,-622.5 306.5,-657.5 579.5,-657.5 579.5,-622.5 306.5,-622.5"/>
<polygon fill="none" stroke="#000000" points="306.5,-622.5 306.5,-657.5 579.5,-657.5 579.5,-622.5 306.5,-622.5"/>
<text text-anchor="start" x="319.1968" y="-635.3" font-family="Arial Bold" font-size="18.00" fill="#000000">public.students</text>
<text text-anchor="start" x="439.2352" y="-635.3" font-family="Arial" font-size="14.00" fill="#000000">    </text>
<text text-anchor="start" x="473.44" y="-635.3" font-family="Arial" font-size="14.00" fill="#666666">[BASE TABLE]</text>
<polygon fill="none" stroke="#000000" points="306.5,-592.5 306.5,-622.5 579.5,-622.5 579.5,-592.5 306.5,-592.5"/>
<text text-anchor="start" x="313.5" y="-603.9" font-family="Arial" font-size="14.00" fill="#000000">id </text>
<text text-anchor="start" x="328.2798" y="-603.9" font-family="Arial" font-size="14.00" fill="#666666">[bigint]</text>
<polygon fill="none" stroke="#000000" points="306.5,-562.5 306.5,-592.5 579.5,-592.5 579.5,-562.5 306.5,-562.5"/>
<text text-anchor="start" x="313.5" y="-573.9" font-family="Arial" font-size="14.00" fill="#000000">student_no </text>
<text text-anchor="start" x="386.65" y="-573.9" font-family="Arial" font-size="14.00" fill="#666666">[integer]</text>
<polygon fill="none" stroke="#000000" points="306.5,-532.5 306.5,-562.5 579.5,-562.5 579.5,-532.5 306.5,-532.5"/>
<text text-anchor="start" x="313.5" y="-543.9" font-family="Arial" font-size="14.00" fill="#000000">name </text>
<text text-anchor="start" x="352.399" y="-543.9" font-family="Arial" font-size="14.00" fill="#666666">[varchar(255)]</text>
<polygon fill="none" stroke="#000000" points="306.5,-502.5 306.5,-532.5 579.5,-532.5 579.5,-502.5 306.5,-502.5"/>
<text text-anchor="start" x="313.5" y="-513.9" font-family="Arial" font-size="14.00" fill="#000000">sex </text>
<text text-anchor="start" x="339.1732" y="-513.9" font-family="Arial" font-size="14.00" fill="#666666">[integer]</text>
<polygon fill="none" stroke="#000000" points="306.5,-472.5 306.5,-502.5 579.5,-502.5 579.5,-472.5 306.5,-472.5"/>
<text text-anchor="start" x="313.5" y="-483.9" font-family="Arial" font-size="14.00" fill="#000000">memo </text>
<text text-anchor="start" x="356.277" y="-483.9" font-family="Arial" font-size="14.00" fill="#666666">[text]</text>
<polygon fill="none" stroke="#000000" points="306.5,-442.5 306.5,-472.5 579.5,-472.5 579.5,-442.5 306.5,-442.5"/>
<text text-anchor="start" x="313.5" y="-453.9" font-family="Arial" font-size="14.00" fill="#000000">class_id </text>
<text text-anchor="start" x="367.9516" y="-453.9" font-family="Arial" font-size="14.00" fill="#666666">[bigint]</text>
<polygon fill="none" stroke="#000000" points="306.5,-412.5 306.5,-442.5 579.5,-442.5 579.5,-412.5 306.5,-412.5"/>
<text text-anchor="start" x="313.5" y="-423.9" font-family="Arial" font-size="14.00" fill="#000000">created_at </text>
<text text-anchor="start" x="383.528" y="-423.9" font-family="Arial" font-size="14.00" fill="#666666">[timestamp without time zone]</text>
<polygon fill="none" stroke="#000000" points="306.5,-382.5 306.5,-412.5 579.5,-412.5 579.5,-382.5 306.5,-382.5"/>
<text text-anchor="start" x="313.4636" y="-393.9" font-family="Arial" font-size="14.00" fill="#000000">updated_at </text>
<text text-anchor="start" x="387.3962" y="-393.9" font-family="Arial" font-size="14.00" fill="#666666">[timestamp without time zone]</text>
<polygon fill="none" stroke="#000000" stroke-width="3" points="304.5,-381.5 304.5,-659.5 580.5,-659.5 580.5,-381.5 304.5,-381.5"/>
</g>
<!-- public.classes -->
<g id="node4" class="node">
<title>public.classes</title>
<polygon fill="#efefef" stroke="transparent" points="291.5,-222.5 291.5,-257.5 594.5,-257.5 594.5,-222.5 291.5,-222.5"/>
<polygon fill="none" stroke="#000000" points="291.5,-222.5 291.5,-257.5 594.5,-257.5 594.5,-222.5 291.5,-222.5"/>
<text text-anchor="start" x="323.2081" y="-235.3" font-family="Arial Bold" font-size="18.00" fill="#000000">public.classes</text>
<text text-anchor="start" x="435.2239" y="-235.3" font-family="Arial" font-size="14.00" fill="#000000">    </text>
<text text-anchor="start" x="469.4287" y="-235.3" font-family="Arial" font-size="14.00" fill="#666666">[BASE TABLE]</text>
<polygon fill="none" stroke="#000000" points="291.5,-192.5 291.5,-222.5 594.5,-222.5 594.5,-192.5 291.5,-192.5"/>
<text text-anchor="start" x="298.5" y="-203.9" font-family="Arial" font-size="14.00" fill="#000000">id    </text>
<text text-anchor="start" x="343.594" y="-203.9" font-family="Arial" font-size="14.00" fill="#666666">[bigint]</text>
<polygon fill="none" stroke="#000000" points="291.5,-162.5 291.5,-192.5 594.5,-192.5 594.5,-162.5 291.5,-162.5"/>
<text text-anchor="start" x="298.5" y="-173.9" font-family="Arial" font-size="14.00" fill="#000000">proxy_uuid    </text>
<text text-anchor="start" x="401.1676" y="-173.9" font-family="Arial" font-size="14.00" fill="#666666">[character(36)]</text>
<polygon fill="none" stroke="#000000" points="291.5,-132.5 291.5,-162.5 594.5,-162.5 594.5,-132.5 291.5,-132.5"/>
<text text-anchor="start" x="298.5" y="-143.9" font-family="Arial" font-size="14.00" fill="#000000">name    </text>
<text text-anchor="start" x="367.7132" y="-143.9" font-family="Arial" font-size="14.00" fill="#666666">[varchar(255)]</text>
<polygon fill="none" stroke="#000000" points="291.5,-102.5 291.5,-132.5 594.5,-132.5 594.5,-102.5 291.5,-102.5"/>
<text text-anchor="start" x="298.5" y="-113.9" font-family="Arial" font-size="14.00" fill="#000000">teacher_id    </text>
<text text-anchor="start" x="398.0582" y="-113.9" font-family="Arial" font-size="14.00" fill="#666666">[bigint]</text>
<polygon fill="none" stroke="#000000" points="291.5,-72.5 291.5,-102.5 594.5,-102.5 594.5,-72.5 291.5,-72.5"/>
<text text-anchor="start" x="298.5" y="-83.9" font-family="Arial" font-size="14.00" fill="#000000">created_at    </text>
<text text-anchor="start" x="398.8422" y="-83.9" font-family="Arial" font-size="14.00" fill="#666666">[timestamp without time zone]</text>
<polygon fill="none" stroke="#000000" points="291.5,-42.5 291.5,-72.5 594.5,-72.5 594.5,-42.5 291.5,-42.5"/>
<text text-anchor="start" x="298.3065" y="-53.9" font-family="Arial" font-size="14.00" fill="#000000">updated_at    </text>
<text text-anchor="start" x="402.5533" y="-53.9" font-family="Arial" font-size="14.00" fill="#666666">[timestamp without time zone]</text>
</g>
<!-- public.students&#45;&gt;public.classes -->
<g id="edge3" class="edge">
<title>public.students:class_id&#45;&gt;public.classes:id</title>
<path fill="none" stroke="#000000" d="M296.3477,-456.7828C194.3749,-442.1191 183.6675,-207.5 291.5,-207.5"/>
<polygon fill="#000000" stroke="#000000" points="296.5249,-456.7953 306.1829,-461.9888 301.5124,-457.1476 306.5,-457.5 306.5,-457.5 306.5,-457.5 301.5124,-457.1476 306.8171,-453.0112 296.5249,-456.7953 296.5249,-456.7953"/>
<text text-anchor="start" x="64.724" y="-467.5" font-family="Arial" font-size="10.00" fill="#000000">FOREIGN KEY (class_id) REFERENCES classes(id)</text>
</g>
<!-- public.student_preferences -->
<g id="node2" class="node">
<title>public.student_preferences</title>
<polygon fill="#efefef" stroke="transparent" points="43.5,-1262.5 43.5,-1297.5 400.5,-1297.5 400.5,-1262.5 43.5,-1262.5"/>
<polygon fill="none" stroke="#000000" points="43.5,-1262.5 43.5,-1297.5 400.5,-1297.5 400.5,-1262.5 43.5,-1262.5"/>
<text text-anchor="start" x="50.1818" y="-1275.3" font-family="Arial Bold" font-size="18.00" fill="#000000">public.student_preferences</text>
<text text-anchor="start" x="266.2502" y="-1275.3" font-family="Arial" font-size="14.00" fill="#000000">    </text>
<text text-anchor="start" x="300.455" y="-1275.3" font-family="Arial" font-size="14.00" fill="#666666">[BASE TABLE]</text>
<polygon fill="none" stroke="#000000" points="43.5,-1232.5 43.5,-1262.5 400.5,-1262.5 400.5,-1232.5 43.5,-1232.5"/>
<text text-anchor="start" x="50.5" y="-1243.9" font-family="Arial" font-size="14.00" fill="#000000">id    </text>
<text text-anchor="start" x="95.594" y="-1243.9" font-family="Arial" font-size="14.00" fill="#666666">[bigint]</text>
<polygon fill="none" stroke="#000000" points="43.5,-1202.5 43.5,-1232.5 400.5,-1232.5 400.5,-1202.5 43.5,-1202.5"/>
<text text-anchor="start" x="50.5" y="-1213.9" font-family="Arial" font-size="14.00" fill="#000000">student_id    </text>
<text text-anchor="start" x="149.2882" y="-1213.9" font-family="Arial" font-size="14.00" fill="#666666">[bigint]</text>
<polygon fill="none" stroke="#000000" points="43.5,-1172.5 43.5,-1202.5 400.5,-1202.5 400.5,-1172.5 43.5,-1172.5"/>
<text text-anchor="start" x="50.5" y="-1183.9" font-family="Arial" font-size="14.00" fill="#000000">survey_id    </text>
<text text-anchor="start" x="144.6024" y="-1183.9" font-family="Arial" font-size="14.00" fill="#666666">[bigint]</text>
<polygon fill="none" stroke="#000000" points="43.5,-1142.5 43.5,-1172.5 400.5,-1172.5 400.5,-1142.5 43.5,-1142.5"/>
<text text-anchor="start" x="50.5" y="-1153.9" font-family="Arial" font-size="14.00" fill="#000000">team_id    </text>
<text text-anchor="start" x="134.493" y="-1153.9" font-family="Arial" font-size="14.00" fill="#666666">[bigint]</text>
<polygon fill="none" stroke="#000000" points="43.5,-1112.5 43.5,-1142.5 400.5,-1142.5 400.5,-1112.5 43.5,-1112.5"/>
<text text-anchor="start" x="50.5" y="-1123.9" font-family="Arial" font-size="14.00" fill="#000000">mi_a    </text>
<text text-anchor="start" x="115.0372" y="-1123.9" font-family="Arial" font-size="14.00" fill="#666666">[integer]</text>
<polygon fill="none" stroke="#000000" points="43.5,-1082.5 43.5,-1112.5 400.5,-1112.5 400.5,-1082.5 43.5,-1082.5"/>
<text text-anchor="start" x="50.5" y="-1093.9" font-family="Arial" font-size="14.00" fill="#000000">mi_b    </text>
<text text-anchor="start" x="115.0372" y="-1093.9" font-family="Arial" font-size="14.00" fill="#666666">[integer]</text>
<polygon fill="none" stroke="#000000" points="43.5,-1052.5 43.5,-1082.5 400.5,-1082.5 400.5,-1052.5 43.5,-1052.5"/>
<text text-anchor="start" x="50.5" y="-1063.9" font-family="Arial" font-size="14.00" fill="#000000">mi_c    </text>
<text text-anchor="start" x="114.2546" y="-1063.9" font-family="Arial" font-size="14.00" fill="#666666">[integer]</text>
<polygon fill="none" stroke="#000000" points="43.5,-1022.5 43.5,-1052.5 400.5,-1052.5 400.5,-1022.5 43.5,-1022.5"/>
<text text-anchor="start" x="50.5" y="-1033.9" font-family="Arial" font-size="14.00" fill="#000000">mi_d    </text>
<text text-anchor="start" x="115.0372" y="-1033.9" font-family="Arial" font-size="14.00" fill="#666666">[integer]</text>
<polygon fill="none" stroke="#000000" points="43.5,-992.5 43.5,-1022.5 400.5,-1022.5 400.5,-992.5 43.5,-992.5"/>
<text text-anchor="start" x="50.5" y="-1003.9" font-family="Arial" font-size="14.00" fill="#000000">mi_e    </text>
<text text-anchor="start" x="115.0372" y="-1003.9" font-family="Arial" font-size="14.00" fill="#666666">[integer]</text>
<polygon fill="none" stroke="#000000" points="43.5,-962.5 43.5,-992.5 400.5,-992.5 400.5,-962.5 43.5,-962.5"/>
<text text-anchor="start" x="50.5" y="-973.9" font-family="Arial" font-size="14.00" fill="#000000">mi_f    </text>
<text text-anchor="start" x="111.1452" y="-973.9" font-family="Arial" font-size="14.00" fill="#666666">[integer]</text>
<polygon fill="none" stroke="#000000" points="43.5,-932.5 43.5,-962.5 400.5,-962.5 400.5,-932.5 43.5,-932.5"/>
<text text-anchor="start" x="50.5" y="-943.9" font-family="Arial" font-size="14.00" fill="#000000">mi_g    </text>
<text text-anchor="start" x="115.0372" y="-943.9" font-family="Arial" font-size="14.00" fill="#666666">[integer]</text>
<polygon fill="none" stroke="#000000" points="43.5,-902.5 43.5,-932.5 400.5,-932.5 400.5,-902.5 43.5,-902.5"/>
<text text-anchor="start" x="50.5" y="-913.9" font-family="Arial" font-size="14.00" fill="#000000">mi_h    </text>
<text text-anchor="start" x="115.0372" y="-913.9" font-family="Arial" font-size="14.00" fill="#666666">[integer]</text>
<polygon fill="none" stroke="#000000" points="43.5,-872.5 43.5,-902.5 400.5,-902.5 400.5,-872.5 43.5,-872.5"/>
<text text-anchor="start" x="50.5" y="-883.9" font-family="Arial" font-size="14.00" fill="#000000">leader    </text>
<text text-anchor="start" x="123.6024" y="-883.9" font-family="Arial" font-size="14.00" fill="#666666">[integer]</text>
<polygon fill="none" stroke="#000000" points="43.5,-842.5 43.5,-872.5 400.5,-872.5 400.5,-842.5 43.5,-842.5"/>
<text text-anchor="start" x="50.5" y="-853.9" font-family="Arial" font-size="14.00" fill="#000000">eyesight    </text>
<text text-anchor="start" x="136.8324" y="-853.9" font-family="Arial" font-size="14.00" fill="#666666">[integer]</text>
<polygon fill="none" stroke="#000000" points="43.5,-812.5 43.5,-842.5 400.5,-842.5 400.5,-812.5 43.5,-812.5"/>
<text text-anchor="start" x="50.5" y="-823.9" font-family="Arial" font-size="14.00" fill="#000000">created_at    </text>
<text text-anchor="start" x="150.8422" y="-823.9" font-family="Arial" font-size="14.00" fill="#666666">[timestamp without time zone]</text>
<polygon fill="none" stroke="#000000" points="43.5,-782.5 43.5,-812.5 400.5,-812.5 400.5,-782.5 43.5,-782.5"/>
<text text-anchor="start" x="50.5" y="-793.9" font-family="Arial" font-size="14.00" fill="#000000">updated_at    </text>
<text text-anchor="start" x="154.7468" y="-793.9" font-family="Arial" font-size="14.00" fill="#666666">[timestamp without time zone]</text>
</g>
<!-- public.student_preferences&#45;&gt;public.students -->
<g id="edge1" class="edge">
<title>public.student_preferences:student_id&#45;&gt;public.students:id</title>
<path fill="none" stroke="#000000" d="M409.5736,-1212.6177C450.6544,-1164.8003 428.6886,-780.9808 400.5,-740 375.1466,-703.141 331.8534,-740.859 306.5,-704 282.1938,-668.6635 263.6111,-607.5 306.5,-607.5"/>
<polygon fill="#000000" stroke="#000000" points="409.3061,-1212.7616 398.3677,-1213.5372 404.9031,-1215.1308 400.5,-1217.5 400.5,-1217.5 400.5,-1217.5 404.9031,-1215.1308 402.6323,-1221.4628 409.3061,-1212.7616 409.3061,-1212.7616"/>
<text text-anchor="start" x="407.4875" y="-1227.5" font-family="Arial" font-size="10.00" fill="#000000">FOREIGN KEY (student_id) REFERENCES students(id)</text>
</g>
<!-- public.student_dislikes -->
<g id="node3" class="node">
<title>public.student_dislikes</title>
<polygon fill="#efefef" stroke="transparent" points="504.5,-1097.5 504.5,-1132.5 825.5,-1132.5 825.5,-1097.5 504.5,-1097.5"/>
<polygon fill="none" stroke="#000000" points="504.5,-1097.5 504.5,-1132.5 825.5,-1132.5 825.5,-1097.5 504.5,-1097.5"/>
<text text-anchor="start" x="511.1962" y="-1110.3" font-family="Arial Bold" font-size="18.00" fill="#000000">public.student_dislikes</text>
<text text-anchor="start" x="691.2358" y="-1110.3" font-family="Arial" font-size="14.00" fill="#000000">    </text>
<text text-anchor="start" x="725.4406" y="-1110.3" font-family="Arial" font-size="14.00" fill="#666666">[BASE TABLE]</text>
<polygon fill="none" stroke="#000000" points="504.5,-1067.5 504.5,-1097.5 825.5,-1097.5 825.5,-1067.5 504.5,-1067.5"/>
<text text-anchor="start" x="511.5" y="-1078.9" font-family="Arial" font-size="14.00" fill="#000000">id    </text>
<text text-anchor="start" x="556.594" y="-1078.9" font-family="Arial" font-size="14.00" fill="#666666">[bigint]</text>
<polygon fill="none" stroke="#000000" points="504.5,-1037.5 504.5,-1067.5 825.5,-1067.5 825.5,-1037.5 504.5,-1037.5"/>
<text text-anchor="start" x="511.5" y="-1048.9" font-family="Arial" font-size="14.00" fill="#000000">student_id    </text>
<text text-anchor="start" x="610.2882" y="-1048.9" font-family="Arial" font-size="14.00" fill="#666666">[bigint]</text>
<polygon fill="none" stroke="#000000" points="504.5,-1007.5 504.5,-1037.5 825.5,-1037.5 825.5,-1007.5 504.5,-1007.5"/>
<text text-anchor="start" x="511.5" y="-1018.9" font-family="Arial" font-size="14.00" fill="#000000">preference_id    </text>
<text text-anchor="start" x="631.284" y="-1018.9" font-family="Arial" font-size="14.00" fill="#666666">[bigint]</text>
<polygon fill="none" stroke="#000000" points="504.5,-977.5 504.5,-1007.5 825.5,-1007.5 825.5,-977.5 504.5,-977.5"/>
<text text-anchor="start" x="511.5" y="-988.9" font-family="Arial" font-size="14.00" fill="#000000">created_at    </text>
<text text-anchor="start" x="611.8422" y="-988.9" font-family="Arial" font-size="14.00" fill="#666666">[timestamp without time zone]</text>
<polygon fill="none" stroke="#000000" points="504.5,-947.5 504.5,-977.5 825.5,-977.5 825.5,-947.5 504.5,-947.5"/>
<text text-anchor="start" x="511.5" y="-958.9" font-family="Arial" font-size="14.00" fill="#000000">updated_at    </text>
<text text-anchor="start" x="615.7468" y="-958.9" font-family="Arial" font-size="14.00" fill="#666666">[timestamp without time zone]</text>
</g>
<!-- public.student_dislikes&#45;&gt;public.students -->
<g id="edge2" class="edge">
<title>public.student_dislikes:student_id&#45;&gt;public.students:id</title>
<path fill="none" stroke="#000000" d="M494.2841,-1052.0695C320.9161,-1036.5661 776.4436,-607.5 579.5,-607.5"/>
<polygon fill="#000000" stroke="#000000" points="494.5089,-1052.0789 504.3105,-1056.996 499.5044,-1052.2894 504.5,-1052.5 504.5,-1052.5 504.5,-1052.5 499.5044,-1052.2894 504.6895,-1048.004 494.5089,-1052.0789 494.5089,-1052.0789"/>
<text text-anchor="start" x="511.4875" y="-1062.5" font-family="Arial" font-size="10.00" fill="#000000">FOREIGN KEY (student_id) REFERENCES students(id)</text>
</g>
</g>
</svg>
