<?xml version="1.0" encoding="UTF-8" standalone="no"?>
<!DOCTYPE svg PUBLIC "-//W3C//DTD SVG 1.1//EN"
 "http://www.w3.org/Graphics/SVG/1.1/DTD/svg11.dtd">
<!-- Generated by graphviz version 2.40.1 (20161225.0304)
 -->
<!-- Title: public.student_preferences Pages: 1 -->
<svg width="1103pt" height="1169pt"
 viewBox="0.00 0.00 1102.50 1169.00" xmlns="http://www.w3.org/2000/svg" xmlns:xlink="http://www.w3.org/1999/xlink">
<g id="graph0" class="graph" transform="scale(1 1) rotate(0) translate(4 1165)">
<title>public.student_preferences</title>
<polygon fill="#ffffff" stroke="transparent" points="-4,4 -4,-1165 1098.5,-1165 1098.5,4 -4,4"/>
<!-- public.student_preferences -->
<g id="node1" class="node">
<title>public.student_preferences</title>
<polygon fill="#efefef" stroke="transparent" points="399.5,-832.5 399.5,-867.5 756.5,-867.5 756.5,-832.5 399.5,-832.5"/>
<polygon fill="none" stroke="#000000" points="399.5,-832.5 399.5,-867.5 756.5,-867.5 756.5,-832.5 399.5,-832.5"/>
<text text-anchor="start" x="406.1818" y="-845.3" font-family="Arial Bold" font-size="18.00" fill="#000000">public.student_preferences</text>
<text text-anchor="start" x="622.2502" y="-845.3" font-family="Arial" font-size="14.00" fill="#000000">    </text>
<text text-anchor="start" x="656.455" y="-845.3" font-family="Arial" font-size="14.00" fill="#666666">[BASE TABLE]</text>
<polygon fill="none" stroke="#000000" points="399.5,-802.5 399.5,-832.5 756.5,-832.5 756.5,-802.5 399.5,-802.5"/>
<text text-anchor="start" x="406.5" y="-813.9" font-family="Arial" font-size="14.00" fill="#000000">id </text>
<text text-anchor="start" x="421.2798" y="-813.9" font-family="Arial" font-size="14.00" fill="#666666">[bigint]</text>
<polygon fill="none" stroke="#000000" points="399.5,-772.5 399.5,-802.5 756.5,-802.5 756.5,-772.5 399.5,-772.5"/>
<text text-anchor="start" x="406.5" y="-783.9" font-family="Arial" font-size="14.00" fill="#000000">student_id </text>
<text text-anchor="start" x="474.974" y="-783.9" font-family="Arial" font-size="14.00" fill="#666666">[bigint]</text>
<polygon fill="none" stroke="#000000" points="399.5,-742.5 399.5,-772.5 756.5,-772.5 756.5,-742.5 399.5,-742.5"/>
<text text-anchor="start" x="406.5" y="-753.9" font-family="Arial" font-size="14.00" fill="#000000">survey_id </text>
<text text-anchor="start" x="470.2882" y="-753.9" font-family="Arial" font-size="14.00" fill="#666666">[bigint]</text>
<polygon fill="none" stroke="#000000" points="399.5,-712.5 399.5,-742.5 756.5,-742.5 756.5,-712.5 399.5,-712.5"/>
<text text-anchor="start" x="406.5" y="-723.9" font-family="Arial" font-size="14.00" fill="#000000">team_id </text>
<text text-anchor="start" x="460.1788" y="-723.9" font-family="Arial" font-size="14.00" fill="#666666">[bigint]</text>
<polygon fill="none" stroke="#000000" points="399.5,-682.5 399.5,-712.5 756.5,-712.5 756.5,-682.5 399.5,-682.5"/>
<text text-anchor="start" x="406.5" y="-693.9" font-family="Arial" font-size="14.00" fill="#000000">mi_a </text>
<text text-anchor="start" x="440.723" y="-693.9" font-family="Arial" font-size="14.00" fill="#666666">[integer]</text>
<polygon fill="none" stroke="#000000" points="399.5,-652.5 399.5,-682.5 756.5,-682.5 756.5,-652.5 399.5,-652.5"/>
<text text-anchor="start" x="406.5" y="-663.9" font-family="Arial" font-size="14.00" fill="#000000">mi_b </text>
<text text-anchor="start" x="440.723" y="-663.9" font-family="Arial" font-size="14.00" fill="#666666">[integer]</text>
<polygon fill="none" stroke="#000000" points="399.5,-622.5 399.5,-652.5 756.5,-652.5 756.5,-622.5 399.5,-622.5"/>
<text text-anchor="start" x="406.5" y="-633.9" font-family="Arial" font-size="14.00" fill="#000000">mi_c </text>
<text text-anchor="start" x="439.9404" y="-633.9" font-family="Arial" font-size="14.00" fill="#666666">[integer]</text>
<polygon fill="none" stroke="#000000" points="399.5,-592.5 399.5,-622.5 756.5,-622.5 756.5,-592.5 399.5,-592.5"/>
<text text-anchor="start" x="406.5" y="-603.9" font-family="Arial" font-size="14.00" fill="#000000">mi_d </text>
<text text-anchor="start" x="440.723" y="-603.9" font-family="Arial" font-size="14.00" fill="#666666">[integer]</text>
<polygon fill="none" stroke="#000000" points="399.5,-562.5 399.5,-592.5 756.5,-592.5 756.5,-562.5 399.5,-562.5"/>
<text text-anchor="start" x="406.5" y="-573.9" font-family="Arial" font-size="14.00" fill="#000000">mi_e </text>
<text text-anchor="start" x="440.723" y="-573.9" font-family="Arial" font-size="14.00" fill="#666666">[integer]</text>
<polygon fill="none" stroke="#000000" points="399.5,-532.5 399.5,-562.5 756.5,-562.5 756.5,-532.5 399.5,-532.5"/>
<text text-anchor="start" x="406.5" y="-543.9" font-family="Arial" font-size="14.00" fill="#000000">mi_f </text>
<text text-anchor="start" x="436.831" y="-543.9" font-family="Arial" font-size="14.00" fill="#666666">[integer]</text>
<polygon fill="none" stroke="#000000" points="399.5,-502.5 399.5,-532.5 756.5,-532.5 756.5,-502.5 399.5,-502.5"/>
<text text-anchor="start" x="406.5" y="-513.9" font-family="Arial" font-size="14.00" fill="#000000">mi_g </text>
<text text-anchor="start" x="440.723" y="-513.9" font-family="Arial" font-size="14.00" fill="#666666">[integer]</text>
<polygon fill="none" stroke="#000000" points="399.5,-472.5 399.5,-502.5 756.5,-502.5 756.5,-472.5 399.5,-472.5"/>
<text text-anchor="start" x="406.5" y="-483.9" font-family="Arial" font-size="14.00" fill="#000000">mi_h </text>
<text text-anchor="start" x="440.723" y="-483.9" font-family="Arial" font-size="14.00" fill="#666666">[integer]</text>
<polygon fill="none" stroke="#000000" points="399.5,-442.5 399.5,-472.5 756.5,-472.5 756.5,-442.5 399.5,-442.5"/>
<text text-anchor="start" x="406.5" y="-453.9" font-family="Arial" font-size="14.00" fill="#000000">leader </text>
<text text-anchor="start" x="449.2882" y="-453.9" font-family="Arial" font-size="14.00" fill="#666666">[integer]</text>
<polygon fill="none" stroke="#000000" points="399.5,-412.5 399.5,-442.5 756.5,-442.5 756.5,-412.5 399.5,-412.5"/>
<text text-anchor="start" x="406.5" y="-423.9" font-family="Arial" font-size="14.00" fill="#000000">eyesight </text>
<text text-anchor="start" x="462.5182" y="-423.9" font-family="Arial" font-size="14.00" fill="#666666">[integer]</text>
<polygon fill="none" stroke="#000000" stroke-width="3" points="397.5,-411.5 397.5,-869.5 757.5,-869.5 757.5,-411.5 397.5,-411.5"/>
</g>
<!-- public.students -->
<g id="node3" class="node">
<title>public.students</title>
<polygon fill="#efefef" stroke="transparent" points="43.5,-252.5 43.5,-287.5 346.5,-287.5 346.5,-252.5 43.5,-252.5"/>
<polygon fill="none" stroke="#000000" points="43.5,-252.5 43.5,-287.5 346.5,-287.5 346.5,-252.5 43.5,-252.5"/>
<text text-anchor="start" x="71.1968" y="-265.3" font-family="Arial Bold" font-size="18.00" fill="#000000">public.students</text>
<text text-anchor="start" x="191.2352" y="-265.3" font-family="Arial" font-size="14.00" fill="#000000">    </text>
<text text-anchor="start" x="225.44" y="-265.3" font-family="Arial" font-size="14.00" fill="#666666">[BASE TABLE]</text>
<polygon fill="none" stroke="#000000" points="43.5,-222.5 43.5,-252.5 346.5,-252.5 346.5,-222.5 43.5,-222.5"/>
<text text-anchor="start" x="50.5" y="-233.9" font-family="Arial" font-size="14.00" fill="#000000">id    </text>
<text text-anchor="start" x="95.594" y="-233.9" font-family="Arial" font-size="14.00" fill="#666666">[bigint]</text>
<polygon fill="none" stroke="#000000" points="43.5,-192.5 43.5,-222.5 346.5,-222.5 346.5,-192.5 43.5,-192.5"/>
<text text-anchor="start" x="50.5" y="-203.9" font-family="Arial" font-size="14.00" fill="#000000">name    </text>
<text text-anchor="start" x="119.7132" y="-203.9" font-family="Arial" font-size="14.00" fill="#666666">[varchar(255)]</text>
<polygon fill="none" stroke="#000000" points="43.5,-162.5 43.5,-192.5 346.5,-192.5 346.5,-162.5 43.5,-162.5"/>
<text text-anchor="start" x="50.5" y="-173.9" font-family="Arial" font-size="14.00" fill="#000000">sex    </text>
<text text-anchor="start" x="106.4874" y="-173.9" font-family="Arial" font-size="14.00" fill="#666666">[integer]</text>
<polygon fill="none" stroke="#000000" points="43.5,-132.5 43.5,-162.5 346.5,-162.5 346.5,-132.5 43.5,-132.5"/>
<text text-anchor="start" x="50.5" y="-143.9" font-family="Arial" font-size="14.00" fill="#000000">memo    </text>
<text text-anchor="start" x="123.5912" y="-143.9" font-family="Arial" font-size="14.00" fill="#666666">[text]</text>
<polygon fill="none" stroke="#000000" points="43.5,-102.5 43.5,-132.5 346.5,-132.5 346.5,-102.5 43.5,-102.5"/>
<text text-anchor="start" x="50.5" y="-113.9" font-family="Arial" font-size="14.00" fill="#000000">class_id    </text>
<text text-anchor="start" x="135.2658" y="-113.9" font-family="Arial" font-size="14.00" fill="#666666">[bigint]</text>
<polygon fill="none" stroke="#000000" points="43.5,-72.5 43.5,-102.5 346.5,-102.5 346.5,-72.5 43.5,-72.5"/>
<text text-anchor="start" x="50.5" y="-83.9" font-family="Arial" font-size="14.00" fill="#000000">created_at    </text>
<text text-anchor="start" x="150.8422" y="-83.9" font-family="Arial" font-size="14.00" fill="#666666">[timestamp without time zone]</text>
<polygon fill="none" stroke="#000000" points="43.5,-42.5 43.5,-72.5 346.5,-72.5 346.5,-42.5 43.5,-42.5"/>
<text text-anchor="start" x="50.3065" y="-53.9" font-family="Arial" font-size="14.00" fill="#000000">updated_at    </text>
<text text-anchor="start" x="154.5533" y="-53.9" font-family="Arial" font-size="14.00" fill="#666666">[timestamp without time zone]</text>
</g>
<!-- public.student_preferences&#45;&gt;public.students -->
<g id="edge2" class="edge">
<title>public.student_preferences:student_id&#45;&gt;public.students:id</title>
<path fill="none" stroke="#000000" d="M389.5042,-786.1115C287.7247,-755.7455 465.6911,-237.5 346.5,-237.5"/>
<polygon fill="#000000" stroke="#000000" points="389.5951,-786.124 398.8808,-791.9572 394.5476,-786.812 399.5,-787.5 399.5,-787.5 399.5,-787.5 394.5476,-786.812 400.1192,-783.0428 389.5951,-786.124 389.5951,-786.124"/>
<text text-anchor="start" x="142.4875" y="-797.5" font-family="Arial" font-size="10.00" fill="#000000">FOREIGN KEY (student_id) REFERENCES students(id)</text>
</g>
<!-- public.surveys -->
<g id="node4" class="node">
<title>public.surveys</title>
<polygon fill="#efefef" stroke="transparent" points="450.5,-207.5 450.5,-242.5 705.5,-242.5 705.5,-207.5 450.5,-207.5"/>
<polygon fill="none" stroke="#000000" points="450.5,-207.5 450.5,-242.5 705.5,-242.5 705.5,-207.5 450.5,-207.5"/>
<text text-anchor="start" x="457.2091" y="-220.3" font-family="Arial Bold" font-size="18.00" fill="#000000">public.surveys</text>
<text text-anchor="start" x="571.2229" y="-220.3" font-family="Arial" font-size="14.00" fill="#000000">    </text>
<text text-anchor="start" x="605.4277" y="-220.3" font-family="Arial" font-size="14.00" fill="#666666">[BASE TABLE]</text>
<polygon fill="none" stroke="#000000" points="450.5,-177.5 450.5,-207.5 705.5,-207.5 705.5,-177.5 450.5,-177.5"/>
<text text-anchor="start" x="457.5" y="-188.9" font-family="Arial" font-size="14.00" fill="#000000">id    </text>
<text text-anchor="start" x="502.594" y="-188.9" font-family="Arial" font-size="14.00" fill="#666666">[bigint]</text>
<polygon fill="none" stroke="#000000" points="450.5,-147.5 450.5,-177.5 705.5,-177.5 705.5,-147.5 450.5,-147.5"/>
<text text-anchor="start" x="457.5" y="-158.9" font-family="Arial" font-size="14.00" fill="#000000">name    </text>
<text text-anchor="start" x="526.7132" y="-158.9" font-family="Arial" font-size="14.00" fill="#666666">[varchar(255)]</text>
<polygon fill="none" stroke="#000000" points="450.5,-117.5 450.5,-147.5 705.5,-147.5 705.5,-117.5 450.5,-117.5"/>
<text text-anchor="start" x="457.5" y="-128.9" font-family="Arial" font-size="14.00" fill="#000000">status    </text>
<text text-anchor="start" x="529.0512" y="-128.9" font-family="Arial" font-size="14.00" fill="#666666">[integer]</text>
<polygon fill="none" stroke="#000000" points="450.5,-87.5 450.5,-117.5 705.5,-117.5 705.5,-87.5 450.5,-87.5"/>
<text text-anchor="start" x="457.5" y="-98.9" font-family="Arial" font-size="14.00" fill="#000000">class_id    </text>
<text text-anchor="start" x="542.2658" y="-98.9" font-family="Arial" font-size="14.00" fill="#666666">[bigint]</text>
</g>
<!-- public.student_preferences&#45;&gt;public.surveys -->
<g id="edge3" class="edge">
<title>public.student_preferences:survey_id&#45;&gt;public.surveys:id</title>
<path fill="none" stroke="#000000" d="M389.2253,-757.2264C232.002,-748.5498 375.4126,-535.2811 399.5,-367 410.9488,-287.0152 369.7,-192.5 450.5,-192.5"/>
<polygon fill="#000000" stroke="#000000" points="389.5035,-757.2337 399.3802,-761.9984 394.5018,-757.3668 399.5,-757.5 399.5,-757.5 399.5,-757.5 394.5018,-757.3668 399.6198,-753.0016 389.5035,-757.2337 389.5035,-757.2337"/>
<text text-anchor="start" x="149.8345" y="-767.5" font-family="Arial" font-size="10.00" fill="#000000">FOREIGN KEY (survey_id) REFERENCES surveys(id)</text>
</g>
<!-- public.teams -->
<g id="node5" class="node">
<title>public.teams</title>
<polygon fill="#efefef" stroke="transparent" points="809.5,-192.5 809.5,-227.5 1051.5,-227.5 1051.5,-192.5 809.5,-192.5"/>
<polygon fill="none" stroke="#000000" points="809.5,-192.5 809.5,-227.5 1051.5,-227.5 1051.5,-192.5 809.5,-192.5"/>
<text text-anchor="start" x="816.208" y="-205.3" font-family="Arial Bold" font-size="18.00" fill="#000000">public.teams</text>
<text text-anchor="start" x="917.224" y="-205.3" font-family="Arial" font-size="14.00" fill="#000000">    </text>
<text text-anchor="start" x="951.4288" y="-205.3" font-family="Arial" font-size="14.00" fill="#666666">[BASE TABLE]</text>
<polygon fill="none" stroke="#000000" points="809.5,-162.5 809.5,-192.5 1051.5,-192.5 1051.5,-162.5 809.5,-162.5"/>
<text text-anchor="start" x="816.5" y="-173.9" font-family="Arial" font-size="14.00" fill="#000000">id    </text>
<text text-anchor="start" x="861.594" y="-173.9" font-family="Arial" font-size="14.00" fill="#666666">[bigint]</text>
<polygon fill="none" stroke="#000000" points="809.5,-132.5 809.5,-162.5 1051.5,-162.5 1051.5,-132.5 809.5,-132.5"/>
<text text-anchor="start" x="816.5" y="-143.9" font-family="Arial" font-size="14.00" fill="#000000">name    </text>
<text text-anchor="start" x="885.7132" y="-143.9" font-family="Arial" font-size="14.00" fill="#666666">[varchar(255)]</text>
<polygon fill="none" stroke="#000000" points="809.5,-102.5 809.5,-132.5 1051.5,-132.5 1051.5,-102.5 809.5,-102.5"/>
<text text-anchor="start" x="816.5" y="-113.9" font-family="Arial" font-size="14.00" fill="#000000">survey_id    </text>
<text text-anchor="start" x="910.6024" y="-113.9" font-family="Arial" font-size="14.00" fill="#666666">[bigint]</text>
</g>
<!-- public.student_preferences&#45;&gt;public.teams -->
<g id="edge4" class="edge">
<title>public.student_preferences:team_id&#45;&gt;public.teams:id</title>
<path fill="none" stroke="#000000" d="M766.4958,-726.1115C868.2753,-695.7455 690.3089,-177.5 809.5,-177.5"/>
<polygon fill="#000000" stroke="#000000" points="766.4049,-726.124 755.8808,-723.0428 761.4524,-726.812 756.5,-727.5 756.5,-727.5 756.5,-727.5 761.4524,-726.812 757.1192,-731.9572 766.4049,-726.124 766.4049,-726.124"/>
<text text-anchor="start" x="763.0555" y="-737.5" font-family="Arial" font-size="10.00" fill="#000000">FOREIGN KEY (team_id) REFERENCES teams(id)</text>
</g>
<!-- public.student_dislikes -->
<g id="node2" class="node">
<title>public.student_dislikes</title>
<polygon fill="#efefef" stroke="transparent" points="417.5,-1082.5 417.5,-1117.5 738.5,-1117.5 738.5,-1082.5 417.5,-1082.5"/>
<polygon fill="none" stroke="#000000" points="417.5,-1082.5 417.5,-1117.5 738.5,-1117.5 738.5,-1082.5 417.5,-1082.5"/>
<text text-anchor="start" x="424.1962" y="-1095.3" font-family="Arial Bold" font-size="18.00" fill="#000000">public.student_dislikes</text>
<text text-anchor="start" x="604.2358" y="-1095.3" font-family="Arial" font-size="14.00" fill="#000000">    </text>
<text text-anchor="start" x="638.4406" y="-1095.3" font-family="Arial" font-size="14.00" fill="#666666">[BASE TABLE]</text>
<polygon fill="none" stroke="#000000" points="417.5,-1052.5 417.5,-1082.5 738.5,-1082.5 738.5,-1052.5 417.5,-1052.5"/>
<text text-anchor="start" x="424.5" y="-1063.9" font-family="Arial" font-size="14.00" fill="#000000">id    </text>
<text text-anchor="start" x="469.594" y="-1063.9" font-family="Arial" font-size="14.00" fill="#666666">[bigint]</text>
<polygon fill="none" stroke="#000000" points="417.5,-1022.5 417.5,-1052.5 738.5,-1052.5 738.5,-1022.5 417.5,-1022.5"/>
<text text-anchor="start" x="424.5" y="-1033.9" font-family="Arial" font-size="14.00" fill="#000000">student_id    </text>
<text text-anchor="start" x="523.2882" y="-1033.9" font-family="Arial" font-size="14.00" fill="#666666">[bigint]</text>
<polygon fill="none" stroke="#000000" points="417.5,-992.5 417.5,-1022.5 738.5,-1022.5 738.5,-992.5 417.5,-992.5"/>
<text text-anchor="start" x="424.5" y="-1003.9" font-family="Arial" font-size="14.00" fill="#000000">preference_id    </text>
<text text-anchor="start" x="544.284" y="-1003.9" font-family="Arial" font-size="14.00" fill="#666666">[bigint]</text>
</g>
<!-- public.student_dislikes&#45;&gt;public.student_preferences -->
<g id="edge1" class="edge">
<title>public.student_dislikes:preference_id&#45;&gt;public.student_preferences:id</title>
<path fill="none" stroke="#000000" d="M577.7888,-982.2068C567.3556,-912.3153 444.9743,-983.5976 399.5,-914 376.0406,-878.0958 356.6111,-817.5 399.5,-817.5"/>
<polygon fill="#000000" stroke="#000000" points="577.8106,-982.5238 574.0107,-992.8102 578.1553,-987.5119 578.5,-992.5 578.5,-992.5 578.5,-992.5 578.1553,-987.5119 582.9893,-992.1898 577.8106,-982.5238 577.8106,-982.5238"/>
<text text-anchor="start" x="585.314" y="-1002.5" font-family="Arial" font-size="10.00" fill="#000000">FOREIGN KEY (preference_id) REFERENCES student_preferences(id)</text>
</g>
</g>
</svg>
