<?xml version="1.0" encoding="UTF-8" standalone="no"?>
<!DOCTYPE svg PUBLIC "-//W3C//DTD SVG 1.1//EN"
 "http://www.w3.org/Graphics/SVG/1.1/DTD/svg11.dtd">
<!-- Generated by graphviz version 2.40.1 (20161225.0304)
 -->
<!-- Title: public.teams Pages: 1 -->
<svg width="650pt" height="1319pt"
 viewBox="0.00 0.00 649.50 1319.00" xmlns="http://www.w3.org/2000/svg" xmlns:xlink="http://www.w3.org/1999/xlink">
<g id="graph0" class="graph" transform="scale(1 1) rotate(0) translate(4 1315)">
<title>public.teams</title>
<polygon fill="#ffffff" stroke="transparent" points="-4,4 -4,-1315 645.5,-1315 645.5,4 -4,4"/>
<!-- public.teams -->
<g id="node1" class="node">
<title>public.teams</title>
<polygon fill="#efefef" stroke="transparent" points="284,-592.5 284,-627.5 557,-627.5 557,-592.5 284,-592.5"/>
<polygon fill="none" stroke="#000000" points="284,-592.5 284,-627.5 557,-627.5 557,-592.5 284,-592.5"/>
<text text-anchor="start" x="306.208" y="-605.3" font-family="Arial Bold" font-size="18.00" fill="#000000">public.teams</text>
<text text-anchor="start" x="407.224" y="-605.3" font-family="Arial" font-size="14.00" fill="#000000">    </text>
<text text-anchor="start" x="441.4288" y="-605.3" font-family="Arial" font-size="14.00" fill="#666666">[BASE TABLE]</text>
<polygon fill="none" stroke="#000000" points="284,-562.5 284,-592.5 557,-592.5 557,-562.5 284,-562.5"/>
<text text-anchor="start" x="291" y="-573.9" font-family="Arial" font-size="14.00" fill="#000000">id </text>
<text text-anchor="start" x="305.7798" y="-573.9" font-family="Arial" font-size="14.00" fill="#666666">[bigint]</text>
<polygon fill="none" stroke="#000000" points="284,-532.5 284,-562.5 557,-562.5 557,-532.5 284,-532.5"/>
<text text-anchor="start" x="291" y="-543.9" font-family="Arial" font-size="14.00" fill="#000000">team_id </text>
<text text-anchor="start" x="344.6788" y="-543.9" font-family="Arial" font-size="14.00" fill="#666666">[bigint]</text>
<polygon fill="none" stroke="#000000" points="284,-502.5 284,-532.5 557,-532.5 557,-502.5 284,-502.5"/>
<text text-anchor="start" x="291" y="-513.9" font-family="Arial" font-size="14.00" fill="#000000">name </text>
<text text-anchor="start" x="329.899" y="-513.9" font-family="Arial" font-size="14.00" fill="#666666">[varchar(255)]</text>
<polygon fill="none" stroke="#000000" points="284,-472.5 284,-502.5 557,-502.5 557,-472.5 284,-472.5"/>
<text text-anchor="start" x="291" y="-483.9" font-family="Arial" font-size="14.00" fill="#000000">survey_id </text>
<text text-anchor="start" x="354.7882" y="-483.9" font-family="Arial" font-size="14.00" fill="#666666">[bigint]</text>
<polygon fill="none" stroke="#000000" points="284,-442.5 284,-472.5 557,-472.5 557,-442.5 284,-442.5"/>
<text text-anchor="start" x="291" y="-453.9" font-family="Arial" font-size="14.00" fill="#000000">created_at </text>
<text text-anchor="start" x="361.028" y="-453.9" font-family="Arial" font-size="14.00" fill="#666666">[timestamp without time zone]</text>
<polygon fill="none" stroke="#000000" points="284,-412.5 284,-442.5 557,-442.5 557,-412.5 284,-412.5"/>
<text text-anchor="start" x="290.9636" y="-423.9" font-family="Arial" font-size="14.00" fill="#000000">updated_at </text>
<text text-anchor="start" x="364.8962" y="-423.9" font-family="Arial" font-size="14.00" fill="#666666">[timestamp without time zone]</text>
<polygon fill="none" stroke="#000000" stroke-width="3" points="282,-411.5 282,-629.5 558,-629.5 558,-411.5 282,-411.5"/>
</g>
<!-- public.surveys -->
<g id="node3" class="node">
<title>public.surveys</title>
<polygon fill="#efefef" stroke="transparent" points="269,-252.5 269,-287.5 572,-287.5 572,-252.5 269,-252.5"/>
<polygon fill="none" stroke="#000000" points="269,-252.5 269,-287.5 572,-287.5 572,-252.5 269,-252.5"/>
<text text-anchor="start" x="299.7091" y="-265.3" font-family="Arial Bold" font-size="18.00" fill="#000000">public.surveys</text>
<text text-anchor="start" x="413.7229" y="-265.3" font-family="Arial" font-size="14.00" fill="#000000">    </text>
<text text-anchor="start" x="447.9277" y="-265.3" font-family="Arial" font-size="14.00" fill="#666666">[BASE TABLE]</text>
<polygon fill="none" stroke="#000000" points="269,-222.5 269,-252.5 572,-252.5 572,-222.5 269,-222.5"/>
<text text-anchor="start" x="276" y="-233.9" font-family="Arial" font-size="14.00" fill="#000000">id    </text>
<text text-anchor="start" x="321.094" y="-233.9" font-family="Arial" font-size="14.00" fill="#666666">[bigint]</text>
<polygon fill="none" stroke="#000000" points="269,-192.5 269,-222.5 572,-222.5 572,-192.5 269,-192.5"/>
<text text-anchor="start" x="276" y="-203.9" font-family="Arial" font-size="14.00" fill="#000000">proxy_uuid    </text>
<text text-anchor="start" x="378.6676" y="-203.9" font-family="Arial" font-size="14.00" fill="#666666">[character(36)]</text>
<polygon fill="none" stroke="#000000" points="269,-162.5 269,-192.5 572,-192.5 572,-162.5 269,-162.5"/>
<text text-anchor="start" x="276" y="-173.9" font-family="Arial" font-size="14.00" fill="#000000">name    </text>
<text text-anchor="start" x="345.2132" y="-173.9" font-family="Arial" font-size="14.00" fill="#666666">[varchar(255)]</text>
<polygon fill="none" stroke="#000000" points="269,-132.5 269,-162.5 572,-162.5 572,-132.5 269,-132.5"/>
<text text-anchor="start" x="276" y="-143.9" font-family="Arial" font-size="14.00" fill="#000000">status    </text>
<text text-anchor="start" x="347.5512" y="-143.9" font-family="Arial" font-size="14.00" fill="#666666">[integer]</text>
<polygon fill="none" stroke="#000000" points="269,-102.5 269,-132.5 572,-132.5 572,-102.5 269,-102.5"/>
<text text-anchor="start" x="276" y="-113.9" font-family="Arial" font-size="14.00" fill="#000000">class_id    </text>
<text text-anchor="start" x="360.7658" y="-113.9" font-family="Arial" font-size="14.00" fill="#666666">[bigint]</text>
<polygon fill="none" stroke="#000000" points="269,-72.5 269,-102.5 572,-102.5 572,-72.5 269,-72.5"/>
<text text-anchor="start" x="276" y="-83.9" font-family="Arial" font-size="14.00" fill="#000000">created_at    </text>
<text text-anchor="start" x="376.3422" y="-83.9" font-family="Arial" font-size="14.00" fill="#666666">[timestamp without time zone]</text>
<polygon fill="none" stroke="#000000" points="269,-42.5 269,-72.5 572,-72.5 572,-42.5 269,-42.5"/>
<text text-anchor="start" x="275.8065" y="-53.9" font-family="Arial" font-size="14.00" fill="#000000">updated_at    </text>
<text text-anchor="start" x="380.0533" y="-53.9" font-family="Arial" font-size="14.00" fill="#666666">[timestamp without time zone]</text>
</g>
<!-- public.teams&#45;&gt;public.surveys -->
<g id="edge2" class="edge">
<title>public.teams:survey_id&#45;&gt;public.surveys:id</title>
<path fill="none" stroke="#000000" d="M273.8477,-486.7828C171.8749,-472.1191 161.1675,-237.5 269,-237.5"/>
<polygon fill="#000000" stroke="#000000" points="274.0249,-486.7953 283.6829,-491.9888 279.0124,-487.1476 284,-487.5 284,-487.5 284,-487.5 279.0124,-487.1476 284.3171,-483.0112 274.0249,-486.7953 274.0249,-486.7953"/>
<text text-anchor="start" x="34.3345" y="-497.5" font-family="Arial" font-size="10.00" fill="#000000">FOREIGN KEY (survey_id) REFERENCES surveys(id)</text>
</g>
<!-- public.student_preferences -->
<g id="node2" class="node">
<title>public.student_preferences</title>
<polygon fill="#efefef" stroke="transparent" points="242,-1232.5 242,-1267.5 599,-1267.5 599,-1232.5 242,-1232.5"/>
<polygon fill="none" stroke="#000000" points="242,-1232.5 242,-1267.5 599,-1267.5 599,-1232.5 242,-1232.5"/>
<text text-anchor="start" x="248.6818" y="-1245.3" font-family="Arial Bold" font-size="18.00" fill="#000000">public.student_preferences</text>
<text text-anchor="start" x="464.7502" y="-1245.3" font-family="Arial" font-size="14.00" fill="#000000">    </text>
<text text-anchor="start" x="498.955" y="-1245.3" font-family="Arial" font-size="14.00" fill="#666666">[BASE TABLE]</text>
<polygon fill="none" stroke="#000000" points="242,-1202.5 242,-1232.5 599,-1232.5 599,-1202.5 242,-1202.5"/>
<text text-anchor="start" x="249" y="-1213.9" font-family="Arial" font-size="14.00" fill="#000000">id    </text>
<text text-anchor="start" x="294.094" y="-1213.9" font-family="Arial" font-size="14.00" fill="#666666">[bigint]</text>
<polygon fill="none" stroke="#000000" points="242,-1172.5 242,-1202.5 599,-1202.5 599,-1172.5 242,-1172.5"/>
<text text-anchor="start" x="249" y="-1183.9" font-family="Arial" font-size="14.00" fill="#000000">student_id    </text>
<text text-anchor="start" x="347.7882" y="-1183.9" font-family="Arial" font-size="14.00" fill="#666666">[bigint]</text>
<polygon fill="none" stroke="#000000" points="242,-1142.5 242,-1172.5 599,-1172.5 599,-1142.5 242,-1142.5"/>
<text text-anchor="start" x="249" y="-1153.9" font-family="Arial" font-size="14.00" fill="#000000">survey_id    </text>
<text text-anchor="start" x="343.1024" y="-1153.9" font-family="Arial" font-size="14.00" fill="#666666">[bigint]</text>
<polygon fill="none" stroke="#000000" points="242,-1112.5 242,-1142.5 599,-1142.5 599,-1112.5 242,-1112.5"/>
<text text-anchor="start" x="249" y="-1123.9" font-family="Arial" font-size="14.00" fill="#000000">team_id    </text>
<text text-anchor="start" x="332.993" y="-1123.9" font-family="Arial" font-size="14.00" fill="#666666">[bigint]</text>
<polygon fill="none" stroke="#000000" points="242,-1082.5 242,-1112.5 599,-1112.5 599,-1082.5 242,-1082.5"/>
<text text-anchor="start" x="249" y="-1093.9" font-family="Arial" font-size="14.00" fill="#000000">mi_a    </text>
<text text-anchor="start" x="313.5372" y="-1093.9" font-family="Arial" font-size="14.00" fill="#666666">[integer]</text>
<polygon fill="none" stroke="#000000" points="242,-1052.5 242,-1082.5 599,-1082.5 599,-1052.5 242,-1052.5"/>
<text text-anchor="start" x="249" y="-1063.9" font-family="Arial" font-size="14.00" fill="#000000">mi_b    </text>
<text text-anchor="start" x="313.5372" y="-1063.9" font-family="Arial" font-size="14.00" fill="#666666">[integer]</text>
<polygon fill="none" stroke="#000000" points="242,-1022.5 242,-1052.5 599,-1052.5 599,-1022.5 242,-1022.5"/>
<text text-anchor="start" x="249" y="-1033.9" font-family="Arial" font-size="14.00" fill="#000000">mi_c    </text>
<text text-anchor="start" x="312.7546" y="-1033.9" font-family="Arial" font-size="14.00" fill="#666666">[integer]</text>
<polygon fill="none" stroke="#000000" points="242,-992.5 242,-1022.5 599,-1022.5 599,-992.5 242,-992.5"/>
<text text-anchor="start" x="249" y="-1003.9" font-family="Arial" font-size="14.00" fill="#000000">mi_d    </text>
<text text-anchor="start" x="313.5372" y="-1003.9" font-family="Arial" font-size="14.00" fill="#666666">[integer]</text>
<polygon fill="none" stroke="#000000" points="242,-962.5 242,-992.5 599,-992.5 599,-962.5 242,-962.5"/>
<text text-anchor="start" x="249" y="-973.9" font-family="Arial" font-size="14.00" fill="#000000">mi_e    </text>
<text text-anchor="start" x="313.5372" y="-973.9" font-family="Arial" font-size="14.00" fill="#666666">[integer]</text>
<polygon fill="none" stroke="#000000" points="242,-932.5 242,-962.5 599,-962.5 599,-932.5 242,-932.5"/>
<text text-anchor="start" x="249" y="-943.9" font-family="Arial" font-size="14.00" fill="#000000">mi_f    </text>
<text text-anchor="start" x="309.6452" y="-943.9" font-family="Arial" font-size="14.00" fill="#666666">[integer]</text>
<polygon fill="none" stroke="#000000" points="242,-902.5 242,-932.5 599,-932.5 599,-902.5 242,-902.5"/>
<text text-anchor="start" x="249" y="-913.9" font-family="Arial" font-size="14.00" fill="#000000">mi_g    </text>
<text text-anchor="start" x="313.5372" y="-913.9" font-family="Arial" font-size="14.00" fill="#666666">[integer]</text>
<polygon fill="none" stroke="#000000" points="242,-872.5 242,-902.5 599,-902.5 599,-872.5 242,-872.5"/>
<text text-anchor="start" x="249" y="-883.9" font-family="Arial" font-size="14.00" fill="#000000">mi_h    </text>
<text text-anchor="start" x="313.5372" y="-883.9" font-family="Arial" font-size="14.00" fill="#666666">[integer]</text>
<polygon fill="none" stroke="#000000" points="242,-842.5 242,-872.5 599,-872.5 599,-842.5 242,-842.5"/>
<text text-anchor="start" x="249" y="-853.9" font-family="Arial" font-size="14.00" fill="#000000">leader    </text>
<text text-anchor="start" x="322.1024" y="-853.9" font-family="Arial" font-size="14.00" fill="#666666">[integer]</text>
<polygon fill="none" stroke="#000000" points="242,-812.5 242,-842.5 599,-842.5 599,-812.5 242,-812.5"/>
<text text-anchor="start" x="249" y="-823.9" font-family="Arial" font-size="14.00" fill="#000000">eyesight    </text>
<text text-anchor="start" x="335.3324" y="-823.9" font-family="Arial" font-size="14.00" fill="#666666">[integer]</text>
<polygon fill="none" stroke="#000000" points="242,-782.5 242,-812.5 599,-812.5 599,-782.5 242,-782.5"/>
<text text-anchor="start" x="249" y="-793.9" font-family="Arial" font-size="14.00" fill="#000000">created_at    </text>
<text text-anchor="start" x="349.3422" y="-793.9" font-family="Arial" font-size="14.00" fill="#666666">[timestamp without time zone]</text>
<polygon fill="none" stroke="#000000" points="242,-752.5 242,-782.5 599,-782.5 599,-752.5 242,-752.5"/>
<text text-anchor="start" x="249" y="-763.9" font-family="Arial" font-size="14.00" fill="#000000">updated_at    </text>
<text text-anchor="start" x="353.2468" y="-763.9" font-family="Arial" font-size="14.00" fill="#666666">[timestamp without time zone]</text>
</g>
<!-- public.student_preferences&#45;&gt;public.teams -->
<g id="edge1" class="edge">
<title>public.student_preferences:team_id&#45;&gt;public.teams:id</title>
<path fill="none" stroke="#000000" d="M231.9797,-1126.2016C121.8655,-1096.7888 164.8934,-577.5 284,-577.5"/>
<polygon fill="#000000" stroke="#000000" points="232.0829,-1126.2149 241.4217,-1131.9627 237.0415,-1126.8575 242,-1127.5 242,-1127.5 242,-1127.5 237.0415,-1126.8575 242.5783,-1123.0373 232.0829,-1126.2149 232.0829,-1126.2149"/>
<text text-anchor="start" x="6.5555" y="-1137.5" font-family="Arial" font-size="10.00" fill="#000000">FOREIGN KEY (team_id) REFERENCES teams(id)</text>
</g>
</g>
</svg>
