<?xml version="1.0" encoding="UTF-8" standalone="no"?>
<!DOCTYPE svg PUBLIC "-//W3C//DTD SVG 1.1//EN"
 "http://www.w3.org/Graphics/SVG/1.1/DTD/svg11.dtd">
<!-- Generated by graphviz version 2.40.1 (20161225.0304)
 -->
<!-- Title: public.teachers Pages: 1 -->
<svg width="619pt" height="1139pt"
 viewBox="0.00 0.00 618.50 1139.00" xmlns="http://www.w3.org/2000/svg" xmlns:xlink="http://www.w3.org/1999/xlink">
<g id="graph0" class="graph" transform="scale(1 1) rotate(0) translate(4 1135)">
<title>public.teachers</title>
<polygon fill="#ffffff" stroke="transparent" points="-4,4 -4,-1135 614.5,-1135 614.5,4 -4,4"/>
<!-- public.teachers -->
<g id="node1" class="node">
<title>public.teachers</title>
<polygon fill="#efefef" stroke="transparent" points="280,-742.5 280,-777.5 553,-777.5 553,-742.5 280,-742.5"/>
<polygon fill="none" stroke="#000000" points="280,-742.5 280,-777.5 553,-777.5 553,-742.5 280,-742.5"/>
<text text-anchor="start" x="292.2018" y="-755.3" font-family="Arial Bold" font-size="18.00" fill="#000000">public.teachers</text>
<text text-anchor="start" x="413.2302" y="-755.3" font-family="Arial" font-size="14.00" fill="#000000">    </text>
<text text-anchor="start" x="447.435" y="-755.3" font-family="Arial" font-size="14.00" fill="#666666">[BASE TABLE]</text>
<polygon fill="none" stroke="#000000" points="280,-712.5 280,-742.5 553,-742.5 553,-712.5 280,-712.5"/>
<text text-anchor="start" x="287" y="-723.9" font-family="Arial" font-size="14.00" fill="#000000">id </text>
<text text-anchor="start" x="301.7798" y="-723.9" font-family="Arial" font-size="14.00" fill="#666666">[bigint]</text>
<polygon fill="none" stroke="#000000" points="280,-682.5 280,-712.5 553,-712.5 553,-682.5 280,-682.5"/>
<text text-anchor="start" x="287" y="-693.9" font-family="Arial" font-size="14.00" fill="#000000">name </text>
<text text-anchor="start" x="325.899" y="-693.9" font-family="Arial" font-size="14.00" fill="#666666">[varchar(255)]</text>
<polygon fill="none" stroke="#000000" points="280,-652.5 280,-682.5 553,-682.5 553,-652.5 280,-652.5"/>
<text text-anchor="start" x="287" y="-663.9" font-family="Arial" font-size="14.00" fill="#000000">family_name </text>
<text text-anchor="start" x="370.2286" y="-663.9" font-family="Arial" font-size="14.00" fill="#666666">[varchar(255)]</text>
<polygon fill="none" stroke="#000000" points="280,-622.5 280,-652.5 553,-652.5 553,-622.5 280,-622.5"/>
<text text-anchor="start" x="287" y="-633.9" font-family="Arial" font-size="14.00" fill="#000000">given_name </text>
<text text-anchor="start" x="367.136" y="-633.9" font-family="Arial" font-size="14.00" fill="#666666">[varchar(255)]</text>
<polygon fill="none" stroke="#000000" points="280,-592.5 280,-622.5 553,-622.5 553,-592.5 280,-592.5"/>
<text text-anchor="start" x="287" y="-603.9" font-family="Arial" font-size="14.00" fill="#000000">school_id </text>
<text text-anchor="start" x="350.0168" y="-603.9" font-family="Arial" font-size="14.00" fill="#666666">[bigint]</text>
<polygon fill="none" stroke="#000000" points="280,-562.5 280,-592.5 553,-592.5 553,-562.5 280,-562.5"/>
<text text-anchor="start" x="287" y="-573.9" font-family="Arial" font-size="14.00" fill="#000000">email </text>
<text text-anchor="start" x="324.3296" y="-573.9" font-family="Arial" font-size="14.00" fill="#666666">[varchar(255)]</text>
<polygon fill="none" stroke="#000000" points="280,-532.5 280,-562.5 553,-562.5 553,-532.5 280,-532.5"/>
<text text-anchor="start" x="287" y="-543.9" font-family="Arial" font-size="14.00" fill="#000000">status </text>
<text text-anchor="start" x="328.237" y="-543.9" font-family="Arial" font-size="14.00" fill="#666666">[integer]</text>
<polygon fill="none" stroke="#000000" points="280,-502.5 280,-532.5 553,-532.5 553,-502.5 280,-502.5"/>
<text text-anchor="start" x="287" y="-513.9" font-family="Arial" font-size="14.00" fill="#000000">created_at </text>
<text text-anchor="start" x="357.028" y="-513.9" font-family="Arial" font-size="14.00" fill="#666666">[timestamp without time zone]</text>
<polygon fill="none" stroke="#000000" points="280,-472.5 280,-502.5 553,-502.5 553,-472.5 280,-472.5"/>
<text text-anchor="start" x="286.9636" y="-483.9" font-family="Arial" font-size="14.00" fill="#000000">updated_at </text>
<text text-anchor="start" x="360.8962" y="-483.9" font-family="Arial" font-size="14.00" fill="#666666">[timestamp without time zone]</text>
<polygon fill="none" stroke="#000000" points="280,-442.5 280,-472.5 553,-472.5 553,-442.5 280,-442.5"/>
<text text-anchor="start" x="287" y="-453.9" font-family="Arial" font-size="14.00" fill="#000000">expired_at </text>
<text text-anchor="start" x="356.244" y="-453.9" font-family="Arial" font-size="14.00" fill="#666666">[timestamp without time zone]</text>
<polygon fill="none" stroke="#000000" stroke-width="3" points="278,-441.5 278,-779.5 554,-779.5 554,-441.5 278,-441.5"/>
</g>
<!-- public.schools -->
<g id="node3" class="node">
<title>public.schools</title>
<polygon fill="#efefef" stroke="transparent" points="265,-282.5 265,-317.5 568,-317.5 568,-282.5 265,-282.5"/>
<polygon fill="none" stroke="#000000" points="265,-282.5 265,-317.5 568,-317.5 568,-282.5 265,-282.5"/>
<text text-anchor="start" x="296.205" y="-295.3" font-family="Arial Bold" font-size="18.00" fill="#000000">public.schools</text>
<text text-anchor="start" x="409.227" y="-295.3" font-family="Arial" font-size="14.00" fill="#000000">    </text>
<text text-anchor="start" x="443.4318" y="-295.3" font-family="Arial" font-size="14.00" fill="#666666">[BASE TABLE]</text>
<polygon fill="none" stroke="#000000" points="265,-252.5 265,-282.5 568,-282.5 568,-252.5 265,-252.5"/>
<text text-anchor="start" x="272" y="-263.9" font-family="Arial" font-size="14.00" fill="#000000">id    </text>
<text text-anchor="start" x="317.094" y="-263.9" font-family="Arial" font-size="14.00" fill="#666666">[bigint]</text>
<polygon fill="none" stroke="#000000" points="265,-222.5 265,-252.5 568,-252.5 568,-222.5 265,-222.5"/>
<text text-anchor="start" x="272" y="-233.9" font-family="Arial" font-size="14.00" fill="#000000">name    </text>
<text text-anchor="start" x="341.2132" y="-233.9" font-family="Arial" font-size="14.00" fill="#666666">[varchar(255)]</text>
<polygon fill="none" stroke="#000000" points="265,-192.5 265,-222.5 568,-222.5 568,-192.5 265,-192.5"/>
<text text-anchor="start" x="272" y="-203.9" font-family="Arial" font-size="14.00" fill="#000000">postal_code    </text>
<text text-anchor="start" x="381.6802" y="-203.9" font-family="Arial" font-size="14.00" fill="#666666">[varchar(255)]</text>
<polygon fill="none" stroke="#000000" points="265,-162.5 265,-192.5 568,-192.5 568,-162.5 265,-162.5"/>
<text text-anchor="start" x="272" y="-173.9" font-family="Arial" font-size="14.00" fill="#000000">prefecture    </text>
<text text-anchor="start" x="369.2202" y="-173.9" font-family="Arial" font-size="14.00" fill="#666666">[varchar(255)]</text>
<polygon fill="none" stroke="#000000" points="265,-132.5 265,-162.5 568,-162.5 568,-132.5 265,-132.5"/>
<text text-anchor="start" x="272" y="-143.9" font-family="Arial" font-size="14.00" fill="#000000">city    </text>
<text text-anchor="start" x="327.202" y="-143.9" font-family="Arial" font-size="14.00" fill="#666666">[varchar(255)]</text>
<polygon fill="none" stroke="#000000" points="265,-102.5 265,-132.5 568,-132.5 568,-102.5 265,-102.5"/>
<text text-anchor="start" x="272" y="-113.9" font-family="Arial" font-size="14.00" fill="#000000">address    </text>
<text text-anchor="start" x="355.9958" y="-113.9" font-family="Arial" font-size="14.00" fill="#666666">[varchar(255)]</text>
<polygon fill="none" stroke="#000000" points="265,-72.5 265,-102.5 568,-102.5 568,-72.5 265,-72.5"/>
<text text-anchor="start" x="272" y="-83.9" font-family="Arial" font-size="14.00" fill="#000000">created_at    </text>
<text text-anchor="start" x="372.3422" y="-83.9" font-family="Arial" font-size="14.00" fill="#666666">[timestamp without time zone]</text>
<polygon fill="none" stroke="#000000" points="265,-42.5 265,-72.5 568,-72.5 568,-42.5 265,-42.5"/>
<text text-anchor="start" x="271.8065" y="-53.9" font-family="Arial" font-size="14.00" fill="#000000">updated_at    </text>
<text text-anchor="start" x="376.0533" y="-53.9" font-family="Arial" font-size="14.00" fill="#666666">[timestamp without time zone]</text>
</g>
<!-- public.teachers&#45;&gt;public.schools -->
<g id="edge2" class="edge">
<title>public.teachers:school_id&#45;&gt;public.schools:id</title>
<path fill="none" stroke="#000000" d="M270.1776,-605.5033C203.2062,-577.6392 192.7683,-267.5 265,-267.5"/>
<polygon fill="#000000" stroke="#000000" points="270.2004,-605.5079 279.1035,-611.9098 275.1002,-606.5039 280,-607.5 280,-607.5 280,-607.5 275.1002,-606.5039 280.8965,-603.0902 270.2004,-605.5079 270.2004,-605.5079"/>
<text text-anchor="start" x="30.8855" y="-617.5" font-family="Arial" font-size="10.00" fill="#000000">FOREIGN KEY (school_id) REFERENCES schools(id)</text>
</g>
<!-- public.classes -->
<g id="node2" class="node">
<title>public.classes</title>
<polygon fill="#efefef" stroke="transparent" points="265,-1052.5 265,-1087.5 568,-1087.5 568,-1052.5 265,-1052.5"/>
<polygon fill="none" stroke="#000000" points="265,-1052.5 265,-1087.5 568,-1087.5 568,-1052.5 265,-1052.5"/>
<text text-anchor="start" x="296.7081" y="-1065.3" font-family="Arial Bold" font-size="18.00" fill="#000000">public.classes</text>
<text text-anchor="start" x="408.7239" y="-1065.3" font-family="Arial" font-size="14.00" fill="#000000">    </text>
<text text-anchor="start" x="442.9287" y="-1065.3" font-family="Arial" font-size="14.00" fill="#666666">[BASE TABLE]</text>
<polygon fill="none" stroke="#000000" points="265,-1022.5 265,-1052.5 568,-1052.5 568,-1022.5 265,-1022.5"/>
<text text-anchor="start" x="272" y="-1033.9" font-family="Arial" font-size="14.00" fill="#000000">id    </text>
<text text-anchor="start" x="317.094" y="-1033.9" font-family="Arial" font-size="14.00" fill="#666666">[bigint]</text>
<polygon fill="none" stroke="#000000" points="265,-992.5 265,-1022.5 568,-1022.5 568,-992.5 265,-992.5"/>
<text text-anchor="start" x="272" y="-1003.9" font-family="Arial" font-size="14.00" fill="#000000">name    </text>
<text text-anchor="start" x="341.2132" y="-1003.9" font-family="Arial" font-size="14.00" fill="#666666">[varchar(255)]</text>
<polygon fill="none" stroke="#000000" points="265,-962.5 265,-992.5 568,-992.5 568,-962.5 265,-962.5"/>
<text text-anchor="start" x="272" y="-973.9" font-family="Arial" font-size="14.00" fill="#000000">teacher_id    </text>
<text text-anchor="start" x="371.5582" y="-973.9" font-family="Arial" font-size="14.00" fill="#666666">[bigint]</text>
<polygon fill="none" stroke="#000000" points="265,-932.5 265,-962.5 568,-962.5 568,-932.5 265,-932.5"/>
<text text-anchor="start" x="272" y="-943.9" font-family="Arial" font-size="14.00" fill="#000000">created_at    </text>
<text text-anchor="start" x="372.3422" y="-943.9" font-family="Arial" font-size="14.00" fill="#666666">[timestamp without time zone]</text>
<polygon fill="none" stroke="#000000" points="265,-902.5 265,-932.5 568,-932.5 568,-902.5 265,-902.5"/>
<text text-anchor="start" x="271.8065" y="-913.9" font-family="Arial" font-size="14.00" fill="#000000">updated_at    </text>
<text text-anchor="start" x="376.0533" y="-913.9" font-family="Arial" font-size="14.00" fill="#666666">[timestamp without time zone]</text>
</g>
<!-- public.classes&#45;&gt;public.teachers -->
<g id="edge1" class="edge">
<title>public.classes:teacher_id&#45;&gt;public.teachers:id</title>
<path fill="none" stroke="#000000" d="M254.9337,-976.7828C154.7206,-962.1191 172.1675,-727.5 280,-727.5"/>
<polygon fill="#000000" stroke="#000000" points="255.0253,-976.7893 264.6802,-981.9886 260.0126,-977.1446 265,-977.5 265,-977.5 265,-977.5 260.0126,-977.1446 265.3198,-973.0114 255.0253,-976.7893 255.0253,-976.7893"/>
<text text-anchor="start" x="7.4375" y="-987.5" font-family="Arial" font-size="10.00" fill="#000000">FOREIGN KEY (teacher_id) REFERENCES teachers(id)</text>
</g>
</g>
</svg>
