<?xml version="1.0" encoding="UTF-8" standalone="no"?>
<!DOCTYPE svg PUBLIC "-//W3C//DTD SVG 1.1//EN"
 "http://www.w3.org/Graphics/SVG/1.1/DTD/svg11.dtd">
<!-- Generated by graphviz version 2.40.1 (20161225.0304)
 -->
<!-- Title: public.dislikes Pages: 1 -->
<svg width="813pt" height="622pt"
 viewBox="0.00 0.00 813.00 622.00" xmlns="http://www.w3.org/2000/svg" xmlns:xlink="http://www.w3.org/1999/xlink">
<g id="graph0" class="graph" transform="scale(1 1) rotate(0) translate(4 618)">
<title>public.dislikes</title>
<polygon fill="#ffffff" stroke="transparent" points="-4,4 -4,-618 809,-618 809,4 -4,4"/>
<!-- public.dislikes -->
<g id="node1" class="node">
<title>public.dislikes</title>
<polygon fill="#efefef" stroke="transparent" points="319,-532.5 319,-567.5 541,-567.5 541,-532.5 319,-532.5"/>
<polygon fill="none" stroke="#000000" points="319,-532.5 319,-567.5 541,-567.5 541,-532.5 319,-532.5"/>
<text text-anchor="start" x="325.871" y="-545.3" font-family="Arial Bold" font-size="18.00" fill="#000000">public.dislikes</text>
<text text-anchor="start" x="436.8752" y="-545.3" font-family="Arial" font-size="14.00" fill="#000000"> </text>
<text text-anchor="start" x="440.7658" y="-545.3" font-family="Arial" font-size="14.00" fill="#666666">[BASE TABLE]</text>
<polygon fill="none" stroke="#000000" points="319,-502.5 319,-532.5 541,-532.5 541,-502.5 319,-502.5"/>
<text text-anchor="start" x="326" y="-513.9" font-family="Arial" font-size="14.00" fill="#000000">id </text>
<text text-anchor="start" x="340.7798" y="-513.9" font-family="Arial" font-size="14.00" fill="#666666">[integer]</text>
<polygon fill="none" stroke="#000000" points="319,-472.5 319,-502.5 541,-502.5 541,-472.5 319,-472.5"/>
<text text-anchor="start" x="326" y="-483.9" font-family="Arial" font-size="14.00" fill="#000000">student_flavor_id </text>
<text text-anchor="start" x="436.4796" y="-483.9" font-family="Arial" font-size="14.00" fill="#666666">[bigint]</text>
<polygon fill="none" stroke="#000000" points="319,-442.5 319,-472.5 541,-472.5 541,-442.5 319,-442.5"/>
<text text-anchor="start" x="326" y="-453.9" font-family="Arial" font-size="14.00" fill="#000000">student_id </text>
<text text-anchor="start" x="394.474" y="-453.9" font-family="Arial" font-size="14.00" fill="#666666">[bigint]</text>
<polygon fill="none" stroke="#000000" stroke-width="3" points="317.5,-441.5 317.5,-569.5 542.5,-569.5 542.5,-441.5 317.5,-441.5"/>
</g>
<!-- public.student_flavor -->
<g id="node2" class="node">
<title>public.student_flavor</title>
<polygon fill="#efefef" stroke="transparent" points="102,-252.5 102,-287.5 378,-287.5 378,-252.5 102,-252.5"/>
<polygon fill="none" stroke="#000000" points="102,-252.5 102,-287.5 378,-287.5 378,-252.5 102,-252.5"/>
<text text-anchor="start" x="108.8503" y="-265.3" font-family="Arial Bold" font-size="18.00" fill="#000000">public.student_flavor</text>
<text text-anchor="start" x="273.8959" y="-265.3" font-family="Arial" font-size="14.00" fill="#000000"> </text>
<text text-anchor="start" x="277.7865" y="-265.3" font-family="Arial" font-size="14.00" fill="#666666">[BASE TABLE]</text>
<polygon fill="none" stroke="#000000" points="102,-222.5 102,-252.5 378,-252.5 378,-222.5 102,-222.5"/>
<text text-anchor="start" x="109" y="-233.9" font-family="Arial" font-size="14.00" fill="#000000">id </text>
<text text-anchor="start" x="123.7798" y="-233.9" font-family="Arial" font-size="14.00" fill="#666666">[integer]</text>
<polygon fill="none" stroke="#000000" points="102,-192.5 102,-222.5 378,-222.5 378,-192.5 102,-192.5"/>
<text text-anchor="start" x="109" y="-203.9" font-family="Arial" font-size="14.00" fill="#000000">team_id </text>
<text text-anchor="start" x="162.6788" y="-203.9" font-family="Arial" font-size="14.00" fill="#666666">[bigint]</text>
<polygon fill="none" stroke="#000000" points="102,-162.5 102,-192.5 378,-192.5 378,-162.5 102,-162.5"/>
<text text-anchor="start" x="109" y="-173.9" font-family="Arial" font-size="14.00" fill="#000000">student_id </text>
<text text-anchor="start" x="177.474" y="-173.9" font-family="Arial" font-size="14.00" fill="#666666">[bigint]</text>
<polygon fill="none" stroke="#000000" points="102,-132.5 102,-162.5 378,-162.5 378,-132.5 102,-132.5"/>
<text text-anchor="start" x="109" y="-143.9" font-family="Arial" font-size="14.00" fill="#000000">flavor_id </text>
<text text-anchor="start" x="165.7854" y="-143.9" font-family="Arial" font-size="14.00" fill="#666666">[bigint]</text>
<polygon fill="none" stroke="#000000" points="102,-102.5 102,-132.5 378,-132.5 378,-102.5 102,-102.5"/>
<text text-anchor="start" x="109" y="-113.9" font-family="Arial" font-size="14.00" fill="#000000">created_at </text>
<text text-anchor="start" x="179.028" y="-113.9" font-family="Arial" font-size="14.00" fill="#666666">[timestamp without time zone]</text>
<polygon fill="none" stroke="#000000" points="102,-72.5 102,-102.5 378,-102.5 378,-72.5 102,-72.5"/>
<text text-anchor="start" x="109" y="-83.9" font-family="Arial" font-size="14.00" fill="#000000">updated_at </text>
<text text-anchor="start" x="182.9326" y="-83.9" font-family="Arial" font-size="14.00" fill="#666666">[timestamp without time zone]</text>
</g>
<!-- public.dislikes&#45;&gt;public.student_flavor -->
<g id="edge1" class="edge">
<title>public.dislikes:student_flavor_id&#45;&gt;public.student_flavor:id</title>
<path fill="none" stroke="#000000" d="M309.0349,-486.0494C283.7216,-477.3097 306.054,-430.9069 319,-397 333.0343,-360.2428 363.9657,-367.7572 378,-331 392.8227,-292.1779 419.5556,-237.5 378,-237.5"/>
<polygon fill="#000000" stroke="#000000" points="309.1043,-486.0594 318.3517,-491.9531 314.0521,-486.7797 319,-487.5 319,-487.5 319,-487.5 314.0521,-486.7797 319.6483,-483.0469 309.1043,-486.0594 309.1043,-486.0594"/>
<text text-anchor="start" x="7.4835" y="-497.5" font-family="Arial" font-size="10.00" fill="#000000">FOREIGN KEY (student_flavor_id) REFERENCES student_flavor(id)</text>
</g>
<!-- public.students -->
<g id="node3" class="node">
<title>public.students</title>
<polygon fill="#efefef" stroke="transparent" points="483,-282.5 483,-317.5 756,-317.5 756,-282.5 483,-282.5"/>
<polygon fill="none" stroke="#000000" points="483,-282.5 483,-317.5 756,-317.5 756,-282.5 483,-282.5"/>
<text text-anchor="start" x="510.8539" y="-295.3" font-family="Arial Bold" font-size="18.00" fill="#000000">public.students</text>
<text text-anchor="start" x="630.8923" y="-295.3" font-family="Arial" font-size="14.00" fill="#000000"> </text>
<text text-anchor="start" x="634.7829" y="-295.3" font-family="Arial" font-size="14.00" fill="#666666">[BASE TABLE]</text>
<polygon fill="none" stroke="#000000" points="483,-252.5 483,-282.5 756,-282.5 756,-252.5 483,-252.5"/>
<text text-anchor="start" x="490" y="-263.9" font-family="Arial" font-size="14.00" fill="#000000">id </text>
<text text-anchor="start" x="504.7798" y="-263.9" font-family="Arial" font-size="14.00" fill="#666666">[integer]</text>
<polygon fill="none" stroke="#000000" points="483,-222.5 483,-252.5 756,-252.5 756,-222.5 483,-222.5"/>
<text text-anchor="start" x="490" y="-233.9" font-family="Arial" font-size="14.00" fill="#000000">name </text>
<text text-anchor="start" x="528.899" y="-233.9" font-family="Arial" font-size="14.00" fill="#666666">[varchar(255)]</text>
<polygon fill="none" stroke="#000000" points="483,-192.5 483,-222.5 756,-222.5 756,-192.5 483,-192.5"/>
<text text-anchor="start" x="490" y="-203.9" font-family="Arial" font-size="14.00" fill="#000000">sex </text>
<text text-anchor="start" x="515.6732" y="-203.9" font-family="Arial" font-size="14.00" fill="#666666">[integer]</text>
<polygon fill="none" stroke="#000000" points="483,-162.5 483,-192.5 756,-192.5 756,-162.5 483,-162.5"/>
<text text-anchor="start" x="490" y="-173.9" font-family="Arial" font-size="14.00" fill="#000000">class_id </text>
<text text-anchor="start" x="544.4516" y="-173.9" font-family="Arial" font-size="14.00" fill="#666666">[bigint]</text>
<polygon fill="none" stroke="#000000" points="483,-132.5 483,-162.5 756,-162.5 756,-132.5 483,-132.5"/>
<text text-anchor="start" x="490" y="-143.9" font-family="Arial" font-size="14.00" fill="#000000">family_name </text>
<text text-anchor="start" x="573.2286" y="-143.9" font-family="Arial" font-size="14.00" fill="#666666">[varchar(255)]</text>
<polygon fill="none" stroke="#000000" points="483,-102.5 483,-132.5 756,-132.5 756,-102.5 483,-102.5"/>
<text text-anchor="start" x="490" y="-113.9" font-family="Arial" font-size="14.00" fill="#000000">given_name </text>
<text text-anchor="start" x="570.136" y="-113.9" font-family="Arial" font-size="14.00" fill="#666666">[varchar(255)]</text>
<polygon fill="none" stroke="#000000" points="483,-72.5 483,-102.5 756,-102.5 756,-72.5 483,-72.5"/>
<text text-anchor="start" x="490" y="-83.9" font-family="Arial" font-size="14.00" fill="#000000">created_at </text>
<text text-anchor="start" x="560.028" y="-83.9" font-family="Arial" font-size="14.00" fill="#666666">[timestamp without time zone]</text>
<polygon fill="none" stroke="#000000" points="483,-42.5 483,-72.5 756,-72.5 756,-42.5 483,-42.5"/>
<text text-anchor="start" x="489.9636" y="-53.9" font-family="Arial" font-size="14.00" fill="#000000">updated_at </text>
<text text-anchor="start" x="563.8962" y="-53.9" font-family="Arial" font-size="14.00" fill="#666666">[timestamp without time zone]</text>
</g>
<!-- public.dislikes&#45;&gt;public.students -->
<g id="edge2" class="edge">
<title>public.dislikes:student_id&#45;&gt;public.students:id</title>
<path fill="none" stroke="#000000" d="M550.7809,-454.9826C563.5891,-446.2665 552.029,-416.8263 541,-397 526.2511,-370.4865 497.7489,-387.5135 483,-361 462.7988,-324.6851 441.4444,-267.5 483,-267.5"/>
<polygon fill="#000000" stroke="#000000" points="550.6844,-455.0073 539.8783,-453.142 545.8422,-456.2537 541,-457.5 541,-457.5 541,-457.5 545.8422,-456.2537 542.1217,-461.858 550.6844,-455.0073 550.6844,-455.0073"/>
<text text-anchor="start" x="547.9875" y="-467.5" font-family="Arial" font-size="10.00" fill="#000000">FOREIGN KEY (student_id) REFERENCES students(id)</text>
</g>
</g>
</svg>
