<?xml version="1.0" encoding="UTF-8" standalone="no"?>
<!DOCTYPE svg PUBLIC "-//W3C//DTD SVG 1.1//EN"
 "http://www.w3.org/Graphics/SVG/1.1/DTD/svg11.dtd">
<!-- Generated by graphviz version 2.40.1 (20161225.0304)
 -->
<!-- Title: public.surveys Pages: 1 -->
<svg width="858pt" height="1319pt"
 viewBox="0.00 0.00 858.00 1319.00" xmlns="http://www.w3.org/2000/svg" xmlns:xlink="http://www.w3.org/1999/xlink">
<g id="graph0" class="graph" transform="scale(1 1) rotate(0) translate(4 1315)">
<title>public.surveys</title>
<polygon fill="#ffffff" stroke="transparent" points="-4,4 -4,-1315 854,-1315 854,4 -4,4"/>
<!-- public.surveys -->
<g id="node1" class="node">
<title>public.surveys</title>
<polygon fill="#efefef" stroke="transparent" points="275.5,-592.5 275.5,-627.5 548.5,-627.5 548.5,-592.5 275.5,-592.5"/>
<polygon fill="none" stroke="#000000" points="275.5,-592.5 275.5,-627.5 548.5,-627.5 548.5,-592.5 275.5,-592.5"/>
<text text-anchor="start" x="291.2091" y="-605.3" font-family="Arial Bold" font-size="18.00" fill="#000000">public.surveys</text>
<text text-anchor="start" x="405.2229" y="-605.3" font-family="Arial" font-size="14.00" fill="#000000">    </text>
<text text-anchor="start" x="439.4277" y="-605.3" font-family="Arial" font-size="14.00" fill="#666666">[BASE TABLE]</text>
<polygon fill="none" stroke="#000000" points="275.5,-562.5 275.5,-592.5 548.5,-592.5 548.5,-562.5 275.5,-562.5"/>
<text text-anchor="start" x="282.5" y="-573.9" font-family="Arial" font-size="14.00" fill="#000000">id </text>
<text text-anchor="start" x="297.2798" y="-573.9" font-family="Arial" font-size="14.00" fill="#666666">[bigint]</text>
<polygon fill="none" stroke="#000000" points="275.5,-532.5 275.5,-562.5 548.5,-562.5 548.5,-532.5 275.5,-532.5"/>
<text text-anchor="start" x="282.5" y="-543.9" font-family="Arial" font-size="14.00" fill="#000000">proxy_uuid </text>
<text text-anchor="start" x="354.8534" y="-543.9" font-family="Arial" font-size="14.00" fill="#666666">[character(36)]</text>
<polygon fill="none" stroke="#000000" points="275.5,-502.5 275.5,-532.5 548.5,-532.5 548.5,-502.5 275.5,-502.5"/>
<text text-anchor="start" x="282.5" y="-513.9" font-family="Arial" font-size="14.00" fill="#000000">name </text>
<text text-anchor="start" x="321.399" y="-513.9" font-family="Arial" font-size="14.00" fill="#666666">[varchar(255)]</text>
<polygon fill="none" stroke="#000000" points="275.5,-472.5 275.5,-502.5 548.5,-502.5 548.5,-472.5 275.5,-472.5"/>
<text text-anchor="start" x="282.5" y="-483.9" font-family="Arial" font-size="14.00" fill="#000000">status </text>
<text text-anchor="start" x="323.737" y="-483.9" font-family="Arial" font-size="14.00" fill="#666666">[integer]</text>
<polygon fill="none" stroke="#000000" points="275.5,-442.5 275.5,-472.5 548.5,-472.5 548.5,-442.5 275.5,-442.5"/>
<text text-anchor="start" x="282.5" y="-453.9" font-family="Arial" font-size="14.00" fill="#000000">class_id </text>
<text text-anchor="start" x="336.9516" y="-453.9" font-family="Arial" font-size="14.00" fill="#666666">[bigint]</text>
<polygon fill="none" stroke="#000000" points="275.5,-412.5 275.5,-442.5 548.5,-442.5 548.5,-412.5 275.5,-412.5"/>
<text text-anchor="start" x="282.5" y="-423.9" font-family="Arial" font-size="14.00" fill="#000000">created_at </text>
<text text-anchor="start" x="352.528" y="-423.9" font-family="Arial" font-size="14.00" fill="#666666">[timestamp without time zone]</text>
<polygon fill="none" stroke="#000000" points="275.5,-382.5 275.5,-412.5 548.5,-412.5 548.5,-382.5 275.5,-382.5"/>
<text text-anchor="start" x="282.4636" y="-393.9" font-family="Arial" font-size="14.00" fill="#000000">updated_at </text>
<text text-anchor="start" x="356.3962" y="-393.9" font-family="Arial" font-size="14.00" fill="#666666">[timestamp without time zone]</text>
<polygon fill="none" stroke="#000000" stroke-width="3" points="273.5,-381.5 273.5,-629.5 549.5,-629.5 549.5,-381.5 273.5,-381.5"/>
</g>
<!-- public.classes -->
<g id="node4" class="node">
<title>public.classes</title>
<polygon fill="#efefef" stroke="transparent" points="260.5,-222.5 260.5,-257.5 563.5,-257.5 563.5,-222.5 260.5,-222.5"/>
<polygon fill="none" stroke="#000000" points="260.5,-222.5 260.5,-257.5 563.5,-257.5 563.5,-222.5 260.5,-222.5"/>
<text text-anchor="start" x="292.2081" y="-235.3" font-family="Arial Bold" font-size="18.00" fill="#000000">public.classes</text>
<text text-anchor="start" x="404.2239" y="-235.3" font-family="Arial" font-size="14.00" fill="#000000">    </text>
<text text-anchor="start" x="438.4287" y="-235.3" font-family="Arial" font-size="14.00" fill="#666666">[BASE TABLE]</text>
<polygon fill="none" stroke="#000000" points="260.5,-192.5 260.5,-222.5 563.5,-222.5 563.5,-192.5 260.5,-192.5"/>
<text text-anchor="start" x="267.5" y="-203.9" font-family="Arial" font-size="14.00" fill="#000000">id    </text>
<text text-anchor="start" x="312.594" y="-203.9" font-family="Arial" font-size="14.00" fill="#666666">[bigint]</text>
<polygon fill="none" stroke="#000000" points="260.5,-162.5 260.5,-192.5 563.5,-192.5 563.5,-162.5 260.5,-162.5"/>
<text text-anchor="start" x="267.5" y="-173.9" font-family="Arial" font-size="14.00" fill="#000000">proxy_uuid    </text>
<text text-anchor="start" x="370.1676" y="-173.9" font-family="Arial" font-size="14.00" fill="#666666">[character(36)]</text>
<polygon fill="none" stroke="#000000" points="260.5,-132.5 260.5,-162.5 563.5,-162.5 563.5,-132.5 260.5,-132.5"/>
<text text-anchor="start" x="267.5" y="-143.9" font-family="Arial" font-size="14.00" fill="#000000">name    </text>
<text text-anchor="start" x="336.7132" y="-143.9" font-family="Arial" font-size="14.00" fill="#666666">[varchar(255)]</text>
<polygon fill="none" stroke="#000000" points="260.5,-102.5 260.5,-132.5 563.5,-132.5 563.5,-102.5 260.5,-102.5"/>
<text text-anchor="start" x="267.5" y="-113.9" font-family="Arial" font-size="14.00" fill="#000000">teacher_id    </text>
<text text-anchor="start" x="367.0582" y="-113.9" font-family="Arial" font-size="14.00" fill="#666666">[bigint]</text>
<polygon fill="none" stroke="#000000" points="260.5,-72.5 260.5,-102.5 563.5,-102.5 563.5,-72.5 260.5,-72.5"/>
<text text-anchor="start" x="267.5" y="-83.9" font-family="Arial" font-size="14.00" fill="#000000">created_at    </text>
<text text-anchor="start" x="367.8422" y="-83.9" font-family="Arial" font-size="14.00" fill="#666666">[timestamp without time zone]</text>
<polygon fill="none" stroke="#000000" points="260.5,-42.5 260.5,-72.5 563.5,-72.5 563.5,-42.5 260.5,-42.5"/>
<text text-anchor="start" x="267.3065" y="-53.9" font-family="Arial" font-size="14.00" fill="#000000">updated_at    </text>
<text text-anchor="start" x="371.5533" y="-53.9" font-family="Arial" font-size="14.00" fill="#666666">[timestamp without time zone]</text>
</g>
<!-- public.surveys&#45;&gt;public.classes -->
<g id="edge3" class="edge">
<title>public.surveys:class_id&#45;&gt;public.classes:id</title>
<path fill="none" stroke="#000000" d="M265.3477,-456.7828C163.3749,-442.1191 152.6675,-207.5 260.5,-207.5"/>
<polygon fill="#000000" stroke="#000000" points="265.5249,-456.7953 275.1829,-461.9888 270.5124,-457.1476 275.5,-457.5 275.5,-457.5 275.5,-457.5 270.5124,-457.1476 275.8171,-453.0112 265.5249,-456.7953 265.5249,-456.7953"/>
<text text-anchor="start" x="33.724" y="-467.5" font-family="Arial" font-size="10.00" fill="#000000">FOREIGN KEY (class_id) REFERENCES classes(id)</text>
</g>
<!-- public.teams -->
<g id="node2" class="node">
<title>public.teams</title>
<polygon fill="#efefef" stroke="transparent" points="43.5,-1082.5 43.5,-1117.5 346.5,-1117.5 346.5,-1082.5 43.5,-1082.5"/>
<polygon fill="none" stroke="#000000" points="43.5,-1082.5 43.5,-1117.5 346.5,-1117.5 346.5,-1082.5 43.5,-1082.5"/>
<text text-anchor="start" x="80.708" y="-1095.3" font-family="Arial Bold" font-size="18.00" fill="#000000">public.teams</text>
<text text-anchor="start" x="181.724" y="-1095.3" font-family="Arial" font-size="14.00" fill="#000000">    </text>
<text text-anchor="start" x="215.9288" y="-1095.3" font-family="Arial" font-size="14.00" fill="#666666">[BASE TABLE]</text>
<polygon fill="none" stroke="#000000" points="43.5,-1052.5 43.5,-1082.5 346.5,-1082.5 346.5,-1052.5 43.5,-1052.5"/>
<text text-anchor="start" x="50.5" y="-1063.9" font-family="Arial" font-size="14.00" fill="#000000">id    </text>
<text text-anchor="start" x="95.594" y="-1063.9" font-family="Arial" font-size="14.00" fill="#666666">[bigint]</text>
<polygon fill="none" stroke="#000000" points="43.5,-1022.5 43.5,-1052.5 346.5,-1052.5 346.5,-1022.5 43.5,-1022.5"/>
<text text-anchor="start" x="50.5" y="-1033.9" font-family="Arial" font-size="14.00" fill="#000000">team_id    </text>
<text text-anchor="start" x="134.493" y="-1033.9" font-family="Arial" font-size="14.00" fill="#666666">[bigint]</text>
<polygon fill="none" stroke="#000000" points="43.5,-992.5 43.5,-1022.5 346.5,-1022.5 346.5,-992.5 43.5,-992.5"/>
<text text-anchor="start" x="50.5" y="-1003.9" font-family="Arial" font-size="14.00" fill="#000000">name    </text>
<text text-anchor="start" x="119.7132" y="-1003.9" font-family="Arial" font-size="14.00" fill="#666666">[varchar(255)]</text>
<polygon fill="none" stroke="#000000" points="43.5,-962.5 43.5,-992.5 346.5,-992.5 346.5,-962.5 43.5,-962.5"/>
<text text-anchor="start" x="50.5" y="-973.9" font-family="Arial" font-size="14.00" fill="#000000">survey_id    </text>
<text text-anchor="start" x="144.6024" y="-973.9" font-family="Arial" font-size="14.00" fill="#666666">[bigint]</text>
<polygon fill="none" stroke="#000000" points="43.5,-932.5 43.5,-962.5 346.5,-962.5 346.5,-932.5 43.5,-932.5"/>
<text text-anchor="start" x="50.5" y="-943.9" font-family="Arial" font-size="14.00" fill="#000000">created_at    </text>
<text text-anchor="start" x="150.8422" y="-943.9" font-family="Arial" font-size="14.00" fill="#666666">[timestamp without time zone]</text>
<polygon fill="none" stroke="#000000" points="43.5,-902.5 43.5,-932.5 346.5,-932.5 346.5,-902.5 43.5,-902.5"/>
<text text-anchor="start" x="50.3065" y="-913.9" font-family="Arial" font-size="14.00" fill="#000000">updated_at    </text>
<text text-anchor="start" x="154.5533" y="-913.9" font-family="Arial" font-size="14.00" fill="#666666">[timestamp without time zone]</text>
</g>
<!-- public.teams&#45;&gt;public.surveys -->
<g id="edge1" class="edge">
<title>public.teams:survey_id&#45;&gt;public.surveys:id</title>
<path fill="none" stroke="#000000" d="M356.846,-977.0022C509.5909,-961.262 98.6462,-577.5 275.5,-577.5"/>
<polygon fill="#000000" stroke="#000000" points="356.4884,-977.0193 346.2837,-973.0052 351.4942,-977.2597 346.5,-977.5 346.5,-977.5 346.5,-977.5 351.4942,-977.2597 346.7163,-981.9948 356.4884,-977.0193 356.4884,-977.0193"/>
<text text-anchor="start" x="353.8345" y="-987.5" font-family="Arial" font-size="10.00" fill="#000000">FOREIGN KEY (survey_id) REFERENCES surveys(id)</text>
</g>
<!-- public.student_preferences -->
<g id="node3" class="node">
<title>public.student_preferences</title>
<polygon fill="#efefef" stroke="transparent" points="450.5,-1232.5 450.5,-1267.5 807.5,-1267.5 807.5,-1232.5 450.5,-1232.5"/>
<polygon fill="none" stroke="#000000" points="450.5,-1232.5 450.5,-1267.5 807.5,-1267.5 807.5,-1232.5 450.5,-1232.5"/>
<text text-anchor="start" x="457.1818" y="-1245.3" font-family="Arial Bold" font-size="18.00" fill="#000000">public.student_preferences</text>
<text text-anchor="start" x="673.2502" y="-1245.3" font-family="Arial" font-size="14.00" fill="#000000">    </text>
<text text-anchor="start" x="707.455" y="-1245.3" font-family="Arial" font-size="14.00" fill="#666666">[BASE TABLE]</text>
<polygon fill="none" stroke="#000000" points="450.5,-1202.5 450.5,-1232.5 807.5,-1232.5 807.5,-1202.5 450.5,-1202.5"/>
<text text-anchor="start" x="457.5" y="-1213.9" font-family="Arial" font-size="14.00" fill="#000000">id    </text>
<text text-anchor="start" x="502.594" y="-1213.9" font-family="Arial" font-size="14.00" fill="#666666">[bigint]</text>
<polygon fill="none" stroke="#000000" points="450.5,-1172.5 450.5,-1202.5 807.5,-1202.5 807.5,-1172.5 450.5,-1172.5"/>
<text text-anchor="start" x="457.5" y="-1183.9" font-family="Arial" font-size="14.00" fill="#000000">student_id    </text>
<text text-anchor="start" x="556.2882" y="-1183.9" font-family="Arial" font-size="14.00" fill="#666666">[bigint]</text>
<polygon fill="none" stroke="#000000" points="450.5,-1142.5 450.5,-1172.5 807.5,-1172.5 807.5,-1142.5 450.5,-1142.5"/>
<text text-anchor="start" x="457.5" y="-1153.9" font-family="Arial" font-size="14.00" fill="#000000">survey_id    </text>
<text text-anchor="start" x="551.6024" y="-1153.9" font-family="Arial" font-size="14.00" fill="#666666">[bigint]</text>
<polygon fill="none" stroke="#000000" points="450.5,-1112.5 450.5,-1142.5 807.5,-1142.5 807.5,-1112.5 450.5,-1112.5"/>
<text text-anchor="start" x="457.5" y="-1123.9" font-family="Arial" font-size="14.00" fill="#000000">team_id    </text>
<text text-anchor="start" x="541.493" y="-1123.9" font-family="Arial" font-size="14.00" fill="#666666">[bigint]</text>
<polygon fill="none" stroke="#000000" points="450.5,-1082.5 450.5,-1112.5 807.5,-1112.5 807.5,-1082.5 450.5,-1082.5"/>
<text text-anchor="start" x="457.5" y="-1093.9" font-family="Arial" font-size="14.00" fill="#000000">mi_a    </text>
<text text-anchor="start" x="522.0372" y="-1093.9" font-family="Arial" font-size="14.00" fill="#666666">[integer]</text>
<polygon fill="none" stroke="#000000" points="450.5,-1052.5 450.5,-1082.5 807.5,-1082.5 807.5,-1052.5 450.5,-1052.5"/>
<text text-anchor="start" x="457.5" y="-1063.9" font-family="Arial" font-size="14.00" fill="#000000">mi_b    </text>
<text text-anchor="start" x="522.0372" y="-1063.9" font-family="Arial" font-size="14.00" fill="#666666">[integer]</text>
<polygon fill="none" stroke="#000000" points="450.5,-1022.5 450.5,-1052.5 807.5,-1052.5 807.5,-1022.5 450.5,-1022.5"/>
<text text-anchor="start" x="457.5" y="-1033.9" font-family="Arial" font-size="14.00" fill="#000000">mi_c    </text>
<text text-anchor="start" x="521.2546" y="-1033.9" font-family="Arial" font-size="14.00" fill="#666666">[integer]</text>
<polygon fill="none" stroke="#000000" points="450.5,-992.5 450.5,-1022.5 807.5,-1022.5 807.5,-992.5 450.5,-992.5"/>
<text text-anchor="start" x="457.5" y="-1003.9" font-family="Arial" font-size="14.00" fill="#000000">mi_d    </text>
<text text-anchor="start" x="522.0372" y="-1003.9" font-family="Arial" font-size="14.00" fill="#666666">[integer]</text>
<polygon fill="none" stroke="#000000" points="450.5,-962.5 450.5,-992.5 807.5,-992.5 807.5,-962.5 450.5,-962.5"/>
<text text-anchor="start" x="457.5" y="-973.9" font-family="Arial" font-size="14.00" fill="#000000">mi_e    </text>
<text text-anchor="start" x="522.0372" y="-973.9" font-family="Arial" font-size="14.00" fill="#666666">[integer]</text>
<polygon fill="none" stroke="#000000" points="450.5,-932.5 450.5,-962.5 807.5,-962.5 807.5,-932.5 450.5,-932.5"/>
<text text-anchor="start" x="457.5" y="-943.9" font-family="Arial" font-size="14.00" fill="#000000">mi_f    </text>
<text text-anchor="start" x="518.1452" y="-943.9" font-family="Arial" font-size="14.00" fill="#666666">[integer]</text>
<polygon fill="none" stroke="#000000" points="450.5,-902.5 450.5,-932.5 807.5,-932.5 807.5,-902.5 450.5,-902.5"/>
<text text-anchor="start" x="457.5" y="-913.9" font-family="Arial" font-size="14.00" fill="#000000">mi_g    </text>
<text text-anchor="start" x="522.0372" y="-913.9" font-family="Arial" font-size="14.00" fill="#666666">[integer]</text>
<polygon fill="none" stroke="#000000" points="450.5,-872.5 450.5,-902.5 807.5,-902.5 807.5,-872.5 450.5,-872.5"/>
<text text-anchor="start" x="457.5" y="-883.9" font-family="Arial" font-size="14.00" fill="#000000">mi_h    </text>
<text text-anchor="start" x="522.0372" y="-883.9" font-family="Arial" font-size="14.00" fill="#666666">[integer]</text>
<polygon fill="none" stroke="#000000" points="450.5,-842.5 450.5,-872.5 807.5,-872.5 807.5,-842.5 450.5,-842.5"/>
<text text-anchor="start" x="457.5" y="-853.9" font-family="Arial" font-size="14.00" fill="#000000">leader    </text>
<text text-anchor="start" x="530.6024" y="-853.9" font-family="Arial" font-size="14.00" fill="#666666">[integer]</text>
<polygon fill="none" stroke="#000000" points="450.5,-812.5 450.5,-842.5 807.5,-842.5 807.5,-812.5 450.5,-812.5"/>
<text text-anchor="start" x="457.5" y="-823.9" font-family="Arial" font-size="14.00" fill="#000000">eyesight    </text>
<text text-anchor="start" x="543.8324" y="-823.9" font-family="Arial" font-size="14.00" fill="#666666">[integer]</text>
<polygon fill="none" stroke="#000000" points="450.5,-782.5 450.5,-812.5 807.5,-812.5 807.5,-782.5 450.5,-782.5"/>
<text text-anchor="start" x="457.5" y="-793.9" font-family="Arial" font-size="14.00" fill="#000000">created_at    </text>
<text text-anchor="start" x="557.8422" y="-793.9" font-family="Arial" font-size="14.00" fill="#666666">[timestamp without time zone]</text>
<polygon fill="none" stroke="#000000" points="450.5,-752.5 450.5,-782.5 807.5,-782.5 807.5,-752.5 450.5,-752.5"/>
<text text-anchor="start" x="457.5" y="-763.9" font-family="Arial" font-size="14.00" fill="#000000">updated_at    </text>
<text text-anchor="start" x="561.7468" y="-763.9" font-family="Arial" font-size="14.00" fill="#666666">[timestamp without time zone]</text>
</g>
<!-- public.student_preferences&#45;&gt;public.surveys -->
<g id="edge2" class="edge">
<title>public.student_preferences:survey_id&#45;&gt;public.surveys:id</title>
<path fill="none" stroke="#000000" d="M441.7533,-1152.638C403.5487,-1106.5905 423.8755,-748.1446 450.5,-710 477.0581,-671.9506 521.9419,-712.0494 548.5,-674 573.0477,-638.8309 591.3889,-577.5 548.5,-577.5"/>
<polygon fill="#000000" stroke="#000000" points="441.7596,-1152.6414 448.3136,-1161.4332 446.1298,-1155.0707 450.5,-1157.5 450.5,-1157.5 450.5,-1157.5 446.1298,-1155.0707 452.6864,-1153.5668 441.7596,-1152.6414 441.7596,-1152.6414"/>
<text text-anchor="start" x="200.8345" y="-1167.5" font-family="Arial" font-size="10.00" fill="#000000">FOREIGN KEY (survey_id) REFERENCES surveys(id)</text>
</g>
</g>
</svg>
