<?xml version="1.0" encoding="UTF-8" standalone="no"?>
<!DOCTYPE svg PUBLIC "-//W3C//DTD SVG 1.1//EN"
 "http://www.w3.org/Graphics/SVG/1.1/DTD/svg11.dtd">
<!-- Generated by graphviz version 2.40.1 (20161225.0304)
 -->
<!-- Title: public.student_dislikes Pages: 1 -->
<svg width="925pt" height="922pt"
 viewBox="0.00 0.00 925.00 922.00" xmlns="http://www.w3.org/2000/svg" xmlns:xlink="http://www.w3.org/1999/xlink">
<g id="graph0" class="graph" transform="scale(1 1) rotate(0) translate(4 918)">
<title>public.student_dislikes</title>
<polygon fill="#ffffff" stroke="transparent" points="-4,4 -4,-918 921,-918 921,4 -4,4"/>
<!-- public.student_dislikes -->
<g id="node1" class="node">
<title>public.student_dislikes</title>
<polygon fill="#efefef" stroke="transparent" points="264,-832.5 264,-867.5 585,-867.5 585,-832.5 264,-832.5"/>
<polygon fill="none" stroke="#000000" points="264,-832.5 264,-867.5 585,-867.5 585,-832.5 264,-832.5"/>
<text text-anchor="start" x="270.6962" y="-845.3" font-family="Arial Bold" font-size="18.00" fill="#000000">public.student_dislikes</text>
<text text-anchor="start" x="450.7358" y="-845.3" font-family="Arial" font-size="14.00" fill="#000000">    </text>
<text text-anchor="start" x="484.9406" y="-845.3" font-family="Arial" font-size="14.00" fill="#666666">[BASE TABLE]</text>
<polygon fill="none" stroke="#000000" points="264,-802.5 264,-832.5 585,-832.5 585,-802.5 264,-802.5"/>
<text text-anchor="start" x="271" y="-813.9" font-family="Arial" font-size="14.00" fill="#000000">id </text>
<text text-anchor="start" x="285.7798" y="-813.9" font-family="Arial" font-size="14.00" fill="#666666">[bigint]</text>
<polygon fill="none" stroke="#000000" points="264,-772.5 264,-802.5 585,-802.5 585,-772.5 264,-772.5"/>
<text text-anchor="start" x="271" y="-783.9" font-family="Arial" font-size="14.00" fill="#000000">student_id </text>
<text text-anchor="start" x="339.474" y="-783.9" font-family="Arial" font-size="14.00" fill="#666666">[bigint]</text>
<polygon fill="none" stroke="#000000" points="264,-742.5 264,-772.5 585,-772.5 585,-742.5 264,-742.5"/>
<text text-anchor="start" x="271" y="-753.9" font-family="Arial" font-size="14.00" fill="#000000">preference_id </text>
<text text-anchor="start" x="360.4698" y="-753.9" font-family="Arial" font-size="14.00" fill="#666666">[bigint]</text>
<polygon fill="none" stroke="#000000" points="264,-712.5 264,-742.5 585,-742.5 585,-712.5 264,-712.5"/>
<text text-anchor="start" x="271" y="-723.9" font-family="Arial" font-size="14.00" fill="#000000">created_at </text>
<text text-anchor="start" x="341.028" y="-723.9" font-family="Arial" font-size="14.00" fill="#666666">[timestamp without time zone]</text>
<polygon fill="none" stroke="#000000" points="264,-682.5 264,-712.5 585,-712.5 585,-682.5 264,-682.5"/>
<text text-anchor="start" x="271" y="-693.9" font-family="Arial" font-size="14.00" fill="#000000">updated_at </text>
<text text-anchor="start" x="344.9326" y="-693.9" font-family="Arial" font-size="14.00" fill="#666666">[timestamp without time zone]</text>
<polygon fill="none" stroke="#000000" stroke-width="3" points="262,-681.5 262,-869.5 586,-869.5 586,-681.5 262,-681.5"/>
</g>
<!-- public.students -->
<g id="node2" class="node">
<title>public.students</title>
<polygon fill="#efefef" stroke="transparent" points="56,-402.5 56,-437.5 359,-437.5 359,-402.5 56,-402.5"/>
<polygon fill="none" stroke="#000000" points="56,-402.5 56,-437.5 359,-437.5 359,-402.5 56,-402.5"/>
<text text-anchor="start" x="83.6968" y="-415.3" font-family="Arial Bold" font-size="18.00" fill="#000000">public.students</text>
<text text-anchor="start" x="203.7352" y="-415.3" font-family="Arial" font-size="14.00" fill="#000000">    </text>
<text text-anchor="start" x="237.94" y="-415.3" font-family="Arial" font-size="14.00" fill="#666666">[BASE TABLE]</text>
<polygon fill="none" stroke="#000000" points="56,-372.5 56,-402.5 359,-402.5 359,-372.5 56,-372.5"/>
<text text-anchor="start" x="63" y="-383.9" font-family="Arial" font-size="14.00" fill="#000000">id    </text>
<text text-anchor="start" x="108.094" y="-383.9" font-family="Arial" font-size="14.00" fill="#666666">[bigint]</text>
<polygon fill="none" stroke="#000000" points="56,-342.5 56,-372.5 359,-372.5 359,-342.5 56,-342.5"/>
<text text-anchor="start" x="63" y="-353.9" font-family="Arial" font-size="14.00" fill="#000000">student_no    </text>
<text text-anchor="start" x="166.4642" y="-353.9" font-family="Arial" font-size="14.00" fill="#666666">[integer]</text>
<polygon fill="none" stroke="#000000" points="56,-312.5 56,-342.5 359,-342.5 359,-312.5 56,-312.5"/>
<text text-anchor="start" x="63" y="-323.9" font-family="Arial" font-size="14.00" fill="#000000">name    </text>
<text text-anchor="start" x="132.2132" y="-323.9" font-family="Arial" font-size="14.00" fill="#666666">[varchar(255)]</text>
<polygon fill="none" stroke="#000000" points="56,-282.5 56,-312.5 359,-312.5 359,-282.5 56,-282.5"/>
<text text-anchor="start" x="63" y="-293.9" font-family="Arial" font-size="14.00" fill="#000000">sex    </text>
<text text-anchor="start" x="118.9874" y="-293.9" font-family="Arial" font-size="14.00" fill="#666666">[integer]</text>
<polygon fill="none" stroke="#000000" points="56,-252.5 56,-282.5 359,-282.5 359,-252.5 56,-252.5"/>
<text text-anchor="start" x="63" y="-263.9" font-family="Arial" font-size="14.00" fill="#000000">memo    </text>
<text text-anchor="start" x="136.0912" y="-263.9" font-family="Arial" font-size="14.00" fill="#666666">[text]</text>
<polygon fill="none" stroke="#000000" points="56,-222.5 56,-252.5 359,-252.5 359,-222.5 56,-222.5"/>
<text text-anchor="start" x="63" y="-233.9" font-family="Arial" font-size="14.00" fill="#000000">class_id    </text>
<text text-anchor="start" x="147.7658" y="-233.9" font-family="Arial" font-size="14.00" fill="#666666">[bigint]</text>
<polygon fill="none" stroke="#000000" points="56,-192.5 56,-222.5 359,-222.5 359,-192.5 56,-192.5"/>
<text text-anchor="start" x="63" y="-203.9" font-family="Arial" font-size="14.00" fill="#000000">created_at    </text>
<text text-anchor="start" x="163.3422" y="-203.9" font-family="Arial" font-size="14.00" fill="#666666">[timestamp without time zone]</text>
<polygon fill="none" stroke="#000000" points="56,-162.5 56,-192.5 359,-192.5 359,-162.5 56,-162.5"/>
<text text-anchor="start" x="62.8065" y="-173.9" font-family="Arial" font-size="14.00" fill="#000000">updated_at    </text>
<text text-anchor="start" x="167.0533" y="-173.9" font-family="Arial" font-size="14.00" fill="#666666">[timestamp without time zone]</text>
</g>
<!-- public.student_dislikes&#45;&gt;public.students -->
<g id="edge1" class="edge">
<title>public.student_dislikes:student_id&#45;&gt;public.students:id</title>
<path fill="none" stroke="#000000" d="M254.0062,-787.1266C123.5819,-776.8224 337.9269,-556.1201 359,-481 370.2241,-440.989 400.5556,-387.5 359,-387.5"/>
<polygon fill="#000000" stroke="#000000" points="254.007,-787.1265 263.8319,-791.9969 259.0035,-787.3133 264,-787.5 264,-787.5 264,-787.5 259.0035,-787.3133 264.1681,-783.0031 254.007,-787.1265 254.007,-787.1265"/>
<text text-anchor="start" x="6.9875" y="-797.5" font-family="Arial" font-size="10.00" fill="#000000">FOREIGN KEY (student_id) REFERENCES students(id)</text>
</g>
<!-- public.student_preferences -->
<g id="node3" class="node">
<title>public.student_preferences</title>
<polygon fill="#efefef" stroke="transparent" points="463,-522.5 463,-557.5 820,-557.5 820,-522.5 463,-522.5"/>
<polygon fill="none" stroke="#000000" points="463,-522.5 463,-557.5 820,-557.5 820,-522.5 463,-522.5"/>
<text text-anchor="start" x="469.6818" y="-535.3" font-family="Arial Bold" font-size="18.00" fill="#000000">public.student_preferences</text>
<text text-anchor="start" x="685.7502" y="-535.3" font-family="Arial" font-size="14.00" fill="#000000">    </text>
<text text-anchor="start" x="719.955" y="-535.3" font-family="Arial" font-size="14.00" fill="#666666">[BASE TABLE]</text>
<polygon fill="none" stroke="#000000" points="463,-492.5 463,-522.5 820,-522.5 820,-492.5 463,-492.5"/>
<text text-anchor="start" x="470" y="-503.9" font-family="Arial" font-size="14.00" fill="#000000">id    </text>
<text text-anchor="start" x="515.094" y="-503.9" font-family="Arial" font-size="14.00" fill="#666666">[bigint]</text>
<polygon fill="none" stroke="#000000" points="463,-462.5 463,-492.5 820,-492.5 820,-462.5 463,-462.5"/>
<text text-anchor="start" x="470" y="-473.9" font-family="Arial" font-size="14.00" fill="#000000">student_id    </text>
<text text-anchor="start" x="568.7882" y="-473.9" font-family="Arial" font-size="14.00" fill="#666666">[bigint]</text>
<polygon fill="none" stroke="#000000" points="463,-432.5 463,-462.5 820,-462.5 820,-432.5 463,-432.5"/>
<text text-anchor="start" x="470" y="-443.9" font-family="Arial" font-size="14.00" fill="#000000">survey_id    </text>
<text text-anchor="start" x="564.1024" y="-443.9" font-family="Arial" font-size="14.00" fill="#666666">[bigint]</text>
<polygon fill="none" stroke="#000000" points="463,-402.5 463,-432.5 820,-432.5 820,-402.5 463,-402.5"/>
<text text-anchor="start" x="470" y="-413.9" font-family="Arial" font-size="14.00" fill="#000000">team_id    </text>
<text text-anchor="start" x="553.993" y="-413.9" font-family="Arial" font-size="14.00" fill="#666666">[bigint]</text>
<polygon fill="none" stroke="#000000" points="463,-372.5 463,-402.5 820,-402.5 820,-372.5 463,-372.5"/>
<text text-anchor="start" x="470" y="-383.9" font-family="Arial" font-size="14.00" fill="#000000">mi_a    </text>
<text text-anchor="start" x="534.5372" y="-383.9" font-family="Arial" font-size="14.00" fill="#666666">[integer]</text>
<polygon fill="none" stroke="#000000" points="463,-342.5 463,-372.5 820,-372.5 820,-342.5 463,-342.5"/>
<text text-anchor="start" x="470" y="-353.9" font-family="Arial" font-size="14.00" fill="#000000">mi_b    </text>
<text text-anchor="start" x="534.5372" y="-353.9" font-family="Arial" font-size="14.00" fill="#666666">[integer]</text>
<polygon fill="none" stroke="#000000" points="463,-312.5 463,-342.5 820,-342.5 820,-312.5 463,-312.5"/>
<text text-anchor="start" x="470" y="-323.9" font-family="Arial" font-size="14.00" fill="#000000">mi_c    </text>
<text text-anchor="start" x="533.7546" y="-323.9" font-family="Arial" font-size="14.00" fill="#666666">[integer]</text>
<polygon fill="none" stroke="#000000" points="463,-282.5 463,-312.5 820,-312.5 820,-282.5 463,-282.5"/>
<text text-anchor="start" x="470" y="-293.9" font-family="Arial" font-size="14.00" fill="#000000">mi_d    </text>
<text text-anchor="start" x="534.5372" y="-293.9" font-family="Arial" font-size="14.00" fill="#666666">[integer]</text>
<polygon fill="none" stroke="#000000" points="463,-252.5 463,-282.5 820,-282.5 820,-252.5 463,-252.5"/>
<text text-anchor="start" x="470" y="-263.9" font-family="Arial" font-size="14.00" fill="#000000">mi_e    </text>
<text text-anchor="start" x="534.5372" y="-263.9" font-family="Arial" font-size="14.00" fill="#666666">[integer]</text>
<polygon fill="none" stroke="#000000" points="463,-222.5 463,-252.5 820,-252.5 820,-222.5 463,-222.5"/>
<text text-anchor="start" x="470" y="-233.9" font-family="Arial" font-size="14.00" fill="#000000">mi_f    </text>
<text text-anchor="start" x="530.6452" y="-233.9" font-family="Arial" font-size="14.00" fill="#666666">[integer]</text>
<polygon fill="none" stroke="#000000" points="463,-192.5 463,-222.5 820,-222.5 820,-192.5 463,-192.5"/>
<text text-anchor="start" x="470" y="-203.9" font-family="Arial" font-size="14.00" fill="#000000">mi_g    </text>
<text text-anchor="start" x="534.5372" y="-203.9" font-family="Arial" font-size="14.00" fill="#666666">[integer]</text>
<polygon fill="none" stroke="#000000" points="463,-162.5 463,-192.5 820,-192.5 820,-162.5 463,-162.5"/>
<text text-anchor="start" x="470" y="-173.9" font-family="Arial" font-size="14.00" fill="#000000">mi_h    </text>
<text text-anchor="start" x="534.5372" y="-173.9" font-family="Arial" font-size="14.00" fill="#666666">[integer]</text>
<polygon fill="none" stroke="#000000" points="463,-132.5 463,-162.5 820,-162.5 820,-132.5 463,-132.5"/>
<text text-anchor="start" x="470" y="-143.9" font-family="Arial" font-size="14.00" fill="#000000">leader    </text>
<text text-anchor="start" x="543.1024" y="-143.9" font-family="Arial" font-size="14.00" fill="#666666">[integer]</text>
<polygon fill="none" stroke="#000000" points="463,-102.5 463,-132.5 820,-132.5 820,-102.5 463,-102.5"/>
<text text-anchor="start" x="470" y="-113.9" font-family="Arial" font-size="14.00" fill="#000000">eyesight    </text>
<text text-anchor="start" x="556.3324" y="-113.9" font-family="Arial" font-size="14.00" fill="#666666">[integer]</text>
<polygon fill="none" stroke="#000000" points="463,-72.5 463,-102.5 820,-102.5 820,-72.5 463,-72.5"/>
<text text-anchor="start" x="470" y="-83.9" font-family="Arial" font-size="14.00" fill="#000000">created_at    </text>
<text text-anchor="start" x="570.3422" y="-83.9" font-family="Arial" font-size="14.00" fill="#666666">[timestamp without time zone]</text>
<polygon fill="none" stroke="#000000" points="463,-42.5 463,-72.5 820,-72.5 820,-42.5 463,-42.5"/>
<text text-anchor="start" x="470" y="-53.9" font-family="Arial" font-size="14.00" fill="#000000">updated_at    </text>
<text text-anchor="start" x="574.2468" y="-53.9" font-family="Arial" font-size="14.00" fill="#666666">[timestamp without time zone]</text>
</g>
<!-- public.student_dislikes&#45;&gt;public.student_preferences -->
<g id="edge2" class="edge">
<title>public.student_dislikes:preference_id&#45;&gt;public.student_preferences:id</title>
<path fill="none" stroke="#000000" d="M594.9516,-756.4479C635.5681,-747.0521 614.8739,-676.9626 585,-637 551.151,-591.7198 496.849,-646.2802 463,-601 438.119,-567.7164 421.4444,-507.5 463,-507.5"/>
<polygon fill="#000000" stroke="#000000" points="594.9446,-756.4486 584.5269,-753.0249 589.9723,-756.9743 585,-757.5 585,-757.5 585,-757.5 589.9723,-756.9743 585.4731,-761.9751 594.9446,-756.4486 594.9446,-756.4486"/>
<text text-anchor="start" x="591.814" y="-767.5" font-family="Arial" font-size="10.00" fill="#000000">FOREIGN KEY (preference_id) REFERENCES student_preferences(id)</text>
</g>
</g>
</svg>
