<?xml version="1.0" encoding="UTF-8" standalone="no"?>
<!DOCTYPE svg PUBLIC "-//W3C//DTD SVG 1.1//EN"
 "http://www.w3.org/Graphics/SVG/1.1/DTD/svg11.dtd">
<!-- Generated by graphviz version 2.40.1 (20161225.0304)
 -->
<!-- Title: public.students Pages: 1 -->
<svg width="725pt" height="1049pt"
 viewBox="0.00 0.00 725.00 1049.00" xmlns="http://www.w3.org/2000/svg" xmlns:xlink="http://www.w3.org/1999/xlink">
<g id="graph0" class="graph" transform="scale(1 1) rotate(0) translate(4 1045)">
<title>public.students</title>
<polygon fill="#ffffff" stroke="transparent" points="-4,4 -4,-1045 721,-1045 721,4 -4,4"/>
<!-- public.students -->
<g id="node1" class="node">
<title>public.students</title>
<polygon fill="#efefef" stroke="transparent" points="249,-622.5 249,-657.5 522,-657.5 522,-622.5 249,-622.5"/>
<polygon fill="none" stroke="#000000" points="249,-622.5 249,-657.5 522,-657.5 522,-622.5 249,-622.5"/>
<text text-anchor="start" x="276.8539" y="-635.3" font-family="Arial Bold" font-size="18.00" fill="#000000">public.students</text>
<text text-anchor="start" x="396.8923" y="-635.3" font-family="Arial" font-size="14.00" fill="#000000"> </text>
<text text-anchor="start" x="400.7829" y="-635.3" font-family="Arial" font-size="14.00" fill="#666666">[BASE TABLE]</text>
<polygon fill="none" stroke="#000000" points="249,-592.5 249,-622.5 522,-622.5 522,-592.5 249,-592.5"/>
<text text-anchor="start" x="256" y="-603.9" font-family="Arial" font-size="14.00" fill="#000000">id </text>
<text text-anchor="start" x="270.7798" y="-603.9" font-family="Arial" font-size="14.00" fill="#666666">[integer]</text>
<polygon fill="none" stroke="#000000" points="249,-562.5 249,-592.5 522,-592.5 522,-562.5 249,-562.5"/>
<text text-anchor="start" x="256" y="-573.9" font-family="Arial" font-size="14.00" fill="#000000">name </text>
<text text-anchor="start" x="294.899" y="-573.9" font-family="Arial" font-size="14.00" fill="#666666">[varchar(255)]</text>
<polygon fill="none" stroke="#000000" points="249,-532.5 249,-562.5 522,-562.5 522,-532.5 249,-532.5"/>
<text text-anchor="start" x="256" y="-543.9" font-family="Arial" font-size="14.00" fill="#000000">sex </text>
<text text-anchor="start" x="281.6732" y="-543.9" font-family="Arial" font-size="14.00" fill="#666666">[integer]</text>
<polygon fill="none" stroke="#000000" points="249,-502.5 249,-532.5 522,-532.5 522,-502.5 249,-502.5"/>
<text text-anchor="start" x="256" y="-513.9" font-family="Arial" font-size="14.00" fill="#000000">class_id </text>
<text text-anchor="start" x="310.4516" y="-513.9" font-family="Arial" font-size="14.00" fill="#666666">[bigint]</text>
<polygon fill="none" stroke="#000000" points="249,-472.5 249,-502.5 522,-502.5 522,-472.5 249,-472.5"/>
<text text-anchor="start" x="256" y="-483.9" font-family="Arial" font-size="14.00" fill="#000000">family_name </text>
<text text-anchor="start" x="339.2286" y="-483.9" font-family="Arial" font-size="14.00" fill="#666666">[varchar(255)]</text>
<polygon fill="none" stroke="#000000" points="249,-442.5 249,-472.5 522,-472.5 522,-442.5 249,-442.5"/>
<text text-anchor="start" x="256" y="-453.9" font-family="Arial" font-size="14.00" fill="#000000">given_name </text>
<text text-anchor="start" x="336.136" y="-453.9" font-family="Arial" font-size="14.00" fill="#666666">[varchar(255)]</text>
<polygon fill="none" stroke="#000000" points="249,-412.5 249,-442.5 522,-442.5 522,-412.5 249,-412.5"/>
<text text-anchor="start" x="256" y="-423.9" font-family="Arial" font-size="14.00" fill="#000000">created_at </text>
<text text-anchor="start" x="326.028" y="-423.9" font-family="Arial" font-size="14.00" fill="#666666">[timestamp without time zone]</text>
<polygon fill="none" stroke="#000000" points="249,-382.5 249,-412.5 522,-412.5 522,-382.5 249,-382.5"/>
<text text-anchor="start" x="255.9636" y="-393.9" font-family="Arial" font-size="14.00" fill="#000000">updated_at </text>
<text text-anchor="start" x="329.8962" y="-393.9" font-family="Arial" font-size="14.00" fill="#666666">[timestamp without time zone]</text>
<polygon fill="none" stroke="#000000" stroke-width="3" points="247,-381.5 247,-659.5 523,-659.5 523,-381.5 247,-381.5"/>
</g>
<!-- public.classes -->
<g id="node4" class="node">
<title>public.classes</title>
<polygon fill="#efefef" stroke="transparent" points="249,-222.5 249,-257.5 522,-257.5 522,-222.5 249,-222.5"/>
<polygon fill="none" stroke="#000000" points="249,-222.5 249,-257.5 522,-257.5 522,-222.5 249,-222.5"/>
<text text-anchor="start" x="280.8652" y="-235.3" font-family="Arial Bold" font-size="18.00" fill="#000000">public.classes</text>
<text text-anchor="start" x="392.881" y="-235.3" font-family="Arial" font-size="14.00" fill="#000000"> </text>
<text text-anchor="start" x="396.7716" y="-235.3" font-family="Arial" font-size="14.00" fill="#666666">[BASE TABLE]</text>
<polygon fill="none" stroke="#000000" points="249,-192.5 249,-222.5 522,-222.5 522,-192.5 249,-192.5"/>
<text text-anchor="start" x="256" y="-203.9" font-family="Arial" font-size="14.00" fill="#000000">id </text>
<text text-anchor="start" x="270.7798" y="-203.9" font-family="Arial" font-size="14.00" fill="#666666">[integer]</text>
<polygon fill="none" stroke="#000000" points="249,-162.5 249,-192.5 522,-192.5 522,-162.5 249,-162.5"/>
<text text-anchor="start" x="256" y="-173.9" font-family="Arial" font-size="14.00" fill="#000000">name </text>
<text text-anchor="start" x="294.899" y="-173.9" font-family="Arial" font-size="14.00" fill="#666666">[varchar(255)]</text>
<polygon fill="none" stroke="#000000" points="249,-132.5 249,-162.5 522,-162.5 522,-132.5 249,-132.5"/>
<text text-anchor="start" x="256" y="-143.9" font-family="Arial" font-size="14.00" fill="#000000">organization </text>
<text text-anchor="start" x="336.1332" y="-143.9" font-family="Arial" font-size="14.00" fill="#666666">[varchar(255)]</text>
<polygon fill="none" stroke="#000000" points="249,-102.5 249,-132.5 522,-132.5 522,-102.5 249,-102.5"/>
<text text-anchor="start" x="256" y="-113.9" font-family="Arial" font-size="14.00" fill="#000000">teacher_id </text>
<text text-anchor="start" x="325.244" y="-113.9" font-family="Arial" font-size="14.00" fill="#666666">[bigint]</text>
<polygon fill="none" stroke="#000000" points="249,-72.5 249,-102.5 522,-102.5 522,-72.5 249,-72.5"/>
<text text-anchor="start" x="256" y="-83.9" font-family="Arial" font-size="14.00" fill="#000000">created_at </text>
<text text-anchor="start" x="326.028" y="-83.9" font-family="Arial" font-size="14.00" fill="#666666">[timestamp without time zone]</text>
<polygon fill="none" stroke="#000000" points="249,-42.5 249,-72.5 522,-72.5 522,-42.5 249,-42.5"/>
<text text-anchor="start" x="255.9636" y="-53.9" font-family="Arial" font-size="14.00" fill="#000000">updated_at </text>
<text text-anchor="start" x="329.8962" y="-53.9" font-family="Arial" font-size="14.00" fill="#666666">[timestamp without time zone]</text>
</g>
<!-- public.students&#45;&gt;public.classes -->
<g id="edge3" class="edge">
<title>public.students:class_id&#45;&gt;public.classes:id</title>
<path fill="none" stroke="#000000" d="M238.7717,-516.9106C111.311,-501.9577 114.7205,-207.5 249,-207.5"/>
<polygon fill="#000000" stroke="#000000" points="239.0166,-516.9246 248.7411,-521.9925 244.0083,-517.2123 249,-517.5 249,-517.5 249,-517.5 244.0083,-517.2123 249.2589,-513.0075 239.0166,-516.9246 239.0166,-516.9246"/>
<text text-anchor="start" x="7.224" y="-527.5" font-family="Arial" font-size="10.00" fill="#000000">FOREIGN KEY (class_id) REFERENCES classes(id)</text>
</g>
<!-- public.student_flavor -->
<g id="node2" class="node">
<title>public.student_flavor</title>
<polygon fill="#efefef" stroke="transparent" points="72,-962.5 72,-997.5 348,-997.5 348,-962.5 72,-962.5"/>
<polygon fill="none" stroke="#000000" points="72,-962.5 72,-997.5 348,-997.5 348,-962.5 72,-962.5"/>
<text text-anchor="start" x="78.8503" y="-975.3" font-family="Arial Bold" font-size="18.00" fill="#000000">public.student_flavor</text>
<text text-anchor="start" x="243.8959" y="-975.3" font-family="Arial" font-size="14.00" fill="#000000"> </text>
<text text-anchor="start" x="247.7865" y="-975.3" font-family="Arial" font-size="14.00" fill="#666666">[BASE TABLE]</text>
<polygon fill="none" stroke="#000000" points="72,-932.5 72,-962.5 348,-962.5 348,-932.5 72,-932.5"/>
<text text-anchor="start" x="79" y="-943.9" font-family="Arial" font-size="14.00" fill="#000000">id </text>
<text text-anchor="start" x="93.7798" y="-943.9" font-family="Arial" font-size="14.00" fill="#666666">[integer]</text>
<polygon fill="none" stroke="#000000" points="72,-902.5 72,-932.5 348,-932.5 348,-902.5 72,-902.5"/>
<text text-anchor="start" x="79" y="-913.9" font-family="Arial" font-size="14.00" fill="#000000">team_id </text>
<text text-anchor="start" x="132.6788" y="-913.9" font-family="Arial" font-size="14.00" fill="#666666">[bigint]</text>
<polygon fill="none" stroke="#000000" points="72,-872.5 72,-902.5 348,-902.5 348,-872.5 72,-872.5"/>
<text text-anchor="start" x="79" y="-883.9" font-family="Arial" font-size="14.00" fill="#000000">student_id </text>
<text text-anchor="start" x="147.474" y="-883.9" font-family="Arial" font-size="14.00" fill="#666666">[bigint]</text>
<polygon fill="none" stroke="#000000" points="72,-842.5 72,-872.5 348,-872.5 348,-842.5 72,-842.5"/>
<text text-anchor="start" x="79" y="-853.9" font-family="Arial" font-size="14.00" fill="#000000">flavor_id </text>
<text text-anchor="start" x="135.7854" y="-853.9" font-family="Arial" font-size="14.00" fill="#666666">[bigint]</text>
<polygon fill="none" stroke="#000000" points="72,-812.5 72,-842.5 348,-842.5 348,-812.5 72,-812.5"/>
<text text-anchor="start" x="79" y="-823.9" font-family="Arial" font-size="14.00" fill="#000000">created_at </text>
<text text-anchor="start" x="149.028" y="-823.9" font-family="Arial" font-size="14.00" fill="#666666">[timestamp without time zone]</text>
<polygon fill="none" stroke="#000000" points="72,-782.5 72,-812.5 348,-812.5 348,-782.5 72,-782.5"/>
<text text-anchor="start" x="79" y="-793.9" font-family="Arial" font-size="14.00" fill="#000000">updated_at </text>
<text text-anchor="start" x="152.9326" y="-793.9" font-family="Arial" font-size="14.00" fill="#666666">[timestamp without time zone]</text>
</g>
<!-- public.student_flavor&#45;&gt;public.students -->
<g id="edge1" class="edge">
<title>public.student_flavor:student_id&#45;&gt;public.students:id</title>
<path fill="none" stroke="#000000" d="M358.2546,-886.6215C410.3587,-877.0023 383.4788,-790.6531 348,-740 321.1402,-701.6522 275.8598,-742.3478 249,-704 224.3948,-668.8711 206.1111,-607.5 249,-607.5"/>
<polygon fill="#000000" stroke="#000000" points="357.9635,-886.6464 347.6159,-883.0164 352.9818,-887.0732 348,-887.5 348,-887.5 348,-887.5 352.9818,-887.0732 348.3841,-891.9836 357.9635,-886.6464 357.9635,-886.6464"/>
<text text-anchor="start" x="354.9875" y="-897.5" font-family="Arial" font-size="10.00" fill="#000000">FOREIGN KEY (student_id) REFERENCES students(id)</text>
</g>
<!-- public.dislikes -->
<g id="node3" class="node">
<title>public.dislikes</title>
<polygon fill="#efefef" stroke="transparent" points="452,-917.5 452,-952.5 674,-952.5 674,-917.5 452,-917.5"/>
<polygon fill="none" stroke="#000000" points="452,-917.5 452,-952.5 674,-952.5 674,-917.5 452,-917.5"/>
<text text-anchor="start" x="458.871" y="-930.3" font-family="Arial Bold" font-size="18.00" fill="#000000">public.dislikes</text>
<text text-anchor="start" x="569.8752" y="-930.3" font-family="Arial" font-size="14.00" fill="#000000"> </text>
<text text-anchor="start" x="573.7658" y="-930.3" font-family="Arial" font-size="14.00" fill="#666666">[BASE TABLE]</text>
<polygon fill="none" stroke="#000000" points="452,-887.5 452,-917.5 674,-917.5 674,-887.5 452,-887.5"/>
<text text-anchor="start" x="459" y="-898.9" font-family="Arial" font-size="14.00" fill="#000000">id </text>
<text text-anchor="start" x="473.7798" y="-898.9" font-family="Arial" font-size="14.00" fill="#666666">[integer]</text>
<polygon fill="none" stroke="#000000" points="452,-857.5 452,-887.5 674,-887.5 674,-857.5 452,-857.5"/>
<text text-anchor="start" x="459" y="-868.9" font-family="Arial" font-size="14.00" fill="#000000">student_flavor_id </text>
<text text-anchor="start" x="569.4796" y="-868.9" font-family="Arial" font-size="14.00" fill="#666666">[bigint]</text>
<polygon fill="none" stroke="#000000" points="452,-827.5 452,-857.5 674,-857.5 674,-827.5 452,-827.5"/>
<text text-anchor="start" x="459" y="-838.9" font-family="Arial" font-size="14.00" fill="#000000">student_id </text>
<text text-anchor="start" x="527.474" y="-838.9" font-family="Arial" font-size="14.00" fill="#666666">[bigint]</text>
</g>
<!-- public.dislikes&#45;&gt;public.students -->
<g id="edge2" class="edge">
<title>public.dislikes:student_id&#45;&gt;public.students:id</title>
<path fill="none" stroke="#000000" d="M442.309,-839.7458C431.9364,-831.2508 444.6173,-804.8337 452,-785 468.5983,-740.4085 505.4017,-748.5915 522,-704 536.9616,-663.8054 564.8889,-607.5 522,-607.5"/>
<polygon fill="#000000" stroke="#000000" points="442.3809,-839.7662 450.7698,-846.8286 447.1905,-841.1331 452,-842.5 452,-842.5 452,-842.5 447.1905,-841.1331 453.2302,-838.1714 442.3809,-839.7662 442.3809,-839.7662"/>
<text text-anchor="start" x="458.9875" y="-852.5" font-family="Arial" font-size="10.00" fill="#000000">FOREIGN KEY (student_id) REFERENCES students(id)</text>
</g>
</g>
</svg>
