<?xml version="1.0" encoding="UTF-8" standalone="no"?>
<!DOCTYPE svg PUBLIC "-//W3C//DTD SVG 1.1//EN"
 "http://www.w3.org/Graphics/SVG/1.1/DTD/svg11.dtd">
<!-- Generated by graphviz version 2.40.1 (20161225.0304)
 -->
<!-- Title: public.surveys Pages: 1 -->
<svg width="594pt" height="809pt"
 viewBox="0.00 0.00 593.50 809.00" xmlns="http://www.w3.org/2000/svg" xmlns:xlink="http://www.w3.org/1999/xlink">
<g id="graph0" class="graph" transform="scale(1 1) rotate(0) translate(4 805)">
<title>public.surveys</title>
<polygon fill="#ffffff" stroke="transparent" points="-4,4 -4,-805 589.5,-805 589.5,4 -4,4"/>
<!-- public.surveys -->
<g id="node1" class="node">
<title>public.surveys</title>
<polygon fill="#efefef" stroke="transparent" points="267,-442.5 267,-477.5 540,-477.5 540,-442.5 267,-442.5"/>
<polygon fill="none" stroke="#000000" points="267,-442.5 267,-477.5 540,-477.5 540,-442.5 267,-442.5"/>
<text text-anchor="start" x="297.8662" y="-455.3" font-family="Arial Bold" font-size="18.00" fill="#000000">public.surveys</text>
<text text-anchor="start" x="411.88" y="-455.3" font-family="Arial" font-size="14.00" fill="#000000"> </text>
<text text-anchor="start" x="415.7706" y="-455.3" font-family="Arial" font-size="14.00" fill="#666666">[BASE TABLE]</text>
<polygon fill="none" stroke="#000000" points="267,-412.5 267,-442.5 540,-442.5 540,-412.5 267,-412.5"/>
<text text-anchor="start" x="274" y="-423.9" font-family="Arial" font-size="14.00" fill="#000000">id </text>
<text text-anchor="start" x="288.7798" y="-423.9" font-family="Arial" font-size="14.00" fill="#666666">[bigint]</text>
<polygon fill="none" stroke="#000000" points="267,-382.5 267,-412.5 540,-412.5 540,-382.5 267,-382.5"/>
<text text-anchor="start" x="274" y="-393.9" font-family="Arial" font-size="14.00" fill="#000000">histories_id </text>
<text text-anchor="start" x="348.6746" y="-393.9" font-family="Arial" font-size="14.00" fill="#666666">[bigint]</text>
<polygon fill="none" stroke="#000000" points="267,-352.5 267,-382.5 540,-382.5 540,-352.5 267,-352.5"/>
<text text-anchor="start" x="274" y="-363.9" font-family="Arial" font-size="14.00" fill="#000000">created_at </text>
<text text-anchor="start" x="344.028" y="-363.9" font-family="Arial" font-size="14.00" fill="#666666">[timestamp without time zone]</text>
<polygon fill="none" stroke="#000000" points="267,-322.5 267,-352.5 540,-352.5 540,-322.5 267,-322.5"/>
<text text-anchor="start" x="273.9636" y="-333.9" font-family="Arial" font-size="14.00" fill="#000000">updated_at </text>
<text text-anchor="start" x="347.8962" y="-333.9" font-family="Arial" font-size="14.00" fill="#666666">[timestamp without time zone]</text>
<polygon fill="none" stroke="#000000" stroke-width="3" points="265,-321.5 265,-479.5 541,-479.5 541,-321.5 265,-321.5"/>
</g>
<!-- public.histories -->
<g id="node3" class="node">
<title>public.histories</title>
<polygon fill="#efefef" stroke="transparent" points="267,-162.5 267,-197.5 540,-197.5 540,-162.5 267,-162.5"/>
<polygon fill="none" stroke="#000000" points="267,-162.5 267,-197.5 540,-197.5 540,-162.5 267,-162.5"/>
<text text-anchor="start" x="295.3678" y="-175.3" font-family="Arial Bold" font-size="18.00" fill="#000000">public.histories</text>
<text text-anchor="start" x="414.3784" y="-175.3" font-family="Arial" font-size="14.00" fill="#000000"> </text>
<text text-anchor="start" x="418.269" y="-175.3" font-family="Arial" font-size="14.00" fill="#666666">[BASE TABLE]</text>
<polygon fill="none" stroke="#000000" points="267,-132.5 267,-162.5 540,-162.5 540,-132.5 267,-132.5"/>
<text text-anchor="start" x="274" y="-143.9" font-family="Arial" font-size="14.00" fill="#000000">id </text>
<text text-anchor="start" x="288.7798" y="-143.9" font-family="Arial" font-size="14.00" fill="#666666">[bigint]</text>
<polygon fill="none" stroke="#000000" points="267,-102.5 267,-132.5 540,-132.5 540,-102.5 267,-102.5"/>
<text text-anchor="start" x="274" y="-113.9" font-family="Arial" font-size="14.00" fill="#000000">teacher_id </text>
<text text-anchor="start" x="343.244" y="-113.9" font-family="Arial" font-size="14.00" fill="#666666">[bigint]</text>
<polygon fill="none" stroke="#000000" points="267,-72.5 267,-102.5 540,-102.5 540,-72.5 267,-72.5"/>
<text text-anchor="start" x="274" y="-83.9" font-family="Arial" font-size="14.00" fill="#000000">created_at </text>
<text text-anchor="start" x="344.028" y="-83.9" font-family="Arial" font-size="14.00" fill="#666666">[timestamp without time zone]</text>
<polygon fill="none" stroke="#000000" points="267,-42.5 267,-72.5 540,-72.5 540,-42.5 267,-42.5"/>
<text text-anchor="start" x="273.9636" y="-53.9" font-family="Arial" font-size="14.00" fill="#000000">updated_at </text>
<text text-anchor="start" x="347.8962" y="-53.9" font-family="Arial" font-size="14.00" fill="#666666">[timestamp without time zone]</text>
</g>
<!-- public.surveys&#45;&gt;public.histories -->
<g id="edge2" class="edge">
<title>public.surveys:histories_id&#45;&gt;public.histories:id</title>
<path fill="none" stroke="#000000" d="M256.9089,-396.7828C155.9974,-382.1191 159.3611,-147.5 267,-147.5"/>
<polygon fill="#000000" stroke="#000000" points="257.0252,-396.791 266.681,-401.9887 262.0126,-397.1455 267,-397.5 267,-397.5 267,-397.5 262.0126,-397.1455 267.319,-393.0113 257.0252,-396.791 257.0252,-396.791"/>
<text text-anchor="start" x="7.0585" y="-407.5" font-family="Arial" font-size="10.00" fill="#000000">FOREIGN KEY (histories_id) REFERENCES histories(id)</text>
</g>
<!-- public.teams -->
<g id="node2" class="node">
<title>public.teams</title>
<polygon fill="#efefef" stroke="transparent" points="267,-722.5 267,-757.5 540,-757.5 540,-722.5 267,-722.5"/>
<polygon fill="none" stroke="#000000" points="267,-722.5 267,-757.5 540,-757.5 540,-722.5 267,-722.5"/>
<text text-anchor="start" x="304.3651" y="-735.3" font-family="Arial Bold" font-size="18.00" fill="#000000">public.teams</text>
<text text-anchor="start" x="405.3811" y="-735.3" font-family="Arial" font-size="14.00" fill="#000000"> </text>
<text text-anchor="start" x="409.2717" y="-735.3" font-family="Arial" font-size="14.00" fill="#666666">[BASE TABLE]</text>
<polygon fill="none" stroke="#000000" points="267,-692.5 267,-722.5 540,-722.5 540,-692.5 267,-692.5"/>
<text text-anchor="start" x="274" y="-703.9" font-family="Arial" font-size="14.00" fill="#000000">id </text>
<text text-anchor="start" x="288.7798" y="-703.9" font-family="Arial" font-size="14.00" fill="#666666">[integer]</text>
<polygon fill="none" stroke="#000000" points="267,-662.5 267,-692.5 540,-692.5 540,-662.5 267,-662.5"/>
<text text-anchor="start" x="274" y="-673.9" font-family="Arial" font-size="14.00" fill="#000000">survey_id </text>
<text text-anchor="start" x="337.7882" y="-673.9" font-family="Arial" font-size="14.00" fill="#666666">[bigint]</text>
<polygon fill="none" stroke="#000000" points="267,-632.5 267,-662.5 540,-662.5 540,-632.5 267,-632.5"/>
<text text-anchor="start" x="274" y="-643.9" font-family="Arial" font-size="14.00" fill="#000000">created_at </text>
<text text-anchor="start" x="344.028" y="-643.9" font-family="Arial" font-size="14.00" fill="#666666">[timestamp without time zone]</text>
<polygon fill="none" stroke="#000000" points="267,-602.5 267,-632.5 540,-632.5 540,-602.5 267,-602.5"/>
<text text-anchor="start" x="273.9636" y="-613.9" font-family="Arial" font-size="14.00" fill="#000000">updated_at </text>
<text text-anchor="start" x="347.8962" y="-613.9" font-family="Arial" font-size="14.00" fill="#666666">[timestamp without time zone]</text>
</g>
<!-- public.teams&#45;&gt;public.surveys -->
<g id="edge1" class="edge">
<title>public.teams:survey_id&#45;&gt;public.surveys:id</title>
<path fill="none" stroke="#000000" d="M256.9089,-676.7828C155.9974,-662.1191 159.3611,-427.5 267,-427.5"/>
<polygon fill="#000000" stroke="#000000" points="257.0252,-676.791 266.681,-681.9887 262.0126,-677.1455 267,-677.5 267,-677.5 267,-677.5 262.0126,-677.1455 267.319,-673.0113 257.0252,-676.791 257.0252,-676.791"/>
<text text-anchor="start" x="17.3345" y="-687.5" font-family="Arial" font-size="10.00" fill="#000000">FOREIGN KEY (survey_id) REFERENCES surveys(id)</text>
</g>
</g>
</svg>
