<?xml version="1.0" encoding="UTF-8" standalone="no"?>
<!DOCTYPE svg PUBLIC "-//W3C//DTD SVG 1.1//EN"
 "http://www.w3.org/Graphics/SVG/1.1/DTD/svg11.dtd">
<!-- Generated by graphviz version 2.40.1 (20161225.0304)
 -->
<!-- Title: public.schools Pages: 1 -->
<svg width="610pt" height="832pt"
 viewBox="0.00 0.00 609.50 832.00" xmlns="http://www.w3.org/2000/svg" xmlns:xlink="http://www.w3.org/1999/xlink">
<g id="graph0" class="graph" transform="scale(1 1) rotate(0) translate(4 828)">
<title>public.schools</title>
<polygon fill="#ffffff" stroke="transparent" points="-4,4 -4,-828 605.5,-828 605.5,4 -4,4"/>
<!-- public.schools -->
<g id="node1" class="node">
<title>public.schools</title>
<polygon fill="#efefef" stroke="transparent" points="271,-285.5 271,-320.5 544,-320.5 544,-285.5 271,-285.5"/>
<polygon fill="none" stroke="#000000" points="271,-285.5 271,-320.5 544,-320.5 544,-285.5 271,-285.5"/>
<text text-anchor="start" x="287.205" y="-298.3" font-family="Arial Bold" font-size="18.00" fill="#000000">public.schools</text>
<text text-anchor="start" x="400.227" y="-298.3" font-family="Arial" font-size="14.00" fill="#000000">    </text>
<text text-anchor="start" x="434.4318" y="-298.3" font-family="Arial" font-size="14.00" fill="#666666">[BASE TABLE]</text>
<polygon fill="none" stroke="#000000" points="271,-255.5 271,-285.5 544,-285.5 544,-255.5 271,-255.5"/>
<text text-anchor="start" x="278" y="-266.9" font-family="Arial" font-size="14.00" fill="#000000">id </text>
<text text-anchor="start" x="292.7798" y="-266.9" font-family="Arial" font-size="14.00" fill="#666666">[bigint]</text>
<polygon fill="none" stroke="#000000" points="271,-225.5 271,-255.5 544,-255.5 544,-225.5 271,-225.5"/>
<text text-anchor="start" x="278" y="-236.9" font-family="Arial" font-size="14.00" fill="#000000">name </text>
<text text-anchor="start" x="316.899" y="-236.9" font-family="Arial" font-size="14.00" fill="#666666">[varchar(255)]</text>
<polygon fill="none" stroke="#000000" points="271,-195.5 271,-225.5 544,-225.5 544,-195.5 271,-195.5"/>
<text text-anchor="start" x="278" y="-206.9" font-family="Arial" font-size="14.00" fill="#000000">postal_code </text>
<text text-anchor="start" x="357.366" y="-206.9" font-family="Arial" font-size="14.00" fill="#666666">[varchar(255)]</text>
<polygon fill="none" stroke="#000000" points="271,-165.5 271,-195.5 544,-195.5 544,-165.5 271,-165.5"/>
<text text-anchor="start" x="278" y="-176.9" font-family="Arial" font-size="14.00" fill="#000000">prefecture </text>
<text text-anchor="start" x="344.906" y="-176.9" font-family="Arial" font-size="14.00" fill="#666666">[varchar(255)]</text>
<polygon fill="none" stroke="#000000" points="271,-135.5 271,-165.5 544,-165.5 544,-135.5 271,-135.5"/>
<text text-anchor="start" x="278" y="-146.9" font-family="Arial" font-size="14.00" fill="#000000">city </text>
<text text-anchor="start" x="302.8878" y="-146.9" font-family="Arial" font-size="14.00" fill="#666666">[varchar(255)]</text>
<polygon fill="none" stroke="#000000" points="271,-105.5 271,-135.5 544,-135.5 544,-105.5 271,-105.5"/>
<text text-anchor="start" x="278" y="-116.9" font-family="Arial" font-size="14.00" fill="#000000">address </text>
<text text-anchor="start" x="331.6816" y="-116.9" font-family="Arial" font-size="14.00" fill="#666666">[varchar(255)]</text>
<polygon fill="none" stroke="#000000" points="271,-75.5 271,-105.5 544,-105.5 544,-75.5 271,-75.5"/>
<text text-anchor="start" x="278" y="-86.9" font-family="Arial" font-size="14.00" fill="#000000">created_at </text>
<text text-anchor="start" x="348.028" y="-86.9" font-family="Arial" font-size="14.00" fill="#666666">[timestamp without time zone]</text>
<polygon fill="none" stroke="#000000" points="271,-45.5 271,-75.5 544,-75.5 544,-45.5 271,-45.5"/>
<text text-anchor="start" x="277.9636" y="-56.9" font-family="Arial" font-size="14.00" fill="#000000">updated_at </text>
<text text-anchor="start" x="351.8962" y="-56.9" font-family="Arial" font-size="14.00" fill="#666666">[timestamp without time zone]</text>
<polygon fill="none" stroke="#000000" stroke-width="3" points="269,-44.5 269,-322.5 545,-322.5 545,-44.5 269,-44.5"/>
</g>
<!-- public.teachers -->
<g id="node2" class="node">
<title>public.teachers</title>
<polygon fill="#efefef" stroke="transparent" points="256,-745.5 256,-780.5 559,-780.5 559,-745.5 256,-745.5"/>
<polygon fill="none" stroke="#000000" points="256,-745.5 256,-780.5 559,-780.5 559,-745.5 256,-745.5"/>
<text text-anchor="start" x="283.2018" y="-758.3" font-family="Arial Bold" font-size="18.00" fill="#000000">public.teachers</text>
<text text-anchor="start" x="404.2302" y="-758.3" font-family="Arial" font-size="14.00" fill="#000000">    </text>
<text text-anchor="start" x="438.435" y="-758.3" font-family="Arial" font-size="14.00" fill="#666666">[BASE TABLE]</text>
<polygon fill="none" stroke="#000000" points="256,-715.5 256,-745.5 559,-745.5 559,-715.5 256,-715.5"/>
<text text-anchor="start" x="263" y="-726.9" font-family="Arial" font-size="14.00" fill="#000000">id    </text>
<text text-anchor="start" x="308.094" y="-726.9" font-family="Arial" font-size="14.00" fill="#666666">[bigint]</text>
<polygon fill="none" stroke="#000000" points="256,-685.5 256,-715.5 559,-715.5 559,-685.5 256,-685.5"/>
<text text-anchor="start" x="263" y="-696.9" font-family="Arial" font-size="14.00" fill="#000000">name    </text>
<text text-anchor="start" x="332.2132" y="-696.9" font-family="Arial" font-size="14.00" fill="#666666">[varchar(255)]</text>
<polygon fill="none" stroke="#000000" points="256,-655.5 256,-685.5 559,-685.5 559,-655.5 256,-655.5"/>
<text text-anchor="start" x="263" y="-666.9" font-family="Arial" font-size="14.00" fill="#000000">family_name    </text>
<text text-anchor="start" x="376.5428" y="-666.9" font-family="Arial" font-size="14.00" fill="#666666">[varchar(255)]</text>
<polygon fill="none" stroke="#000000" points="256,-625.5 256,-655.5 559,-655.5 559,-625.5 256,-625.5"/>
<text text-anchor="start" x="263" y="-636.9" font-family="Arial" font-size="14.00" fill="#000000">given_name    </text>
<text text-anchor="start" x="373.4502" y="-636.9" font-family="Arial" font-size="14.00" fill="#666666">[varchar(255)]</text>
<polygon fill="none" stroke="#000000" points="256,-595.5 256,-625.5 559,-625.5 559,-595.5 256,-595.5"/>
<text text-anchor="start" x="263" y="-606.9" font-family="Arial" font-size="14.00" fill="#000000">school_id    </text>
<text text-anchor="start" x="356.331" y="-606.9" font-family="Arial" font-size="14.00" fill="#666666">[bigint]</text>
<polygon fill="none" stroke="#000000" points="256,-565.5 256,-595.5 559,-595.5 559,-565.5 256,-565.5"/>
<text text-anchor="start" x="263" y="-576.9" font-family="Arial" font-size="14.00" fill="#000000">email    </text>
<text text-anchor="start" x="330.6438" y="-576.9" font-family="Arial" font-size="14.00" fill="#666666">[varchar(255)]</text>
<polygon fill="none" stroke="#000000" points="256,-535.5 256,-565.5 559,-565.5 559,-535.5 256,-535.5"/>
<text text-anchor="start" x="263" y="-546.9" font-family="Arial" font-size="14.00" fill="#000000">status    </text>
<text text-anchor="start" x="334.5512" y="-546.9" font-family="Arial" font-size="14.00" fill="#666666">[integer]</text>
<polygon fill="none" stroke="#000000" points="256,-505.5 256,-535.5 559,-535.5 559,-505.5 256,-505.5"/>
<text text-anchor="start" x="263" y="-516.9" font-family="Arial" font-size="14.00" fill="#000000">created_at    </text>
<text text-anchor="start" x="363.3422" y="-516.9" font-family="Arial" font-size="14.00" fill="#666666">[timestamp without time zone]</text>
<polygon fill="none" stroke="#000000" points="256,-475.5 256,-505.5 559,-505.5 559,-475.5 256,-475.5"/>
<text text-anchor="start" x="262.8065" y="-486.9" font-family="Arial" font-size="14.00" fill="#000000">updated_at    </text>
<text text-anchor="start" x="367.0533" y="-486.9" font-family="Arial" font-size="14.00" fill="#666666">[timestamp without time zone]</text>
<polygon fill="none" stroke="#000000" points="256,-445.5 256,-475.5 559,-475.5 559,-445.5 256,-445.5"/>
<text text-anchor="start" x="263" y="-456.9" font-family="Arial" font-size="14.00" fill="#000000">expired_at    </text>
<text text-anchor="start" x="362.5582" y="-456.9" font-family="Arial" font-size="14.00" fill="#666666">[timestamp without time zone]</text>
</g>
<!-- public.teachers&#45;&gt;public.schools -->
<g id="edge1" class="edge">
<title>public.teachers:school_id&#45;&gt;public.schools:id</title>
<path fill="none" stroke="#000000" d="M245.959,-608.3288C181.9104,-579.3721 198.9161,-270.5 271,-270.5"/>
<polygon fill="#000000" stroke="#000000" points="246.2259,-608.3865 255.0489,-614.8984 251.1129,-609.4432 256,-610.5 256,-610.5 256,-610.5 251.1129,-609.4432 256.9511,-606.1016 246.2259,-608.3865 246.2259,-608.3865"/>
<text text-anchor="start" x="6.8855" y="-620.5" font-family="Arial" font-size="10.00" fill="#000000">FOREIGN KEY (school_id) REFERENCES schools(id)</text>
</g>
</g>
</svg>
