<?xml version="1.0" encoding="UTF-8" standalone="no"?>
<!DOCTYPE svg PUBLIC "-//W3C//DTD SVG 1.1//EN"
 "http://www.w3.org/Graphics/SVG/1.1/DTD/svg11.dtd">
<!-- Generated by graphviz version 2.40.1 (20161225.0304)
 -->
<!-- Title: public.teams Pages: 1 -->
<svg width="584pt" height="869pt"
 viewBox="0.00 0.00 583.50 869.00" xmlns="http://www.w3.org/2000/svg" xmlns:xlink="http://www.w3.org/1999/xlink">
<g id="graph0" class="graph" transform="scale(1 1) rotate(0) translate(4 865)">
<title>public.teams</title>
<polygon fill="#ffffff" stroke="transparent" points="-4,4 -4,-865 579.5,-865 579.5,4 -4,4"/>
<!-- public.teams -->
<g id="node1" class="node">
<title>public.teams</title>
<polygon fill="#efefef" stroke="transparent" points="257,-442.5 257,-477.5 530,-477.5 530,-442.5 257,-442.5"/>
<polygon fill="none" stroke="#000000" points="257,-442.5 257,-477.5 530,-477.5 530,-442.5 257,-442.5"/>
<text text-anchor="start" x="294.3651" y="-455.3" font-family="Arial Bold" font-size="18.00" fill="#000000">public.teams</text>
<text text-anchor="start" x="395.3811" y="-455.3" font-family="Arial" font-size="14.00" fill="#000000"> </text>
<text text-anchor="start" x="399.2717" y="-455.3" font-family="Arial" font-size="14.00" fill="#666666">[BASE TABLE]</text>
<polygon fill="none" stroke="#000000" points="257,-412.5 257,-442.5 530,-442.5 530,-412.5 257,-412.5"/>
<text text-anchor="start" x="264" y="-423.9" font-family="Arial" font-size="14.00" fill="#000000">id </text>
<text text-anchor="start" x="278.7798" y="-423.9" font-family="Arial" font-size="14.00" fill="#666666">[integer]</text>
<polygon fill="none" stroke="#000000" points="257,-382.5 257,-412.5 530,-412.5 530,-382.5 257,-382.5"/>
<text text-anchor="start" x="264" y="-393.9" font-family="Arial" font-size="14.00" fill="#000000">survey_id </text>
<text text-anchor="start" x="327.7882" y="-393.9" font-family="Arial" font-size="14.00" fill="#666666">[bigint]</text>
<polygon fill="none" stroke="#000000" points="257,-352.5 257,-382.5 530,-382.5 530,-352.5 257,-352.5"/>
<text text-anchor="start" x="264" y="-363.9" font-family="Arial" font-size="14.00" fill="#000000">created_at </text>
<text text-anchor="start" x="334.028" y="-363.9" font-family="Arial" font-size="14.00" fill="#666666">[timestamp without time zone]</text>
<polygon fill="none" stroke="#000000" points="257,-322.5 257,-352.5 530,-352.5 530,-322.5 257,-322.5"/>
<text text-anchor="start" x="263.9636" y="-333.9" font-family="Arial" font-size="14.00" fill="#000000">updated_at </text>
<text text-anchor="start" x="337.8962" y="-333.9" font-family="Arial" font-size="14.00" fill="#666666">[timestamp without time zone]</text>
<polygon fill="none" stroke="#000000" stroke-width="3" points="255,-321.5 255,-479.5 531,-479.5 531,-321.5 255,-321.5"/>
</g>
<!-- public.surveys -->
<g id="node3" class="node">
<title>public.surveys</title>
<polygon fill="#efefef" stroke="transparent" points="257,-162.5 257,-197.5 530,-197.5 530,-162.5 257,-162.5"/>
<polygon fill="none" stroke="#000000" points="257,-162.5 257,-197.5 530,-197.5 530,-162.5 257,-162.5"/>
<text text-anchor="start" x="287.8662" y="-175.3" font-family="Arial Bold" font-size="18.00" fill="#000000">public.surveys</text>
<text text-anchor="start" x="401.88" y="-175.3" font-family="Arial" font-size="14.00" fill="#000000"> </text>
<text text-anchor="start" x="405.7706" y="-175.3" font-family="Arial" font-size="14.00" fill="#666666">[BASE TABLE]</text>
<polygon fill="none" stroke="#000000" points="257,-132.5 257,-162.5 530,-162.5 530,-132.5 257,-132.5"/>
<text text-anchor="start" x="264" y="-143.9" font-family="Arial" font-size="14.00" fill="#000000">id </text>
<text text-anchor="start" x="278.7798" y="-143.9" font-family="Arial" font-size="14.00" fill="#666666">[bigint]</text>
<polygon fill="none" stroke="#000000" points="257,-102.5 257,-132.5 530,-132.5 530,-102.5 257,-102.5"/>
<text text-anchor="start" x="264" y="-113.9" font-family="Arial" font-size="14.00" fill="#000000">histories_id </text>
<text text-anchor="start" x="338.6746" y="-113.9" font-family="Arial" font-size="14.00" fill="#666666">[bigint]</text>
<polygon fill="none" stroke="#000000" points="257,-72.5 257,-102.5 530,-102.5 530,-72.5 257,-72.5"/>
<text text-anchor="start" x="264" y="-83.9" font-family="Arial" font-size="14.00" fill="#000000">created_at </text>
<text text-anchor="start" x="334.028" y="-83.9" font-family="Arial" font-size="14.00" fill="#666666">[timestamp without time zone]</text>
<polygon fill="none" stroke="#000000" points="257,-42.5 257,-72.5 530,-72.5 530,-42.5 257,-42.5"/>
<text text-anchor="start" x="263.9636" y="-53.9" font-family="Arial" font-size="14.00" fill="#000000">updated_at </text>
<text text-anchor="start" x="337.8962" y="-53.9" font-family="Arial" font-size="14.00" fill="#666666">[timestamp without time zone]</text>
</g>
<!-- public.teams&#45;&gt;public.surveys -->
<g id="edge2" class="edge">
<title>public.teams:survey_id&#45;&gt;public.surveys:id</title>
<path fill="none" stroke="#000000" d="M246.9089,-396.7828C145.9974,-382.1191 149.3611,-147.5 257,-147.5"/>
<polygon fill="#000000" stroke="#000000" points="247.0252,-396.791 256.681,-401.9887 252.0126,-397.1455 257,-397.5 257,-397.5 257,-397.5 252.0126,-397.1455 257.319,-393.0113 247.0252,-396.791 247.0252,-396.791"/>
<text text-anchor="start" x="7.3345" y="-407.5" font-family="Arial" font-size="10.00" fill="#000000">FOREIGN KEY (survey_id) REFERENCES surveys(id)</text>
</g>
<!-- public.student_flavor -->
<g id="node2" class="node">
<title>public.student_flavor</title>
<polygon fill="#efefef" stroke="transparent" points="256,-782.5 256,-817.5 532,-817.5 532,-782.5 256,-782.5"/>
<polygon fill="none" stroke="#000000" points="256,-782.5 256,-817.5 532,-817.5 532,-782.5 256,-782.5"/>
<text text-anchor="start" x="262.8503" y="-795.3" font-family="Arial Bold" font-size="18.00" fill="#000000">public.student_flavor</text>
<text text-anchor="start" x="427.8959" y="-795.3" font-family="Arial" font-size="14.00" fill="#000000"> </text>
<text text-anchor="start" x="431.7865" y="-795.3" font-family="Arial" font-size="14.00" fill="#666666">[BASE TABLE]</text>
<polygon fill="none" stroke="#000000" points="256,-752.5 256,-782.5 532,-782.5 532,-752.5 256,-752.5"/>
<text text-anchor="start" x="263" y="-763.9" font-family="Arial" font-size="14.00" fill="#000000">id </text>
<text text-anchor="start" x="277.7798" y="-763.9" font-family="Arial" font-size="14.00" fill="#666666">[integer]</text>
<polygon fill="none" stroke="#000000" points="256,-722.5 256,-752.5 532,-752.5 532,-722.5 256,-722.5"/>
<text text-anchor="start" x="263" y="-733.9" font-family="Arial" font-size="14.00" fill="#000000">team_id </text>
<text text-anchor="start" x="316.6788" y="-733.9" font-family="Arial" font-size="14.00" fill="#666666">[bigint]</text>
<polygon fill="none" stroke="#000000" points="256,-692.5 256,-722.5 532,-722.5 532,-692.5 256,-692.5"/>
<text text-anchor="start" x="263" y="-703.9" font-family="Arial" font-size="14.00" fill="#000000">student_id </text>
<text text-anchor="start" x="331.474" y="-703.9" font-family="Arial" font-size="14.00" fill="#666666">[bigint]</text>
<polygon fill="none" stroke="#000000" points="256,-662.5 256,-692.5 532,-692.5 532,-662.5 256,-662.5"/>
<text text-anchor="start" x="263" y="-673.9" font-family="Arial" font-size="14.00" fill="#000000">flavor_id </text>
<text text-anchor="start" x="319.7854" y="-673.9" font-family="Arial" font-size="14.00" fill="#666666">[bigint]</text>
<polygon fill="none" stroke="#000000" points="256,-632.5 256,-662.5 532,-662.5 532,-632.5 256,-632.5"/>
<text text-anchor="start" x="263" y="-643.9" font-family="Arial" font-size="14.00" fill="#000000">created_at </text>
<text text-anchor="start" x="333.028" y="-643.9" font-family="Arial" font-size="14.00" fill="#666666">[timestamp without time zone]</text>
<polygon fill="none" stroke="#000000" points="256,-602.5 256,-632.5 532,-632.5 532,-602.5 256,-602.5"/>
<text text-anchor="start" x="263" y="-613.9" font-family="Arial" font-size="14.00" fill="#000000">updated_at </text>
<text text-anchor="start" x="336.9326" y="-613.9" font-family="Arial" font-size="14.00" fill="#666666">[timestamp without time zone]</text>
</g>
<!-- public.student_flavor&#45;&gt;public.teams -->
<g id="edge1" class="edge">
<title>public.student_flavor:team_id&#45;&gt;public.teams:id</title>
<path fill="none" stroke="#000000" d="M246.0014,-736.8005C179.5756,-726.9998 206.3142,-616.6409 256,-560 336.9958,-467.6663 449.0042,-616.3337 530,-524 558.2828,-491.7581 572.8889,-427.5 530,-427.5"/>
<polygon fill="#000000" stroke="#000000" points="246.0244,-736.802 255.6859,-741.989 251.0122,-737.151 256,-737.5 256,-737.5 256,-737.5 251.0122,-737.151 256.3141,-733.011 246.0244,-736.802 246.0244,-736.802"/>
<text text-anchor="start" x="20.5555" y="-747.5" font-family="Arial" font-size="10.00" fill="#000000">FOREIGN KEY (team_id) REFERENCES teams(id)</text>
</g>
</g>
</svg>
