<?xml version="1.0" encoding="UTF-8" standalone="no"?>
<!DOCTYPE svg PUBLIC "-//W3C//DTD SVG 1.1//EN"
 "http://www.w3.org/Graphics/SVG/1.1/DTD/svg11.dtd">
<!-- Generated by graphviz version 2.40.1 (20161225.0304)
 -->
<!-- Title: public.teachers Pages: 1 -->
<svg width="744pt" height="742pt"
 viewBox="0.00 0.00 744.00 742.00" xmlns="http://www.w3.org/2000/svg" xmlns:xlink="http://www.w3.org/1999/xlink">
<g id="graph0" class="graph" transform="scale(1 1) rotate(0) translate(4 738)">
<title>public.teachers</title>
<polygon fill="#ffffff" stroke="transparent" points="-4,4 -4,-738 740,-738 740,4 -4,4"/>
<!-- public.teachers -->
<g id="node1" class="node">
<title>public.teachers</title>
<polygon fill="#efefef" stroke="transparent" points="231.5,-315.5 231.5,-350.5 504.5,-350.5 504.5,-315.5 231.5,-315.5"/>
<polygon fill="none" stroke="#000000" points="231.5,-315.5 231.5,-350.5 504.5,-350.5 504.5,-315.5 231.5,-315.5"/>
<text text-anchor="start" x="258.8589" y="-328.3" font-family="Arial Bold" font-size="18.00" fill="#000000">public.teachers</text>
<text text-anchor="start" x="379.8873" y="-328.3" font-family="Arial" font-size="14.00" fill="#000000"> </text>
<text text-anchor="start" x="383.7779" y="-328.3" font-family="Arial" font-size="14.00" fill="#666666">[BASE TABLE]</text>
<polygon fill="none" stroke="#000000" points="231.5,-285.5 231.5,-315.5 504.5,-315.5 504.5,-285.5 231.5,-285.5"/>
<text text-anchor="start" x="238.5" y="-296.9" font-family="Arial" font-size="14.00" fill="#000000">id </text>
<text text-anchor="start" x="253.2798" y="-296.9" font-family="Arial" font-size="14.00" fill="#666666">[bigint]</text>
<polygon fill="none" stroke="#000000" points="231.5,-255.5 231.5,-285.5 504.5,-285.5 504.5,-255.5 231.5,-255.5"/>
<text text-anchor="start" x="238.5" y="-266.9" font-family="Arial" font-size="14.00" fill="#000000">name </text>
<text text-anchor="start" x="277.399" y="-266.9" font-family="Arial" font-size="14.00" fill="#666666">[varchar(256)]</text>
<polygon fill="none" stroke="#000000" points="231.5,-225.5 231.5,-255.5 504.5,-255.5 504.5,-225.5 231.5,-225.5"/>
<text text-anchor="start" x="238.5" y="-236.9" font-family="Arial" font-size="14.00" fill="#000000">family_name </text>
<text text-anchor="start" x="321.7286" y="-236.9" font-family="Arial" font-size="14.00" fill="#666666">[varchar(256)]</text>
<polygon fill="none" stroke="#000000" points="231.5,-195.5 231.5,-225.5 504.5,-225.5 504.5,-195.5 231.5,-195.5"/>
<text text-anchor="start" x="238.5" y="-206.9" font-family="Arial" font-size="14.00" fill="#000000">given_name </text>
<text text-anchor="start" x="318.636" y="-206.9" font-family="Arial" font-size="14.00" fill="#666666">[varchar(256)]</text>
<polygon fill="none" stroke="#000000" points="231.5,-165.5 231.5,-195.5 504.5,-195.5 504.5,-165.5 231.5,-165.5"/>
<text text-anchor="start" x="238.5" y="-176.9" font-family="Arial" font-size="14.00" fill="#000000">email </text>
<text text-anchor="start" x="275.8296" y="-176.9" font-family="Arial" font-size="14.00" fill="#666666">[varchar(256)]</text>
<polygon fill="none" stroke="#000000" points="231.5,-135.5 231.5,-165.5 504.5,-165.5 504.5,-135.5 231.5,-135.5"/>
<text text-anchor="start" x="238.5" y="-146.9" font-family="Arial" font-size="14.00" fill="#000000">status </text>
<text text-anchor="start" x="279.737" y="-146.9" font-family="Arial" font-size="14.00" fill="#666666">[integer]</text>
<polygon fill="none" stroke="#000000" points="231.5,-105.5 231.5,-135.5 504.5,-135.5 504.5,-105.5 231.5,-105.5"/>
<text text-anchor="start" x="238.5" y="-116.9" font-family="Arial" font-size="14.00" fill="#000000">created_at </text>
<text text-anchor="start" x="308.528" y="-116.9" font-family="Arial" font-size="14.00" fill="#666666">[timestamp without time zone]</text>
<polygon fill="none" stroke="#000000" points="231.5,-75.5 231.5,-105.5 504.5,-105.5 504.5,-75.5 231.5,-75.5"/>
<text text-anchor="start" x="238.4636" y="-86.9" font-family="Arial" font-size="14.00" fill="#000000">updated_at </text>
<text text-anchor="start" x="312.3962" y="-86.9" font-family="Arial" font-size="14.00" fill="#666666">[timestamp without time zone]</text>
<polygon fill="none" stroke="#000000" points="231.5,-45.5 231.5,-75.5 504.5,-75.5 504.5,-45.5 231.5,-45.5"/>
<text text-anchor="start" x="238.5" y="-56.9" font-family="Arial" font-size="14.00" fill="#000000">expired_at </text>
<text text-anchor="start" x="307.744" y="-56.9" font-family="Arial" font-size="14.00" fill="#666666">[timestamp without time zone]</text>
<polygon fill="none" stroke="#000000" stroke-width="3" points="229.5,-44.5 229.5,-352.5 505.5,-352.5 505.5,-44.5 229.5,-44.5"/>
</g>
<!-- public.classes -->
<g id="node2" class="node">
<title>public.classes</title>
<polygon fill="#efefef" stroke="transparent" points="43.5,-655.5 43.5,-690.5 316.5,-690.5 316.5,-655.5 43.5,-655.5"/>
<polygon fill="none" stroke="#000000" points="43.5,-655.5 43.5,-690.5 316.5,-690.5 316.5,-655.5 43.5,-655.5"/>
<text text-anchor="start" x="75.3652" y="-668.3" font-family="Arial Bold" font-size="18.00" fill="#000000">public.classes</text>
<text text-anchor="start" x="187.381" y="-668.3" font-family="Arial" font-size="14.00" fill="#000000"> </text>
<text text-anchor="start" x="191.2716" y="-668.3" font-family="Arial" font-size="14.00" fill="#666666">[BASE TABLE]</text>
<polygon fill="none" stroke="#000000" points="43.5,-625.5 43.5,-655.5 316.5,-655.5 316.5,-625.5 43.5,-625.5"/>
<text text-anchor="start" x="50.5" y="-636.9" font-family="Arial" font-size="14.00" fill="#000000">id </text>
<text text-anchor="start" x="65.2798" y="-636.9" font-family="Arial" font-size="14.00" fill="#666666">[integer]</text>
<polygon fill="none" stroke="#000000" points="43.5,-595.5 43.5,-625.5 316.5,-625.5 316.5,-595.5 43.5,-595.5"/>
<text text-anchor="start" x="50.5" y="-606.9" font-family="Arial" font-size="14.00" fill="#000000">name </text>
<text text-anchor="start" x="89.399" y="-606.9" font-family="Arial" font-size="14.00" fill="#666666">[varchar(255)]</text>
<polygon fill="none" stroke="#000000" points="43.5,-565.5 43.5,-595.5 316.5,-595.5 316.5,-565.5 43.5,-565.5"/>
<text text-anchor="start" x="50.5" y="-576.9" font-family="Arial" font-size="14.00" fill="#000000">organization </text>
<text text-anchor="start" x="130.6332" y="-576.9" font-family="Arial" font-size="14.00" fill="#666666">[varchar(255)]</text>
<polygon fill="none" stroke="#000000" points="43.5,-535.5 43.5,-565.5 316.5,-565.5 316.5,-535.5 43.5,-535.5"/>
<text text-anchor="start" x="50.5" y="-546.9" font-family="Arial" font-size="14.00" fill="#000000">teacher_id </text>
<text text-anchor="start" x="119.744" y="-546.9" font-family="Arial" font-size="14.00" fill="#666666">[bigint]</text>
<polygon fill="none" stroke="#000000" points="43.5,-505.5 43.5,-535.5 316.5,-535.5 316.5,-505.5 43.5,-505.5"/>
<text text-anchor="start" x="50.5" y="-516.9" font-family="Arial" font-size="14.00" fill="#000000">created_at </text>
<text text-anchor="start" x="120.528" y="-516.9" font-family="Arial" font-size="14.00" fill="#666666">[timestamp without time zone]</text>
<polygon fill="none" stroke="#000000" points="43.5,-475.5 43.5,-505.5 316.5,-505.5 316.5,-475.5 43.5,-475.5"/>
<text text-anchor="start" x="50.4636" y="-486.9" font-family="Arial" font-size="14.00" fill="#000000">updated_at </text>
<text text-anchor="start" x="124.3962" y="-486.9" font-family="Arial" font-size="14.00" fill="#666666">[timestamp without time zone]</text>
</g>
<!-- public.classes&#45;&gt;public.teachers -->
<g id="edge1" class="edge">
<title>public.classes:teacher_id&#45;&gt;public.teachers:id</title>
<path fill="none" stroke="#000000" d="M326.9069,-549.3204C365.2215,-539.6886 343.2003,-473.3046 316.5,-433 293.8423,-398.7978 254.1577,-431.2022 231.5,-397 207.8137,-361.2451 188.6111,-300.5 231.5,-300.5"/>
<polygon fill="#000000" stroke="#000000" points="326.4364,-549.3737 315.9931,-546.0286 321.4682,-549.9368 316.5,-550.5 316.5,-550.5 316.5,-550.5 321.4682,-549.9368 317.0069,-554.9714 326.4364,-549.3737 326.4364,-549.3737"/>
<text text-anchor="start" x="323.9375" y="-560.5" font-family="Arial" font-size="10.00" fill="#000000">FOREIGN KEY (teacher_id) REFERENCES teachers(id)</text>
</g>
<!-- public.histories -->
<g id="node3" class="node">
<title>public.histories</title>
<polygon fill="#efefef" stroke="transparent" points="420.5,-625.5 420.5,-660.5 693.5,-660.5 693.5,-625.5 420.5,-625.5"/>
<polygon fill="none" stroke="#000000" points="420.5,-625.5 420.5,-660.5 693.5,-660.5 693.5,-625.5 420.5,-625.5"/>
<text text-anchor="start" x="448.8678" y="-638.3" font-family="Arial Bold" font-size="18.00" fill="#000000">public.histories</text>
<text text-anchor="start" x="567.8784" y="-638.3" font-family="Arial" font-size="14.00" fill="#000000"> </text>
<text text-anchor="start" x="571.769" y="-638.3" font-family="Arial" font-size="14.00" fill="#666666">[BASE TABLE]</text>
<polygon fill="none" stroke="#000000" points="420.5,-595.5 420.5,-625.5 693.5,-625.5 693.5,-595.5 420.5,-595.5"/>
<text text-anchor="start" x="427.5" y="-606.9" font-family="Arial" font-size="14.00" fill="#000000">id </text>
<text text-anchor="start" x="442.2798" y="-606.9" font-family="Arial" font-size="14.00" fill="#666666">[bigint]</text>
<polygon fill="none" stroke="#000000" points="420.5,-565.5 420.5,-595.5 693.5,-595.5 693.5,-565.5 420.5,-565.5"/>
<text text-anchor="start" x="427.5" y="-576.9" font-family="Arial" font-size="14.00" fill="#000000">teacher_id </text>
<text text-anchor="start" x="496.744" y="-576.9" font-family="Arial" font-size="14.00" fill="#666666">[bigint]</text>
<polygon fill="none" stroke="#000000" points="420.5,-535.5 420.5,-565.5 693.5,-565.5 693.5,-535.5 420.5,-535.5"/>
<text text-anchor="start" x="427.5" y="-546.9" font-family="Arial" font-size="14.00" fill="#000000">created_at </text>
<text text-anchor="start" x="497.528" y="-546.9" font-family="Arial" font-size="14.00" fill="#666666">[timestamp without time zone]</text>
<polygon fill="none" stroke="#000000" points="420.5,-505.5 420.5,-535.5 693.5,-535.5 693.5,-505.5 420.5,-505.5"/>
<text text-anchor="start" x="427.4636" y="-516.9" font-family="Arial" font-size="14.00" fill="#000000">updated_at </text>
<text text-anchor="start" x="501.3962" y="-516.9" font-family="Arial" font-size="14.00" fill="#666666">[timestamp without time zone]</text>
</g>
<!-- public.histories&#45;&gt;public.teachers -->
<g id="edge2" class="edge">
<title>public.histories:teacher_id&#45;&gt;public.teachers:id</title>
<path fill="none" stroke="#000000" d="M410.1851,-579.3729C372.6048,-570.1603 399.366,-506.4825 420.5,-463 441.2547,-420.298 483.7453,-439.702 504.5,-397 523.2483,-358.426 547.3889,-300.5 504.5,-300.5"/>
<polygon fill="#000000" stroke="#000000" points="410.5592,-579.4137 420.0112,-584.9734 415.5296,-579.9569 420.5,-580.5 420.5,-580.5 420.5,-580.5 415.5296,-579.9569 420.9888,-576.0266 410.5592,-579.4137 410.5592,-579.4137"/>
<text text-anchor="start" x="427.9375" y="-590.5" font-family="Arial" font-size="10.00" fill="#000000">FOREIGN KEY (teacher_id) REFERENCES teachers(id)</text>
</g>
</g>
</svg>
