<?xml version="1.0" encoding="UTF-8" standalone="no"?>
<!DOCTYPE svg PUBLIC "-//W3C//DTD SVG 1.1//EN"
 "http://www.w3.org/Graphics/SVG/1.1/DTD/svg11.dtd">
<!-- Generated by graphviz version 2.40.1 (20161225.0304)
 -->
<!-- Title: public.teams Pages: 1 -->
<svg width="685pt" height="1079pt"
 viewBox="0.00 0.00 685.00 1079.00" xmlns="http://www.w3.org/2000/svg" xmlns:xlink="http://www.w3.org/1999/xlink">
<g id="graph0" class="graph" transform="scale(1 1) rotate(0) translate(4 1075)">
<title>public.teams</title>
<polygon fill="#ffffff" stroke="transparent" points="-4,4 -4,-1075 681,-1075 681,4 -4,4"/>
<!-- public.teams -->
<g id="node1" class="node">
<title>public.teams</title>
<polygon fill="#efefef" stroke="transparent" points="136,-412.5 136,-447.5 378,-447.5 378,-412.5 136,-412.5"/>
<polygon fill="none" stroke="#000000" points="136,-412.5 136,-447.5 378,-447.5 378,-412.5 136,-412.5"/>
<text text-anchor="start" x="142.708" y="-425.3" font-family="Arial Bold" font-size="18.00" fill="#000000">public.teams</text>
<text text-anchor="start" x="243.724" y="-425.3" font-family="Arial" font-size="14.00" fill="#000000">    </text>
<text text-anchor="start" x="277.9288" y="-425.3" font-family="Arial" font-size="14.00" fill="#666666">[BASE TABLE]</text>
<polygon fill="none" stroke="#000000" points="136,-382.5 136,-412.5 378,-412.5 378,-382.5 136,-382.5"/>
<text text-anchor="start" x="143" y="-393.9" font-family="Arial" font-size="14.00" fill="#000000">id </text>
<text text-anchor="start" x="157.7798" y="-393.9" font-family="Arial" font-size="14.00" fill="#666666">[bigint]</text>
<polygon fill="none" stroke="#000000" points="136,-352.5 136,-382.5 378,-382.5 378,-352.5 136,-352.5"/>
<text text-anchor="start" x="143" y="-363.9" font-family="Arial" font-size="14.00" fill="#000000">name </text>
<text text-anchor="start" x="181.899" y="-363.9" font-family="Arial" font-size="14.00" fill="#666666">[varchar(255)]</text>
<polygon fill="none" stroke="#000000" points="136,-322.5 136,-352.5 378,-352.5 378,-322.5 136,-322.5"/>
<text text-anchor="start" x="143" y="-333.9" font-family="Arial" font-size="14.00" fill="#000000">survey_id </text>
<text text-anchor="start" x="206.7882" y="-333.9" font-family="Arial" font-size="14.00" fill="#666666">[bigint]</text>
<polygon fill="none" stroke="#000000" stroke-width="3" points="134.5,-321.5 134.5,-449.5 379.5,-449.5 379.5,-321.5 134.5,-321.5"/>
</g>
<!-- public.surveys -->
<g id="node3" class="node">
<title>public.surveys</title>
<polygon fill="#efefef" stroke="transparent" points="129,-162.5 129,-197.5 384,-197.5 384,-162.5 129,-162.5"/>
<polygon fill="none" stroke="#000000" points="129,-162.5 129,-197.5 384,-197.5 384,-162.5 129,-162.5"/>
<text text-anchor="start" x="135.7091" y="-175.3" font-family="Arial Bold" font-size="18.00" fill="#000000">public.surveys</text>
<text text-anchor="start" x="249.7229" y="-175.3" font-family="Arial" font-size="14.00" fill="#000000">    </text>
<text text-anchor="start" x="283.9277" y="-175.3" font-family="Arial" font-size="14.00" fill="#666666">[BASE TABLE]</text>
<polygon fill="none" stroke="#000000" points="129,-132.5 129,-162.5 384,-162.5 384,-132.5 129,-132.5"/>
<text text-anchor="start" x="136" y="-143.9" font-family="Arial" font-size="14.00" fill="#000000">id    </text>
<text text-anchor="start" x="181.094" y="-143.9" font-family="Arial" font-size="14.00" fill="#666666">[bigint]</text>
<polygon fill="none" stroke="#000000" points="129,-102.5 129,-132.5 384,-132.5 384,-102.5 129,-102.5"/>
<text text-anchor="start" x="136" y="-113.9" font-family="Arial" font-size="14.00" fill="#000000">name    </text>
<text text-anchor="start" x="205.2132" y="-113.9" font-family="Arial" font-size="14.00" fill="#666666">[varchar(255)]</text>
<polygon fill="none" stroke="#000000" points="129,-72.5 129,-102.5 384,-102.5 384,-72.5 129,-72.5"/>
<text text-anchor="start" x="136" y="-83.9" font-family="Arial" font-size="14.00" fill="#000000">status    </text>
<text text-anchor="start" x="207.5512" y="-83.9" font-family="Arial" font-size="14.00" fill="#666666">[integer]</text>
<polygon fill="none" stroke="#000000" points="129,-42.5 129,-72.5 384,-72.5 384,-42.5 129,-42.5"/>
<text text-anchor="start" x="136" y="-53.9" font-family="Arial" font-size="14.00" fill="#000000">class_id    </text>
<text text-anchor="start" x="220.7658" y="-53.9" font-family="Arial" font-size="14.00" fill="#666666">[bigint]</text>
</g>
<!-- public.teams&#45;&gt;public.surveys -->
<g id="edge2" class="edge">
<title>public.teams:survey_id&#45;&gt;public.surveys:id</title>
<path fill="none" stroke="#000000" d="M257.8251,-312.4619C267.1855,-259.9823 353.5975,-296.6345 384,-241 403.9274,-204.5341 425.5556,-147.5 384,-147.5"/>
<polygon fill="#000000" stroke="#000000" points="257.8193,-312.5336 252.5151,-322.1313 257.4097,-317.5168 257,-322.5 257,-322.5 257,-322.5 257.4097,-317.5168 261.4849,-322.8687 257.8193,-312.5336 257.8193,-312.5336"/>
<text text-anchor="start" x="7.3345" y="-332.5" font-family="Arial" font-size="10.00" fill="#000000">FOREIGN KEY (survey_id) REFERENCES surveys(id)</text>
</g>
<!-- public.student_preferences -->
<g id="node2" class="node">
<title>public.student_preferences</title>
<polygon fill="#efefef" stroke="transparent" points="78,-992.5 78,-1027.5 435,-1027.5 435,-992.5 78,-992.5"/>
<polygon fill="none" stroke="#000000" points="78,-992.5 78,-1027.5 435,-1027.5 435,-992.5 78,-992.5"/>
<text text-anchor="start" x="84.6818" y="-1005.3" font-family="Arial Bold" font-size="18.00" fill="#000000">public.student_preferences</text>
<text text-anchor="start" x="300.7502" y="-1005.3" font-family="Arial" font-size="14.00" fill="#000000">    </text>
<text text-anchor="start" x="334.955" y="-1005.3" font-family="Arial" font-size="14.00" fill="#666666">[BASE TABLE]</text>
<polygon fill="none" stroke="#000000" points="78,-962.5 78,-992.5 435,-992.5 435,-962.5 78,-962.5"/>
<text text-anchor="start" x="85" y="-973.9" font-family="Arial" font-size="14.00" fill="#000000">id    </text>
<text text-anchor="start" x="130.094" y="-973.9" font-family="Arial" font-size="14.00" fill="#666666">[bigint]</text>
<polygon fill="none" stroke="#000000" points="78,-932.5 78,-962.5 435,-962.5 435,-932.5 78,-932.5"/>
<text text-anchor="start" x="85" y="-943.9" font-family="Arial" font-size="14.00" fill="#000000">student_id    </text>
<text text-anchor="start" x="183.7882" y="-943.9" font-family="Arial" font-size="14.00" fill="#666666">[bigint]</text>
<polygon fill="none" stroke="#000000" points="78,-902.5 78,-932.5 435,-932.5 435,-902.5 78,-902.5"/>
<text text-anchor="start" x="85" y="-913.9" font-family="Arial" font-size="14.00" fill="#000000">survey_id    </text>
<text text-anchor="start" x="179.1024" y="-913.9" font-family="Arial" font-size="14.00" fill="#666666">[bigint]</text>
<polygon fill="none" stroke="#000000" points="78,-872.5 78,-902.5 435,-902.5 435,-872.5 78,-872.5"/>
<text text-anchor="start" x="85" y="-883.9" font-family="Arial" font-size="14.00" fill="#000000">team_id    </text>
<text text-anchor="start" x="168.993" y="-883.9" font-family="Arial" font-size="14.00" fill="#666666">[bigint]</text>
<polygon fill="none" stroke="#000000" points="78,-842.5 78,-872.5 435,-872.5 435,-842.5 78,-842.5"/>
<text text-anchor="start" x="85" y="-853.9" font-family="Arial" font-size="14.00" fill="#000000">mi_a    </text>
<text text-anchor="start" x="149.5372" y="-853.9" font-family="Arial" font-size="14.00" fill="#666666">[integer]</text>
<polygon fill="none" stroke="#000000" points="78,-812.5 78,-842.5 435,-842.5 435,-812.5 78,-812.5"/>
<text text-anchor="start" x="85" y="-823.9" font-family="Arial" font-size="14.00" fill="#000000">mi_b    </text>
<text text-anchor="start" x="149.5372" y="-823.9" font-family="Arial" font-size="14.00" fill="#666666">[integer]</text>
<polygon fill="none" stroke="#000000" points="78,-782.5 78,-812.5 435,-812.5 435,-782.5 78,-782.5"/>
<text text-anchor="start" x="85" y="-793.9" font-family="Arial" font-size="14.00" fill="#000000">mi_c    </text>
<text text-anchor="start" x="148.7546" y="-793.9" font-family="Arial" font-size="14.00" fill="#666666">[integer]</text>
<polygon fill="none" stroke="#000000" points="78,-752.5 78,-782.5 435,-782.5 435,-752.5 78,-752.5"/>
<text text-anchor="start" x="85" y="-763.9" font-family="Arial" font-size="14.00" fill="#000000">mi_d    </text>
<text text-anchor="start" x="149.5372" y="-763.9" font-family="Arial" font-size="14.00" fill="#666666">[integer]</text>
<polygon fill="none" stroke="#000000" points="78,-722.5 78,-752.5 435,-752.5 435,-722.5 78,-722.5"/>
<text text-anchor="start" x="85" y="-733.9" font-family="Arial" font-size="14.00" fill="#000000">mi_e    </text>
<text text-anchor="start" x="149.5372" y="-733.9" font-family="Arial" font-size="14.00" fill="#666666">[integer]</text>
<polygon fill="none" stroke="#000000" points="78,-692.5 78,-722.5 435,-722.5 435,-692.5 78,-692.5"/>
<text text-anchor="start" x="85" y="-703.9" font-family="Arial" font-size="14.00" fill="#000000">mi_f    </text>
<text text-anchor="start" x="145.6452" y="-703.9" font-family="Arial" font-size="14.00" fill="#666666">[integer]</text>
<polygon fill="none" stroke="#000000" points="78,-662.5 78,-692.5 435,-692.5 435,-662.5 78,-662.5"/>
<text text-anchor="start" x="85" y="-673.9" font-family="Arial" font-size="14.00" fill="#000000">mi_g    </text>
<text text-anchor="start" x="149.5372" y="-673.9" font-family="Arial" font-size="14.00" fill="#666666">[integer]</text>
<polygon fill="none" stroke="#000000" points="78,-632.5 78,-662.5 435,-662.5 435,-632.5 78,-632.5"/>
<text text-anchor="start" x="85" y="-643.9" font-family="Arial" font-size="14.00" fill="#000000">mi_h    </text>
<text text-anchor="start" x="149.5372" y="-643.9" font-family="Arial" font-size="14.00" fill="#666666">[integer]</text>
<polygon fill="none" stroke="#000000" points="78,-602.5 78,-632.5 435,-632.5 435,-602.5 78,-602.5"/>
<text text-anchor="start" x="85" y="-613.9" font-family="Arial" font-size="14.00" fill="#000000">leader    </text>
<text text-anchor="start" x="158.1024" y="-613.9" font-family="Arial" font-size="14.00" fill="#666666">[integer]</text>
<polygon fill="none" stroke="#000000" points="78,-572.5 78,-602.5 435,-602.5 435,-572.5 78,-572.5"/>
<text text-anchor="start" x="85" y="-583.9" font-family="Arial" font-size="14.00" fill="#000000">eyesight    </text>
<text text-anchor="start" x="171.3324" y="-583.9" font-family="Arial" font-size="14.00" fill="#666666">[integer]</text>
</g>
<!-- public.student_preferences&#45;&gt;public.teams -->
<g id="edge1" class="edge">
<title>public.student_preferences:team_id&#45;&gt;public.teams:id</title>
<path fill="none" stroke="#000000" d="M445.0709,-885.7442C511.9902,-861.2026 485.3434,-586.7684 435,-530 346.1916,-429.8575 224.8084,-594.1425 136,-494 107.5433,-461.9115 93.1111,-397.5 136,-397.5"/>
<polygon fill="#000000" stroke="#000000" points="444.8514,-885.7824 434.2271,-883.0669 439.9257,-886.6412 435,-887.5 435,-887.5 435,-887.5 439.9257,-886.6412 435.7729,-891.9331 444.8514,-885.7824 444.8514,-885.7824"/>
<text text-anchor="start" x="441.5555" y="-897.5" font-family="Arial" font-size="10.00" fill="#000000">FOREIGN KEY (team_id) REFERENCES teams(id)</text>
</g>
</g>
</svg>
