<?xml version="1.0" encoding="UTF-8" standalone="no"?>
<!DOCTYPE svg PUBLIC "-//W3C//DTD SVG 1.1//EN"
 "http://www.w3.org/Graphics/SVG/1.1/DTD/svg11.dtd">
<!-- Generated by graphviz version 2.40.1 (20161225.0304)
 -->
<!-- Title: public.flavors Pages: 1 -->
<svg width="575pt" height="862pt"
 viewBox="0.00 0.00 574.50 862.00" xmlns="http://www.w3.org/2000/svg" xmlns:xlink="http://www.w3.org/1999/xlink">
<g id="graph0" class="graph" transform="scale(1 1) rotate(0) translate(4 858)">
<title>public.flavors</title>
<polygon fill="#ffffff" stroke="transparent" points="-4,4 -4,-858 570.5,-858 570.5,4 -4,4"/>
<!-- public.flavors -->
<g id="node1" class="node">
<title>public.flavors</title>
<polygon fill="#efefef" stroke="transparent" points="248,-435.5 248,-470.5 521,-470.5 521,-435.5 248,-435.5"/>
<polygon fill="none" stroke="#000000" points="248,-435.5 248,-470.5 521,-470.5 521,-435.5 248,-435.5"/>
<text text-anchor="start" x="283.368" y="-448.3" font-family="Arial Bold" font-size="18.00" fill="#000000">public.flavors</text>
<text text-anchor="start" x="388.3782" y="-448.3" font-family="Arial" font-size="14.00" fill="#000000"> </text>
<text text-anchor="start" x="392.2688" y="-448.3" font-family="Arial" font-size="14.00" fill="#666666">[BASE TABLE]</text>
<polygon fill="none" stroke="#000000" points="248,-405.5 248,-435.5 521,-435.5 521,-405.5 248,-405.5"/>
<text text-anchor="start" x="255" y="-416.9" font-family="Arial" font-size="14.00" fill="#000000">id </text>
<text text-anchor="start" x="269.7798" y="-416.9" font-family="Arial" font-size="14.00" fill="#666666">[integer]</text>
<polygon fill="none" stroke="#000000" points="248,-375.5 248,-405.5 521,-405.5 521,-375.5 248,-375.5"/>
<text text-anchor="start" x="255" y="-386.9" font-family="Arial" font-size="14.00" fill="#000000">mi_a </text>
<text text-anchor="start" x="289.223" y="-386.9" font-family="Arial" font-size="14.00" fill="#666666">[integer]</text>
<polygon fill="none" stroke="#000000" points="248,-345.5 248,-375.5 521,-375.5 521,-345.5 248,-345.5"/>
<text text-anchor="start" x="255" y="-356.9" font-family="Arial" font-size="14.00" fill="#000000">mi_b </text>
<text text-anchor="start" x="289.223" y="-356.9" font-family="Arial" font-size="14.00" fill="#666666">[integer]</text>
<polygon fill="none" stroke="#000000" points="248,-315.5 248,-345.5 521,-345.5 521,-315.5 248,-315.5"/>
<text text-anchor="start" x="255" y="-326.9" font-family="Arial" font-size="14.00" fill="#000000">mi_c </text>
<text text-anchor="start" x="288.4404" y="-326.9" font-family="Arial" font-size="14.00" fill="#666666">[integer]</text>
<polygon fill="none" stroke="#000000" points="248,-285.5 248,-315.5 521,-315.5 521,-285.5 248,-285.5"/>
<text text-anchor="start" x="255" y="-296.9" font-family="Arial" font-size="14.00" fill="#000000">mi_d </text>
<text text-anchor="start" x="289.223" y="-296.9" font-family="Arial" font-size="14.00" fill="#666666">[integer]</text>
<polygon fill="none" stroke="#000000" points="248,-255.5 248,-285.5 521,-285.5 521,-255.5 248,-255.5"/>
<text text-anchor="start" x="255" y="-266.9" font-family="Arial" font-size="14.00" fill="#000000">mi_e </text>
<text text-anchor="start" x="289.223" y="-266.9" font-family="Arial" font-size="14.00" fill="#666666">[integer]</text>
<polygon fill="none" stroke="#000000" points="248,-225.5 248,-255.5 521,-255.5 521,-225.5 248,-225.5"/>
<text text-anchor="start" x="255" y="-236.9" font-family="Arial" font-size="14.00" fill="#000000">mi_f </text>
<text text-anchor="start" x="285.331" y="-236.9" font-family="Arial" font-size="14.00" fill="#666666">[integer]</text>
<polygon fill="none" stroke="#000000" points="248,-195.5 248,-225.5 521,-225.5 521,-195.5 248,-195.5"/>
<text text-anchor="start" x="255" y="-206.9" font-family="Arial" font-size="14.00" fill="#000000">mi_g </text>
<text text-anchor="start" x="289.223" y="-206.9" font-family="Arial" font-size="14.00" fill="#666666">[integer]</text>
<polygon fill="none" stroke="#000000" points="248,-165.5 248,-195.5 521,-195.5 521,-165.5 248,-165.5"/>
<text text-anchor="start" x="255" y="-176.9" font-family="Arial" font-size="14.00" fill="#000000">mi_h </text>
<text text-anchor="start" x="289.223" y="-176.9" font-family="Arial" font-size="14.00" fill="#666666">[integer]</text>
<polygon fill="none" stroke="#000000" points="248,-135.5 248,-165.5 521,-165.5 521,-135.5 248,-135.5"/>
<text text-anchor="start" x="255" y="-146.9" font-family="Arial" font-size="14.00" fill="#000000">leader </text>
<text text-anchor="start" x="297.7882" y="-146.9" font-family="Arial" font-size="14.00" fill="#666666">[integer]</text>
<polygon fill="none" stroke="#000000" points="248,-105.5 248,-135.5 521,-135.5 521,-105.5 248,-105.5"/>
<text text-anchor="start" x="255" y="-116.9" font-family="Arial" font-size="14.00" fill="#000000">eyesight </text>
<text text-anchor="start" x="311.0182" y="-116.9" font-family="Arial" font-size="14.00" fill="#666666">[integer]</text>
<polygon fill="none" stroke="#000000" points="248,-75.5 248,-105.5 521,-105.5 521,-75.5 248,-75.5"/>
<text text-anchor="start" x="255" y="-86.9" font-family="Arial" font-size="14.00" fill="#000000">created_at </text>
<text text-anchor="start" x="325.028" y="-86.9" font-family="Arial" font-size="14.00" fill="#666666">[timestamp without time zone]</text>
<polygon fill="none" stroke="#000000" points="248,-45.5 248,-75.5 521,-75.5 521,-45.5 248,-45.5"/>
<text text-anchor="start" x="254.9636" y="-56.9" font-family="Arial" font-size="14.00" fill="#000000">updated_at </text>
<text text-anchor="start" x="328.8962" y="-56.9" font-family="Arial" font-size="14.00" fill="#666666">[timestamp without time zone]</text>
<polygon fill="none" stroke="#000000" stroke-width="3" points="246,-44.5 246,-472.5 522,-472.5 522,-44.5 246,-44.5"/>
</g>
<!-- public.student_flavor -->
<g id="node2" class="node">
<title>public.student_flavor</title>
<polygon fill="#efefef" stroke="transparent" points="247,-775.5 247,-810.5 523,-810.5 523,-775.5 247,-775.5"/>
<polygon fill="none" stroke="#000000" points="247,-775.5 247,-810.5 523,-810.5 523,-775.5 247,-775.5"/>
<text text-anchor="start" x="253.8503" y="-788.3" font-family="Arial Bold" font-size="18.00" fill="#000000">public.student_flavor</text>
<text text-anchor="start" x="418.8959" y="-788.3" font-family="Arial" font-size="14.00" fill="#000000"> </text>
<text text-anchor="start" x="422.7865" y="-788.3" font-family="Arial" font-size="14.00" fill="#666666">[BASE TABLE]</text>
<polygon fill="none" stroke="#000000" points="247,-745.5 247,-775.5 523,-775.5 523,-745.5 247,-745.5"/>
<text text-anchor="start" x="254" y="-756.9" font-family="Arial" font-size="14.00" fill="#000000">id </text>
<text text-anchor="start" x="268.7798" y="-756.9" font-family="Arial" font-size="14.00" fill="#666666">[integer]</text>
<polygon fill="none" stroke="#000000" points="247,-715.5 247,-745.5 523,-745.5 523,-715.5 247,-715.5"/>
<text text-anchor="start" x="254" y="-726.9" font-family="Arial" font-size="14.00" fill="#000000">team_id </text>
<text text-anchor="start" x="307.6788" y="-726.9" font-family="Arial" font-size="14.00" fill="#666666">[bigint]</text>
<polygon fill="none" stroke="#000000" points="247,-685.5 247,-715.5 523,-715.5 523,-685.5 247,-685.5"/>
<text text-anchor="start" x="254" y="-696.9" font-family="Arial" font-size="14.00" fill="#000000">student_id </text>
<text text-anchor="start" x="322.474" y="-696.9" font-family="Arial" font-size="14.00" fill="#666666">[bigint]</text>
<polygon fill="none" stroke="#000000" points="247,-655.5 247,-685.5 523,-685.5 523,-655.5 247,-655.5"/>
<text text-anchor="start" x="254" y="-666.9" font-family="Arial" font-size="14.00" fill="#000000">flavor_id </text>
<text text-anchor="start" x="310.7854" y="-666.9" font-family="Arial" font-size="14.00" fill="#666666">[bigint]</text>
<polygon fill="none" stroke="#000000" points="247,-625.5 247,-655.5 523,-655.5 523,-625.5 247,-625.5"/>
<text text-anchor="start" x="254" y="-636.9" font-family="Arial" font-size="14.00" fill="#000000">created_at </text>
<text text-anchor="start" x="324.028" y="-636.9" font-family="Arial" font-size="14.00" fill="#666666">[timestamp without time zone]</text>
<polygon fill="none" stroke="#000000" points="247,-595.5 247,-625.5 523,-625.5 523,-595.5 247,-595.5"/>
<text text-anchor="start" x="254" y="-606.9" font-family="Arial" font-size="14.00" fill="#000000">updated_at </text>
<text text-anchor="start" x="327.9326" y="-606.9" font-family="Arial" font-size="14.00" fill="#666666">[timestamp without time zone]</text>
</g>
<!-- public.student_flavor&#45;&gt;public.flavors -->
<g id="edge1" class="edge">
<title>public.student_flavor:flavor_id&#45;&gt;public.flavors:id</title>
<path fill="none" stroke="#000000" d="M237.0041,-669.3803C197.3611,-659.69 214.9838,-589.4979 247,-553 327.9958,-460.6663 440.0042,-609.3337 521,-517 549.2828,-484.7581 563.8889,-420.5 521,-420.5"/>
<polygon fill="#000000" stroke="#000000" points="237.0622,-669.3867 246.499,-674.972 242.0311,-669.9434 247,-670.5 247,-670.5 247,-670.5 242.0311,-669.9434 247.501,-666.028 237.0622,-669.3867 237.0622,-669.3867"/>
<text text-anchor="start" x="7.3365" y="-680.5" font-family="Arial" font-size="10.00" fill="#000000">FOREIGN KEY (flavor_id) REFERENCES flavors(id)</text>
</g>
</g>
</svg>
