<?xml version="1.0" encoding="UTF-8" standalone="no"?>
<!DOCTYPE svg PUBLIC "-//W3C//DTD SVG 1.1//EN"
 "http://www.w3.org/Graphics/SVG/1.1/DTD/svg11.dtd">
<!-- Generated by graphviz version 2.40.1 (20161225.0304)
 -->
<!-- Title: public.histories Pages: 1 -->
<svg width="594pt" height="959pt"
 viewBox="0.00 0.00 593.50 959.00" xmlns="http://www.w3.org/2000/svg" xmlns:xlink="http://www.w3.org/1999/xlink">
<g id="graph0" class="graph" transform="scale(1 1) rotate(0) translate(4 955)">
<title>public.histories</title>
<polygon fill="#ffffff" stroke="transparent" points="-4,4 -4,-955 589.5,-955 589.5,4 -4,4"/>
<!-- public.histories -->
<g id="node1" class="node">
<title>public.histories</title>
<polygon fill="#efefef" stroke="transparent" points="267,-592.5 267,-627.5 540,-627.5 540,-592.5 267,-592.5"/>
<polygon fill="none" stroke="#000000" points="267,-592.5 267,-627.5 540,-627.5 540,-592.5 267,-592.5"/>
<text text-anchor="start" x="295.3678" y="-605.3" font-family="Arial Bold" font-size="18.00" fill="#000000">public.histories</text>
<text text-anchor="start" x="414.3784" y="-605.3" font-family="Arial" font-size="14.00" fill="#000000"> </text>
<text text-anchor="start" x="418.269" y="-605.3" font-family="Arial" font-size="14.00" fill="#666666">[BASE TABLE]</text>
<polygon fill="none" stroke="#000000" points="267,-562.5 267,-592.5 540,-592.5 540,-562.5 267,-562.5"/>
<text text-anchor="start" x="274" y="-573.9" font-family="Arial" font-size="14.00" fill="#000000">id </text>
<text text-anchor="start" x="288.7798" y="-573.9" font-family="Arial" font-size="14.00" fill="#666666">[bigint]</text>
<polygon fill="none" stroke="#000000" points="267,-532.5 267,-562.5 540,-562.5 540,-532.5 267,-532.5"/>
<text text-anchor="start" x="274" y="-543.9" font-family="Arial" font-size="14.00" fill="#000000">teacher_id </text>
<text text-anchor="start" x="343.244" y="-543.9" font-family="Arial" font-size="14.00" fill="#666666">[bigint]</text>
<polygon fill="none" stroke="#000000" points="267,-502.5 267,-532.5 540,-532.5 540,-502.5 267,-502.5"/>
<text text-anchor="start" x="274" y="-513.9" font-family="Arial" font-size="14.00" fill="#000000">created_at </text>
<text text-anchor="start" x="344.028" y="-513.9" font-family="Arial" font-size="14.00" fill="#666666">[timestamp without time zone]</text>
<polygon fill="none" stroke="#000000" points="267,-472.5 267,-502.5 540,-502.5 540,-472.5 267,-472.5"/>
<text text-anchor="start" x="273.9636" y="-483.9" font-family="Arial" font-size="14.00" fill="#000000">updated_at </text>
<text text-anchor="start" x="347.8962" y="-483.9" font-family="Arial" font-size="14.00" fill="#666666">[timestamp without time zone]</text>
<polygon fill="none" stroke="#000000" stroke-width="3" points="265,-471.5 265,-629.5 541,-629.5 541,-471.5 265,-471.5"/>
</g>
<!-- public.teachers -->
<g id="node3" class="node">
<title>public.teachers</title>
<polygon fill="#efefef" stroke="transparent" points="267,-312.5 267,-347.5 540,-347.5 540,-312.5 267,-312.5"/>
<polygon fill="none" stroke="#000000" points="267,-312.5 267,-347.5 540,-347.5 540,-312.5 267,-312.5"/>
<text text-anchor="start" x="294.3589" y="-325.3" font-family="Arial Bold" font-size="18.00" fill="#000000">public.teachers</text>
<text text-anchor="start" x="415.3873" y="-325.3" font-family="Arial" font-size="14.00" fill="#000000"> </text>
<text text-anchor="start" x="419.2779" y="-325.3" font-family="Arial" font-size="14.00" fill="#666666">[BASE TABLE]</text>
<polygon fill="none" stroke="#000000" points="267,-282.5 267,-312.5 540,-312.5 540,-282.5 267,-282.5"/>
<text text-anchor="start" x="274" y="-293.9" font-family="Arial" font-size="14.00" fill="#000000">id </text>
<text text-anchor="start" x="288.7798" y="-293.9" font-family="Arial" font-size="14.00" fill="#666666">[bigint]</text>
<polygon fill="none" stroke="#000000" points="267,-252.5 267,-282.5 540,-282.5 540,-252.5 267,-252.5"/>
<text text-anchor="start" x="274" y="-263.9" font-family="Arial" font-size="14.00" fill="#000000">name </text>
<text text-anchor="start" x="312.899" y="-263.9" font-family="Arial" font-size="14.00" fill="#666666">[varchar(256)]</text>
<polygon fill="none" stroke="#000000" points="267,-222.5 267,-252.5 540,-252.5 540,-222.5 267,-222.5"/>
<text text-anchor="start" x="274" y="-233.9" font-family="Arial" font-size="14.00" fill="#000000">family_name </text>
<text text-anchor="start" x="357.2286" y="-233.9" font-family="Arial" font-size="14.00" fill="#666666">[varchar(256)]</text>
<polygon fill="none" stroke="#000000" points="267,-192.5 267,-222.5 540,-222.5 540,-192.5 267,-192.5"/>
<text text-anchor="start" x="274" y="-203.9" font-family="Arial" font-size="14.00" fill="#000000">given_name </text>
<text text-anchor="start" x="354.136" y="-203.9" font-family="Arial" font-size="14.00" fill="#666666">[varchar(256)]</text>
<polygon fill="none" stroke="#000000" points="267,-162.5 267,-192.5 540,-192.5 540,-162.5 267,-162.5"/>
<text text-anchor="start" x="274" y="-173.9" font-family="Arial" font-size="14.00" fill="#000000">email </text>
<text text-anchor="start" x="311.3296" y="-173.9" font-family="Arial" font-size="14.00" fill="#666666">[varchar(256)]</text>
<polygon fill="none" stroke="#000000" points="267,-132.5 267,-162.5 540,-162.5 540,-132.5 267,-132.5"/>
<text text-anchor="start" x="274" y="-143.9" font-family="Arial" font-size="14.00" fill="#000000">status </text>
<text text-anchor="start" x="315.237" y="-143.9" font-family="Arial" font-size="14.00" fill="#666666">[integer]</text>
<polygon fill="none" stroke="#000000" points="267,-102.5 267,-132.5 540,-132.5 540,-102.5 267,-102.5"/>
<text text-anchor="start" x="274" y="-113.9" font-family="Arial" font-size="14.00" fill="#000000">created_at </text>
<text text-anchor="start" x="344.028" y="-113.9" font-family="Arial" font-size="14.00" fill="#666666">[timestamp without time zone]</text>
<polygon fill="none" stroke="#000000" points="267,-72.5 267,-102.5 540,-102.5 540,-72.5 267,-72.5"/>
<text text-anchor="start" x="273.9636" y="-83.9" font-family="Arial" font-size="14.00" fill="#000000">updated_at </text>
<text text-anchor="start" x="347.8962" y="-83.9" font-family="Arial" font-size="14.00" fill="#666666">[timestamp without time zone]</text>
<polygon fill="none" stroke="#000000" points="267,-42.5 267,-72.5 540,-72.5 540,-42.5 267,-42.5"/>
<text text-anchor="start" x="274" y="-53.9" font-family="Arial" font-size="14.00" fill="#000000">expired_at </text>
<text text-anchor="start" x="343.244" y="-53.9" font-family="Arial" font-size="14.00" fill="#666666">[timestamp without time zone]</text>
</g>
<!-- public.histories&#45;&gt;public.teachers -->
<g id="edge2" class="edge">
<title>public.histories:teacher_id&#45;&gt;public.teachers:id</title>
<path fill="none" stroke="#000000" d="M256.9089,-546.7828C155.9974,-532.1191 159.3611,-297.5 267,-297.5"/>
<polygon fill="#000000" stroke="#000000" points="257.0252,-546.791 266.681,-551.9887 262.0126,-547.1455 267,-547.5 267,-547.5 267,-547.5 262.0126,-547.1455 267.319,-543.0113 257.0252,-546.791 257.0252,-546.791"/>
<text text-anchor="start" x="9.4375" y="-557.5" font-family="Arial" font-size="10.00" fill="#000000">FOREIGN KEY (teacher_id) REFERENCES teachers(id)</text>
</g>
<!-- public.surveys -->
<g id="node2" class="node">
<title>public.surveys</title>
<polygon fill="#efefef" stroke="transparent" points="267,-872.5 267,-907.5 540,-907.5 540,-872.5 267,-872.5"/>
<polygon fill="none" stroke="#000000" points="267,-872.5 267,-907.5 540,-907.5 540,-872.5 267,-872.5"/>
<text text-anchor="start" x="297.8662" y="-885.3" font-family="Arial Bold" font-size="18.00" fill="#000000">public.surveys</text>
<text text-anchor="start" x="411.88" y="-885.3" font-family="Arial" font-size="14.00" fill="#000000"> </text>
<text text-anchor="start" x="415.7706" y="-885.3" font-family="Arial" font-size="14.00" fill="#666666">[BASE TABLE]</text>
<polygon fill="none" stroke="#000000" points="267,-842.5 267,-872.5 540,-872.5 540,-842.5 267,-842.5"/>
<text text-anchor="start" x="274" y="-853.9" font-family="Arial" font-size="14.00" fill="#000000">id </text>
<text text-anchor="start" x="288.7798" y="-853.9" font-family="Arial" font-size="14.00" fill="#666666">[bigint]</text>
<polygon fill="none" stroke="#000000" points="267,-812.5 267,-842.5 540,-842.5 540,-812.5 267,-812.5"/>
<text text-anchor="start" x="274" y="-823.9" font-family="Arial" font-size="14.00" fill="#000000">histories_id </text>
<text text-anchor="start" x="348.6746" y="-823.9" font-family="Arial" font-size="14.00" fill="#666666">[bigint]</text>
<polygon fill="none" stroke="#000000" points="267,-782.5 267,-812.5 540,-812.5 540,-782.5 267,-782.5"/>
<text text-anchor="start" x="274" y="-793.9" font-family="Arial" font-size="14.00" fill="#000000">created_at </text>
<text text-anchor="start" x="344.028" y="-793.9" font-family="Arial" font-size="14.00" fill="#666666">[timestamp without time zone]</text>
<polygon fill="none" stroke="#000000" points="267,-752.5 267,-782.5 540,-782.5 540,-752.5 267,-752.5"/>
<text text-anchor="start" x="273.9636" y="-763.9" font-family="Arial" font-size="14.00" fill="#000000">updated_at </text>
<text text-anchor="start" x="347.8962" y="-763.9" font-family="Arial" font-size="14.00" fill="#666666">[timestamp without time zone]</text>
</g>
<!-- public.surveys&#45;&gt;public.histories -->
<g id="edge1" class="edge">
<title>public.surveys:histories_id&#45;&gt;public.histories:id</title>
<path fill="none" stroke="#000000" d="M256.9089,-826.7828C155.9974,-812.1191 159.3611,-577.5 267,-577.5"/>
<polygon fill="#000000" stroke="#000000" points="257.0252,-826.791 266.681,-831.9887 262.0126,-827.1455 267,-827.5 267,-827.5 267,-827.5 262.0126,-827.1455 267.319,-823.0113 257.0252,-826.791 257.0252,-826.791"/>
<text text-anchor="start" x="7.0585" y="-837.5" font-family="Arial" font-size="10.00" fill="#000000">FOREIGN KEY (histories_id) REFERENCES histories(id)</text>
</g>
</g>
</svg>
