<?xml version="1.0" encoding="UTF-8" standalone="no"?>
<!DOCTYPE svg PUBLIC "-//W3C//DTD SVG 1.1//EN"
 "http://www.w3.org/Graphics/SVG/1.1/DTD/svg11.dtd">
<!-- Generated by graphviz version 2.40.1 (20161225.0304)
 -->
<!-- Title: public.student_flavor Pages: 1 -->
<svg width="1121pt" height="1109pt"
 viewBox="0.00 0.00 1121.00 1109.00" xmlns="http://www.w3.org/2000/svg" xmlns:xlink="http://www.w3.org/1999/xlink">
<g id="graph0" class="graph" transform="scale(1 1) rotate(0) translate(4 1105)">
<title>public.student_flavor</title>
<polygon fill="#ffffff" stroke="transparent" points="-4,4 -4,-1105 1117,-1105 1117,4 -4,4"/>
<!-- public.student_flavor -->
<g id="node1" class="node">
<title>public.student_flavor</title>
<polygon fill="#efefef" stroke="transparent" points="419.5,-772.5 419.5,-807.5 695.5,-807.5 695.5,-772.5 419.5,-772.5"/>
<polygon fill="none" stroke="#000000" points="419.5,-772.5 419.5,-807.5 695.5,-807.5 695.5,-772.5 419.5,-772.5"/>
<text text-anchor="start" x="426.3503" y="-785.3" font-family="Arial Bold" font-size="18.00" fill="#000000">public.student_flavor</text>
<text text-anchor="start" x="591.3959" y="-785.3" font-family="Arial" font-size="14.00" fill="#000000"> </text>
<text text-anchor="start" x="595.2865" y="-785.3" font-family="Arial" font-size="14.00" fill="#666666">[BASE TABLE]</text>
<polygon fill="none" stroke="#000000" points="419.5,-742.5 419.5,-772.5 695.5,-772.5 695.5,-742.5 419.5,-742.5"/>
<text text-anchor="start" x="426.5" y="-753.9" font-family="Arial" font-size="14.00" fill="#000000">id </text>
<text text-anchor="start" x="441.2798" y="-753.9" font-family="Arial" font-size="14.00" fill="#666666">[integer]</text>
<polygon fill="none" stroke="#000000" points="419.5,-712.5 419.5,-742.5 695.5,-742.5 695.5,-712.5 419.5,-712.5"/>
<text text-anchor="start" x="426.5" y="-723.9" font-family="Arial" font-size="14.00" fill="#000000">team_id </text>
<text text-anchor="start" x="480.1788" y="-723.9" font-family="Arial" font-size="14.00" fill="#666666">[bigint]</text>
<polygon fill="none" stroke="#000000" points="419.5,-682.5 419.5,-712.5 695.5,-712.5 695.5,-682.5 419.5,-682.5"/>
<text text-anchor="start" x="426.5" y="-693.9" font-family="Arial" font-size="14.00" fill="#000000">student_id </text>
<text text-anchor="start" x="494.974" y="-693.9" font-family="Arial" font-size="14.00" fill="#666666">[bigint]</text>
<polygon fill="none" stroke="#000000" points="419.5,-652.5 419.5,-682.5 695.5,-682.5 695.5,-652.5 419.5,-652.5"/>
<text text-anchor="start" x="426.5" y="-663.9" font-family="Arial" font-size="14.00" fill="#000000">flavor_id </text>
<text text-anchor="start" x="483.2854" y="-663.9" font-family="Arial" font-size="14.00" fill="#666666">[bigint]</text>
<polygon fill="none" stroke="#000000" points="419.5,-622.5 419.5,-652.5 695.5,-652.5 695.5,-622.5 419.5,-622.5"/>
<text text-anchor="start" x="426.5" y="-633.9" font-family="Arial" font-size="14.00" fill="#000000">created_at </text>
<text text-anchor="start" x="496.528" y="-633.9" font-family="Arial" font-size="14.00" fill="#666666">[timestamp without time zone]</text>
<polygon fill="none" stroke="#000000" points="419.5,-592.5 419.5,-622.5 695.5,-622.5 695.5,-592.5 419.5,-592.5"/>
<text text-anchor="start" x="426.5" y="-603.9" font-family="Arial" font-size="14.00" fill="#000000">updated_at </text>
<text text-anchor="start" x="500.4326" y="-603.9" font-family="Arial" font-size="14.00" fill="#666666">[timestamp without time zone]</text>
<polygon fill="none" stroke="#000000" stroke-width="3" points="418,-591.5 418,-809.5 697,-809.5 697,-591.5 418,-591.5"/>
</g>
<!-- public.teams -->
<g id="node3" class="node">
<title>public.teams</title>
<polygon fill="#efefef" stroke="transparent" points="43.5,-297.5 43.5,-332.5 316.5,-332.5 316.5,-297.5 43.5,-297.5"/>
<polygon fill="none" stroke="#000000" points="43.5,-297.5 43.5,-332.5 316.5,-332.5 316.5,-297.5 43.5,-297.5"/>
<text text-anchor="start" x="80.8651" y="-310.3" font-family="Arial Bold" font-size="18.00" fill="#000000">public.teams</text>
<text text-anchor="start" x="181.8811" y="-310.3" font-family="Arial" font-size="14.00" fill="#000000"> </text>
<text text-anchor="start" x="185.7717" y="-310.3" font-family="Arial" font-size="14.00" fill="#666666">[BASE TABLE]</text>
<polygon fill="none" stroke="#000000" points="43.5,-267.5 43.5,-297.5 316.5,-297.5 316.5,-267.5 43.5,-267.5"/>
<text text-anchor="start" x="50.5" y="-278.9" font-family="Arial" font-size="14.00" fill="#000000">id </text>
<text text-anchor="start" x="65.2798" y="-278.9" font-family="Arial" font-size="14.00" fill="#666666">[integer]</text>
<polygon fill="none" stroke="#000000" points="43.5,-237.5 43.5,-267.5 316.5,-267.5 316.5,-237.5 43.5,-237.5"/>
<text text-anchor="start" x="50.5" y="-248.9" font-family="Arial" font-size="14.00" fill="#000000">survey_id </text>
<text text-anchor="start" x="114.2882" y="-248.9" font-family="Arial" font-size="14.00" fill="#666666">[bigint]</text>
<polygon fill="none" stroke="#000000" points="43.5,-207.5 43.5,-237.5 316.5,-237.5 316.5,-207.5 43.5,-207.5"/>
<text text-anchor="start" x="50.5" y="-218.9" font-family="Arial" font-size="14.00" fill="#000000">created_at </text>
<text text-anchor="start" x="120.528" y="-218.9" font-family="Arial" font-size="14.00" fill="#666666">[timestamp without time zone]</text>
<polygon fill="none" stroke="#000000" points="43.5,-177.5 43.5,-207.5 316.5,-207.5 316.5,-177.5 43.5,-177.5"/>
<text text-anchor="start" x="50.4636" y="-188.9" font-family="Arial" font-size="14.00" fill="#000000">updated_at </text>
<text text-anchor="start" x="124.3962" y="-188.9" font-family="Arial" font-size="14.00" fill="#666666">[timestamp without time zone]</text>
</g>
<!-- public.student_flavor&#45;&gt;public.teams -->
<g id="edge2" class="edge">
<title>public.student_flavor:team_id&#45;&gt;public.teams:id</title>
<path fill="none" stroke="#000000" d="M409.4198,-727.0364C325.4291,-718.8522 389.0276,-603.922 367.5,-511 355.7577,-460.3152 368.5272,-282.5 316.5,-282.5"/>
<polygon fill="#000000" stroke="#000000" points="409.5106,-727.0405 419.2932,-731.9952 414.5053,-727.2702 419.5,-727.5 419.5,-727.5 419.5,-727.5 414.5053,-727.2702 419.7068,-723.0048 409.5106,-727.0405 409.5106,-727.0405"/>
<text text-anchor="start" x="184.0555" y="-737.5" font-family="Arial" font-size="10.00" fill="#000000">FOREIGN KEY (team_id) REFERENCES teams(id)</text>
</g>
<!-- public.students -->
<g id="node4" class="node">
<title>public.students</title>
<polygon fill="#efefef" stroke="transparent" points="420.5,-357.5 420.5,-392.5 693.5,-392.5 693.5,-357.5 420.5,-357.5"/>
<polygon fill="none" stroke="#000000" points="420.5,-357.5 420.5,-392.5 693.5,-392.5 693.5,-357.5 420.5,-357.5"/>
<text text-anchor="start" x="448.3539" y="-370.3" font-family="Arial Bold" font-size="18.00" fill="#000000">public.students</text>
<text text-anchor="start" x="568.3923" y="-370.3" font-family="Arial" font-size="14.00" fill="#000000"> </text>
<text text-anchor="start" x="572.2829" y="-370.3" font-family="Arial" font-size="14.00" fill="#666666">[BASE TABLE]</text>
<polygon fill="none" stroke="#000000" points="420.5,-327.5 420.5,-357.5 693.5,-357.5 693.5,-327.5 420.5,-327.5"/>
<text text-anchor="start" x="427.5" y="-338.9" font-family="Arial" font-size="14.00" fill="#000000">id </text>
<text text-anchor="start" x="442.2798" y="-338.9" font-family="Arial" font-size="14.00" fill="#666666">[integer]</text>
<polygon fill="none" stroke="#000000" points="420.5,-297.5 420.5,-327.5 693.5,-327.5 693.5,-297.5 420.5,-297.5"/>
<text text-anchor="start" x="427.5" y="-308.9" font-family="Arial" font-size="14.00" fill="#000000">name </text>
<text text-anchor="start" x="466.399" y="-308.9" font-family="Arial" font-size="14.00" fill="#666666">[varchar(255)]</text>
<polygon fill="none" stroke="#000000" points="420.5,-267.5 420.5,-297.5 693.5,-297.5 693.5,-267.5 420.5,-267.5"/>
<text text-anchor="start" x="427.5" y="-278.9" font-family="Arial" font-size="14.00" fill="#000000">sex </text>
<text text-anchor="start" x="453.1732" y="-278.9" font-family="Arial" font-size="14.00" fill="#666666">[integer]</text>
<polygon fill="none" stroke="#000000" points="420.5,-237.5 420.5,-267.5 693.5,-267.5 693.5,-237.5 420.5,-237.5"/>
<text text-anchor="start" x="427.5" y="-248.9" font-family="Arial" font-size="14.00" fill="#000000">class_id </text>
<text text-anchor="start" x="481.9516" y="-248.9" font-family="Arial" font-size="14.00" fill="#666666">[bigint]</text>
<polygon fill="none" stroke="#000000" points="420.5,-207.5 420.5,-237.5 693.5,-237.5 693.5,-207.5 420.5,-207.5"/>
<text text-anchor="start" x="427.5" y="-218.9" font-family="Arial" font-size="14.00" fill="#000000">family_name </text>
<text text-anchor="start" x="510.7286" y="-218.9" font-family="Arial" font-size="14.00" fill="#666666">[varchar(255)]</text>
<polygon fill="none" stroke="#000000" points="420.5,-177.5 420.5,-207.5 693.5,-207.5 693.5,-177.5 420.5,-177.5"/>
<text text-anchor="start" x="427.5" y="-188.9" font-family="Arial" font-size="14.00" fill="#000000">given_name </text>
<text text-anchor="start" x="507.636" y="-188.9" font-family="Arial" font-size="14.00" fill="#666666">[varchar(255)]</text>
<polygon fill="none" stroke="#000000" points="420.5,-147.5 420.5,-177.5 693.5,-177.5 693.5,-147.5 420.5,-147.5"/>
<text text-anchor="start" x="427.5" y="-158.9" font-family="Arial" font-size="14.00" fill="#000000">created_at </text>
<text text-anchor="start" x="497.528" y="-158.9" font-family="Arial" font-size="14.00" fill="#666666">[timestamp without time zone]</text>
<polygon fill="none" stroke="#000000" points="420.5,-117.5 420.5,-147.5 693.5,-147.5 693.5,-117.5 420.5,-117.5"/>
<text text-anchor="start" x="427.4636" y="-128.9" font-family="Arial" font-size="14.00" fill="#000000">updated_at </text>
<text text-anchor="start" x="501.3962" y="-128.9" font-family="Arial" font-size="14.00" fill="#666666">[timestamp without time zone]</text>
</g>
<!-- public.student_flavor&#45;&gt;public.students -->
<g id="edge3" class="edge">
<title>public.student_flavor:student_id&#45;&gt;public.students:id</title>
<path fill="none" stroke="#000000" d="M409.3765,-696.6694C355.8624,-687.2245 384.1661,-599.4372 419.5,-547 492.9222,-438.0377 620.0778,-544.9623 693.5,-436 716.7215,-401.5381 735.0556,-342.5 693.5,-342.5"/>
<polygon fill="#000000" stroke="#000000" points="409.5335,-696.6822 419.132,-701.9849 414.5167,-697.0911 419.5,-697.5 419.5,-697.5 419.5,-697.5 414.5167,-697.0911 419.868,-693.0151 409.5335,-696.6822 409.5335,-696.6822"/>
<text text-anchor="start" x="162.4875" y="-707.5" font-family="Arial" font-size="10.00" fill="#000000">FOREIGN KEY (student_id) REFERENCES students(id)</text>
</g>
<!-- public.flavors -->
<g id="node5" class="node">
<title>public.flavors</title>
<polygon fill="#efefef" stroke="transparent" points="797.5,-432.5 797.5,-467.5 1070.5,-467.5 1070.5,-432.5 797.5,-432.5"/>
<polygon fill="none" stroke="#000000" points="797.5,-432.5 797.5,-467.5 1070.5,-467.5 1070.5,-432.5 797.5,-432.5"/>
<text text-anchor="start" x="832.868" y="-445.3" font-family="Arial Bold" font-size="18.00" fill="#000000">public.flavors</text>
<text text-anchor="start" x="937.8782" y="-445.3" font-family="Arial" font-size="14.00" fill="#000000"> </text>
<text text-anchor="start" x="941.7688" y="-445.3" font-family="Arial" font-size="14.00" fill="#666666">[BASE TABLE]</text>
<polygon fill="none" stroke="#000000" points="797.5,-402.5 797.5,-432.5 1070.5,-432.5 1070.5,-402.5 797.5,-402.5"/>
<text text-anchor="start" x="804.5" y="-413.9" font-family="Arial" font-size="14.00" fill="#000000">id </text>
<text text-anchor="start" x="819.2798" y="-413.9" font-family="Arial" font-size="14.00" fill="#666666">[integer]</text>
<polygon fill="none" stroke="#000000" points="797.5,-372.5 797.5,-402.5 1070.5,-402.5 1070.5,-372.5 797.5,-372.5"/>
<text text-anchor="start" x="804.5" y="-383.9" font-family="Arial" font-size="14.00" fill="#000000">mi_a </text>
<text text-anchor="start" x="838.723" y="-383.9" font-family="Arial" font-size="14.00" fill="#666666">[integer]</text>
<polygon fill="none" stroke="#000000" points="797.5,-342.5 797.5,-372.5 1070.5,-372.5 1070.5,-342.5 797.5,-342.5"/>
<text text-anchor="start" x="804.5" y="-353.9" font-family="Arial" font-size="14.00" fill="#000000">mi_b </text>
<text text-anchor="start" x="838.723" y="-353.9" font-family="Arial" font-size="14.00" fill="#666666">[integer]</text>
<polygon fill="none" stroke="#000000" points="797.5,-312.5 797.5,-342.5 1070.5,-342.5 1070.5,-312.5 797.5,-312.5"/>
<text text-anchor="start" x="804.5" y="-323.9" font-family="Arial" font-size="14.00" fill="#000000">mi_c </text>
<text text-anchor="start" x="837.9404" y="-323.9" font-family="Arial" font-size="14.00" fill="#666666">[integer]</text>
<polygon fill="none" stroke="#000000" points="797.5,-282.5 797.5,-312.5 1070.5,-312.5 1070.5,-282.5 797.5,-282.5"/>
<text text-anchor="start" x="804.5" y="-293.9" font-family="Arial" font-size="14.00" fill="#000000">mi_d </text>
<text text-anchor="start" x="838.723" y="-293.9" font-family="Arial" font-size="14.00" fill="#666666">[integer]</text>
<polygon fill="none" stroke="#000000" points="797.5,-252.5 797.5,-282.5 1070.5,-282.5 1070.5,-252.5 797.5,-252.5"/>
<text text-anchor="start" x="804.5" y="-263.9" font-family="Arial" font-size="14.00" fill="#000000">mi_e </text>
<text text-anchor="start" x="838.723" y="-263.9" font-family="Arial" font-size="14.00" fill="#666666">[integer]</text>
<polygon fill="none" stroke="#000000" points="797.5,-222.5 797.5,-252.5 1070.5,-252.5 1070.5,-222.5 797.5,-222.5"/>
<text text-anchor="start" x="804.5" y="-233.9" font-family="Arial" font-size="14.00" fill="#000000">mi_f </text>
<text text-anchor="start" x="834.831" y="-233.9" font-family="Arial" font-size="14.00" fill="#666666">[integer]</text>
<polygon fill="none" stroke="#000000" points="797.5,-192.5 797.5,-222.5 1070.5,-222.5 1070.5,-192.5 797.5,-192.5"/>
<text text-anchor="start" x="804.5" y="-203.9" font-family="Arial" font-size="14.00" fill="#000000">mi_g </text>
<text text-anchor="start" x="838.723" y="-203.9" font-family="Arial" font-size="14.00" fill="#666666">[integer]</text>
<polygon fill="none" stroke="#000000" points="797.5,-162.5 797.5,-192.5 1070.5,-192.5 1070.5,-162.5 797.5,-162.5"/>
<text text-anchor="start" x="804.5" y="-173.9" font-family="Arial" font-size="14.00" fill="#000000">mi_h </text>
<text text-anchor="start" x="838.723" y="-173.9" font-family="Arial" font-size="14.00" fill="#666666">[integer]</text>
<polygon fill="none" stroke="#000000" points="797.5,-132.5 797.5,-162.5 1070.5,-162.5 1070.5,-132.5 797.5,-132.5"/>
<text text-anchor="start" x="804.5" y="-143.9" font-family="Arial" font-size="14.00" fill="#000000">leader </text>
<text text-anchor="start" x="847.2882" y="-143.9" font-family="Arial" font-size="14.00" fill="#666666">[integer]</text>
<polygon fill="none" stroke="#000000" points="797.5,-102.5 797.5,-132.5 1070.5,-132.5 1070.5,-102.5 797.5,-102.5"/>
<text text-anchor="start" x="804.5" y="-113.9" font-family="Arial" font-size="14.00" fill="#000000">eyesight </text>
<text text-anchor="start" x="860.5182" y="-113.9" font-family="Arial" font-size="14.00" fill="#666666">[integer]</text>
<polygon fill="none" stroke="#000000" points="797.5,-72.5 797.5,-102.5 1070.5,-102.5 1070.5,-72.5 797.5,-72.5"/>
<text text-anchor="start" x="804.5" y="-83.9" font-family="Arial" font-size="14.00" fill="#000000">created_at </text>
<text text-anchor="start" x="874.528" y="-83.9" font-family="Arial" font-size="14.00" fill="#666666">[timestamp without time zone]</text>
<polygon fill="none" stroke="#000000" points="797.5,-42.5 797.5,-72.5 1070.5,-72.5 1070.5,-42.5 797.5,-42.5"/>
<text text-anchor="start" x="804.4636" y="-53.9" font-family="Arial" font-size="14.00" fill="#000000">updated_at </text>
<text text-anchor="start" x="878.3962" y="-53.9" font-family="Arial" font-size="14.00" fill="#666666">[timestamp without time zone]</text>
</g>
<!-- public.student_flavor&#45;&gt;public.flavors -->
<g id="edge4" class="edge">
<title>public.student_flavor:flavor_id&#45;&gt;public.flavors:id</title>
<path fill="none" stroke="#000000" d="M705.2751,-665.0257C753.6597,-639.0614 741.0141,-417.5 797.5,-417.5"/>
<polygon fill="#000000" stroke="#000000" points="705.1943,-665.0461 694.3957,-663.1376 700.3471,-666.273 695.5,-667.5 695.5,-667.5 695.5,-667.5 700.3471,-666.273 696.6043,-671.8624 705.1943,-665.0461 705.1943,-665.0461"/>
<text text-anchor="start" x="702.8365" y="-677.5" font-family="Arial" font-size="10.00" fill="#000000">FOREIGN KEY (flavor_id) REFERENCES flavors(id)</text>
</g>
<!-- public.dislikes -->
<g id="node2" class="node">
<title>public.dislikes</title>
<polygon fill="#efefef" stroke="transparent" points="446.5,-1022.5 446.5,-1057.5 668.5,-1057.5 668.5,-1022.5 446.5,-1022.5"/>
<polygon fill="none" stroke="#000000" points="446.5,-1022.5 446.5,-1057.5 668.5,-1057.5 668.5,-1022.5 446.5,-1022.5"/>
<text text-anchor="start" x="453.371" y="-1035.3" font-family="Arial Bold" font-size="18.00" fill="#000000">public.dislikes</text>
<text text-anchor="start" x="564.3752" y="-1035.3" font-family="Arial" font-size="14.00" fill="#000000"> </text>
<text text-anchor="start" x="568.2658" y="-1035.3" font-family="Arial" font-size="14.00" fill="#666666">[BASE TABLE]</text>
<polygon fill="none" stroke="#000000" points="446.5,-992.5 446.5,-1022.5 668.5,-1022.5 668.5,-992.5 446.5,-992.5"/>
<text text-anchor="start" x="453.5" y="-1003.9" font-family="Arial" font-size="14.00" fill="#000000">id </text>
<text text-anchor="start" x="468.2798" y="-1003.9" font-family="Arial" font-size="14.00" fill="#666666">[integer]</text>
<polygon fill="none" stroke="#000000" points="446.5,-962.5 446.5,-992.5 668.5,-992.5 668.5,-962.5 446.5,-962.5"/>
<text text-anchor="start" x="453.5" y="-973.9" font-family="Arial" font-size="14.00" fill="#000000">student_flavor_id </text>
<text text-anchor="start" x="563.9796" y="-973.9" font-family="Arial" font-size="14.00" fill="#666666">[bigint]</text>
<polygon fill="none" stroke="#000000" points="446.5,-932.5 446.5,-962.5 668.5,-962.5 668.5,-932.5 446.5,-932.5"/>
<text text-anchor="start" x="453.5" y="-943.9" font-family="Arial" font-size="14.00" fill="#000000">student_id </text>
<text text-anchor="start" x="521.974" y="-943.9" font-family="Arial" font-size="14.00" fill="#666666">[bigint]</text>
</g>
<!-- public.dislikes&#45;&gt;public.student_flavor -->
<g id="edge1" class="edge">
<title>public.dislikes:student_flavor_id&#45;&gt;public.student_flavor:id</title>
<path fill="none" stroke="#000000" d="M678.6224,-976.7034C768.7547,-962.3032 790.5481,-757.5 695.5,-757.5"/>
<polygon fill="#000000" stroke="#000000" points="678.4692,-976.7153 668.1469,-973.0139 673.4846,-977.1077 668.5,-977.5 668.5,-977.5 668.5,-977.5 673.4846,-977.1077 668.8531,-981.9861 678.4692,-976.7153 678.4692,-976.7153"/>
<text text-anchor="start" x="675.9835" y="-987.5" font-family="Arial" font-size="10.00" fill="#000000">FOREIGN KEY (student_flavor_id) REFERENCES student_flavor(id)</text>
</g>
</g>
</svg>
