<?xml version="1.0" encoding="UTF-8" standalone="no"?>
<!DOCTYPE svg PUBLIC "-//W3C//DTD SVG 1.1//EN"
 "http://www.w3.org/Graphics/SVG/1.1/DTD/svg11.dtd">
<!-- Generated by graphviz version 2.40.1 (20161225.0304)
 -->
<!-- Title: public.classes Pages: 1 -->
<svg width="808pt" height="1169pt"
 viewBox="0.00 0.00 807.50 1169.00" xmlns="http://www.w3.org/2000/svg" xmlns:xlink="http://www.w3.org/1999/xlink">
<g id="graph0" class="graph" transform="scale(1 1) rotate(0) translate(4 1165)">
<title>public.classes</title>
<polygon fill="#ffffff" stroke="transparent" points="-4,4 -4,-1165 803.5,-1165 803.5,4 -4,4"/>
<!-- public.classes -->
<g id="node1" class="node">
<title>public.classes</title>
<polygon fill="#efefef" stroke="transparent" points="265,-682.5 265,-717.5 538,-717.5 538,-682.5 265,-682.5"/>
<polygon fill="none" stroke="#000000" points="265,-682.5 265,-717.5 538,-717.5 538,-682.5 265,-682.5"/>
<text text-anchor="start" x="281.7081" y="-695.3" font-family="Arial Bold" font-size="18.00" fill="#000000">public.classes</text>
<text text-anchor="start" x="393.7239" y="-695.3" font-family="Arial" font-size="14.00" fill="#000000">    </text>
<text text-anchor="start" x="427.9287" y="-695.3" font-family="Arial" font-size="14.00" fill="#666666">[BASE TABLE]</text>
<polygon fill="none" stroke="#000000" points="265,-652.5 265,-682.5 538,-682.5 538,-652.5 265,-652.5"/>
<text text-anchor="start" x="272" y="-663.9" font-family="Arial" font-size="14.00" fill="#000000">id </text>
<text text-anchor="start" x="286.7798" y="-663.9" font-family="Arial" font-size="14.00" fill="#666666">[bigint]</text>
<polygon fill="none" stroke="#000000" points="265,-622.5 265,-652.5 538,-652.5 538,-622.5 265,-622.5"/>
<text text-anchor="start" x="272" y="-633.9" font-family="Arial" font-size="14.00" fill="#000000">proxy_uuid </text>
<text text-anchor="start" x="344.3534" y="-633.9" font-family="Arial" font-size="14.00" fill="#666666">[character(36)]</text>
<polygon fill="none" stroke="#000000" points="265,-592.5 265,-622.5 538,-622.5 538,-592.5 265,-592.5"/>
<text text-anchor="start" x="272" y="-603.9" font-family="Arial" font-size="14.00" fill="#000000">name </text>
<text text-anchor="start" x="310.899" y="-603.9" font-family="Arial" font-size="14.00" fill="#666666">[varchar(255)]</text>
<polygon fill="none" stroke="#000000" points="265,-562.5 265,-592.5 538,-592.5 538,-562.5 265,-562.5"/>
<text text-anchor="start" x="272" y="-573.9" font-family="Arial" font-size="14.00" fill="#000000">teacher_id </text>
<text text-anchor="start" x="341.244" y="-573.9" font-family="Arial" font-size="14.00" fill="#666666">[bigint]</text>
<polygon fill="none" stroke="#000000" points="265,-532.5 265,-562.5 538,-562.5 538,-532.5 265,-532.5"/>
<text text-anchor="start" x="272" y="-543.9" font-family="Arial" font-size="14.00" fill="#000000">created_at </text>
<text text-anchor="start" x="342.028" y="-543.9" font-family="Arial" font-size="14.00" fill="#666666">[timestamp without time zone]</text>
<polygon fill="none" stroke="#000000" points="265,-502.5 265,-532.5 538,-532.5 538,-502.5 265,-502.5"/>
<text text-anchor="start" x="271.9636" y="-513.9" font-family="Arial" font-size="14.00" fill="#000000">updated_at </text>
<text text-anchor="start" x="345.8962" y="-513.9" font-family="Arial" font-size="14.00" fill="#666666">[timestamp without time zone]</text>
<polygon fill="none" stroke="#000000" stroke-width="3" points="263,-501.5 263,-719.5 539,-719.5 539,-501.5 263,-501.5"/>
</g>
<!-- public.teachers -->
<g id="node4" class="node">
<title>public.teachers</title>
<polygon fill="#efefef" stroke="transparent" points="250,-342.5 250,-377.5 553,-377.5 553,-342.5 250,-342.5"/>
<polygon fill="none" stroke="#000000" points="250,-342.5 250,-377.5 553,-377.5 553,-342.5 250,-342.5"/>
<text text-anchor="start" x="277.2018" y="-355.3" font-family="Arial Bold" font-size="18.00" fill="#000000">public.teachers</text>
<text text-anchor="start" x="398.2302" y="-355.3" font-family="Arial" font-size="14.00" fill="#000000">    </text>
<text text-anchor="start" x="432.435" y="-355.3" font-family="Arial" font-size="14.00" fill="#666666">[BASE TABLE]</text>
<polygon fill="none" stroke="#000000" points="250,-312.5 250,-342.5 553,-342.5 553,-312.5 250,-312.5"/>
<text text-anchor="start" x="257" y="-323.9" font-family="Arial" font-size="14.00" fill="#000000">id    </text>
<text text-anchor="start" x="302.094" y="-323.9" font-family="Arial" font-size="14.00" fill="#666666">[bigint]</text>
<polygon fill="none" stroke="#000000" points="250,-282.5 250,-312.5 553,-312.5 553,-282.5 250,-282.5"/>
<text text-anchor="start" x="257" y="-293.9" font-family="Arial" font-size="14.00" fill="#000000">name    </text>
<text text-anchor="start" x="326.2132" y="-293.9" font-family="Arial" font-size="14.00" fill="#666666">[varchar(255)]</text>
<polygon fill="none" stroke="#000000" points="250,-252.5 250,-282.5 553,-282.5 553,-252.5 250,-252.5"/>
<text text-anchor="start" x="257" y="-263.9" font-family="Arial" font-size="14.00" fill="#000000">family_name    </text>
<text text-anchor="start" x="370.5428" y="-263.9" font-family="Arial" font-size="14.00" fill="#666666">[varchar(255)]</text>
<polygon fill="none" stroke="#000000" points="250,-222.5 250,-252.5 553,-252.5 553,-222.5 250,-222.5"/>
<text text-anchor="start" x="257" y="-233.9" font-family="Arial" font-size="14.00" fill="#000000">given_name    </text>
<text text-anchor="start" x="367.4502" y="-233.9" font-family="Arial" font-size="14.00" fill="#666666">[varchar(255)]</text>
<polygon fill="none" stroke="#000000" points="250,-192.5 250,-222.5 553,-222.5 553,-192.5 250,-192.5"/>
<text text-anchor="start" x="257" y="-203.9" font-family="Arial" font-size="14.00" fill="#000000">school_id    </text>
<text text-anchor="start" x="350.331" y="-203.9" font-family="Arial" font-size="14.00" fill="#666666">[bigint]</text>
<polygon fill="none" stroke="#000000" points="250,-162.5 250,-192.5 553,-192.5 553,-162.5 250,-162.5"/>
<text text-anchor="start" x="257" y="-173.9" font-family="Arial" font-size="14.00" fill="#000000">email    </text>
<text text-anchor="start" x="324.6438" y="-173.9" font-family="Arial" font-size="14.00" fill="#666666">[varchar(255)]</text>
<polygon fill="none" stroke="#000000" points="250,-132.5 250,-162.5 553,-162.5 553,-132.5 250,-132.5"/>
<text text-anchor="start" x="257" y="-143.9" font-family="Arial" font-size="14.00" fill="#000000">status    </text>
<text text-anchor="start" x="328.5512" y="-143.9" font-family="Arial" font-size="14.00" fill="#666666">[integer]</text>
<polygon fill="none" stroke="#000000" points="250,-102.5 250,-132.5 553,-132.5 553,-102.5 250,-102.5"/>
<text text-anchor="start" x="257" y="-113.9" font-family="Arial" font-size="14.00" fill="#000000">created_at    </text>
<text text-anchor="start" x="357.3422" y="-113.9" font-family="Arial" font-size="14.00" fill="#666666">[timestamp without time zone]</text>
<polygon fill="none" stroke="#000000" points="250,-72.5 250,-102.5 553,-102.5 553,-72.5 250,-72.5"/>
<text text-anchor="start" x="256.8065" y="-83.9" font-family="Arial" font-size="14.00" fill="#000000">updated_at    </text>
<text text-anchor="start" x="361.0533" y="-83.9" font-family="Arial" font-size="14.00" fill="#666666">[timestamp without time zone]</text>
<polygon fill="none" stroke="#000000" points="250,-42.5 250,-72.5 553,-72.5 553,-42.5 250,-42.5"/>
<text text-anchor="start" x="257" y="-53.9" font-family="Arial" font-size="14.00" fill="#000000">expired_at    </text>
<text text-anchor="start" x="356.5582" y="-53.9" font-family="Arial" font-size="14.00" fill="#666666">[timestamp without time zone]</text>
</g>
<!-- public.classes&#45;&gt;public.teachers -->
<g id="edge3" class="edge">
<title>public.classes:teacher_id&#45;&gt;public.teachers:id</title>
<path fill="none" stroke="#000000" d="M254.8477,-576.7828C152.8749,-562.1191 142.1675,-327.5 250,-327.5"/>
<polygon fill="#000000" stroke="#000000" points="255.0249,-576.7953 264.6829,-581.9888 260.0124,-577.1476 265,-577.5 265,-577.5 265,-577.5 260.0124,-577.1476 265.3171,-573.0112 255.0249,-576.7953 255.0249,-576.7953"/>
<text text-anchor="start" x="7.4375" y="-587.5" font-family="Arial" font-size="10.00" fill="#000000">FOREIGN KEY (teacher_id) REFERENCES teachers(id)</text>
</g>
<!-- public.students -->
<g id="node2" class="node">
<title>public.students</title>
<polygon fill="#efefef" stroke="transparent" points="47,-1082.5 47,-1117.5 350,-1117.5 350,-1082.5 47,-1082.5"/>
<polygon fill="none" stroke="#000000" points="47,-1082.5 47,-1117.5 350,-1117.5 350,-1082.5 47,-1082.5"/>
<text text-anchor="start" x="74.6968" y="-1095.3" font-family="Arial Bold" font-size="18.00" fill="#000000">public.students</text>
<text text-anchor="start" x="194.7352" y="-1095.3" font-family="Arial" font-size="14.00" fill="#000000">    </text>
<text text-anchor="start" x="228.94" y="-1095.3" font-family="Arial" font-size="14.00" fill="#666666">[BASE TABLE]</text>
<polygon fill="none" stroke="#000000" points="47,-1052.5 47,-1082.5 350,-1082.5 350,-1052.5 47,-1052.5"/>
<text text-anchor="start" x="54" y="-1063.9" font-family="Arial" font-size="14.00" fill="#000000">id    </text>
<text text-anchor="start" x="99.094" y="-1063.9" font-family="Arial" font-size="14.00" fill="#666666">[bigint]</text>
<polygon fill="none" stroke="#000000" points="47,-1022.5 47,-1052.5 350,-1052.5 350,-1022.5 47,-1022.5"/>
<text text-anchor="start" x="54" y="-1033.9" font-family="Arial" font-size="14.00" fill="#000000">student_no    </text>
<text text-anchor="start" x="157.4642" y="-1033.9" font-family="Arial" font-size="14.00" fill="#666666">[integer]</text>
<polygon fill="none" stroke="#000000" points="47,-992.5 47,-1022.5 350,-1022.5 350,-992.5 47,-992.5"/>
<text text-anchor="start" x="54" y="-1003.9" font-family="Arial" font-size="14.00" fill="#000000">name    </text>
<text text-anchor="start" x="123.2132" y="-1003.9" font-family="Arial" font-size="14.00" fill="#666666">[varchar(255)]</text>
<polygon fill="none" stroke="#000000" points="47,-962.5 47,-992.5 350,-992.5 350,-962.5 47,-962.5"/>
<text text-anchor="start" x="54" y="-973.9" font-family="Arial" font-size="14.00" fill="#000000">sex    </text>
<text text-anchor="start" x="109.9874" y="-973.9" font-family="Arial" font-size="14.00" fill="#666666">[integer]</text>
<polygon fill="none" stroke="#000000" points="47,-932.5 47,-962.5 350,-962.5 350,-932.5 47,-932.5"/>
<text text-anchor="start" x="54" y="-943.9" font-family="Arial" font-size="14.00" fill="#000000">memo    </text>
<text text-anchor="start" x="127.0912" y="-943.9" font-family="Arial" font-size="14.00" fill="#666666">[text]</text>
<polygon fill="none" stroke="#000000" points="47,-902.5 47,-932.5 350,-932.5 350,-902.5 47,-902.5"/>
<text text-anchor="start" x="54" y="-913.9" font-family="Arial" font-size="14.00" fill="#000000">class_id    </text>
<text text-anchor="start" x="138.7658" y="-913.9" font-family="Arial" font-size="14.00" fill="#666666">[bigint]</text>
<polygon fill="none" stroke="#000000" points="47,-872.5 47,-902.5 350,-902.5 350,-872.5 47,-872.5"/>
<text text-anchor="start" x="54" y="-883.9" font-family="Arial" font-size="14.00" fill="#000000">created_at    </text>
<text text-anchor="start" x="154.3422" y="-883.9" font-family="Arial" font-size="14.00" fill="#666666">[timestamp without time zone]</text>
<polygon fill="none" stroke="#000000" points="47,-842.5 47,-872.5 350,-872.5 350,-842.5 47,-842.5"/>
<text text-anchor="start" x="53.8065" y="-853.9" font-family="Arial" font-size="14.00" fill="#000000">updated_at    </text>
<text text-anchor="start" x="158.0533" y="-853.9" font-family="Arial" font-size="14.00" fill="#666666">[timestamp without time zone]</text>
</g>
<!-- public.students&#45;&gt;public.classes -->
<g id="edge1" class="edge">
<title>public.students:class_id&#45;&gt;public.classes:id</title>
<path fill="none" stroke="#000000" d="M360.4069,-916.3204C398.7215,-906.6886 376.7003,-840.3046 350,-800 327.3423,-765.7978 287.6577,-798.2022 265,-764 241.3137,-728.2451 222.1111,-667.5 265,-667.5"/>
<polygon fill="#000000" stroke="#000000" points="359.9364,-916.3737 349.4931,-913.0286 354.9682,-916.9368 350,-917.5 350,-917.5 350,-917.5 354.9682,-916.9368 350.5069,-921.9714 359.9364,-916.3737 359.9364,-916.3737"/>
<text text-anchor="start" x="357.224" y="-927.5" font-family="Arial" font-size="10.00" fill="#000000">FOREIGN KEY (class_id) REFERENCES classes(id)</text>
</g>
<!-- public.surveys -->
<g id="node3" class="node">
<title>public.surveys</title>
<polygon fill="#efefef" stroke="transparent" points="454,-1067.5 454,-1102.5 757,-1102.5 757,-1067.5 454,-1067.5"/>
<polygon fill="none" stroke="#000000" points="454,-1067.5 454,-1102.5 757,-1102.5 757,-1067.5 454,-1067.5"/>
<text text-anchor="start" x="484.7091" y="-1080.3" font-family="Arial Bold" font-size="18.00" fill="#000000">public.surveys</text>
<text text-anchor="start" x="598.7229" y="-1080.3" font-family="Arial" font-size="14.00" fill="#000000">    </text>
<text text-anchor="start" x="632.9277" y="-1080.3" font-family="Arial" font-size="14.00" fill="#666666">[BASE TABLE]</text>
<polygon fill="none" stroke="#000000" points="454,-1037.5 454,-1067.5 757,-1067.5 757,-1037.5 454,-1037.5"/>
<text text-anchor="start" x="461" y="-1048.9" font-family="Arial" font-size="14.00" fill="#000000">id    </text>
<text text-anchor="start" x="506.094" y="-1048.9" font-family="Arial" font-size="14.00" fill="#666666">[bigint]</text>
<polygon fill="none" stroke="#000000" points="454,-1007.5 454,-1037.5 757,-1037.5 757,-1007.5 454,-1007.5"/>
<text text-anchor="start" x="461" y="-1018.9" font-family="Arial" font-size="14.00" fill="#000000">proxy_uuid    </text>
<text text-anchor="start" x="563.6676" y="-1018.9" font-family="Arial" font-size="14.00" fill="#666666">[character(36)]</text>
<polygon fill="none" stroke="#000000" points="454,-977.5 454,-1007.5 757,-1007.5 757,-977.5 454,-977.5"/>
<text text-anchor="start" x="461" y="-988.9" font-family="Arial" font-size="14.00" fill="#000000">name    </text>
<text text-anchor="start" x="530.2132" y="-988.9" font-family="Arial" font-size="14.00" fill="#666666">[varchar(255)]</text>
<polygon fill="none" stroke="#000000" points="454,-947.5 454,-977.5 757,-977.5 757,-947.5 454,-947.5"/>
<text text-anchor="start" x="461" y="-958.9" font-family="Arial" font-size="14.00" fill="#000000">status    </text>
<text text-anchor="start" x="532.5512" y="-958.9" font-family="Arial" font-size="14.00" fill="#666666">[integer]</text>
<polygon fill="none" stroke="#000000" points="454,-917.5 454,-947.5 757,-947.5 757,-917.5 454,-917.5"/>
<text text-anchor="start" x="461" y="-928.9" font-family="Arial" font-size="14.00" fill="#000000">class_id    </text>
<text text-anchor="start" x="545.7658" y="-928.9" font-family="Arial" font-size="14.00" fill="#666666">[bigint]</text>
<polygon fill="none" stroke="#000000" points="454,-887.5 454,-917.5 757,-917.5 757,-887.5 454,-887.5"/>
<text text-anchor="start" x="461" y="-898.9" font-family="Arial" font-size="14.00" fill="#000000">created_at    </text>
<text text-anchor="start" x="561.3422" y="-898.9" font-family="Arial" font-size="14.00" fill="#666666">[timestamp without time zone]</text>
<polygon fill="none" stroke="#000000" points="454,-857.5 454,-887.5 757,-887.5 757,-857.5 454,-857.5"/>
<text text-anchor="start" x="460.8065" y="-868.9" font-family="Arial" font-size="14.00" fill="#000000">updated_at    </text>
<text text-anchor="start" x="565.0533" y="-868.9" font-family="Arial" font-size="14.00" fill="#666666">[timestamp without time zone]</text>
</g>
<!-- public.surveys&#45;&gt;public.classes -->
<g id="edge2" class="edge">
<title>public.surveys:class_id&#45;&gt;public.classes:id</title>
<path fill="none" stroke="#000000" d="M443.6425,-931.3506C405.7224,-921.96 430.29,-857.1332 454,-815 475.4193,-776.9373 516.5807,-802.0627 538,-764 559.0335,-726.6229 580.8889,-667.5 538,-667.5"/>
<polygon fill="#000000" stroke="#000000" points="444.061,-931.397 453.5036,-936.9725 449.0305,-931.9485 454,-932.5 454,-932.5 454,-932.5 449.0305,-931.9485 454.4964,-928.0275 444.061,-931.397 444.061,-931.397"/>
<text text-anchor="start" x="461.224" y="-942.5" font-family="Arial" font-size="10.00" fill="#000000">FOREIGN KEY (class_id) REFERENCES classes(id)</text>
</g>
</g>
</svg>
