<?xml version="1.0" encoding="UTF-8" standalone="no"?>
<!DOCTYPE svg PUBLIC "-//W3C//DTD SVG 1.1//EN"
 "http://www.w3.org/Graphics/SVG/1.1/DTD/svg11.dtd">
<!-- Generated by graphviz version 2.40.1 (20161225.0304)
 -->
<!-- Title: public.classes Pages: 1 -->
<svg width="772pt" height="1109pt"
 viewBox="0.00 0.00 771.50 1109.00" xmlns="http://www.w3.org/2000/svg" xmlns:xlink="http://www.w3.org/1999/xlink">
<g id="graph0" class="graph" transform="scale(1 1) rotate(0) translate(4 1105)">
<title>public.classes</title>
<polygon fill="#ffffff" stroke="transparent" points="-4,4 -4,-1105 767.5,-1105 767.5,4 -4,4"/>
<!-- public.classes -->
<g id="node1" class="node">
<title>public.classes</title>
<polygon fill="#efefef" stroke="transparent" points="265,-652.5 265,-687.5 538,-687.5 538,-652.5 265,-652.5"/>
<polygon fill="none" stroke="#000000" points="265,-652.5 265,-687.5 538,-687.5 538,-652.5 265,-652.5"/>
<text text-anchor="start" x="281.7081" y="-665.3" font-family="Arial Bold" font-size="18.00" fill="#000000">public.classes</text>
<text text-anchor="start" x="393.7239" y="-665.3" font-family="Arial" font-size="14.00" fill="#000000">    </text>
<text text-anchor="start" x="427.9287" y="-665.3" font-family="Arial" font-size="14.00" fill="#666666">[BASE TABLE]</text>
<polygon fill="none" stroke="#000000" points="265,-622.5 265,-652.5 538,-652.5 538,-622.5 265,-622.5"/>
<text text-anchor="start" x="272" y="-633.9" font-family="Arial" font-size="14.00" fill="#000000">id </text>
<text text-anchor="start" x="286.7798" y="-633.9" font-family="Arial" font-size="14.00" fill="#666666">[bigint]</text>
<polygon fill="none" stroke="#000000" points="265,-592.5 265,-622.5 538,-622.5 538,-592.5 265,-592.5"/>
<text text-anchor="start" x="272" y="-603.9" font-family="Arial" font-size="14.00" fill="#000000">name </text>
<text text-anchor="start" x="310.899" y="-603.9" font-family="Arial" font-size="14.00" fill="#666666">[varchar(255)]</text>
<polygon fill="none" stroke="#000000" points="265,-562.5 265,-592.5 538,-592.5 538,-562.5 265,-562.5"/>
<text text-anchor="start" x="272" y="-573.9" font-family="Arial" font-size="14.00" fill="#000000">teacher_id </text>
<text text-anchor="start" x="341.244" y="-573.9" font-family="Arial" font-size="14.00" fill="#666666">[bigint]</text>
<polygon fill="none" stroke="#000000" points="265,-532.5 265,-562.5 538,-562.5 538,-532.5 265,-532.5"/>
<text text-anchor="start" x="272" y="-543.9" font-family="Arial" font-size="14.00" fill="#000000">created_at </text>
<text text-anchor="start" x="342.028" y="-543.9" font-family="Arial" font-size="14.00" fill="#666666">[timestamp without time zone]</text>
<polygon fill="none" stroke="#000000" points="265,-502.5 265,-532.5 538,-532.5 538,-502.5 265,-502.5"/>
<text text-anchor="start" x="271.9636" y="-513.9" font-family="Arial" font-size="14.00" fill="#000000">updated_at </text>
<text text-anchor="start" x="345.8962" y="-513.9" font-family="Arial" font-size="14.00" fill="#666666">[timestamp without time zone]</text>
<polygon fill="none" stroke="#000000" stroke-width="3" points="263,-501.5 263,-689.5 539,-689.5 539,-501.5 263,-501.5"/>
</g>
<!-- public.teachers -->
<g id="node4" class="node">
<title>public.teachers</title>
<polygon fill="#efefef" stroke="transparent" points="250,-342.5 250,-377.5 553,-377.5 553,-342.5 250,-342.5"/>
<polygon fill="none" stroke="#000000" points="250,-342.5 250,-377.5 553,-377.5 553,-342.5 250,-342.5"/>
<text text-anchor="start" x="277.2018" y="-355.3" font-family="Arial Bold" font-size="18.00" fill="#000000">public.teachers</text>
<text text-anchor="start" x="398.2302" y="-355.3" font-family="Arial" font-size="14.00" fill="#000000">    </text>
<text text-anchor="start" x="432.435" y="-355.3" font-family="Arial" font-size="14.00" fill="#666666">[BASE TABLE]</text>
<polygon fill="none" stroke="#000000" points="250,-312.5 250,-342.5 553,-342.5 553,-312.5 250,-312.5"/>
<text text-anchor="start" x="257" y="-323.9" font-family="Arial" font-size="14.00" fill="#000000">id    </text>
<text text-anchor="start" x="302.094" y="-323.9" font-family="Arial" font-size="14.00" fill="#666666">[bigint]</text>
<polygon fill="none" stroke="#000000" points="250,-282.5 250,-312.5 553,-312.5 553,-282.5 250,-282.5"/>
<text text-anchor="start" x="257" y="-293.9" font-family="Arial" font-size="14.00" fill="#000000">name    </text>
<text text-anchor="start" x="326.2132" y="-293.9" font-family="Arial" font-size="14.00" fill="#666666">[varchar(255)]</text>
<polygon fill="none" stroke="#000000" points="250,-252.5 250,-282.5 553,-282.5 553,-252.5 250,-252.5"/>
<text text-anchor="start" x="257" y="-263.9" font-family="Arial" font-size="14.00" fill="#000000">family_name    </text>
<text text-anchor="start" x="370.5428" y="-263.9" font-family="Arial" font-size="14.00" fill="#666666">[varchar(255)]</text>
<polygon fill="none" stroke="#000000" points="250,-222.5 250,-252.5 553,-252.5 553,-222.5 250,-222.5"/>
<text text-anchor="start" x="257" y="-233.9" font-family="Arial" font-size="14.00" fill="#000000">given_name    </text>
<text text-anchor="start" x="367.4502" y="-233.9" font-family="Arial" font-size="14.00" fill="#666666">[varchar(255)]</text>
<polygon fill="none" stroke="#000000" points="250,-192.5 250,-222.5 553,-222.5 553,-192.5 250,-192.5"/>
<text text-anchor="start" x="257" y="-203.9" font-family="Arial" font-size="14.00" fill="#000000">school_id    </text>
<text text-anchor="start" x="350.331" y="-203.9" font-family="Arial" font-size="14.00" fill="#666666">[bigint]</text>
<polygon fill="none" stroke="#000000" points="250,-162.5 250,-192.5 553,-192.5 553,-162.5 250,-162.5"/>
<text text-anchor="start" x="257" y="-173.9" font-family="Arial" font-size="14.00" fill="#000000">email    </text>
<text text-anchor="start" x="324.6438" y="-173.9" font-family="Arial" font-size="14.00" fill="#666666">[varchar(255)]</text>
<polygon fill="none" stroke="#000000" points="250,-132.5 250,-162.5 553,-162.5 553,-132.5 250,-132.5"/>
<text text-anchor="start" x="257" y="-143.9" font-family="Arial" font-size="14.00" fill="#000000">status    </text>
<text text-anchor="start" x="328.5512" y="-143.9" font-family="Arial" font-size="14.00" fill="#666666">[integer]</text>
<polygon fill="none" stroke="#000000" points="250,-102.5 250,-132.5 553,-132.5 553,-102.5 250,-102.5"/>
<text text-anchor="start" x="257" y="-113.9" font-family="Arial" font-size="14.00" fill="#000000">created_at    </text>
<text text-anchor="start" x="357.3422" y="-113.9" font-family="Arial" font-size="14.00" fill="#666666">[timestamp without time zone]</text>
<polygon fill="none" stroke="#000000" points="250,-72.5 250,-102.5 553,-102.5 553,-72.5 250,-72.5"/>
<text text-anchor="start" x="256.8065" y="-83.9" font-family="Arial" font-size="14.00" fill="#000000">updated_at    </text>
<text text-anchor="start" x="361.0533" y="-83.9" font-family="Arial" font-size="14.00" fill="#666666">[timestamp without time zone]</text>
<polygon fill="none" stroke="#000000" points="250,-42.5 250,-72.5 553,-72.5 553,-42.5 250,-42.5"/>
<text text-anchor="start" x="257" y="-53.9" font-family="Arial" font-size="14.00" fill="#000000">expired_at    </text>
<text text-anchor="start" x="356.5582" y="-53.9" font-family="Arial" font-size="14.00" fill="#666666">[timestamp without time zone]</text>
</g>
<!-- public.classes&#45;&gt;public.teachers -->
<g id="edge3" class="edge">
<title>public.classes:teacher_id&#45;&gt;public.teachers:id</title>
<path fill="none" stroke="#000000" d="M254.8477,-576.7828C152.8749,-562.1191 142.1675,-327.5 250,-327.5"/>
<polygon fill="#000000" stroke="#000000" points="255.0249,-576.7953 264.6829,-581.9888 260.0124,-577.1476 265,-577.5 265,-577.5 265,-577.5 260.0124,-577.1476 265.3171,-573.0112 255.0249,-576.7953 255.0249,-576.7953"/>
<text text-anchor="start" x="7.4375" y="-587.5" font-family="Arial" font-size="10.00" fill="#000000">FOREIGN KEY (teacher_id) REFERENCES teachers(id)</text>
</g>
<!-- public.students -->
<g id="node2" class="node">
<title>public.students</title>
<polygon fill="#efefef" stroke="transparent" points="59,-1022.5 59,-1057.5 362,-1057.5 362,-1022.5 59,-1022.5"/>
<polygon fill="none" stroke="#000000" points="59,-1022.5 59,-1057.5 362,-1057.5 362,-1022.5 59,-1022.5"/>
<text text-anchor="start" x="86.6968" y="-1035.3" font-family="Arial Bold" font-size="18.00" fill="#000000">public.students</text>
<text text-anchor="start" x="206.7352" y="-1035.3" font-family="Arial" font-size="14.00" fill="#000000">    </text>
<text text-anchor="start" x="240.94" y="-1035.3" font-family="Arial" font-size="14.00" fill="#666666">[BASE TABLE]</text>
<polygon fill="none" stroke="#000000" points="59,-992.5 59,-1022.5 362,-1022.5 362,-992.5 59,-992.5"/>
<text text-anchor="start" x="66" y="-1003.9" font-family="Arial" font-size="14.00" fill="#000000">id    </text>
<text text-anchor="start" x="111.094" y="-1003.9" font-family="Arial" font-size="14.00" fill="#666666">[bigint]</text>
<polygon fill="none" stroke="#000000" points="59,-962.5 59,-992.5 362,-992.5 362,-962.5 59,-962.5"/>
<text text-anchor="start" x="66" y="-973.9" font-family="Arial" font-size="14.00" fill="#000000">name    </text>
<text text-anchor="start" x="135.2132" y="-973.9" font-family="Arial" font-size="14.00" fill="#666666">[varchar(255)]</text>
<polygon fill="none" stroke="#000000" points="59,-932.5 59,-962.5 362,-962.5 362,-932.5 59,-932.5"/>
<text text-anchor="start" x="66" y="-943.9" font-family="Arial" font-size="14.00" fill="#000000">sex    </text>
<text text-anchor="start" x="121.9874" y="-943.9" font-family="Arial" font-size="14.00" fill="#666666">[integer]</text>
<polygon fill="none" stroke="#000000" points="59,-902.5 59,-932.5 362,-932.5 362,-902.5 59,-902.5"/>
<text text-anchor="start" x="66" y="-913.9" font-family="Arial" font-size="14.00" fill="#000000">memo    </text>
<text text-anchor="start" x="139.0912" y="-913.9" font-family="Arial" font-size="14.00" fill="#666666">[text]</text>
<polygon fill="none" stroke="#000000" points="59,-872.5 59,-902.5 362,-902.5 362,-872.5 59,-872.5"/>
<text text-anchor="start" x="66" y="-883.9" font-family="Arial" font-size="14.00" fill="#000000">class_id    </text>
<text text-anchor="start" x="150.7658" y="-883.9" font-family="Arial" font-size="14.00" fill="#666666">[bigint]</text>
<polygon fill="none" stroke="#000000" points="59,-842.5 59,-872.5 362,-872.5 362,-842.5 59,-842.5"/>
<text text-anchor="start" x="66" y="-853.9" font-family="Arial" font-size="14.00" fill="#000000">created_at    </text>
<text text-anchor="start" x="166.3422" y="-853.9" font-family="Arial" font-size="14.00" fill="#666666">[timestamp without time zone]</text>
<polygon fill="none" stroke="#000000" points="59,-812.5 59,-842.5 362,-842.5 362,-812.5 59,-812.5"/>
<text text-anchor="start" x="65.8065" y="-823.9" font-family="Arial" font-size="14.00" fill="#000000">updated_at    </text>
<text text-anchor="start" x="170.0533" y="-823.9" font-family="Arial" font-size="14.00" fill="#666666">[timestamp without time zone]</text>
</g>
<!-- public.students&#45;&gt;public.classes -->
<g id="edge1" class="edge">
<title>public.students:class_id&#45;&gt;public.classes:id</title>
<path fill="none" stroke="#000000" d="M372.4219,-886.3102C410.8558,-876.5974 389.6052,-809.6903 362,-770 335.7434,-732.2487 291.2566,-771.7513 265,-734 240.5109,-698.79 222.1111,-637.5 265,-637.5"/>
<polygon fill="#000000" stroke="#000000" points="371.9355,-886.3657 361.4896,-883.029 366.9677,-886.9328 362,-887.5 362,-887.5 362,-887.5 366.9677,-886.9328 362.5104,-891.971 371.9355,-886.3657 371.9355,-886.3657"/>
<text text-anchor="start" x="369.224" y="-897.5" font-family="Arial" font-size="10.00" fill="#000000">FOREIGN KEY (class_id) REFERENCES classes(id)</text>
</g>
<!-- public.surveys -->
<g id="node3" class="node">
<title>public.surveys</title>
<polygon fill="#efefef" stroke="transparent" points="466,-977.5 466,-1012.5 721,-1012.5 721,-977.5 466,-977.5"/>
<polygon fill="none" stroke="#000000" points="466,-977.5 466,-1012.5 721,-1012.5 721,-977.5 466,-977.5"/>
<text text-anchor="start" x="472.7091" y="-990.3" font-family="Arial Bold" font-size="18.00" fill="#000000">public.surveys</text>
<text text-anchor="start" x="586.7229" y="-990.3" font-family="Arial" font-size="14.00" fill="#000000">    </text>
<text text-anchor="start" x="620.9277" y="-990.3" font-family="Arial" font-size="14.00" fill="#666666">[BASE TABLE]</text>
<polygon fill="none" stroke="#000000" points="466,-947.5 466,-977.5 721,-977.5 721,-947.5 466,-947.5"/>
<text text-anchor="start" x="473" y="-958.9" font-family="Arial" font-size="14.00" fill="#000000">id    </text>
<text text-anchor="start" x="518.094" y="-958.9" font-family="Arial" font-size="14.00" fill="#666666">[bigint]</text>
<polygon fill="none" stroke="#000000" points="466,-917.5 466,-947.5 721,-947.5 721,-917.5 466,-917.5"/>
<text text-anchor="start" x="473" y="-928.9" font-family="Arial" font-size="14.00" fill="#000000">name    </text>
<text text-anchor="start" x="542.2132" y="-928.9" font-family="Arial" font-size="14.00" fill="#666666">[varchar(255)]</text>
<polygon fill="none" stroke="#000000" points="466,-887.5 466,-917.5 721,-917.5 721,-887.5 466,-887.5"/>
<text text-anchor="start" x="473" y="-898.9" font-family="Arial" font-size="14.00" fill="#000000">status    </text>
<text text-anchor="start" x="544.5512" y="-898.9" font-family="Arial" font-size="14.00" fill="#666666">[integer]</text>
<polygon fill="none" stroke="#000000" points="466,-857.5 466,-887.5 721,-887.5 721,-857.5 466,-857.5"/>
<text text-anchor="start" x="473" y="-868.9" font-family="Arial" font-size="14.00" fill="#000000">class_id    </text>
<text text-anchor="start" x="557.7658" y="-868.9" font-family="Arial" font-size="14.00" fill="#666666">[bigint]</text>
</g>
<!-- public.surveys&#45;&gt;public.classes -->
<g id="edge2" class="edge">
<title>public.surveys:class_id&#45;&gt;public.classes:id</title>
<path fill="none" stroke="#000000" d="M456.2967,-869.7412C445.8889,-861.2329 458.479,-834.7817 466,-815 483.1174,-769.9778 520.8826,-779.0222 538,-734 553.2419,-693.9108 580.8889,-637.5 538,-637.5"/>
<polygon fill="#000000" stroke="#000000" points="456.3812,-869.7651 464.7693,-876.8285 461.1906,-871.1326 466,-872.5 466,-872.5 466,-872.5 461.1906,-871.1326 467.2307,-868.1715 456.3812,-869.7651 456.3812,-869.7651"/>
<text text-anchor="start" x="286.474" y="-856.5" font-family="Arial" font-size="10.00" fill="#000000">FOREIGN KEY (class_id) REFERENCES classes(id)</text>
</g>
</g>
</svg>
