<?xml version="1.0" encoding="UTF-8" standalone="no"?>
<!DOCTYPE svg PUBLIC "-//W3C//DTD SVG 1.1//EN"
 "http://www.w3.org/Graphics/SVG/1.1/DTD/svg11.dtd">
<!-- Generated by graphviz version 2.40.1 (20161225.0304)
 -->
<!-- Title: public.surveys Pages: 1 -->
<svg width="798pt" height="1139pt"
 viewBox="0.00 0.00 797.50 1139.00" xmlns="http://www.w3.org/2000/svg" xmlns:xlink="http://www.w3.org/1999/xlink">
<g id="graph0" class="graph" transform="scale(1 1) rotate(0) translate(4 1135)">
<title>public.surveys</title>
<polygon fill="#ffffff" stroke="transparent" points="-4,4 -4,-1135 793.5,-1135 793.5,4 -4,4"/>
<!-- public.surveys -->
<g id="node1" class="node">
<title>public.surveys</title>
<polygon fill="#efefef" stroke="transparent" points="238,-472.5 238,-507.5 493,-507.5 493,-472.5 238,-472.5"/>
<polygon fill="none" stroke="#000000" points="238,-472.5 238,-507.5 493,-507.5 493,-472.5 238,-472.5"/>
<text text-anchor="start" x="244.7091" y="-485.3" font-family="Arial Bold" font-size="18.00" fill="#000000">public.surveys</text>
<text text-anchor="start" x="358.7229" y="-485.3" font-family="Arial" font-size="14.00" fill="#000000">    </text>
<text text-anchor="start" x="392.9277" y="-485.3" font-family="Arial" font-size="14.00" fill="#666666">[BASE TABLE]</text>
<polygon fill="none" stroke="#000000" points="238,-442.5 238,-472.5 493,-472.5 493,-442.5 238,-442.5"/>
<text text-anchor="start" x="245" y="-453.9" font-family="Arial" font-size="14.00" fill="#000000">id </text>
<text text-anchor="start" x="259.7798" y="-453.9" font-family="Arial" font-size="14.00" fill="#666666">[bigint]</text>
<polygon fill="none" stroke="#000000" points="238,-412.5 238,-442.5 493,-442.5 493,-412.5 238,-412.5"/>
<text text-anchor="start" x="245" y="-423.9" font-family="Arial" font-size="14.00" fill="#000000">name </text>
<text text-anchor="start" x="283.899" y="-423.9" font-family="Arial" font-size="14.00" fill="#666666">[varchar(255)]</text>
<polygon fill="none" stroke="#000000" points="238,-382.5 238,-412.5 493,-412.5 493,-382.5 238,-382.5"/>
<text text-anchor="start" x="245" y="-393.9" font-family="Arial" font-size="14.00" fill="#000000">status </text>
<text text-anchor="start" x="286.237" y="-393.9" font-family="Arial" font-size="14.00" fill="#666666">[integer]</text>
<polygon fill="none" stroke="#000000" points="238,-352.5 238,-382.5 493,-382.5 493,-352.5 238,-352.5"/>
<text text-anchor="start" x="245" y="-363.9" font-family="Arial" font-size="14.00" fill="#000000">class_id </text>
<text text-anchor="start" x="299.4516" y="-363.9" font-family="Arial" font-size="14.00" fill="#666666">[bigint]</text>
<polygon fill="none" stroke="#000000" stroke-width="3" points="236,-351.5 236,-509.5 494,-509.5 494,-351.5 236,-351.5"/>
</g>
<!-- public.classes -->
<g id="node4" class="node">
<title>public.classes</title>
<polygon fill="#efefef" stroke="transparent" points="214,-192.5 214,-227.5 517,-227.5 517,-192.5 214,-192.5"/>
<polygon fill="none" stroke="#000000" points="214,-192.5 214,-227.5 517,-227.5 517,-192.5 214,-192.5"/>
<text text-anchor="start" x="245.7081" y="-205.3" font-family="Arial Bold" font-size="18.00" fill="#000000">public.classes</text>
<text text-anchor="start" x="357.7239" y="-205.3" font-family="Arial" font-size="14.00" fill="#000000">    </text>
<text text-anchor="start" x="391.9287" y="-205.3" font-family="Arial" font-size="14.00" fill="#666666">[BASE TABLE]</text>
<polygon fill="none" stroke="#000000" points="214,-162.5 214,-192.5 517,-192.5 517,-162.5 214,-162.5"/>
<text text-anchor="start" x="221" y="-173.9" font-family="Arial" font-size="14.00" fill="#000000">id    </text>
<text text-anchor="start" x="266.094" y="-173.9" font-family="Arial" font-size="14.00" fill="#666666">[bigint]</text>
<polygon fill="none" stroke="#000000" points="214,-132.5 214,-162.5 517,-162.5 517,-132.5 214,-132.5"/>
<text text-anchor="start" x="221" y="-143.9" font-family="Arial" font-size="14.00" fill="#000000">name    </text>
<text text-anchor="start" x="290.2132" y="-143.9" font-family="Arial" font-size="14.00" fill="#666666">[varchar(255)]</text>
<polygon fill="none" stroke="#000000" points="214,-102.5 214,-132.5 517,-132.5 517,-102.5 214,-102.5"/>
<text text-anchor="start" x="221" y="-113.9" font-family="Arial" font-size="14.00" fill="#000000">teacher_id    </text>
<text text-anchor="start" x="320.5582" y="-113.9" font-family="Arial" font-size="14.00" fill="#666666">[bigint]</text>
<polygon fill="none" stroke="#000000" points="214,-72.5 214,-102.5 517,-102.5 517,-72.5 214,-72.5"/>
<text text-anchor="start" x="221" y="-83.9" font-family="Arial" font-size="14.00" fill="#000000">created_at    </text>
<text text-anchor="start" x="321.3422" y="-83.9" font-family="Arial" font-size="14.00" fill="#666666">[timestamp without time zone]</text>
<polygon fill="none" stroke="#000000" points="214,-42.5 214,-72.5 517,-72.5 517,-42.5 214,-42.5"/>
<text text-anchor="start" x="220.8065" y="-53.9" font-family="Arial" font-size="14.00" fill="#000000">updated_at    </text>
<text text-anchor="start" x="325.0533" y="-53.9" font-family="Arial" font-size="14.00" fill="#666666">[timestamp without time zone]</text>
</g>
<!-- public.surveys&#45;&gt;public.classes -->
<g id="edge3" class="edge">
<title>public.surveys:class_id&#45;&gt;public.classes:id</title>
<path fill="none" stroke="#000000" d="M365.216,-342.2247C355.1752,-281.4941 251.443,-333.5621 214,-271 192.6594,-235.3427 172.4444,-177.5 214,-177.5"/>
<polygon fill="#000000" stroke="#000000" points="365.2391,-342.529 361.513,-352.8424 365.6196,-347.5145 366,-352.5 366,-352.5 366,-352.5 365.6196,-347.5145 370.487,-352.1576 365.2391,-342.529 365.2391,-342.529"/>
<text text-anchor="start" x="373.224" y="-362.5" font-family="Arial" font-size="10.00" fill="#000000">FOREIGN KEY (class_id) REFERENCES classes(id)</text>
</g>
<!-- public.teams -->
<g id="node2" class="node">
<title>public.teams</title>
<polygon fill="#efefef" stroke="transparent" points="43,-887.5 43,-922.5 285,-922.5 285,-887.5 43,-887.5"/>
<polygon fill="none" stroke="#000000" points="43,-887.5 43,-922.5 285,-922.5 285,-887.5 43,-887.5"/>
<text text-anchor="start" x="49.708" y="-900.3" font-family="Arial Bold" font-size="18.00" fill="#000000">public.teams</text>
<text text-anchor="start" x="150.724" y="-900.3" font-family="Arial" font-size="14.00" fill="#000000">    </text>
<text text-anchor="start" x="184.9288" y="-900.3" font-family="Arial" font-size="14.00" fill="#666666">[BASE TABLE]</text>
<polygon fill="none" stroke="#000000" points="43,-857.5 43,-887.5 285,-887.5 285,-857.5 43,-857.5"/>
<text text-anchor="start" x="50" y="-868.9" font-family="Arial" font-size="14.00" fill="#000000">id    </text>
<text text-anchor="start" x="95.094" y="-868.9" font-family="Arial" font-size="14.00" fill="#666666">[bigint]</text>
<polygon fill="none" stroke="#000000" points="43,-827.5 43,-857.5 285,-857.5 285,-827.5 43,-827.5"/>
<text text-anchor="start" x="50" y="-838.9" font-family="Arial" font-size="14.00" fill="#000000">name    </text>
<text text-anchor="start" x="119.2132" y="-838.9" font-family="Arial" font-size="14.00" fill="#666666">[varchar(255)]</text>
<polygon fill="none" stroke="#000000" points="43,-797.5 43,-827.5 285,-827.5 285,-797.5 43,-797.5"/>
<text text-anchor="start" x="50" y="-808.9" font-family="Arial" font-size="14.00" fill="#000000">survey_id    </text>
<text text-anchor="start" x="144.1024" y="-808.9" font-family="Arial" font-size="14.00" fill="#666666">[bigint]</text>
</g>
<!-- public.teams&#45;&gt;public.surveys -->
<g id="edge1" class="edge">
<title>public.teams:survey_id&#45;&gt;public.surveys:id</title>
<path fill="none" stroke="#000000" d="M295.3398,-811.9241C427.3188,-796.0544 82.5756,-457.5 238,-457.5"/>
<polygon fill="#000000" stroke="#000000" points="294.9845,-811.9438 284.7497,-808.007 289.9923,-812.2219 285,-812.5 285,-812.5 285,-812.5 289.9923,-812.2219 285.2503,-816.993 294.9845,-811.9438 294.9845,-811.9438"/>
<text text-anchor="start" x="292.3345" y="-822.5" font-family="Arial" font-size="10.00" fill="#000000">FOREIGN KEY (survey_id) REFERENCES surveys(id)</text>
</g>
<!-- public.student_preferences -->
<g id="node3" class="node">
<title>public.student_preferences</title>
<polygon fill="#efefef" stroke="transparent" points="390,-1052.5 390,-1087.5 747,-1087.5 747,-1052.5 390,-1052.5"/>
<polygon fill="none" stroke="#000000" points="390,-1052.5 390,-1087.5 747,-1087.5 747,-1052.5 390,-1052.5"/>
<text text-anchor="start" x="396.6818" y="-1065.3" font-family="Arial Bold" font-size="18.00" fill="#000000">public.student_preferences</text>
<text text-anchor="start" x="612.7502" y="-1065.3" font-family="Arial" font-size="14.00" fill="#000000">    </text>
<text text-anchor="start" x="646.955" y="-1065.3" font-family="Arial" font-size="14.00" fill="#666666">[BASE TABLE]</text>
<polygon fill="none" stroke="#000000" points="390,-1022.5 390,-1052.5 747,-1052.5 747,-1022.5 390,-1022.5"/>
<text text-anchor="start" x="397" y="-1033.9" font-family="Arial" font-size="14.00" fill="#000000">id    </text>
<text text-anchor="start" x="442.094" y="-1033.9" font-family="Arial" font-size="14.00" fill="#666666">[bigint]</text>
<polygon fill="none" stroke="#000000" points="390,-992.5 390,-1022.5 747,-1022.5 747,-992.5 390,-992.5"/>
<text text-anchor="start" x="397" y="-1003.9" font-family="Arial" font-size="14.00" fill="#000000">student_id    </text>
<text text-anchor="start" x="495.7882" y="-1003.9" font-family="Arial" font-size="14.00" fill="#666666">[bigint]</text>
<polygon fill="none" stroke="#000000" points="390,-962.5 390,-992.5 747,-992.5 747,-962.5 390,-962.5"/>
<text text-anchor="start" x="397" y="-973.9" font-family="Arial" font-size="14.00" fill="#000000">survey_id    </text>
<text text-anchor="start" x="491.1024" y="-973.9" font-family="Arial" font-size="14.00" fill="#666666">[bigint]</text>
<polygon fill="none" stroke="#000000" points="390,-932.5 390,-962.5 747,-962.5 747,-932.5 390,-932.5"/>
<text text-anchor="start" x="397" y="-943.9" font-family="Arial" font-size="14.00" fill="#000000">team_id    </text>
<text text-anchor="start" x="480.993" y="-943.9" font-family="Arial" font-size="14.00" fill="#666666">[bigint]</text>
<polygon fill="none" stroke="#000000" points="390,-902.5 390,-932.5 747,-932.5 747,-902.5 390,-902.5"/>
<text text-anchor="start" x="397" y="-913.9" font-family="Arial" font-size="14.00" fill="#000000">mi_a    </text>
<text text-anchor="start" x="461.5372" y="-913.9" font-family="Arial" font-size="14.00" fill="#666666">[integer]</text>
<polygon fill="none" stroke="#000000" points="390,-872.5 390,-902.5 747,-902.5 747,-872.5 390,-872.5"/>
<text text-anchor="start" x="397" y="-883.9" font-family="Arial" font-size="14.00" fill="#000000">mi_b    </text>
<text text-anchor="start" x="461.5372" y="-883.9" font-family="Arial" font-size="14.00" fill="#666666">[integer]</text>
<polygon fill="none" stroke="#000000" points="390,-842.5 390,-872.5 747,-872.5 747,-842.5 390,-842.5"/>
<text text-anchor="start" x="397" y="-853.9" font-family="Arial" font-size="14.00" fill="#000000">mi_c    </text>
<text text-anchor="start" x="460.7546" y="-853.9" font-family="Arial" font-size="14.00" fill="#666666">[integer]</text>
<polygon fill="none" stroke="#000000" points="390,-812.5 390,-842.5 747,-842.5 747,-812.5 390,-812.5"/>
<text text-anchor="start" x="397" y="-823.9" font-family="Arial" font-size="14.00" fill="#000000">mi_d    </text>
<text text-anchor="start" x="461.5372" y="-823.9" font-family="Arial" font-size="14.00" fill="#666666">[integer]</text>
<polygon fill="none" stroke="#000000" points="390,-782.5 390,-812.5 747,-812.5 747,-782.5 390,-782.5"/>
<text text-anchor="start" x="397" y="-793.9" font-family="Arial" font-size="14.00" fill="#000000">mi_e    </text>
<text text-anchor="start" x="461.5372" y="-793.9" font-family="Arial" font-size="14.00" fill="#666666">[integer]</text>
<polygon fill="none" stroke="#000000" points="390,-752.5 390,-782.5 747,-782.5 747,-752.5 390,-752.5"/>
<text text-anchor="start" x="397" y="-763.9" font-family="Arial" font-size="14.00" fill="#000000">mi_f    </text>
<text text-anchor="start" x="457.6452" y="-763.9" font-family="Arial" font-size="14.00" fill="#666666">[integer]</text>
<polygon fill="none" stroke="#000000" points="390,-722.5 390,-752.5 747,-752.5 747,-722.5 390,-722.5"/>
<text text-anchor="start" x="397" y="-733.9" font-family="Arial" font-size="14.00" fill="#000000">mi_g    </text>
<text text-anchor="start" x="461.5372" y="-733.9" font-family="Arial" font-size="14.00" fill="#666666">[integer]</text>
<polygon fill="none" stroke="#000000" points="390,-692.5 390,-722.5 747,-722.5 747,-692.5 390,-692.5"/>
<text text-anchor="start" x="397" y="-703.9" font-family="Arial" font-size="14.00" fill="#000000">mi_h    </text>
<text text-anchor="start" x="461.5372" y="-703.9" font-family="Arial" font-size="14.00" fill="#666666">[integer]</text>
<polygon fill="none" stroke="#000000" points="390,-662.5 390,-692.5 747,-692.5 747,-662.5 390,-662.5"/>
<text text-anchor="start" x="397" y="-673.9" font-family="Arial" font-size="14.00" fill="#000000">leader    </text>
<text text-anchor="start" x="470.1024" y="-673.9" font-family="Arial" font-size="14.00" fill="#666666">[integer]</text>
<polygon fill="none" stroke="#000000" points="390,-632.5 390,-662.5 747,-662.5 747,-632.5 390,-632.5"/>
<text text-anchor="start" x="397" y="-643.9" font-family="Arial" font-size="14.00" fill="#000000">eyesight    </text>
<text text-anchor="start" x="483.3324" y="-643.9" font-family="Arial" font-size="14.00" fill="#666666">[integer]</text>
</g>
<!-- public.student_preferences&#45;&gt;public.surveys -->
<g id="edge2" class="edge">
<title>public.student_preferences:survey_id&#45;&gt;public.surveys:id</title>
<path fill="none" stroke="#000000" d="M380.0144,-975.9377C306.8869,-951.8887 342.2018,-657.3398 390,-590 418.0688,-550.4557 464.9312,-593.5443 493,-554 517.8248,-519.0259 535.8889,-457.5 493,-457.5"/>
<polygon fill="#000000" stroke="#000000" points="380.1202,-975.9541 389.3044,-981.9459 385.0601,-976.7271 390,-977.5 390,-977.5 390,-977.5 385.0601,-976.7271 390.6956,-973.0541 380.1202,-975.9541 380.1202,-975.9541"/>
<text text-anchor="start" x="140.3345" y="-987.5" font-family="Arial" font-size="10.00" fill="#000000">FOREIGN KEY (survey_id) REFERENCES surveys(id)</text>
</g>
</g>
</svg>
