<?xml version="1.0" encoding="UTF-8" standalone="no"?>
<!DOCTYPE svg PUBLIC "-//W3C//DTD SVG 1.1//EN"
 "http://www.w3.org/Graphics/SVG/1.1/DTD/svg11.dtd">
<!-- Generated by graphviz version 2.40.1 (20161225.0304)
 -->
<!-- Title: public.student_preferences Pages: 1 -->
<svg width="1211pt" height="1289pt"
 viewBox="0.00 0.00 1211.00 1289.00" xmlns="http://www.w3.org/2000/svg" xmlns:xlink="http://www.w3.org/1999/xlink">
<g id="graph0" class="graph" transform="scale(1 1) rotate(0) translate(4 1285)">
<title>public.student_preferences</title>
<polygon fill="#ffffff" stroke="transparent" points="-4,4 -4,-1285 1207,-1285 1207,4 -4,4"/>
<!-- public.student_preferences -->
<g id="node1" class="node">
<title>public.student_preferences</title>
<polygon fill="#efefef" stroke="transparent" points="423.5,-892.5 423.5,-927.5 780.5,-927.5 780.5,-892.5 423.5,-892.5"/>
<polygon fill="none" stroke="#000000" points="423.5,-892.5 423.5,-927.5 780.5,-927.5 780.5,-892.5 423.5,-892.5"/>
<text text-anchor="start" x="430.1818" y="-905.3" font-family="Arial Bold" font-size="18.00" fill="#000000">public.student_preferences</text>
<text text-anchor="start" x="646.2502" y="-905.3" font-family="Arial" font-size="14.00" fill="#000000">    </text>
<text text-anchor="start" x="680.455" y="-905.3" font-family="Arial" font-size="14.00" fill="#666666">[BASE TABLE]</text>
<polygon fill="none" stroke="#000000" points="423.5,-862.5 423.5,-892.5 780.5,-892.5 780.5,-862.5 423.5,-862.5"/>
<text text-anchor="start" x="430.5" y="-873.9" font-family="Arial" font-size="14.00" fill="#000000">id </text>
<text text-anchor="start" x="445.2798" y="-873.9" font-family="Arial" font-size="14.00" fill="#666666">[bigint]</text>
<polygon fill="none" stroke="#000000" points="423.5,-832.5 423.5,-862.5 780.5,-862.5 780.5,-832.5 423.5,-832.5"/>
<text text-anchor="start" x="430.5" y="-843.9" font-family="Arial" font-size="14.00" fill="#000000">student_id </text>
<text text-anchor="start" x="498.974" y="-843.9" font-family="Arial" font-size="14.00" fill="#666666">[bigint]</text>
<polygon fill="none" stroke="#000000" points="423.5,-802.5 423.5,-832.5 780.5,-832.5 780.5,-802.5 423.5,-802.5"/>
<text text-anchor="start" x="430.5" y="-813.9" font-family="Arial" font-size="14.00" fill="#000000">survey_id </text>
<text text-anchor="start" x="494.2882" y="-813.9" font-family="Arial" font-size="14.00" fill="#666666">[bigint]</text>
<polygon fill="none" stroke="#000000" points="423.5,-772.5 423.5,-802.5 780.5,-802.5 780.5,-772.5 423.5,-772.5"/>
<text text-anchor="start" x="430.5" y="-783.9" font-family="Arial" font-size="14.00" fill="#000000">team_id </text>
<text text-anchor="start" x="484.1788" y="-783.9" font-family="Arial" font-size="14.00" fill="#666666">[bigint]</text>
<polygon fill="none" stroke="#000000" points="423.5,-742.5 423.5,-772.5 780.5,-772.5 780.5,-742.5 423.5,-742.5"/>
<text text-anchor="start" x="430.5" y="-753.9" font-family="Arial" font-size="14.00" fill="#000000">mi_a </text>
<text text-anchor="start" x="464.723" y="-753.9" font-family="Arial" font-size="14.00" fill="#666666">[integer]</text>
<polygon fill="none" stroke="#000000" points="423.5,-712.5 423.5,-742.5 780.5,-742.5 780.5,-712.5 423.5,-712.5"/>
<text text-anchor="start" x="430.5" y="-723.9" font-family="Arial" font-size="14.00" fill="#000000">mi_b </text>
<text text-anchor="start" x="464.723" y="-723.9" font-family="Arial" font-size="14.00" fill="#666666">[integer]</text>
<polygon fill="none" stroke="#000000" points="423.5,-682.5 423.5,-712.5 780.5,-712.5 780.5,-682.5 423.5,-682.5"/>
<text text-anchor="start" x="430.5" y="-693.9" font-family="Arial" font-size="14.00" fill="#000000">mi_c </text>
<text text-anchor="start" x="463.9404" y="-693.9" font-family="Arial" font-size="14.00" fill="#666666">[integer]</text>
<polygon fill="none" stroke="#000000" points="423.5,-652.5 423.5,-682.5 780.5,-682.5 780.5,-652.5 423.5,-652.5"/>
<text text-anchor="start" x="430.5" y="-663.9" font-family="Arial" font-size="14.00" fill="#000000">mi_d </text>
<text text-anchor="start" x="464.723" y="-663.9" font-family="Arial" font-size="14.00" fill="#666666">[integer]</text>
<polygon fill="none" stroke="#000000" points="423.5,-622.5 423.5,-652.5 780.5,-652.5 780.5,-622.5 423.5,-622.5"/>
<text text-anchor="start" x="430.5" y="-633.9" font-family="Arial" font-size="14.00" fill="#000000">mi_e </text>
<text text-anchor="start" x="464.723" y="-633.9" font-family="Arial" font-size="14.00" fill="#666666">[integer]</text>
<polygon fill="none" stroke="#000000" points="423.5,-592.5 423.5,-622.5 780.5,-622.5 780.5,-592.5 423.5,-592.5"/>
<text text-anchor="start" x="430.5" y="-603.9" font-family="Arial" font-size="14.00" fill="#000000">mi_f </text>
<text text-anchor="start" x="460.831" y="-603.9" font-family="Arial" font-size="14.00" fill="#666666">[integer]</text>
<polygon fill="none" stroke="#000000" points="423.5,-562.5 423.5,-592.5 780.5,-592.5 780.5,-562.5 423.5,-562.5"/>
<text text-anchor="start" x="430.5" y="-573.9" font-family="Arial" font-size="14.00" fill="#000000">mi_g </text>
<text text-anchor="start" x="464.723" y="-573.9" font-family="Arial" font-size="14.00" fill="#666666">[integer]</text>
<polygon fill="none" stroke="#000000" points="423.5,-532.5 423.5,-562.5 780.5,-562.5 780.5,-532.5 423.5,-532.5"/>
<text text-anchor="start" x="430.5" y="-543.9" font-family="Arial" font-size="14.00" fill="#000000">mi_h </text>
<text text-anchor="start" x="464.723" y="-543.9" font-family="Arial" font-size="14.00" fill="#666666">[integer]</text>
<polygon fill="none" stroke="#000000" points="423.5,-502.5 423.5,-532.5 780.5,-532.5 780.5,-502.5 423.5,-502.5"/>
<text text-anchor="start" x="430.5" y="-513.9" font-family="Arial" font-size="14.00" fill="#000000">leader </text>
<text text-anchor="start" x="473.2882" y="-513.9" font-family="Arial" font-size="14.00" fill="#666666">[integer]</text>
<polygon fill="none" stroke="#000000" points="423.5,-472.5 423.5,-502.5 780.5,-502.5 780.5,-472.5 423.5,-472.5"/>
<text text-anchor="start" x="430.5" y="-483.9" font-family="Arial" font-size="14.00" fill="#000000">eyesight </text>
<text text-anchor="start" x="486.5182" y="-483.9" font-family="Arial" font-size="14.00" fill="#666666">[integer]</text>
<polygon fill="none" stroke="#000000" points="423.5,-442.5 423.5,-472.5 780.5,-472.5 780.5,-442.5 423.5,-442.5"/>
<text text-anchor="start" x="430.5" y="-453.9" font-family="Arial" font-size="14.00" fill="#000000">created_at </text>
<text text-anchor="start" x="500.528" y="-453.9" font-family="Arial" font-size="14.00" fill="#666666">[timestamp without time zone]</text>
<polygon fill="none" stroke="#000000" points="423.5,-412.5 423.5,-442.5 780.5,-442.5 780.5,-412.5 423.5,-412.5"/>
<text text-anchor="start" x="430.5" y="-423.9" font-family="Arial" font-size="14.00" fill="#000000">updated_at </text>
<text text-anchor="start" x="504.4326" y="-423.9" font-family="Arial" font-size="14.00" fill="#666666">[timestamp without time zone]</text>
<polygon fill="none" stroke="#000000" stroke-width="3" points="421.5,-411.5 421.5,-929.5 781.5,-929.5 781.5,-411.5 421.5,-411.5"/>
</g>
<!-- public.students -->
<g id="node3" class="node">
<title>public.students</title>
<polygon fill="#efefef" stroke="transparent" points="43.5,-252.5 43.5,-287.5 346.5,-287.5 346.5,-252.5 43.5,-252.5"/>
<polygon fill="none" stroke="#000000" points="43.5,-252.5 43.5,-287.5 346.5,-287.5 346.5,-252.5 43.5,-252.5"/>
<text text-anchor="start" x="71.1968" y="-265.3" font-family="Arial Bold" font-size="18.00" fill="#000000">public.students</text>
<text text-anchor="start" x="191.2352" y="-265.3" font-family="Arial" font-size="14.00" fill="#000000">    </text>
<text text-anchor="start" x="225.44" y="-265.3" font-family="Arial" font-size="14.00" fill="#666666">[BASE TABLE]</text>
<polygon fill="none" stroke="#000000" points="43.5,-222.5 43.5,-252.5 346.5,-252.5 346.5,-222.5 43.5,-222.5"/>
<text text-anchor="start" x="50.5" y="-233.9" font-family="Arial" font-size="14.00" fill="#000000">id    </text>
<text text-anchor="start" x="95.594" y="-233.9" font-family="Arial" font-size="14.00" fill="#666666">[bigint]</text>
<polygon fill="none" stroke="#000000" points="43.5,-192.5 43.5,-222.5 346.5,-222.5 346.5,-192.5 43.5,-192.5"/>
<text text-anchor="start" x="50.5" y="-203.9" font-family="Arial" font-size="14.00" fill="#000000">name    </text>
<text text-anchor="start" x="119.7132" y="-203.9" font-family="Arial" font-size="14.00" fill="#666666">[varchar(255)]</text>
<polygon fill="none" stroke="#000000" points="43.5,-162.5 43.5,-192.5 346.5,-192.5 346.5,-162.5 43.5,-162.5"/>
<text text-anchor="start" x="50.5" y="-173.9" font-family="Arial" font-size="14.00" fill="#000000">sex    </text>
<text text-anchor="start" x="106.4874" y="-173.9" font-family="Arial" font-size="14.00" fill="#666666">[integer]</text>
<polygon fill="none" stroke="#000000" points="43.5,-132.5 43.5,-162.5 346.5,-162.5 346.5,-132.5 43.5,-132.5"/>
<text text-anchor="start" x="50.5" y="-143.9" font-family="Arial" font-size="14.00" fill="#000000">memo    </text>
<text text-anchor="start" x="123.5912" y="-143.9" font-family="Arial" font-size="14.00" fill="#666666">[text]</text>
<polygon fill="none" stroke="#000000" points="43.5,-102.5 43.5,-132.5 346.5,-132.5 346.5,-102.5 43.5,-102.5"/>
<text text-anchor="start" x="50.5" y="-113.9" font-family="Arial" font-size="14.00" fill="#000000">class_id    </text>
<text text-anchor="start" x="135.2658" y="-113.9" font-family="Arial" font-size="14.00" fill="#666666">[bigint]</text>
<polygon fill="none" stroke="#000000" points="43.5,-72.5 43.5,-102.5 346.5,-102.5 346.5,-72.5 43.5,-72.5"/>
<text text-anchor="start" x="50.5" y="-83.9" font-family="Arial" font-size="14.00" fill="#000000">created_at    </text>
<text text-anchor="start" x="150.8422" y="-83.9" font-family="Arial" font-size="14.00" fill="#666666">[timestamp without time zone]</text>
<polygon fill="none" stroke="#000000" points="43.5,-42.5 43.5,-72.5 346.5,-72.5 346.5,-42.5 43.5,-42.5"/>
<text text-anchor="start" x="50.3065" y="-53.9" font-family="Arial" font-size="14.00" fill="#000000">updated_at    </text>
<text text-anchor="start" x="154.5533" y="-53.9" font-family="Arial" font-size="14.00" fill="#666666">[timestamp without time zone]</text>
</g>
<!-- public.student_preferences&#45;&gt;public.students -->
<g id="edge2" class="edge">
<title>public.student_preferences:student_id&#45;&gt;public.students:id</title>
<path fill="none" stroke="#000000" d="M413.3744,-846.2501C296.9871,-815.7561 479.5287,-237.5 346.5,-237.5"/>
<polygon fill="#000000" stroke="#000000" points="413.5753,-846.2748 422.9487,-851.9661 418.5377,-846.8874 423.5,-847.5 423.5,-847.5 423.5,-847.5 418.5377,-846.8874 424.0513,-843.0339 413.5753,-846.2748 413.5753,-846.2748"/>
<text text-anchor="start" x="166.4875" y="-857.5" font-family="Arial" font-size="10.00" fill="#000000">FOREIGN KEY (student_id) REFERENCES students(id)</text>
</g>
<!-- public.surveys -->
<g id="node4" class="node">
<title>public.surveys</title>
<polygon fill="#efefef" stroke="transparent" points="450.5,-237.5 450.5,-272.5 753.5,-272.5 753.5,-237.5 450.5,-237.5"/>
<polygon fill="none" stroke="#000000" points="450.5,-237.5 450.5,-272.5 753.5,-272.5 753.5,-237.5 450.5,-237.5"/>
<text text-anchor="start" x="481.2091" y="-250.3" font-family="Arial Bold" font-size="18.00" fill="#000000">public.surveys</text>
<text text-anchor="start" x="595.2229" y="-250.3" font-family="Arial" font-size="14.00" fill="#000000">    </text>
<text text-anchor="start" x="629.4277" y="-250.3" font-family="Arial" font-size="14.00" fill="#666666">[BASE TABLE]</text>
<polygon fill="none" stroke="#000000" points="450.5,-207.5 450.5,-237.5 753.5,-237.5 753.5,-207.5 450.5,-207.5"/>
<text text-anchor="start" x="457.5" y="-218.9" font-family="Arial" font-size="14.00" fill="#000000">id    </text>
<text text-anchor="start" x="502.594" y="-218.9" font-family="Arial" font-size="14.00" fill="#666666">[bigint]</text>
<polygon fill="none" stroke="#000000" points="450.5,-177.5 450.5,-207.5 753.5,-207.5 753.5,-177.5 450.5,-177.5"/>
<text text-anchor="start" x="457.5" y="-188.9" font-family="Arial" font-size="14.00" fill="#000000">name    </text>
<text text-anchor="start" x="526.7132" y="-188.9" font-family="Arial" font-size="14.00" fill="#666666">[varchar(255)]</text>
<polygon fill="none" stroke="#000000" points="450.5,-147.5 450.5,-177.5 753.5,-177.5 753.5,-147.5 450.5,-147.5"/>
<text text-anchor="start" x="457.5" y="-158.9" font-family="Arial" font-size="14.00" fill="#000000">status    </text>
<text text-anchor="start" x="529.0512" y="-158.9" font-family="Arial" font-size="14.00" fill="#666666">[integer]</text>
<polygon fill="none" stroke="#000000" points="450.5,-117.5 450.5,-147.5 753.5,-147.5 753.5,-117.5 450.5,-117.5"/>
<text text-anchor="start" x="457.5" y="-128.9" font-family="Arial" font-size="14.00" fill="#000000">class_id    </text>
<text text-anchor="start" x="542.2658" y="-128.9" font-family="Arial" font-size="14.00" fill="#666666">[bigint]</text>
<polygon fill="none" stroke="#000000" points="450.5,-87.5 450.5,-117.5 753.5,-117.5 753.5,-87.5 450.5,-87.5"/>
<text text-anchor="start" x="457.5" y="-98.9" font-family="Arial" font-size="14.00" fill="#000000">created_at    </text>
<text text-anchor="start" x="557.8422" y="-98.9" font-family="Arial" font-size="14.00" fill="#666666">[timestamp without time zone]</text>
<polygon fill="none" stroke="#000000" points="450.5,-57.5 450.5,-87.5 753.5,-87.5 753.5,-57.5 450.5,-57.5"/>
<text text-anchor="start" x="457.3065" y="-68.9" font-family="Arial" font-size="14.00" fill="#000000">updated_at    </text>
<text text-anchor="start" x="561.5533" y="-68.9" font-family="Arial" font-size="14.00" fill="#666666">[timestamp without time zone]</text>
</g>
<!-- public.student_preferences&#45;&gt;public.surveys -->
<g id="edge3" class="edge">
<title>public.student_preferences:survey_id&#45;&gt;public.surveys:id</title>
<path fill="none" stroke="#000000" d="M414.1318,-813.0528C360.1641,-758.6047 387.6815,-222.5 450.5,-222.5"/>
<polygon fill="#000000" stroke="#000000" points="414.4662,-813.2115 421.5702,-821.5652 418.9831,-815.3557 423.5,-817.5 423.5,-817.5 423.5,-817.5 418.9831,-815.3557 425.4298,-813.4348 414.4662,-813.2115 414.4662,-813.2115"/>
<text text-anchor="start" x="173.8345" y="-827.5" font-family="Arial" font-size="10.00" fill="#000000">FOREIGN KEY (survey_id) REFERENCES surveys(id)</text>
</g>
<!-- public.teams -->
<g id="node5" class="node">
<title>public.teams</title>
<polygon fill="#efefef" stroke="transparent" points="857.5,-237.5 857.5,-272.5 1160.5,-272.5 1160.5,-237.5 857.5,-237.5"/>
<polygon fill="none" stroke="#000000" points="857.5,-237.5 857.5,-272.5 1160.5,-272.5 1160.5,-237.5 857.5,-237.5"/>
<text text-anchor="start" x="894.708" y="-250.3" font-family="Arial Bold" font-size="18.00" fill="#000000">public.teams</text>
<text text-anchor="start" x="995.724" y="-250.3" font-family="Arial" font-size="14.00" fill="#000000">    </text>
<text text-anchor="start" x="1029.9288" y="-250.3" font-family="Arial" font-size="14.00" fill="#666666">[BASE TABLE]</text>
<polygon fill="none" stroke="#000000" points="857.5,-207.5 857.5,-237.5 1160.5,-237.5 1160.5,-207.5 857.5,-207.5"/>
<text text-anchor="start" x="864.5" y="-218.9" font-family="Arial" font-size="14.00" fill="#000000">id    </text>
<text text-anchor="start" x="909.594" y="-218.9" font-family="Arial" font-size="14.00" fill="#666666">[bigint]</text>
<polygon fill="none" stroke="#000000" points="857.5,-177.5 857.5,-207.5 1160.5,-207.5 1160.5,-177.5 857.5,-177.5"/>
<text text-anchor="start" x="864.5" y="-188.9" font-family="Arial" font-size="14.00" fill="#000000">team_id    </text>
<text text-anchor="start" x="948.493" y="-188.9" font-family="Arial" font-size="14.00" fill="#666666">[bigint]</text>
<polygon fill="none" stroke="#000000" points="857.5,-147.5 857.5,-177.5 1160.5,-177.5 1160.5,-147.5 857.5,-147.5"/>
<text text-anchor="start" x="864.5" y="-158.9" font-family="Arial" font-size="14.00" fill="#000000">name    </text>
<text text-anchor="start" x="933.7132" y="-158.9" font-family="Arial" font-size="14.00" fill="#666666">[varchar(255)]</text>
<polygon fill="none" stroke="#000000" points="857.5,-117.5 857.5,-147.5 1160.5,-147.5 1160.5,-117.5 857.5,-117.5"/>
<text text-anchor="start" x="864.5" y="-128.9" font-family="Arial" font-size="14.00" fill="#000000">survey_id    </text>
<text text-anchor="start" x="958.6024" y="-128.9" font-family="Arial" font-size="14.00" fill="#666666">[bigint]</text>
<polygon fill="none" stroke="#000000" points="857.5,-87.5 857.5,-117.5 1160.5,-117.5 1160.5,-87.5 857.5,-87.5"/>
<text text-anchor="start" x="864.5" y="-98.9" font-family="Arial" font-size="14.00" fill="#000000">created_at    </text>
<text text-anchor="start" x="964.8422" y="-98.9" font-family="Arial" font-size="14.00" fill="#666666">[timestamp without time zone]</text>
<polygon fill="none" stroke="#000000" points="857.5,-57.5 857.5,-87.5 1160.5,-87.5 1160.5,-57.5 857.5,-57.5"/>
<text text-anchor="start" x="864.3065" y="-68.9" font-family="Arial" font-size="14.00" fill="#000000">updated_at    </text>
<text text-anchor="start" x="968.5533" y="-68.9" font-family="Arial" font-size="14.00" fill="#666666">[timestamp without time zone]</text>
</g>
<!-- public.student_preferences&#45;&gt;public.teams -->
<g id="edge4" class="edge">
<title>public.student_preferences:team_id&#45;&gt;public.teams:id</title>
<path fill="none" stroke="#000000" d="M790.5503,-786.1662C897.4661,-755.9512 734.3725,-222.5 857.5,-222.5"/>
<polygon fill="#000000" stroke="#000000" points="790.4131,-786.1843 779.9079,-783.0391 785.4565,-786.8422 780.5,-787.5 780.5,-787.5 780.5,-787.5 785.4565,-786.8422 781.0921,-791.9609 790.4131,-786.1843 790.4131,-786.1843"/>
<text text-anchor="start" x="787.0555" y="-797.5" font-family="Arial" font-size="10.00" fill="#000000">FOREIGN KEY (team_id) REFERENCES teams(id)</text>
</g>
<!-- public.student_dislikes -->
<g id="node2" class="node">
<title>public.student_dislikes</title>
<polygon fill="#efefef" stroke="transparent" points="441.5,-1202.5 441.5,-1237.5 762.5,-1237.5 762.5,-1202.5 441.5,-1202.5"/>
<polygon fill="none" stroke="#000000" points="441.5,-1202.5 441.5,-1237.5 762.5,-1237.5 762.5,-1202.5 441.5,-1202.5"/>
<text text-anchor="start" x="448.1962" y="-1215.3" font-family="Arial Bold" font-size="18.00" fill="#000000">public.student_dislikes</text>
<text text-anchor="start" x="628.2358" y="-1215.3" font-family="Arial" font-size="14.00" fill="#000000">    </text>
<text text-anchor="start" x="662.4406" y="-1215.3" font-family="Arial" font-size="14.00" fill="#666666">[BASE TABLE]</text>
<polygon fill="none" stroke="#000000" points="441.5,-1172.5 441.5,-1202.5 762.5,-1202.5 762.5,-1172.5 441.5,-1172.5"/>
<text text-anchor="start" x="448.5" y="-1183.9" font-family="Arial" font-size="14.00" fill="#000000">id    </text>
<text text-anchor="start" x="493.594" y="-1183.9" font-family="Arial" font-size="14.00" fill="#666666">[bigint]</text>
<polygon fill="none" stroke="#000000" points="441.5,-1142.5 441.5,-1172.5 762.5,-1172.5 762.5,-1142.5 441.5,-1142.5"/>
<text text-anchor="start" x="448.5" y="-1153.9" font-family="Arial" font-size="14.00" fill="#000000">student_id    </text>
<text text-anchor="start" x="547.2882" y="-1153.9" font-family="Arial" font-size="14.00" fill="#666666">[bigint]</text>
<polygon fill="none" stroke="#000000" points="441.5,-1112.5 441.5,-1142.5 762.5,-1142.5 762.5,-1112.5 441.5,-1112.5"/>
<text text-anchor="start" x="448.5" y="-1123.9" font-family="Arial" font-size="14.00" fill="#000000">preference_id    </text>
<text text-anchor="start" x="568.284" y="-1123.9" font-family="Arial" font-size="14.00" fill="#666666">[bigint]</text>
<polygon fill="none" stroke="#000000" points="441.5,-1082.5 441.5,-1112.5 762.5,-1112.5 762.5,-1082.5 441.5,-1082.5"/>
<text text-anchor="start" x="448.5" y="-1093.9" font-family="Arial" font-size="14.00" fill="#000000">created_at    </text>
<text text-anchor="start" x="548.8422" y="-1093.9" font-family="Arial" font-size="14.00" fill="#666666">[timestamp without time zone]</text>
<polygon fill="none" stroke="#000000" points="441.5,-1052.5 441.5,-1082.5 762.5,-1082.5 762.5,-1052.5 441.5,-1052.5"/>
<text text-anchor="start" x="448.5" y="-1063.9" font-family="Arial" font-size="14.00" fill="#000000">updated_at    </text>
<text text-anchor="start" x="552.7468" y="-1063.9" font-family="Arial" font-size="14.00" fill="#666666">[timestamp without time zone]</text>
</g>
<!-- public.student_dislikes&#45;&gt;public.student_preferences -->
<g id="edge1" class="edge">
<title>public.student_dislikes:preference_id&#45;&gt;public.student_preferences:id</title>
<path fill="none" stroke="#000000" d="M431.3311,-1126.7828C329.1026,-1112.1191 315.5825,-877.5 423.5,-877.5"/>
<polygon fill="#000000" stroke="#000000" points="431.5248,-1126.7964 441.1834,-1131.9889 436.5124,-1127.1482 441.5,-1127.5 441.5,-1127.5 441.5,-1127.5 436.5124,-1127.1482 441.8166,-1123.0111 431.5248,-1126.7964 431.5248,-1126.7964"/>
<text text-anchor="start" x="116.314" y="-1137.5" font-family="Arial" font-size="10.00" fill="#000000">FOREIGN KEY (preference_id) REFERENCES student_preferences(id)</text>
</g>
</g>
</svg>
