<?xml version="1.0" encoding="UTF-8" standalone="no"?>
<!DOCTYPE svg PUBLIC "-//W3C//DTD SVG 1.1//EN"
 "http://www.w3.org/Graphics/SVG/1.1/DTD/svg11.dtd">
<!-- Generated by graphviz version 2.40.1 (20161225.0304)
 -->
<!-- Title: public.classes Pages: 1 -->
<svg width="592pt" height="1139pt"
 viewBox="0.00 0.00 591.50 1139.00" xmlns="http://www.w3.org/2000/svg" xmlns:xlink="http://www.w3.org/1999/xlink">
<g id="graph0" class="graph" transform="scale(1 1) rotate(0) translate(4 1135)">
<title>public.classes</title>
<polygon fill="#ffffff" stroke="transparent" points="-4,4 -4,-1135 587.5,-1135 587.5,4 -4,4"/>
<!-- public.classes -->
<g id="node1" class="node">
<title>public.classes</title>
<polygon fill="#efefef" stroke="transparent" points="265,-652.5 265,-687.5 538,-687.5 538,-652.5 265,-652.5"/>
<polygon fill="none" stroke="#000000" points="265,-652.5 265,-687.5 538,-687.5 538,-652.5 265,-652.5"/>
<text text-anchor="start" x="296.8652" y="-665.3" font-family="Arial Bold" font-size="18.00" fill="#000000">public.classes</text>
<text text-anchor="start" x="408.881" y="-665.3" font-family="Arial" font-size="14.00" fill="#000000"> </text>
<text text-anchor="start" x="412.7716" y="-665.3" font-family="Arial" font-size="14.00" fill="#666666">[BASE TABLE]</text>
<polygon fill="none" stroke="#000000" points="265,-622.5 265,-652.5 538,-652.5 538,-622.5 265,-622.5"/>
<text text-anchor="start" x="272" y="-633.9" font-family="Arial" font-size="14.00" fill="#000000">id </text>
<text text-anchor="start" x="286.7798" y="-633.9" font-family="Arial" font-size="14.00" fill="#666666">[integer]</text>
<polygon fill="none" stroke="#000000" points="265,-592.5 265,-622.5 538,-622.5 538,-592.5 265,-592.5"/>
<text text-anchor="start" x="272" y="-603.9" font-family="Arial" font-size="14.00" fill="#000000">name </text>
<text text-anchor="start" x="310.899" y="-603.9" font-family="Arial" font-size="14.00" fill="#666666">[varchar(255)]</text>
<polygon fill="none" stroke="#000000" points="265,-562.5 265,-592.5 538,-592.5 538,-562.5 265,-562.5"/>
<text text-anchor="start" x="272" y="-573.9" font-family="Arial" font-size="14.00" fill="#000000">organization </text>
<text text-anchor="start" x="352.1332" y="-573.9" font-family="Arial" font-size="14.00" fill="#666666">[varchar(255)]</text>
<polygon fill="none" stroke="#000000" points="265,-532.5 265,-562.5 538,-562.5 538,-532.5 265,-532.5"/>
<text text-anchor="start" x="272" y="-543.9" font-family="Arial" font-size="14.00" fill="#000000">teacher_id </text>
<text text-anchor="start" x="341.244" y="-543.9" font-family="Arial" font-size="14.00" fill="#666666">[bigint]</text>
<polygon fill="none" stroke="#000000" points="265,-502.5 265,-532.5 538,-532.5 538,-502.5 265,-502.5"/>
<text text-anchor="start" x="272" y="-513.9" font-family="Arial" font-size="14.00" fill="#000000">created_at </text>
<text text-anchor="start" x="342.028" y="-513.9" font-family="Arial" font-size="14.00" fill="#666666">[timestamp without time zone]</text>
<polygon fill="none" stroke="#000000" points="265,-472.5 265,-502.5 538,-502.5 538,-472.5 265,-472.5"/>
<text text-anchor="start" x="271.9636" y="-483.9" font-family="Arial" font-size="14.00" fill="#000000">updated_at </text>
<text text-anchor="start" x="345.8962" y="-483.9" font-family="Arial" font-size="14.00" fill="#666666">[timestamp without time zone]</text>
<polygon fill="none" stroke="#000000" stroke-width="3" points="263,-471.5 263,-689.5 539,-689.5 539,-471.5 263,-471.5"/>
</g>
<!-- public.teachers -->
<g id="node3" class="node">
<title>public.teachers</title>
<polygon fill="#efefef" stroke="transparent" points="265,-312.5 265,-347.5 538,-347.5 538,-312.5 265,-312.5"/>
<polygon fill="none" stroke="#000000" points="265,-312.5 265,-347.5 538,-347.5 538,-312.5 265,-312.5"/>
<text text-anchor="start" x="292.3589" y="-325.3" font-family="Arial Bold" font-size="18.00" fill="#000000">public.teachers</text>
<text text-anchor="start" x="413.3873" y="-325.3" font-family="Arial" font-size="14.00" fill="#000000"> </text>
<text text-anchor="start" x="417.2779" y="-325.3" font-family="Arial" font-size="14.00" fill="#666666">[BASE TABLE]</text>
<polygon fill="none" stroke="#000000" points="265,-282.5 265,-312.5 538,-312.5 538,-282.5 265,-282.5"/>
<text text-anchor="start" x="272" y="-293.9" font-family="Arial" font-size="14.00" fill="#000000">id </text>
<text text-anchor="start" x="286.7798" y="-293.9" font-family="Arial" font-size="14.00" fill="#666666">[bigint]</text>
<polygon fill="none" stroke="#000000" points="265,-252.5 265,-282.5 538,-282.5 538,-252.5 265,-252.5"/>
<text text-anchor="start" x="272" y="-263.9" font-family="Arial" font-size="14.00" fill="#000000">name </text>
<text text-anchor="start" x="310.899" y="-263.9" font-family="Arial" font-size="14.00" fill="#666666">[varchar(256)]</text>
<polygon fill="none" stroke="#000000" points="265,-222.5 265,-252.5 538,-252.5 538,-222.5 265,-222.5"/>
<text text-anchor="start" x="272" y="-233.9" font-family="Arial" font-size="14.00" fill="#000000">family_name </text>
<text text-anchor="start" x="355.2286" y="-233.9" font-family="Arial" font-size="14.00" fill="#666666">[varchar(256)]</text>
<polygon fill="none" stroke="#000000" points="265,-192.5 265,-222.5 538,-222.5 538,-192.5 265,-192.5"/>
<text text-anchor="start" x="272" y="-203.9" font-family="Arial" font-size="14.00" fill="#000000">given_name </text>
<text text-anchor="start" x="352.136" y="-203.9" font-family="Arial" font-size="14.00" fill="#666666">[varchar(256)]</text>
<polygon fill="none" stroke="#000000" points="265,-162.5 265,-192.5 538,-192.5 538,-162.5 265,-162.5"/>
<text text-anchor="start" x="272" y="-173.9" font-family="Arial" font-size="14.00" fill="#000000">email </text>
<text text-anchor="start" x="309.3296" y="-173.9" font-family="Arial" font-size="14.00" fill="#666666">[varchar(256)]</text>
<polygon fill="none" stroke="#000000" points="265,-132.5 265,-162.5 538,-162.5 538,-132.5 265,-132.5"/>
<text text-anchor="start" x="272" y="-143.9" font-family="Arial" font-size="14.00" fill="#000000">status </text>
<text text-anchor="start" x="313.237" y="-143.9" font-family="Arial" font-size="14.00" fill="#666666">[integer]</text>
<polygon fill="none" stroke="#000000" points="265,-102.5 265,-132.5 538,-132.5 538,-102.5 265,-102.5"/>
<text text-anchor="start" x="272" y="-113.9" font-family="Arial" font-size="14.00" fill="#000000">created_at </text>
<text text-anchor="start" x="342.028" y="-113.9" font-family="Arial" font-size="14.00" fill="#666666">[timestamp without time zone]</text>
<polygon fill="none" stroke="#000000" points="265,-72.5 265,-102.5 538,-102.5 538,-72.5 265,-72.5"/>
<text text-anchor="start" x="271.9636" y="-83.9" font-family="Arial" font-size="14.00" fill="#000000">updated_at </text>
<text text-anchor="start" x="345.8962" y="-83.9" font-family="Arial" font-size="14.00" fill="#666666">[timestamp without time zone]</text>
<polygon fill="none" stroke="#000000" points="265,-42.5 265,-72.5 538,-72.5 538,-42.5 265,-42.5"/>
<text text-anchor="start" x="272" y="-53.9" font-family="Arial" font-size="14.00" fill="#000000">expired_at </text>
<text text-anchor="start" x="341.244" y="-53.9" font-family="Arial" font-size="14.00" fill="#666666">[timestamp without time zone]</text>
</g>
<!-- public.classes&#45;&gt;public.teachers -->
<g id="edge2" class="edge">
<title>public.classes:teacher_id&#45;&gt;public.teachers:id</title>
<path fill="none" stroke="#000000" d="M254.9089,-546.7828C153.9974,-532.1191 157.3611,-297.5 265,-297.5"/>
<polygon fill="#000000" stroke="#000000" points="255.0252,-546.791 264.681,-551.9887 260.0126,-547.1455 265,-547.5 265,-547.5 265,-547.5 260.0126,-547.1455 265.319,-543.0113 255.0252,-546.791 255.0252,-546.791"/>
<text text-anchor="start" x="7.4375" y="-557.5" font-family="Arial" font-size="10.00" fill="#000000">FOREIGN KEY (teacher_id) REFERENCES teachers(id)</text>
</g>
<!-- public.students -->
<g id="node2" class="node">
<title>public.students</title>
<polygon fill="#efefef" stroke="transparent" points="265,-1052.5 265,-1087.5 538,-1087.5 538,-1052.5 265,-1052.5"/>
<polygon fill="none" stroke="#000000" points="265,-1052.5 265,-1087.5 538,-1087.5 538,-1052.5 265,-1052.5"/>
<text text-anchor="start" x="292.8539" y="-1065.3" font-family="Arial Bold" font-size="18.00" fill="#000000">public.students</text>
<text text-anchor="start" x="412.8923" y="-1065.3" font-family="Arial" font-size="14.00" fill="#000000"> </text>
<text text-anchor="start" x="416.7829" y="-1065.3" font-family="Arial" font-size="14.00" fill="#666666">[BASE TABLE]</text>
<polygon fill="none" stroke="#000000" points="265,-1022.5 265,-1052.5 538,-1052.5 538,-1022.5 265,-1022.5"/>
<text text-anchor="start" x="272" y="-1033.9" font-family="Arial" font-size="14.00" fill="#000000">id </text>
<text text-anchor="start" x="286.7798" y="-1033.9" font-family="Arial" font-size="14.00" fill="#666666">[integer]</text>
<polygon fill="none" stroke="#000000" points="265,-992.5 265,-1022.5 538,-1022.5 538,-992.5 265,-992.5"/>
<text text-anchor="start" x="272" y="-1003.9" font-family="Arial" font-size="14.00" fill="#000000">name </text>
<text text-anchor="start" x="310.899" y="-1003.9" font-family="Arial" font-size="14.00" fill="#666666">[varchar(255)]</text>
<polygon fill="none" stroke="#000000" points="265,-962.5 265,-992.5 538,-992.5 538,-962.5 265,-962.5"/>
<text text-anchor="start" x="272" y="-973.9" font-family="Arial" font-size="14.00" fill="#000000">sex </text>
<text text-anchor="start" x="297.6732" y="-973.9" font-family="Arial" font-size="14.00" fill="#666666">[integer]</text>
<polygon fill="none" stroke="#000000" points="265,-932.5 265,-962.5 538,-962.5 538,-932.5 265,-932.5"/>
<text text-anchor="start" x="272" y="-943.9" font-family="Arial" font-size="14.00" fill="#000000">class_id </text>
<text text-anchor="start" x="326.4516" y="-943.9" font-family="Arial" font-size="14.00" fill="#666666">[bigint]</text>
<polygon fill="none" stroke="#000000" points="265,-902.5 265,-932.5 538,-932.5 538,-902.5 265,-902.5"/>
<text text-anchor="start" x="272" y="-913.9" font-family="Arial" font-size="14.00" fill="#000000">family_name </text>
<text text-anchor="start" x="355.2286" y="-913.9" font-family="Arial" font-size="14.00" fill="#666666">[varchar(255)]</text>
<polygon fill="none" stroke="#000000" points="265,-872.5 265,-902.5 538,-902.5 538,-872.5 265,-872.5"/>
<text text-anchor="start" x="272" y="-883.9" font-family="Arial" font-size="14.00" fill="#000000">given_name </text>
<text text-anchor="start" x="352.136" y="-883.9" font-family="Arial" font-size="14.00" fill="#666666">[varchar(255)]</text>
<polygon fill="none" stroke="#000000" points="265,-842.5 265,-872.5 538,-872.5 538,-842.5 265,-842.5"/>
<text text-anchor="start" x="272" y="-853.9" font-family="Arial" font-size="14.00" fill="#000000">created_at </text>
<text text-anchor="start" x="342.028" y="-853.9" font-family="Arial" font-size="14.00" fill="#666666">[timestamp without time zone]</text>
<polygon fill="none" stroke="#000000" points="265,-812.5 265,-842.5 538,-842.5 538,-812.5 265,-812.5"/>
<text text-anchor="start" x="271.9636" y="-823.9" font-family="Arial" font-size="14.00" fill="#000000">updated_at </text>
<text text-anchor="start" x="345.8962" y="-823.9" font-family="Arial" font-size="14.00" fill="#666666">[timestamp without time zone]</text>
</g>
<!-- public.students&#45;&gt;public.classes -->
<g id="edge1" class="edge">
<title>public.students:class_id&#45;&gt;public.classes:id</title>
<path fill="none" stroke="#000000" d="M255.0381,-945.183C196.2888,-916.815 199.6094,-637.5 265,-637.5"/>
<polygon fill="#000000" stroke="#000000" points="255.26,-945.2345 263.9805,-951.883 260.13,-946.3672 265,-947.5 265,-947.5 265,-947.5 260.13,-946.3672 266.0195,-943.117 255.26,-945.2345 255.26,-945.2345"/>
<text text-anchor="start" x="23.224" y="-957.5" font-family="Arial" font-size="10.00" fill="#000000">FOREIGN KEY (class_id) REFERENCES classes(id)</text>
</g>
</g>
</svg>
