<?xml version="1.0" encoding="UTF-8" standalone="no"?>
<!DOCTYPE svg PUBLIC "-//W3C//DTD SVG 1.1//EN"
 "http://www.w3.org/Graphics/SVG/1.1/DTD/svg11.dtd">
<!-- Generated by graphviz version 2.40.1 (20161225.0304)
 -->
<!-- Title: db Pages: 1 -->
<svg width="1202pt" height="2871pt"
 viewBox="0.00 0.00 1202.00 2871.00" xmlns="http://www.w3.org/2000/svg" xmlns:xlink="http://www.w3.org/1999/xlink">
<g id="graph0" class="graph" transform="scale(1 1) rotate(0) translate(4 2867)">
<title>db</title>
<polygon fill="#ffffff" stroke="transparent" points="-4,4 -4,-2867 1198,-2867 1198,4 -4,4"/>
<!-- public.goose_db_version -->
<g id="node1" class="node">
<title>public.goose_db_version</title>
<polygon fill="#efefef" stroke="transparent" points="43,-2769.5 43,-2804.5 383,-2804.5 383,-2769.5 43,-2769.5"/>
<polygon fill="none" stroke="#000000" points="43,-2769.5 43,-2804.5 383,-2804.5 383,-2769.5 43,-2769.5"/>
<text text-anchor="start" x="49.6841" y="-2782.3" font-family="Arial Bold" font-size="18.00" fill="#000000">public.goose_db_version</text>
<text text-anchor="start" x="248.7479" y="-2782.3" font-family="Arial" font-size="14.00" fill="#000000">    </text>
<text text-anchor="start" x="282.9527" y="-2782.3" font-family="Arial" font-size="14.00" fill="#666666">[BASE TABLE]</text>
<polygon fill="none" stroke="#000000" points="43,-2739.5 43,-2769.5 383,-2769.5 383,-2739.5 43,-2739.5"/>
<text text-anchor="start" x="50" y="-2750.9" font-family="Arial" font-size="14.00" fill="#000000">id    </text>
<text text-anchor="start" x="95.094" y="-2750.9" font-family="Arial" font-size="14.00" fill="#666666">[integer]</text>
<polygon fill="none" stroke="#000000" points="43,-2709.5 43,-2739.5 383,-2739.5 383,-2709.5 43,-2709.5"/>
<text text-anchor="start" x="50" y="-2720.9" font-family="Arial" font-size="14.00" fill="#000000">version_id    </text>
<text text-anchor="start" x="147.9916" y="-2720.9" font-family="Arial" font-size="14.00" fill="#666666">[bigint]</text>
<polygon fill="none" stroke="#000000" points="43,-2679.5 43,-2709.5 383,-2709.5 383,-2679.5 43,-2679.5"/>
<text text-anchor="start" x="50" y="-2690.9" font-family="Arial" font-size="14.00" fill="#000000">is_applied    </text>
<text text-anchor="start" x="147.2202" y="-2690.9" font-family="Arial" font-size="14.00" fill="#666666">[boolean]</text>
<polygon fill="none" stroke="#000000" points="43,-2649.5 43,-2679.5 383,-2679.5 383,-2649.5 43,-2649.5"/>
<text text-anchor="start" x="50" y="-2660.9" font-family="Arial" font-size="14.00" fill="#000000">tstamp    </text>
<text text-anchor="start" x="126.2118" y="-2660.9" font-family="Arial" font-size="14.00" fill="#666666">[timestamp without time zone]</text>
</g>
<!-- public.schools -->
<g id="node2" class="node">
<title>public.schools</title>
<polygon fill="#efefef" stroke="transparent" points="497,-282.5 497,-317.5 800,-317.5 800,-282.5 497,-282.5"/>
<polygon fill="none" stroke="#000000" points="497,-282.5 497,-317.5 800,-317.5 800,-282.5 497,-282.5"/>
<text text-anchor="start" x="528.205" y="-295.3" font-family="Arial Bold" font-size="18.00" fill="#000000">public.schools</text>
<text text-anchor="start" x="641.227" y="-295.3" font-family="Arial" font-size="14.00" fill="#000000">    </text>
<text text-anchor="start" x="675.4318" y="-295.3" font-family="Arial" font-size="14.00" fill="#666666">[BASE TABLE]</text>
<polygon fill="none" stroke="#000000" points="497,-252.5 497,-282.5 800,-282.5 800,-252.5 497,-252.5"/>
<text text-anchor="start" x="504" y="-263.9" font-family="Arial" font-size="14.00" fill="#000000">id    </text>
<text text-anchor="start" x="549.094" y="-263.9" font-family="Arial" font-size="14.00" fill="#666666">[bigint]</text>
<polygon fill="none" stroke="#000000" points="497,-222.5 497,-252.5 800,-252.5 800,-222.5 497,-222.5"/>
<text text-anchor="start" x="504" y="-233.9" font-family="Arial" font-size="14.00" fill="#000000">name    </text>
<text text-anchor="start" x="573.2132" y="-233.9" font-family="Arial" font-size="14.00" fill="#666666">[varchar(255)]</text>
<polygon fill="none" stroke="#000000" points="497,-192.5 497,-222.5 800,-222.5 800,-192.5 497,-192.5"/>
<text text-anchor="start" x="504" y="-203.9" font-family="Arial" font-size="14.00" fill="#000000">postal_code    </text>
<text text-anchor="start" x="613.6802" y="-203.9" font-family="Arial" font-size="14.00" fill="#666666">[varchar(255)]</text>
<polygon fill="none" stroke="#000000" points="497,-162.5 497,-192.5 800,-192.5 800,-162.5 497,-162.5"/>
<text text-anchor="start" x="504" y="-173.9" font-family="Arial" font-size="14.00" fill="#000000">prefecture    </text>
<text text-anchor="start" x="601.2202" y="-173.9" font-family="Arial" font-size="14.00" fill="#666666">[varchar(255)]</text>
<polygon fill="none" stroke="#000000" points="497,-132.5 497,-162.5 800,-162.5 800,-132.5 497,-132.5"/>
<text text-anchor="start" x="504" y="-143.9" font-family="Arial" font-size="14.00" fill="#000000">city    </text>
<text text-anchor="start" x="559.202" y="-143.9" font-family="Arial" font-size="14.00" fill="#666666">[varchar(255)]</text>
<polygon fill="none" stroke="#000000" points="497,-102.5 497,-132.5 800,-132.5 800,-102.5 497,-102.5"/>
<text text-anchor="start" x="504" y="-113.9" font-family="Arial" font-size="14.00" fill="#000000">address    </text>
<text text-anchor="start" x="587.9958" y="-113.9" font-family="Arial" font-size="14.00" fill="#666666">[varchar(255)]</text>
<polygon fill="none" stroke="#000000" points="497,-72.5 497,-102.5 800,-102.5 800,-72.5 497,-72.5"/>
<text text-anchor="start" x="504" y="-83.9" font-family="Arial" font-size="14.00" fill="#000000">created_at    </text>
<text text-anchor="start" x="604.3422" y="-83.9" font-family="Arial" font-size="14.00" fill="#666666">[timestamp without time zone]</text>
<polygon fill="none" stroke="#000000" points="497,-42.5 497,-72.5 800,-72.5 800,-42.5 497,-42.5"/>
<text text-anchor="start" x="503.8065" y="-53.9" font-family="Arial" font-size="14.00" fill="#000000">updated_at    </text>
<text text-anchor="start" x="608.0533" y="-53.9" font-family="Arial" font-size="14.00" fill="#666666">[timestamp without time zone]</text>
</g>
<!-- public.teachers -->
<g id="node3" class="node">
<title>public.teachers</title>
<polygon fill="#efefef" stroke="transparent" points="497,-739.5 497,-774.5 800,-774.5 800,-739.5 497,-739.5"/>
<polygon fill="none" stroke="#000000" points="497,-739.5 497,-774.5 800,-774.5 800,-739.5 497,-739.5"/>
<text text-anchor="start" x="524.2018" y="-752.3" font-family="Arial Bold" font-size="18.00" fill="#000000">public.teachers</text>
<text text-anchor="start" x="645.2302" y="-752.3" font-family="Arial" font-size="14.00" fill="#000000">    </text>
<text text-anchor="start" x="679.435" y="-752.3" font-family="Arial" font-size="14.00" fill="#666666">[BASE TABLE]</text>
<polygon fill="none" stroke="#000000" points="497,-709.5 497,-739.5 800,-739.5 800,-709.5 497,-709.5"/>
<text text-anchor="start" x="504" y="-720.9" font-family="Arial" font-size="14.00" fill="#000000">id    </text>
<text text-anchor="start" x="549.094" y="-720.9" font-family="Arial" font-size="14.00" fill="#666666">[bigint]</text>
<polygon fill="none" stroke="#000000" points="497,-679.5 497,-709.5 800,-709.5 800,-679.5 497,-679.5"/>
<text text-anchor="start" x="504" y="-690.9" font-family="Arial" font-size="14.00" fill="#000000">name    </text>
<text text-anchor="start" x="573.2132" y="-690.9" font-family="Arial" font-size="14.00" fill="#666666">[varchar(255)]</text>
<polygon fill="none" stroke="#000000" points="497,-649.5 497,-679.5 800,-679.5 800,-649.5 497,-649.5"/>
<text text-anchor="start" x="504" y="-660.9" font-family="Arial" font-size="14.00" fill="#000000">family_name    </text>
<text text-anchor="start" x="617.5428" y="-660.9" font-family="Arial" font-size="14.00" fill="#666666">[varchar(255)]</text>
<polygon fill="none" stroke="#000000" points="497,-619.5 497,-649.5 800,-649.5 800,-619.5 497,-619.5"/>
<text text-anchor="start" x="504" y="-630.9" font-family="Arial" font-size="14.00" fill="#000000">given_name    </text>
<text text-anchor="start" x="614.4502" y="-630.9" font-family="Arial" font-size="14.00" fill="#666666">[varchar(255)]</text>
<polygon fill="none" stroke="#000000" points="497,-589.5 497,-619.5 800,-619.5 800,-589.5 497,-589.5"/>
<text text-anchor="start" x="504" y="-600.9" font-family="Arial" font-size="14.00" fill="#000000">school_id    </text>
<text text-anchor="start" x="597.331" y="-600.9" font-family="Arial" font-size="14.00" fill="#666666">[bigint]</text>
<polygon fill="none" stroke="#000000" points="497,-559.5 497,-589.5 800,-589.5 800,-559.5 497,-559.5"/>
<text text-anchor="start" x="504" y="-570.9" font-family="Arial" font-size="14.00" fill="#000000">email    </text>
<text text-anchor="start" x="571.6438" y="-570.9" font-family="Arial" font-size="14.00" fill="#666666">[varchar(255)]</text>
<polygon fill="none" stroke="#000000" points="497,-529.5 497,-559.5 800,-559.5 800,-529.5 497,-529.5"/>
<text text-anchor="start" x="504" y="-540.9" font-family="Arial" font-size="14.00" fill="#000000">status    </text>
<text text-anchor="start" x="575.5512" y="-540.9" font-family="Arial" font-size="14.00" fill="#666666">[integer]</text>
<polygon fill="none" stroke="#000000" points="497,-499.5 497,-529.5 800,-529.5 800,-499.5 497,-499.5"/>
<text text-anchor="start" x="504" y="-510.9" font-family="Arial" font-size="14.00" fill="#000000">created_at    </text>
<text text-anchor="start" x="604.3422" y="-510.9" font-family="Arial" font-size="14.00" fill="#666666">[timestamp without time zone]</text>
<polygon fill="none" stroke="#000000" points="497,-469.5 497,-499.5 800,-499.5 800,-469.5 497,-469.5"/>
<text text-anchor="start" x="503.8065" y="-480.9" font-family="Arial" font-size="14.00" fill="#000000">updated_at    </text>
<text text-anchor="start" x="608.0533" y="-480.9" font-family="Arial" font-size="14.00" fill="#666666">[timestamp without time zone]</text>
<polygon fill="none" stroke="#000000" points="497,-439.5 497,-469.5 800,-469.5 800,-439.5 497,-439.5"/>
<text text-anchor="start" x="504" y="-450.9" font-family="Arial" font-size="14.00" fill="#000000">expired_at    </text>
<text text-anchor="start" x="603.5582" y="-450.9" font-family="Arial" font-size="14.00" fill="#666666">[timestamp without time zone]</text>
</g>
<!-- public.teachers&#45;&gt;public.schools -->
<g id="edge1" class="edge">
<title>public.teachers:school_id&#45;&gt;public.schools:id</title>
<path fill="none" stroke="#000000" d="M486.7156,-603.9533C347.3045,-588.8882 350.7326,-267.5 497,-267.5"/>
<polygon fill="#000000" stroke="#000000" points="487.0141,-603.9691 496.7611,-608.9937 492.007,-604.2345 497,-604.5 497,-604.5 497,-604.5 492.007,-604.2345 497.2389,-600.0063 487.0141,-603.9691 487.0141,-603.9691"/>
<text text-anchor="start" x="247.8855" y="-614.5" font-family="Arial" font-size="10.00" fill="#000000">FOREIGN KEY (school_id) REFERENCES schools(id)</text>
</g>
<!-- public.classes -->
<g id="node4" class="node">
<title>public.classes</title>
<polygon fill="#efefef" stroke="transparent" points="497,-1076.5 497,-1111.5 800,-1111.5 800,-1076.5 497,-1076.5"/>
<polygon fill="none" stroke="#000000" points="497,-1076.5 497,-1111.5 800,-1111.5 800,-1076.5 497,-1076.5"/>
<text text-anchor="start" x="528.7081" y="-1089.3" font-family="Arial Bold" font-size="18.00" fill="#000000">public.classes</text>
<text text-anchor="start" x="640.7239" y="-1089.3" font-family="Arial" font-size="14.00" fill="#000000">    </text>
<text text-anchor="start" x="674.9287" y="-1089.3" font-family="Arial" font-size="14.00" fill="#666666">[BASE TABLE]</text>
<polygon fill="none" stroke="#000000" points="497,-1046.5 497,-1076.5 800,-1076.5 800,-1046.5 497,-1046.5"/>
<text text-anchor="start" x="504" y="-1057.9" font-family="Arial" font-size="14.00" fill="#000000">id    </text>
<text text-anchor="start" x="549.094" y="-1057.9" font-family="Arial" font-size="14.00" fill="#666666">[bigint]</text>
<polygon fill="none" stroke="#000000" points="497,-1016.5 497,-1046.5 800,-1046.5 800,-1016.5 497,-1016.5"/>
<text text-anchor="start" x="504" y="-1027.9" font-family="Arial" font-size="14.00" fill="#000000">proxy_uuid    </text>
<text text-anchor="start" x="606.6676" y="-1027.9" font-family="Arial" font-size="14.00" fill="#666666">[character(36)]</text>
<polygon fill="none" stroke="#000000" points="497,-986.5 497,-1016.5 800,-1016.5 800,-986.5 497,-986.5"/>
<text text-anchor="start" x="504" y="-997.9" font-family="Arial" font-size="14.00" fill="#000000">name    </text>
<text text-anchor="start" x="573.2132" y="-997.9" font-family="Arial" font-size="14.00" fill="#666666">[varchar(255)]</text>
<polygon fill="none" stroke="#000000" points="497,-956.5 497,-986.5 800,-986.5 800,-956.5 497,-956.5"/>
<text text-anchor="start" x="504" y="-967.9" font-family="Arial" font-size="14.00" fill="#000000">teacher_id    </text>
<text text-anchor="start" x="603.5582" y="-967.9" font-family="Arial" font-size="14.00" fill="#666666">[bigint]</text>
<polygon fill="none" stroke="#000000" points="497,-926.5 497,-956.5 800,-956.5 800,-926.5 497,-926.5"/>
<text text-anchor="start" x="504" y="-937.9" font-family="Arial" font-size="14.00" fill="#000000">created_at    </text>
<text text-anchor="start" x="604.3422" y="-937.9" font-family="Arial" font-size="14.00" fill="#666666">[timestamp without time zone]</text>
<polygon fill="none" stroke="#000000" points="497,-896.5 497,-926.5 800,-926.5 800,-896.5 497,-896.5"/>
<text text-anchor="start" x="503.8065" y="-907.9" font-family="Arial" font-size="14.00" fill="#000000">updated_at    </text>
<text text-anchor="start" x="608.0533" y="-907.9" font-family="Arial" font-size="14.00" fill="#666666">[timestamp without time zone]</text>
</g>
<!-- public.classes&#45;&gt;public.teachers -->
<g id="edge2" class="edge">
<title>public.classes:teacher_id&#45;&gt;public.teachers:id</title>
<path fill="none" stroke="#000000" d="M486.7287,-970.747C387.3362,-955.8366 390.76,-724.5 497,-724.5"/>
<polygon fill="#000000" stroke="#000000" points="487.0268,-970.7687 496.6709,-975.988 492.0134,-971.1344 497,-971.5 497,-971.5 497,-971.5 492.0134,-971.1344 497.3291,-967.012 487.0268,-970.7687 487.0268,-970.7687"/>
<text text-anchor="start" x="239.4375" y="-981.5" font-family="Arial" font-size="10.00" fill="#000000">FOREIGN KEY (teacher_id) REFERENCES teachers(id)</text>
</g>
<!-- public.students -->
<g id="node5" class="node">
<title>public.students</title>
<polygon fill="#efefef" stroke="transparent" points="385,-1840.5 385,-1875.5 688,-1875.5 688,-1840.5 385,-1840.5"/>
<polygon fill="none" stroke="#000000" points="385,-1840.5 385,-1875.5 688,-1875.5 688,-1840.5 385,-1840.5"/>
<text text-anchor="start" x="412.6968" y="-1853.3" font-family="Arial Bold" font-size="18.00" fill="#000000">public.students</text>
<text text-anchor="start" x="532.7352" y="-1853.3" font-family="Arial" font-size="14.00" fill="#000000">    </text>
<text text-anchor="start" x="566.94" y="-1853.3" font-family="Arial" font-size="14.00" fill="#666666">[BASE TABLE]</text>
<polygon fill="none" stroke="#000000" points="385,-1810.5 385,-1840.5 688,-1840.5 688,-1810.5 385,-1810.5"/>
<text text-anchor="start" x="392" y="-1821.9" font-family="Arial" font-size="14.00" fill="#000000">id    </text>
<text text-anchor="start" x="437.094" y="-1821.9" font-family="Arial" font-size="14.00" fill="#666666">[bigint]</text>
<polygon fill="none" stroke="#000000" points="385,-1780.5 385,-1810.5 688,-1810.5 688,-1780.5 385,-1780.5"/>
<text text-anchor="start" x="392" y="-1791.9" font-family="Arial" font-size="14.00" fill="#000000">student_no    </text>
<text text-anchor="start" x="495.4642" y="-1791.9" font-family="Arial" font-size="14.00" fill="#666666">[integer]</text>
<polygon fill="none" stroke="#000000" points="385,-1750.5 385,-1780.5 688,-1780.5 688,-1750.5 385,-1750.5"/>
<text text-anchor="start" x="392" y="-1761.9" font-family="Arial" font-size="14.00" fill="#000000">name    </text>
<text text-anchor="start" x="461.2132" y="-1761.9" font-family="Arial" font-size="14.00" fill="#666666">[varchar(255)]</text>
<polygon fill="none" stroke="#000000" points="385,-1720.5 385,-1750.5 688,-1750.5 688,-1720.5 385,-1720.5"/>
<text text-anchor="start" x="392" y="-1731.9" font-family="Arial" font-size="14.00" fill="#000000">sex    </text>
<text text-anchor="start" x="447.9874" y="-1731.9" font-family="Arial" font-size="14.00" fill="#666666">[integer]</text>
<polygon fill="none" stroke="#000000" points="385,-1690.5 385,-1720.5 688,-1720.5 688,-1690.5 385,-1690.5"/>
<text text-anchor="start" x="392" y="-1701.9" font-family="Arial" font-size="14.00" fill="#000000">memo    </text>
<text text-anchor="start" x="465.0912" y="-1701.9" font-family="Arial" font-size="14.00" fill="#666666">[text]</text>
<polygon fill="none" stroke="#000000" points="385,-1660.5 385,-1690.5 688,-1690.5 688,-1660.5 385,-1660.5"/>
<text text-anchor="start" x="392" y="-1671.9" font-family="Arial" font-size="14.00" fill="#000000">class_id    </text>
<text text-anchor="start" x="476.7658" y="-1671.9" font-family="Arial" font-size="14.00" fill="#666666">[bigint]</text>
<polygon fill="none" stroke="#000000" points="385,-1630.5 385,-1660.5 688,-1660.5 688,-1630.5 385,-1630.5"/>
<text text-anchor="start" x="392" y="-1641.9" font-family="Arial" font-size="14.00" fill="#000000">created_at    </text>
<text text-anchor="start" x="492.3422" y="-1641.9" font-family="Arial" font-size="14.00" fill="#666666">[timestamp without time zone]</text>
<polygon fill="none" stroke="#000000" points="385,-1600.5 385,-1630.5 688,-1630.5 688,-1600.5 385,-1600.5"/>
<text text-anchor="start" x="391.8065" y="-1611.9" font-family="Arial" font-size="14.00" fill="#000000">updated_at    </text>
<text text-anchor="start" x="496.0533" y="-1611.9" font-family="Arial" font-size="14.00" fill="#666666">[timestamp without time zone]</text>
</g>
<!-- public.students&#45;&gt;public.classes -->
<g id="edge3" class="edge">
<title>public.students:class_id&#45;&gt;public.classes:id</title>
<path fill="none" stroke="#000000" d="M697.9581,-1674.4112C737.2808,-1664.9832 717.4698,-1596.5833 688,-1558 651.0891,-1509.6744 596.6412,-1567.2335 556,-1522 418.0955,-1368.5126 290.6604,-1061.5 497,-1061.5"/>
<polygon fill="#000000" stroke="#000000" points="697.9408,-1674.413 687.5109,-1671.0267 692.9704,-1674.9565 688,-1675.5 688,-1675.5 688,-1675.5 692.9704,-1674.9565 688.4891,-1679.9733 697.9408,-1674.413 697.9408,-1674.413"/>
<text text-anchor="start" x="695.224" y="-1685.5" font-family="Arial" font-size="10.00" fill="#000000">FOREIGN KEY (class_id) REFERENCES classes(id)</text>
</g>
<!-- public.surveys -->
<g id="node6" class="node">
<title>public.surveys</title>
<polygon fill="#efefef" stroke="transparent" points="609,-1443.5 609,-1478.5 912,-1478.5 912,-1443.5 609,-1443.5"/>
<polygon fill="none" stroke="#000000" points="609,-1443.5 609,-1478.5 912,-1478.5 912,-1443.5 609,-1443.5"/>
<text text-anchor="start" x="639.7091" y="-1456.3" font-family="Arial Bold" font-size="18.00" fill="#000000">public.surveys</text>
<text text-anchor="start" x="753.7229" y="-1456.3" font-family="Arial" font-size="14.00" fill="#000000">    </text>
<text text-anchor="start" x="787.9277" y="-1456.3" font-family="Arial" font-size="14.00" fill="#666666">[BASE TABLE]</text>
<polygon fill="none" stroke="#000000" points="609,-1413.5 609,-1443.5 912,-1443.5 912,-1413.5 609,-1413.5"/>
<text text-anchor="start" x="616" y="-1424.9" font-family="Arial" font-size="14.00" fill="#000000">id    </text>
<text text-anchor="start" x="661.094" y="-1424.9" font-family="Arial" font-size="14.00" fill="#666666">[bigint]</text>
<polygon fill="none" stroke="#000000" points="609,-1383.5 609,-1413.5 912,-1413.5 912,-1383.5 609,-1383.5"/>
<text text-anchor="start" x="616" y="-1394.9" font-family="Arial" font-size="14.00" fill="#000000">proxy_uuid    </text>
<text text-anchor="start" x="718.6676" y="-1394.9" font-family="Arial" font-size="14.00" fill="#666666">[character(36)]</text>
<polygon fill="none" stroke="#000000" points="609,-1353.5 609,-1383.5 912,-1383.5 912,-1353.5 609,-1353.5"/>
<text text-anchor="start" x="616" y="-1364.9" font-family="Arial" font-size="14.00" fill="#000000">name    </text>
<text text-anchor="start" x="685.2132" y="-1364.9" font-family="Arial" font-size="14.00" fill="#666666">[varchar(255)]</text>
<polygon fill="none" stroke="#000000" points="609,-1323.5 609,-1353.5 912,-1353.5 912,-1323.5 609,-1323.5"/>
<text text-anchor="start" x="616" y="-1334.9" font-family="Arial" font-size="14.00" fill="#000000">status    </text>
<text text-anchor="start" x="687.5512" y="-1334.9" font-family="Arial" font-size="14.00" fill="#666666">[integer]</text>
<polygon fill="none" stroke="#000000" points="609,-1293.5 609,-1323.5 912,-1323.5 912,-1293.5 609,-1293.5"/>
<text text-anchor="start" x="616" y="-1304.9" font-family="Arial" font-size="14.00" fill="#000000">class_id    </text>
<text text-anchor="start" x="700.7658" y="-1304.9" font-family="Arial" font-size="14.00" fill="#666666">[bigint]</text>
<polygon fill="none" stroke="#000000" points="609,-1263.5 609,-1293.5 912,-1293.5 912,-1263.5 609,-1263.5"/>
<text text-anchor="start" x="616" y="-1274.9" font-family="Arial" font-size="14.00" fill="#000000">created_at    </text>
<text text-anchor="start" x="716.3422" y="-1274.9" font-family="Arial" font-size="14.00" fill="#666666">[timestamp without time zone]</text>
<polygon fill="none" stroke="#000000" points="609,-1233.5 609,-1263.5 912,-1263.5 912,-1233.5 609,-1233.5"/>
<text text-anchor="start" x="615.8065" y="-1244.9" font-family="Arial" font-size="14.00" fill="#000000">updated_at    </text>
<text text-anchor="start" x="720.0533" y="-1244.9" font-family="Arial" font-size="14.00" fill="#666666">[timestamp without time zone]</text>
</g>
<!-- public.surveys&#45;&gt;public.classes -->
<g id="edge4" class="edge">
<title>public.surveys:class_id&#45;&gt;public.classes:id</title>
<path fill="none" stroke="#000000" d="M599.0194,-1307.3933C559.5056,-1297.8133 578.0117,-1228.3746 609,-1191 664.1361,-1124.5009 744.8639,-1221.4991 800,-1155 826.5237,-1123.01 841.5556,-1061.5 800,-1061.5"/>
<polygon fill="#000000" stroke="#000000" points="599.0609,-1307.3978 608.504,-1312.9726 604.0305,-1307.9489 609,-1308.5 609,-1308.5 609,-1308.5 604.0305,-1307.9489 609.496,-1304.0274 599.0609,-1307.3978 599.0609,-1307.3978"/>
<text text-anchor="start" x="367.224" y="-1318.5" font-family="Arial" font-size="10.00" fill="#000000">FOREIGN KEY (class_id) REFERENCES classes(id)</text>
</g>
<!-- public.teams -->
<g id="node7" class="node">
<title>public.teams</title>
<polygon fill="#efefef" stroke="transparent" points="832,-1810.5 832,-1845.5 1135,-1845.5 1135,-1810.5 832,-1810.5"/>
<polygon fill="none" stroke="#000000" points="832,-1810.5 832,-1845.5 1135,-1845.5 1135,-1810.5 832,-1810.5"/>
<text text-anchor="start" x="869.208" y="-1823.3" font-family="Arial Bold" font-size="18.00" fill="#000000">public.teams</text>
<text text-anchor="start" x="970.224" y="-1823.3" font-family="Arial" font-size="14.00" fill="#000000">    </text>
<text text-anchor="start" x="1004.4288" y="-1823.3" font-family="Arial" font-size="14.00" fill="#666666">[BASE TABLE]</text>
<polygon fill="none" stroke="#000000" points="832,-1780.5 832,-1810.5 1135,-1810.5 1135,-1780.5 832,-1780.5"/>
<text text-anchor="start" x="839" y="-1791.9" font-family="Arial" font-size="14.00" fill="#000000">id    </text>
<text text-anchor="start" x="884.094" y="-1791.9" font-family="Arial" font-size="14.00" fill="#666666">[bigint]</text>
<polygon fill="none" stroke="#000000" points="832,-1750.5 832,-1780.5 1135,-1780.5 1135,-1750.5 832,-1750.5"/>
<text text-anchor="start" x="839" y="-1761.9" font-family="Arial" font-size="14.00" fill="#000000">team_id    </text>
<text text-anchor="start" x="922.993" y="-1761.9" font-family="Arial" font-size="14.00" fill="#666666">[bigint]</text>
<polygon fill="none" stroke="#000000" points="832,-1720.5 832,-1750.5 1135,-1750.5 1135,-1720.5 832,-1720.5"/>
<text text-anchor="start" x="839" y="-1731.9" font-family="Arial" font-size="14.00" fill="#000000">name    </text>
<text text-anchor="start" x="908.2132" y="-1731.9" font-family="Arial" font-size="14.00" fill="#666666">[varchar(255)]</text>
<polygon fill="none" stroke="#000000" points="832,-1690.5 832,-1720.5 1135,-1720.5 1135,-1690.5 832,-1690.5"/>
<text text-anchor="start" x="839" y="-1701.9" font-family="Arial" font-size="14.00" fill="#000000">survey_id    </text>
<text text-anchor="start" x="933.1024" y="-1701.9" font-family="Arial" font-size="14.00" fill="#666666">[bigint]</text>
<polygon fill="none" stroke="#000000" points="832,-1660.5 832,-1690.5 1135,-1690.5 1135,-1660.5 832,-1660.5"/>
<text text-anchor="start" x="839" y="-1671.9" font-family="Arial" font-size="14.00" fill="#000000">created_at    </text>
<text text-anchor="start" x="939.3422" y="-1671.9" font-family="Arial" font-size="14.00" fill="#666666">[timestamp without time zone]</text>
<polygon fill="none" stroke="#000000" points="832,-1630.5 832,-1660.5 1135,-1660.5 1135,-1630.5 832,-1630.5"/>
<text text-anchor="start" x="838.8065" y="-1641.9" font-family="Arial" font-size="14.00" fill="#000000">updated_at    </text>
<text text-anchor="start" x="943.0533" y="-1641.9" font-family="Arial" font-size="14.00" fill="#666666">[timestamp without time zone]</text>
</g>
<!-- public.teams&#45;&gt;public.surveys -->
<g id="edge5" class="edge">
<title>public.teams:survey_id&#45;&gt;public.surveys:id</title>
<path fill="none" stroke="#000000" d="M821.6937,-1704.377C784.1819,-1695.1972 811.3856,-1631.7312 832,-1588 851.654,-1546.3063 892.346,-1563.6937 912,-1522 929.7189,-1484.4114 953.5556,-1428.5 912,-1428.5"/>
<polygon fill="#000000" stroke="#000000" points="822.0588,-1704.4167 831.5125,-1709.9735 827.0294,-1704.9584 832,-1705.5 832,-1705.5 832,-1705.5 827.0294,-1704.9584 832.4875,-1701.0265 822.0588,-1704.4167 822.0588,-1704.4167"/>
<text text-anchor="start" x="839.3345" y="-1715.5" font-family="Arial" font-size="10.00" fill="#000000">FOREIGN KEY (survey_id) REFERENCES surveys(id)</text>
</g>
<!-- public.student_preferences -->
<g id="node8" class="node">
<title>public.student_preferences</title>
<polygon fill="#efefef" stroke="transparent" points="595,-2477.5 595,-2512.5 952,-2512.5 952,-2477.5 595,-2477.5"/>
<polygon fill="none" stroke="#000000" points="595,-2477.5 595,-2512.5 952,-2512.5 952,-2477.5 595,-2477.5"/>
<text text-anchor="start" x="601.6818" y="-2490.3" font-family="Arial Bold" font-size="18.00" fill="#000000">public.student_preferences</text>
<text text-anchor="start" x="817.7502" y="-2490.3" font-family="Arial" font-size="14.00" fill="#000000">    </text>
<text text-anchor="start" x="851.955" y="-2490.3" font-family="Arial" font-size="14.00" fill="#666666">[BASE TABLE]</text>
<polygon fill="none" stroke="#000000" points="595,-2447.5 595,-2477.5 952,-2477.5 952,-2447.5 595,-2447.5"/>
<text text-anchor="start" x="602" y="-2458.9" font-family="Arial" font-size="14.00" fill="#000000">id    </text>
<text text-anchor="start" x="647.094" y="-2458.9" font-family="Arial" font-size="14.00" fill="#666666">[bigint]</text>
<polygon fill="none" stroke="#000000" points="595,-2417.5 595,-2447.5 952,-2447.5 952,-2417.5 595,-2417.5"/>
<text text-anchor="start" x="602" y="-2428.9" font-family="Arial" font-size="14.00" fill="#000000">student_id    </text>
<text text-anchor="start" x="700.7882" y="-2428.9" font-family="Arial" font-size="14.00" fill="#666666">[bigint]</text>
<polygon fill="none" stroke="#000000" points="595,-2387.5 595,-2417.5 952,-2417.5 952,-2387.5 595,-2387.5"/>
<text text-anchor="start" x="602" y="-2398.9" font-family="Arial" font-size="14.00" fill="#000000">survey_id    </text>
<text text-anchor="start" x="696.1024" y="-2398.9" font-family="Arial" font-size="14.00" fill="#666666">[bigint]</text>
<polygon fill="none" stroke="#000000" points="595,-2357.5 595,-2387.5 952,-2387.5 952,-2357.5 595,-2357.5"/>
<text text-anchor="start" x="602" y="-2368.9" font-family="Arial" font-size="14.00" fill="#000000">team_id    </text>
<text text-anchor="start" x="685.993" y="-2368.9" font-family="Arial" font-size="14.00" fill="#666666">[bigint]</text>
<polygon fill="none" stroke="#000000" points="595,-2327.5 595,-2357.5 952,-2357.5 952,-2327.5 595,-2327.5"/>
<text text-anchor="start" x="602" y="-2338.9" font-family="Arial" font-size="14.00" fill="#000000">mi_a    </text>
<text text-anchor="start" x="666.5372" y="-2338.9" font-family="Arial" font-size="14.00" fill="#666666">[integer]</text>
<polygon fill="none" stroke="#000000" points="595,-2297.5 595,-2327.5 952,-2327.5 952,-2297.5 595,-2297.5"/>
<text text-anchor="start" x="602" y="-2308.9" font-family="Arial" font-size="14.00" fill="#000000">mi_b    </text>
<text text-anchor="start" x="666.5372" y="-2308.9" font-family="Arial" font-size="14.00" fill="#666666">[integer]</text>
<polygon fill="none" stroke="#000000" points="595,-2267.5 595,-2297.5 952,-2297.5 952,-2267.5 595,-2267.5"/>
<text text-anchor="start" x="602" y="-2278.9" font-family="Arial" font-size="14.00" fill="#000000">mi_c    </text>
<text text-anchor="start" x="665.7546" y="-2278.9" font-family="Arial" font-size="14.00" fill="#666666">[integer]</text>
<polygon fill="none" stroke="#000000" points="595,-2237.5 595,-2267.5 952,-2267.5 952,-2237.5 595,-2237.5"/>
<text text-anchor="start" x="602" y="-2248.9" font-family="Arial" font-size="14.00" fill="#000000">mi_d    </text>
<text text-anchor="start" x="666.5372" y="-2248.9" font-family="Arial" font-size="14.00" fill="#666666">[integer]</text>
<polygon fill="none" stroke="#000000" points="595,-2207.5 595,-2237.5 952,-2237.5 952,-2207.5 595,-2207.5"/>
<text text-anchor="start" x="602" y="-2218.9" font-family="Arial" font-size="14.00" fill="#000000">mi_e    </text>
<text text-anchor="start" x="666.5372" y="-2218.9" font-family="Arial" font-size="14.00" fill="#666666">[integer]</text>
<polygon fill="none" stroke="#000000" points="595,-2177.5 595,-2207.5 952,-2207.5 952,-2177.5 595,-2177.5"/>
<text text-anchor="start" x="602" y="-2188.9" font-family="Arial" font-size="14.00" fill="#000000">mi_f    </text>
<text text-anchor="start" x="662.6452" y="-2188.9" font-family="Arial" font-size="14.00" fill="#666666">[integer]</text>
<polygon fill="none" stroke="#000000" points="595,-2147.5 595,-2177.5 952,-2177.5 952,-2147.5 595,-2147.5"/>
<text text-anchor="start" x="602" y="-2158.9" font-family="Arial" font-size="14.00" fill="#000000">mi_g    </text>
<text text-anchor="start" x="666.5372" y="-2158.9" font-family="Arial" font-size="14.00" fill="#666666">[integer]</text>
<polygon fill="none" stroke="#000000" points="595,-2117.5 595,-2147.5 952,-2147.5 952,-2117.5 595,-2117.5"/>
<text text-anchor="start" x="602" y="-2128.9" font-family="Arial" font-size="14.00" fill="#000000">mi_h    </text>
<text text-anchor="start" x="666.5372" y="-2128.9" font-family="Arial" font-size="14.00" fill="#666666">[integer]</text>
<polygon fill="none" stroke="#000000" points="595,-2087.5 595,-2117.5 952,-2117.5 952,-2087.5 595,-2087.5"/>
<text text-anchor="start" x="602" y="-2098.9" font-family="Arial" font-size="14.00" fill="#000000">leader    </text>
<text text-anchor="start" x="675.1024" y="-2098.9" font-family="Arial" font-size="14.00" fill="#666666">[integer]</text>
<polygon fill="none" stroke="#000000" points="595,-2057.5 595,-2087.5 952,-2087.5 952,-2057.5 595,-2057.5"/>
<text text-anchor="start" x="602" y="-2068.9" font-family="Arial" font-size="14.00" fill="#000000">eyesight    </text>
<text text-anchor="start" x="688.3324" y="-2068.9" font-family="Arial" font-size="14.00" fill="#666666">[integer]</text>
<polygon fill="none" stroke="#000000" points="595,-2027.5 595,-2057.5 952,-2057.5 952,-2027.5 595,-2027.5"/>
<text text-anchor="start" x="602" y="-2038.9" font-family="Arial" font-size="14.00" fill="#000000">created_at    </text>
<text text-anchor="start" x="702.3422" y="-2038.9" font-family="Arial" font-size="14.00" fill="#666666">[timestamp without time zone]</text>
<polygon fill="none" stroke="#000000" points="595,-1997.5 595,-2027.5 952,-2027.5 952,-1997.5 595,-1997.5"/>
<text text-anchor="start" x="602" y="-2008.9" font-family="Arial" font-size="14.00" fill="#000000">updated_at    </text>
<text text-anchor="start" x="706.2468" y="-2008.9" font-family="Arial" font-size="14.00" fill="#666666">[timestamp without time zone]</text>
</g>
<!-- public.student_preferences&#45;&gt;public.students -->
<g id="edge6" class="edge">
<title>public.student_preferences:student_id&#45;&gt;public.students:id</title>
<path fill="none" stroke="#000000" d="M585.9272,-2427.6183C544.8548,-2379.8066 566.8849,-1996.0313 595,-1955 620.0529,-1918.4377 662.9471,-1955.5623 688,-1919 711.4891,-1884.7199 729.5556,-1825.5 688,-1825.5"/>
<polygon fill="#000000" stroke="#000000" points="586.1938,-2427.7617 592.8678,-2436.4628 590.5969,-2430.1308 595,-2432.5 595,-2432.5 595,-2432.5 590.5969,-2430.1308 597.1322,-2428.5372 586.1938,-2427.7617 586.1938,-2427.7617"/>
<text text-anchor="start" x="337.9875" y="-2442.5" font-family="Arial" font-size="10.00" fill="#000000">FOREIGN KEY (student_id) REFERENCES students(id)</text>
</g>
<!-- public.student_preferences&#45;&gt;public.surveys -->
<g id="edge7" class="edge">
<title>public.student_preferences:survey_id&#45;&gt;public.surveys:id</title>
<path fill="none" stroke="#000000" d="M586.2284,-2397.6196C547.7905,-2351.3998 566.3726,-1991.6653 595,-1955 635.5986,-1903.0023 698.4014,-1970.9977 739,-1919 788.3697,-1855.7684 787.5699,-1621.848 739,-1558 702.7024,-1510.2847 645.2976,-1569.7153 609,-1522 583.8405,-1488.9264 567.4444,-1428.5 609,-1428.5"/>
<polygon fill="#000000" stroke="#000000" points="586.2615,-2397.638 592.8121,-2406.4323 590.6308,-2400.069 595,-2402.5 595,-2402.5 595,-2402.5 590.6308,-2400.069 597.1879,-2398.5677 586.2615,-2397.638 586.2615,-2397.638"/>
<text text-anchor="start" x="345.3345" y="-2412.5" font-family="Arial" font-size="10.00" fill="#000000">FOREIGN KEY (survey_id) REFERENCES surveys(id)</text>
</g>
<!-- public.student_preferences&#45;&gt;public.teams -->
<g id="edge8" class="edge">
<title>public.student_preferences:team_id&#45;&gt;public.teams:id</title>
<path fill="none" stroke="#000000" d="M962.0448,-2372.236C1134.1732,-2362.9679 1044.6881,-2111.7607 952,-1955 921.0207,-1902.6056 862.9793,-1941.3944 832,-1889 810.8499,-1853.2294 790.4444,-1795.5 832,-1795.5"/>
<polygon fill="#000000" stroke="#000000" points="961.9965,-2372.2372 951.8817,-2368.0016 956.9983,-2372.3686 952,-2372.5 952,-2372.5 952,-2372.5 956.9983,-2372.3686 952.1183,-2376.9984 961.9965,-2372.2372 961.9965,-2372.2372"/>
<text text-anchor="start" x="958.5555" y="-2382.5" font-family="Arial" font-size="10.00" fill="#000000">FOREIGN KEY (team_id) REFERENCES teams(id)</text>
</g>
<!-- public.student_dislikes -->
<g id="node9" class="node">
<title>public.student_dislikes</title>
<polygon fill="#efefef" stroke="transparent" points="488,-2784.5 488,-2819.5 809,-2819.5 809,-2784.5 488,-2784.5"/>
<polygon fill="none" stroke="#000000" points="488,-2784.5 488,-2819.5 809,-2819.5 809,-2784.5 488,-2784.5"/>
<text text-anchor="start" x="494.6962" y="-2797.3" font-family="Arial Bold" font-size="18.00" fill="#000000">public.student_dislikes</text>
<text text-anchor="start" x="674.7358" y="-2797.3" font-family="Arial" font-size="14.00" fill="#000000">    </text>
<text text-anchor="start" x="708.9406" y="-2797.3" font-family="Arial" font-size="14.00" fill="#666666">[BASE TABLE]</text>
<polygon fill="none" stroke="#000000" points="488,-2754.5 488,-2784.5 809,-2784.5 809,-2754.5 488,-2754.5"/>
<text text-anchor="start" x="495" y="-2765.9" font-family="Arial" font-size="14.00" fill="#000000">id    </text>
<text text-anchor="start" x="540.094" y="-2765.9" font-family="Arial" font-size="14.00" fill="#666666">[bigint]</text>
<polygon fill="none" stroke="#000000" points="488,-2724.5 488,-2754.5 809,-2754.5 809,-2724.5 488,-2724.5"/>
<text text-anchor="start" x="495" y="-2735.9" font-family="Arial" font-size="14.00" fill="#000000">student_id    </text>
<text text-anchor="start" x="593.7882" y="-2735.9" font-family="Arial" font-size="14.00" fill="#666666">[bigint]</text>
<polygon fill="none" stroke="#000000" points="488,-2694.5 488,-2724.5 809,-2724.5 809,-2694.5 488,-2694.5"/>
<text text-anchor="start" x="495" y="-2705.9" font-family="Arial" font-size="14.00" fill="#000000">preference_id    </text>
<text text-anchor="start" x="614.784" y="-2705.9" font-family="Arial" font-size="14.00" fill="#666666">[bigint]</text>
<polygon fill="none" stroke="#000000" points="488,-2664.5 488,-2694.5 809,-2694.5 809,-2664.5 488,-2664.5"/>
<text text-anchor="start" x="495" y="-2675.9" font-family="Arial" font-size="14.00" fill="#000000">created_at    </text>
<text text-anchor="start" x="595.3422" y="-2675.9" font-family="Arial" font-size="14.00" fill="#666666">[timestamp without time zone]</text>
<polygon fill="none" stroke="#000000" points="488,-2634.5 488,-2664.5 809,-2664.5 809,-2634.5 488,-2634.5"/>
<text text-anchor="start" x="495" y="-2645.9" font-family="Arial" font-size="14.00" fill="#000000">updated_at    </text>
<text text-anchor="start" x="599.2468" y="-2645.9" font-family="Arial" font-size="14.00" fill="#666666">[timestamp without time zone]</text>
</g>
<!-- public.student_dislikes&#45;&gt;public.students -->
<g id="edge9" class="edge">
<title>public.student_dislikes:student_id&#45;&gt;public.students:id</title>
<path fill="none" stroke="#000000" d="M480.1675,-2733.1754C427.2096,-2652.4213 336.3959,-1825.5 385,-1825.5"/>
<polygon fill="#000000" stroke="#000000" points="480.2198,-2733.2176 485.1729,-2743.0011 484.1099,-2736.3588 488,-2739.5 488,-2739.5 488,-2739.5 484.1099,-2736.3588 490.8271,-2735.9989 480.2198,-2733.2176 480.2198,-2733.2176"/>
<text text-anchor="start" x="494.9875" y="-2749.5" font-family="Arial" font-size="10.00" fill="#000000">FOREIGN KEY (student_id) REFERENCES students(id)</text>
</g>
<!-- public.student_dislikes&#45;&gt;public.student_preferences -->
<g id="edge10" class="edge">
<title>public.student_dislikes:preference_id&#45;&gt;public.student_preferences:id</title>
<path fill="none" stroke="#000000" d="M818.986,-2708.3888C858.5458,-2698.7702 840.3537,-2629.0686 809,-2592 746.7145,-2518.3614 657.2855,-2629.6386 595,-2556 568.1636,-2524.2719 553.4444,-2462.5 595,-2462.5"/>
<polygon fill="#000000" stroke="#000000" points="818.9387,-2708.394 808.5023,-2705.0276 813.9693,-2708.947 809,-2709.5 809,-2709.5 809,-2709.5 813.9693,-2708.947 809.4977,-2713.9724 818.9387,-2708.394 818.9387,-2708.394"/>
<text text-anchor="start" x="815.814" y="-2719.5" font-family="Arial" font-size="10.00" fill="#000000">FOREIGN KEY (preference_id) REFERENCES student_preferences(id)</text>
</g>
</g>
</svg>
