<?xml version="1.0" encoding="UTF-8" standalone="no"?>
<!DOCTYPE svg PUBLIC "-//W3C//DTD SVG 1.1//EN"
 "http://www.w3.org/Graphics/SVG/1.1/DTD/svg11.dtd">
<!-- Generated by graphviz version 2.40.1 (20161225.0304)
 -->
<!-- Title: db Pages: 1 -->
<svg width="1202pt" height="2631pt"
 viewBox="0.00 0.00 1202.00 2631.00" xmlns="http://www.w3.org/2000/svg" xmlns:xlink="http://www.w3.org/1999/xlink">
<g id="graph0" class="graph" transform="scale(1 1) rotate(0) translate(4 2627)">
<title>db</title>
<polygon fill="#ffffff" stroke="transparent" points="-4,4 -4,-2627 1198,-2627 1198,4 -4,4"/>
<!-- public.goose_db_version -->
<g id="node1" class="node">
<title>public.goose_db_version</title>
<polygon fill="#efefef" stroke="transparent" points="43,-2544.5 43,-2579.5 383,-2579.5 383,-2544.5 43,-2544.5"/>
<polygon fill="none" stroke="#000000" points="43,-2544.5 43,-2579.5 383,-2579.5 383,-2544.5 43,-2544.5"/>
<text text-anchor="start" x="49.6841" y="-2557.3" font-family="Arial Bold" font-size="18.00" fill="#000000">public.goose_db_version</text>
<text text-anchor="start" x="248.7479" y="-2557.3" font-family="Arial" font-size="14.00" fill="#000000">    </text>
<text text-anchor="start" x="282.9527" y="-2557.3" font-family="Arial" font-size="14.00" fill="#666666">[BASE TABLE]</text>
<polygon fill="none" stroke="#000000" points="43,-2514.5 43,-2544.5 383,-2544.5 383,-2514.5 43,-2514.5"/>
<text text-anchor="start" x="50" y="-2525.9" font-family="Arial" font-size="14.00" fill="#000000">id    </text>
<text text-anchor="start" x="95.094" y="-2525.9" font-family="Arial" font-size="14.00" fill="#666666">[integer]</text>
<polygon fill="none" stroke="#000000" points="43,-2484.5 43,-2514.5 383,-2514.5 383,-2484.5 43,-2484.5"/>
<text text-anchor="start" x="50" y="-2495.9" font-family="Arial" font-size="14.00" fill="#000000">version_id    </text>
<text text-anchor="start" x="147.9916" y="-2495.9" font-family="Arial" font-size="14.00" fill="#666666">[bigint]</text>
<polygon fill="none" stroke="#000000" points="43,-2454.5 43,-2484.5 383,-2484.5 383,-2454.5 43,-2454.5"/>
<text text-anchor="start" x="50" y="-2465.9" font-family="Arial" font-size="14.00" fill="#000000">is_applied    </text>
<text text-anchor="start" x="147.2202" y="-2465.9" font-family="Arial" font-size="14.00" fill="#666666">[boolean]</text>
<polygon fill="none" stroke="#000000" points="43,-2424.5 43,-2454.5 383,-2454.5 383,-2424.5 43,-2424.5"/>
<text text-anchor="start" x="50" y="-2435.9" font-family="Arial" font-size="14.00" fill="#000000">tstamp    </text>
<text text-anchor="start" x="126.2118" y="-2435.9" font-family="Arial" font-size="14.00" fill="#666666">[timestamp without time zone]</text>
</g>
<!-- public.schools -->
<g id="node2" class="node">
<title>public.schools</title>
<polygon fill="#efefef" stroke="transparent" points="496,-282.5 496,-317.5 799,-317.5 799,-282.5 496,-282.5"/>
<polygon fill="none" stroke="#000000" points="496,-282.5 496,-317.5 799,-317.5 799,-282.5 496,-282.5"/>
<text text-anchor="start" x="527.205" y="-295.3" font-family="Arial Bold" font-size="18.00" fill="#000000">public.schools</text>
<text text-anchor="start" x="640.227" y="-295.3" font-family="Arial" font-size="14.00" fill="#000000">    </text>
<text text-anchor="start" x="674.4318" y="-295.3" font-family="Arial" font-size="14.00" fill="#666666">[BASE TABLE]</text>
<polygon fill="none" stroke="#000000" points="496,-252.5 496,-282.5 799,-282.5 799,-252.5 496,-252.5"/>
<text text-anchor="start" x="503" y="-263.9" font-family="Arial" font-size="14.00" fill="#000000">id    </text>
<text text-anchor="start" x="548.094" y="-263.9" font-family="Arial" font-size="14.00" fill="#666666">[bigint]</text>
<polygon fill="none" stroke="#000000" points="496,-222.5 496,-252.5 799,-252.5 799,-222.5 496,-222.5"/>
<text text-anchor="start" x="503" y="-233.9" font-family="Arial" font-size="14.00" fill="#000000">name    </text>
<text text-anchor="start" x="572.2132" y="-233.9" font-family="Arial" font-size="14.00" fill="#666666">[varchar(255)]</text>
<polygon fill="none" stroke="#000000" points="496,-192.5 496,-222.5 799,-222.5 799,-192.5 496,-192.5"/>
<text text-anchor="start" x="503" y="-203.9" font-family="Arial" font-size="14.00" fill="#000000">postal_code    </text>
<text text-anchor="start" x="612.6802" y="-203.9" font-family="Arial" font-size="14.00" fill="#666666">[varchar(255)]</text>
<polygon fill="none" stroke="#000000" points="496,-162.5 496,-192.5 799,-192.5 799,-162.5 496,-162.5"/>
<text text-anchor="start" x="503" y="-173.9" font-family="Arial" font-size="14.00" fill="#000000">prefecture    </text>
<text text-anchor="start" x="600.2202" y="-173.9" font-family="Arial" font-size="14.00" fill="#666666">[varchar(255)]</text>
<polygon fill="none" stroke="#000000" points="496,-132.5 496,-162.5 799,-162.5 799,-132.5 496,-132.5"/>
<text text-anchor="start" x="503" y="-143.9" font-family="Arial" font-size="14.00" fill="#000000">city    </text>
<text text-anchor="start" x="558.202" y="-143.9" font-family="Arial" font-size="14.00" fill="#666666">[varchar(255)]</text>
<polygon fill="none" stroke="#000000" points="496,-102.5 496,-132.5 799,-132.5 799,-102.5 496,-102.5"/>
<text text-anchor="start" x="503" y="-113.9" font-family="Arial" font-size="14.00" fill="#000000">address    </text>
<text text-anchor="start" x="586.9958" y="-113.9" font-family="Arial" font-size="14.00" fill="#666666">[varchar(255)]</text>
<polygon fill="none" stroke="#000000" points="496,-72.5 496,-102.5 799,-102.5 799,-72.5 496,-72.5"/>
<text text-anchor="start" x="503" y="-83.9" font-family="Arial" font-size="14.00" fill="#000000">created_at    </text>
<text text-anchor="start" x="603.3422" y="-83.9" font-family="Arial" font-size="14.00" fill="#666666">[timestamp without time zone]</text>
<polygon fill="none" stroke="#000000" points="496,-42.5 496,-72.5 799,-72.5 799,-42.5 496,-42.5"/>
<text text-anchor="start" x="502.8065" y="-53.9" font-family="Arial" font-size="14.00" fill="#000000">updated_at    </text>
<text text-anchor="start" x="607.0533" y="-53.9" font-family="Arial" font-size="14.00" fill="#666666">[timestamp without time zone]</text>
</g>
<!-- public.teachers -->
<g id="node3" class="node">
<title>public.teachers</title>
<polygon fill="#efefef" stroke="transparent" points="496,-739.5 496,-774.5 799,-774.5 799,-739.5 496,-739.5"/>
<polygon fill="none" stroke="#000000" points="496,-739.5 496,-774.5 799,-774.5 799,-739.5 496,-739.5"/>
<text text-anchor="start" x="523.2018" y="-752.3" font-family="Arial Bold" font-size="18.00" fill="#000000">public.teachers</text>
<text text-anchor="start" x="644.2302" y="-752.3" font-family="Arial" font-size="14.00" fill="#000000">    </text>
<text text-anchor="start" x="678.435" y="-752.3" font-family="Arial" font-size="14.00" fill="#666666">[BASE TABLE]</text>
<polygon fill="none" stroke="#000000" points="496,-709.5 496,-739.5 799,-739.5 799,-709.5 496,-709.5"/>
<text text-anchor="start" x="503" y="-720.9" font-family="Arial" font-size="14.00" fill="#000000">id    </text>
<text text-anchor="start" x="548.094" y="-720.9" font-family="Arial" font-size="14.00" fill="#666666">[bigint]</text>
<polygon fill="none" stroke="#000000" points="496,-679.5 496,-709.5 799,-709.5 799,-679.5 496,-679.5"/>
<text text-anchor="start" x="503" y="-690.9" font-family="Arial" font-size="14.00" fill="#000000">name    </text>
<text text-anchor="start" x="572.2132" y="-690.9" font-family="Arial" font-size="14.00" fill="#666666">[varchar(255)]</text>
<polygon fill="none" stroke="#000000" points="496,-649.5 496,-679.5 799,-679.5 799,-649.5 496,-649.5"/>
<text text-anchor="start" x="503" y="-660.9" font-family="Arial" font-size="14.00" fill="#000000">family_name    </text>
<text text-anchor="start" x="616.5428" y="-660.9" font-family="Arial" font-size="14.00" fill="#666666">[varchar(255)]</text>
<polygon fill="none" stroke="#000000" points="496,-619.5 496,-649.5 799,-649.5 799,-619.5 496,-619.5"/>
<text text-anchor="start" x="503" y="-630.9" font-family="Arial" font-size="14.00" fill="#000000">given_name    </text>
<text text-anchor="start" x="613.4502" y="-630.9" font-family="Arial" font-size="14.00" fill="#666666">[varchar(255)]</text>
<polygon fill="none" stroke="#000000" points="496,-589.5 496,-619.5 799,-619.5 799,-589.5 496,-589.5"/>
<text text-anchor="start" x="503" y="-600.9" font-family="Arial" font-size="14.00" fill="#000000">school_id    </text>
<text text-anchor="start" x="596.331" y="-600.9" font-family="Arial" font-size="14.00" fill="#666666">[bigint]</text>
<polygon fill="none" stroke="#000000" points="496,-559.5 496,-589.5 799,-589.5 799,-559.5 496,-559.5"/>
<text text-anchor="start" x="503" y="-570.9" font-family="Arial" font-size="14.00" fill="#000000">email    </text>
<text text-anchor="start" x="570.6438" y="-570.9" font-family="Arial" font-size="14.00" fill="#666666">[varchar(255)]</text>
<polygon fill="none" stroke="#000000" points="496,-529.5 496,-559.5 799,-559.5 799,-529.5 496,-529.5"/>
<text text-anchor="start" x="503" y="-540.9" font-family="Arial" font-size="14.00" fill="#000000">status    </text>
<text text-anchor="start" x="574.5512" y="-540.9" font-family="Arial" font-size="14.00" fill="#666666">[integer]</text>
<polygon fill="none" stroke="#000000" points="496,-499.5 496,-529.5 799,-529.5 799,-499.5 496,-499.5"/>
<text text-anchor="start" x="503" y="-510.9" font-family="Arial" font-size="14.00" fill="#000000">created_at    </text>
<text text-anchor="start" x="603.3422" y="-510.9" font-family="Arial" font-size="14.00" fill="#666666">[timestamp without time zone]</text>
<polygon fill="none" stroke="#000000" points="496,-469.5 496,-499.5 799,-499.5 799,-469.5 496,-469.5"/>
<text text-anchor="start" x="502.8065" y="-480.9" font-family="Arial" font-size="14.00" fill="#000000">updated_at    </text>
<text text-anchor="start" x="607.0533" y="-480.9" font-family="Arial" font-size="14.00" fill="#666666">[timestamp without time zone]</text>
<polygon fill="none" stroke="#000000" points="496,-439.5 496,-469.5 799,-469.5 799,-439.5 496,-439.5"/>
<text text-anchor="start" x="503" y="-450.9" font-family="Arial" font-size="14.00" fill="#000000">expired_at    </text>
<text text-anchor="start" x="602.5582" y="-450.9" font-family="Arial" font-size="14.00" fill="#666666">[timestamp without time zone]</text>
</g>
<!-- public.teachers&#45;&gt;public.schools -->
<g id="edge1" class="edge">
<title>public.teachers:school_id&#45;&gt;public.schools:id</title>
<path fill="none" stroke="#000000" d="M485.7156,-603.9533C346.3045,-588.8882 349.7326,-267.5 496,-267.5"/>
<polygon fill="#000000" stroke="#000000" points="486.0141,-603.9691 495.7611,-608.9937 491.007,-604.2345 496,-604.5 496,-604.5 496,-604.5 491.007,-604.2345 496.2389,-600.0063 486.0141,-603.9691 486.0141,-603.9691"/>
<text text-anchor="start" x="246.8855" y="-614.5" font-family="Arial" font-size="10.00" fill="#000000">FOREIGN KEY (school_id) REFERENCES schools(id)</text>
</g>
<!-- public.classes -->
<g id="node4" class="node">
<title>public.classes</title>
<polygon fill="#efefef" stroke="transparent" points="496,-1046.5 496,-1081.5 799,-1081.5 799,-1046.5 496,-1046.5"/>
<polygon fill="none" stroke="#000000" points="496,-1046.5 496,-1081.5 799,-1081.5 799,-1046.5 496,-1046.5"/>
<text text-anchor="start" x="527.7081" y="-1059.3" font-family="Arial Bold" font-size="18.00" fill="#000000">public.classes</text>
<text text-anchor="start" x="639.7239" y="-1059.3" font-family="Arial" font-size="14.00" fill="#000000">    </text>
<text text-anchor="start" x="673.9287" y="-1059.3" font-family="Arial" font-size="14.00" fill="#666666">[BASE TABLE]</text>
<polygon fill="none" stroke="#000000" points="496,-1016.5 496,-1046.5 799,-1046.5 799,-1016.5 496,-1016.5"/>
<text text-anchor="start" x="503" y="-1027.9" font-family="Arial" font-size="14.00" fill="#000000">id    </text>
<text text-anchor="start" x="548.094" y="-1027.9" font-family="Arial" font-size="14.00" fill="#666666">[bigint]</text>
<polygon fill="none" stroke="#000000" points="496,-986.5 496,-1016.5 799,-1016.5 799,-986.5 496,-986.5"/>
<text text-anchor="start" x="503" y="-997.9" font-family="Arial" font-size="14.00" fill="#000000">name    </text>
<text text-anchor="start" x="572.2132" y="-997.9" font-family="Arial" font-size="14.00" fill="#666666">[varchar(255)]</text>
<polygon fill="none" stroke="#000000" points="496,-956.5 496,-986.5 799,-986.5 799,-956.5 496,-956.5"/>
<text text-anchor="start" x="503" y="-967.9" font-family="Arial" font-size="14.00" fill="#000000">teacher_id    </text>
<text text-anchor="start" x="602.5582" y="-967.9" font-family="Arial" font-size="14.00" fill="#666666">[bigint]</text>
<polygon fill="none" stroke="#000000" points="496,-926.5 496,-956.5 799,-956.5 799,-926.5 496,-926.5"/>
<text text-anchor="start" x="503" y="-937.9" font-family="Arial" font-size="14.00" fill="#000000">created_at    </text>
<text text-anchor="start" x="603.3422" y="-937.9" font-family="Arial" font-size="14.00" fill="#666666">[timestamp without time zone]</text>
<polygon fill="none" stroke="#000000" points="496,-896.5 496,-926.5 799,-926.5 799,-896.5 496,-896.5"/>
<text text-anchor="start" x="502.8065" y="-907.9" font-family="Arial" font-size="14.00" fill="#000000">updated_at    </text>
<text text-anchor="start" x="607.0533" y="-907.9" font-family="Arial" font-size="14.00" fill="#666666">[timestamp without time zone]</text>
</g>
<!-- public.classes&#45;&gt;public.teachers -->
<g id="edge2" class="edge">
<title>public.classes:teacher_id&#45;&gt;public.teachers:id</title>
<path fill="none" stroke="#000000" d="M485.7287,-970.747C386.3362,-955.8366 389.76,-724.5 496,-724.5"/>
<polygon fill="#000000" stroke="#000000" points="486.0268,-970.7687 495.6709,-975.988 491.0134,-971.1344 496,-971.5 496,-971.5 496,-971.5 491.0134,-971.1344 496.3291,-967.012 486.0268,-970.7687 486.0268,-970.7687"/>
<text text-anchor="start" x="238.4375" y="-981.5" font-family="Arial" font-size="10.00" fill="#000000">FOREIGN KEY (teacher_id) REFERENCES teachers(id)</text>
</g>
<!-- public.students -->
<g id="node5" class="node">
<title>public.students</title>
<polygon fill="#efefef" stroke="transparent" points="385,-1690.5 385,-1725.5 688,-1725.5 688,-1690.5 385,-1690.5"/>
<polygon fill="none" stroke="#000000" points="385,-1690.5 385,-1725.5 688,-1725.5 688,-1690.5 385,-1690.5"/>
<text text-anchor="start" x="412.6968" y="-1703.3" font-family="Arial Bold" font-size="18.00" fill="#000000">public.students</text>
<text text-anchor="start" x="532.7352" y="-1703.3" font-family="Arial" font-size="14.00" fill="#000000">    </text>
<text text-anchor="start" x="566.94" y="-1703.3" font-family="Arial" font-size="14.00" fill="#666666">[BASE TABLE]</text>
<polygon fill="none" stroke="#000000" points="385,-1660.5 385,-1690.5 688,-1690.5 688,-1660.5 385,-1660.5"/>
<text text-anchor="start" x="392" y="-1671.9" font-family="Arial" font-size="14.00" fill="#000000">id    </text>
<text text-anchor="start" x="437.094" y="-1671.9" font-family="Arial" font-size="14.00" fill="#666666">[bigint]</text>
<polygon fill="none" stroke="#000000" points="385,-1630.5 385,-1660.5 688,-1660.5 688,-1630.5 385,-1630.5"/>
<text text-anchor="start" x="392" y="-1641.9" font-family="Arial" font-size="14.00" fill="#000000">name    </text>
<text text-anchor="start" x="461.2132" y="-1641.9" font-family="Arial" font-size="14.00" fill="#666666">[varchar(255)]</text>
<polygon fill="none" stroke="#000000" points="385,-1600.5 385,-1630.5 688,-1630.5 688,-1600.5 385,-1600.5"/>
<text text-anchor="start" x="392" y="-1611.9" font-family="Arial" font-size="14.00" fill="#000000">sex    </text>
<text text-anchor="start" x="447.9874" y="-1611.9" font-family="Arial" font-size="14.00" fill="#666666">[integer]</text>
<polygon fill="none" stroke="#000000" points="385,-1570.5 385,-1600.5 688,-1600.5 688,-1570.5 385,-1570.5"/>
<text text-anchor="start" x="392" y="-1581.9" font-family="Arial" font-size="14.00" fill="#000000">memo    </text>
<text text-anchor="start" x="465.0912" y="-1581.9" font-family="Arial" font-size="14.00" fill="#666666">[text]</text>
<polygon fill="none" stroke="#000000" points="385,-1540.5 385,-1570.5 688,-1570.5 688,-1540.5 385,-1540.5"/>
<text text-anchor="start" x="392" y="-1551.9" font-family="Arial" font-size="14.00" fill="#000000">class_id    </text>
<text text-anchor="start" x="476.7658" y="-1551.9" font-family="Arial" font-size="14.00" fill="#666666">[bigint]</text>
<polygon fill="none" stroke="#000000" points="385,-1510.5 385,-1540.5 688,-1540.5 688,-1510.5 385,-1510.5"/>
<text text-anchor="start" x="392" y="-1521.9" font-family="Arial" font-size="14.00" fill="#000000">created_at    </text>
<text text-anchor="start" x="492.3422" y="-1521.9" font-family="Arial" font-size="14.00" fill="#666666">[timestamp without time zone]</text>
<polygon fill="none" stroke="#000000" points="385,-1480.5 385,-1510.5 688,-1510.5 688,-1480.5 385,-1480.5"/>
<text text-anchor="start" x="391.8065" y="-1491.9" font-family="Arial" font-size="14.00" fill="#000000">updated_at    </text>
<text text-anchor="start" x="496.0533" y="-1491.9" font-family="Arial" font-size="14.00" fill="#666666">[timestamp without time zone]</text>
</g>
<!-- public.students&#45;&gt;public.classes -->
<g id="edge3" class="edge">
<title>public.students:class_id&#45;&gt;public.classes:id</title>
<path fill="none" stroke="#000000" d="M697.9436,-1554.422C737.1438,-1545.0852 716.4954,-1477.3084 688,-1438 657.8083,-1396.3516 613.8523,-1438.8881 578,-1402 460.4554,-1281.0596 327.3486,-1031.5 496,-1031.5"/>
<polygon fill="#000000" stroke="#000000" points="697.9417,-1554.4221 687.5149,-1551.0262 692.9709,-1554.9611 688,-1555.5 688,-1555.5 688,-1555.5 692.9709,-1554.9611 688.4851,-1559.9738 697.9417,-1554.4221 697.9417,-1554.4221"/>
<text text-anchor="start" x="695.224" y="-1565.5" font-family="Arial" font-size="10.00" fill="#000000">FOREIGN KEY (class_id) REFERENCES classes(id)</text>
</g>
<!-- public.surveys -->
<g id="node6" class="node">
<title>public.surveys</title>
<polygon fill="#efefef" stroke="transparent" points="631,-1323.5 631,-1358.5 886,-1358.5 886,-1323.5 631,-1323.5"/>
<polygon fill="none" stroke="#000000" points="631,-1323.5 631,-1358.5 886,-1358.5 886,-1323.5 631,-1323.5"/>
<text text-anchor="start" x="637.7091" y="-1336.3" font-family="Arial Bold" font-size="18.00" fill="#000000">public.surveys</text>
<text text-anchor="start" x="751.7229" y="-1336.3" font-family="Arial" font-size="14.00" fill="#000000">    </text>
<text text-anchor="start" x="785.9277" y="-1336.3" font-family="Arial" font-size="14.00" fill="#666666">[BASE TABLE]</text>
<polygon fill="none" stroke="#000000" points="631,-1293.5 631,-1323.5 886,-1323.5 886,-1293.5 631,-1293.5"/>
<text text-anchor="start" x="638" y="-1304.9" font-family="Arial" font-size="14.00" fill="#000000">id    </text>
<text text-anchor="start" x="683.094" y="-1304.9" font-family="Arial" font-size="14.00" fill="#666666">[bigint]</text>
<polygon fill="none" stroke="#000000" points="631,-1263.5 631,-1293.5 886,-1293.5 886,-1263.5 631,-1263.5"/>
<text text-anchor="start" x="638" y="-1274.9" font-family="Arial" font-size="14.00" fill="#000000">name    </text>
<text text-anchor="start" x="707.2132" y="-1274.9" font-family="Arial" font-size="14.00" fill="#666666">[varchar(255)]</text>
<polygon fill="none" stroke="#000000" points="631,-1233.5 631,-1263.5 886,-1263.5 886,-1233.5 631,-1233.5"/>
<text text-anchor="start" x="638" y="-1244.9" font-family="Arial" font-size="14.00" fill="#000000">status    </text>
<text text-anchor="start" x="709.5512" y="-1244.9" font-family="Arial" font-size="14.00" fill="#666666">[integer]</text>
<polygon fill="none" stroke="#000000" points="631,-1203.5 631,-1233.5 886,-1233.5 886,-1203.5 631,-1203.5"/>
<text text-anchor="start" x="638" y="-1214.9" font-family="Arial" font-size="14.00" fill="#000000">class_id    </text>
<text text-anchor="start" x="722.7658" y="-1214.9" font-family="Arial" font-size="14.00" fill="#666666">[bigint]</text>
</g>
<!-- public.surveys&#45;&gt;public.classes -->
<g id="edge4" class="edge">
<title>public.surveys:class_id&#45;&gt;public.classes:id</title>
<path fill="none" stroke="#000000" d="M621.126,-1215.7062C608.7352,-1206.6317 617.5697,-1177.6132 631,-1161 679.0069,-1101.6161 750.9931,-1184.3839 799,-1125 825.125,-1092.6837 840.5556,-1031.5 799,-1031.5"/>
<polygon fill="#000000" stroke="#000000" points="621.3777,-1215.7774 629.7748,-1222.83 626.1889,-1217.1387 631,-1218.5 631,-1218.5 631,-1218.5 626.1889,-1217.1387 632.2252,-1214.17 621.3777,-1215.7774 621.3777,-1215.7774"/>
<text text-anchor="start" x="389.224" y="-1228.5" font-family="Arial" font-size="10.00" fill="#000000">FOREIGN KEY (class_id) REFERENCES classes(id)</text>
</g>
<!-- public.teams -->
<g id="node7" class="node">
<title>public.teams</title>
<polygon fill="#efefef" stroke="transparent" points="830,-1630.5 830,-1665.5 1072,-1665.5 1072,-1630.5 830,-1630.5"/>
<polygon fill="none" stroke="#000000" points="830,-1630.5 830,-1665.5 1072,-1665.5 1072,-1630.5 830,-1630.5"/>
<text text-anchor="start" x="836.708" y="-1643.3" font-family="Arial Bold" font-size="18.00" fill="#000000">public.teams</text>
<text text-anchor="start" x="937.724" y="-1643.3" font-family="Arial" font-size="14.00" fill="#000000">    </text>
<text text-anchor="start" x="971.9288" y="-1643.3" font-family="Arial" font-size="14.00" fill="#666666">[BASE TABLE]</text>
<polygon fill="none" stroke="#000000" points="830,-1600.5 830,-1630.5 1072,-1630.5 1072,-1600.5 830,-1600.5"/>
<text text-anchor="start" x="837" y="-1611.9" font-family="Arial" font-size="14.00" fill="#000000">id    </text>
<text text-anchor="start" x="882.094" y="-1611.9" font-family="Arial" font-size="14.00" fill="#666666">[bigint]</text>
<polygon fill="none" stroke="#000000" points="830,-1570.5 830,-1600.5 1072,-1600.5 1072,-1570.5 830,-1570.5"/>
<text text-anchor="start" x="837" y="-1581.9" font-family="Arial" font-size="14.00" fill="#000000">name    </text>
<text text-anchor="start" x="906.2132" y="-1581.9" font-family="Arial" font-size="14.00" fill="#666666">[varchar(255)]</text>
<polygon fill="none" stroke="#000000" points="830,-1540.5 830,-1570.5 1072,-1570.5 1072,-1540.5 830,-1540.5"/>
<text text-anchor="start" x="837" y="-1551.9" font-family="Arial" font-size="14.00" fill="#000000">survey_id    </text>
<text text-anchor="start" x="931.1024" y="-1551.9" font-family="Arial" font-size="14.00" fill="#666666">[bigint]</text>
</g>
<!-- public.teams&#45;&gt;public.surveys -->
<g id="edge5" class="edge">
<title>public.teams:survey_id&#45;&gt;public.surveys:id</title>
<path fill="none" stroke="#000000" d="M820.2,-1552.5578C810.8372,-1543.9652 824.5289,-1518.237 830,-1498 842.8912,-1450.3165 873.1088,-1449.6835 886,-1402 896.8452,-1361.8846 927.5556,-1308.5 886,-1308.5"/>
<polygon fill="#000000" stroke="#000000" points="820.4223,-1552.6245 828.706,-1559.81 825.2112,-1554.0622 830,-1555.5 830,-1555.5 830,-1555.5 825.2112,-1554.0622 831.294,-1551.19 820.4223,-1552.6245 820.4223,-1552.6245"/>
<text text-anchor="start" x="644.5845" y="-1539.5" font-family="Arial" font-size="10.00" fill="#000000">FOREIGN KEY (survey_id) REFERENCES surveys(id)</text>
</g>
<!-- public.student_preferences -->
<g id="node8" class="node">
<title>public.student_preferences</title>
<polygon fill="#efefef" stroke="transparent" points="595,-2267.5 595,-2302.5 952,-2302.5 952,-2267.5 595,-2267.5"/>
<polygon fill="none" stroke="#000000" points="595,-2267.5 595,-2302.5 952,-2302.5 952,-2267.5 595,-2267.5"/>
<text text-anchor="start" x="601.6818" y="-2280.3" font-family="Arial Bold" font-size="18.00" fill="#000000">public.student_preferences</text>
<text text-anchor="start" x="817.7502" y="-2280.3" font-family="Arial" font-size="14.00" fill="#000000">    </text>
<text text-anchor="start" x="851.955" y="-2280.3" font-family="Arial" font-size="14.00" fill="#666666">[BASE TABLE]</text>
<polygon fill="none" stroke="#000000" points="595,-2237.5 595,-2267.5 952,-2267.5 952,-2237.5 595,-2237.5"/>
<text text-anchor="start" x="602" y="-2248.9" font-family="Arial" font-size="14.00" fill="#000000">id    </text>
<text text-anchor="start" x="647.094" y="-2248.9" font-family="Arial" font-size="14.00" fill="#666666">[bigint]</text>
<polygon fill="none" stroke="#000000" points="595,-2207.5 595,-2237.5 952,-2237.5 952,-2207.5 595,-2207.5"/>
<text text-anchor="start" x="602" y="-2218.9" font-family="Arial" font-size="14.00" fill="#000000">student_id    </text>
<text text-anchor="start" x="700.7882" y="-2218.9" font-family="Arial" font-size="14.00" fill="#666666">[bigint]</text>
<polygon fill="none" stroke="#000000" points="595,-2177.5 595,-2207.5 952,-2207.5 952,-2177.5 595,-2177.5"/>
<text text-anchor="start" x="602" y="-2188.9" font-family="Arial" font-size="14.00" fill="#000000">survey_id    </text>
<text text-anchor="start" x="696.1024" y="-2188.9" font-family="Arial" font-size="14.00" fill="#666666">[bigint]</text>
<polygon fill="none" stroke="#000000" points="595,-2147.5 595,-2177.5 952,-2177.5 952,-2147.5 595,-2147.5"/>
<text text-anchor="start" x="602" y="-2158.9" font-family="Arial" font-size="14.00" fill="#000000">team_id    </text>
<text text-anchor="start" x="685.993" y="-2158.9" font-family="Arial" font-size="14.00" fill="#666666">[bigint]</text>
<polygon fill="none" stroke="#000000" points="595,-2117.5 595,-2147.5 952,-2147.5 952,-2117.5 595,-2117.5"/>
<text text-anchor="start" x="602" y="-2128.9" font-family="Arial" font-size="14.00" fill="#000000">mi_a    </text>
<text text-anchor="start" x="666.5372" y="-2128.9" font-family="Arial" font-size="14.00" fill="#666666">[integer]</text>
<polygon fill="none" stroke="#000000" points="595,-2087.5 595,-2117.5 952,-2117.5 952,-2087.5 595,-2087.5"/>
<text text-anchor="start" x="602" y="-2098.9" font-family="Arial" font-size="14.00" fill="#000000">mi_b    </text>
<text text-anchor="start" x="666.5372" y="-2098.9" font-family="Arial" font-size="14.00" fill="#666666">[integer]</text>
<polygon fill="none" stroke="#000000" points="595,-2057.5 595,-2087.5 952,-2087.5 952,-2057.5 595,-2057.5"/>
<text text-anchor="start" x="602" y="-2068.9" font-family="Arial" font-size="14.00" fill="#000000">mi_c    </text>
<text text-anchor="start" x="665.7546" y="-2068.9" font-family="Arial" font-size="14.00" fill="#666666">[integer]</text>
<polygon fill="none" stroke="#000000" points="595,-2027.5 595,-2057.5 952,-2057.5 952,-2027.5 595,-2027.5"/>
<text text-anchor="start" x="602" y="-2038.9" font-family="Arial" font-size="14.00" fill="#000000">mi_d    </text>
<text text-anchor="start" x="666.5372" y="-2038.9" font-family="Arial" font-size="14.00" fill="#666666">[integer]</text>
<polygon fill="none" stroke="#000000" points="595,-1997.5 595,-2027.5 952,-2027.5 952,-1997.5 595,-1997.5"/>
<text text-anchor="start" x="602" y="-2008.9" font-family="Arial" font-size="14.00" fill="#000000">mi_e    </text>
<text text-anchor="start" x="666.5372" y="-2008.9" font-family="Arial" font-size="14.00" fill="#666666">[integer]</text>
<polygon fill="none" stroke="#000000" points="595,-1967.5 595,-1997.5 952,-1997.5 952,-1967.5 595,-1967.5"/>
<text text-anchor="start" x="602" y="-1978.9" font-family="Arial" font-size="14.00" fill="#000000">mi_f    </text>
<text text-anchor="start" x="662.6452" y="-1978.9" font-family="Arial" font-size="14.00" fill="#666666">[integer]</text>
<polygon fill="none" stroke="#000000" points="595,-1937.5 595,-1967.5 952,-1967.5 952,-1937.5 595,-1937.5"/>
<text text-anchor="start" x="602" y="-1948.9" font-family="Arial" font-size="14.00" fill="#000000">mi_g    </text>
<text text-anchor="start" x="666.5372" y="-1948.9" font-family="Arial" font-size="14.00" fill="#666666">[integer]</text>
<polygon fill="none" stroke="#000000" points="595,-1907.5 595,-1937.5 952,-1937.5 952,-1907.5 595,-1907.5"/>
<text text-anchor="start" x="602" y="-1918.9" font-family="Arial" font-size="14.00" fill="#000000">mi_h    </text>
<text text-anchor="start" x="666.5372" y="-1918.9" font-family="Arial" font-size="14.00" fill="#666666">[integer]</text>
<polygon fill="none" stroke="#000000" points="595,-1877.5 595,-1907.5 952,-1907.5 952,-1877.5 595,-1877.5"/>
<text text-anchor="start" x="602" y="-1888.9" font-family="Arial" font-size="14.00" fill="#000000">leader    </text>
<text text-anchor="start" x="675.1024" y="-1888.9" font-family="Arial" font-size="14.00" fill="#666666">[integer]</text>
<polygon fill="none" stroke="#000000" points="595,-1847.5 595,-1877.5 952,-1877.5 952,-1847.5 595,-1847.5"/>
<text text-anchor="start" x="602" y="-1858.9" font-family="Arial" font-size="14.00" fill="#000000">eyesight    </text>
<text text-anchor="start" x="688.3324" y="-1858.9" font-family="Arial" font-size="14.00" fill="#666666">[integer]</text>
</g>
<!-- public.student_preferences&#45;&gt;public.students -->
<g id="edge6" class="edge">
<title>public.student_preferences:student_id&#45;&gt;public.students:id</title>
<path fill="none" stroke="#000000" d="M584.7297,-2220.9753C505.3919,-2196.2656 544.6063,-1878.5448 595,-1805 620.0529,-1768.4377 662.9471,-1805.5623 688,-1769 711.4891,-1734.7199 729.5556,-1675.5 688,-1675.5"/>
<polygon fill="#000000" stroke="#000000" points="585.1084,-2221.0314 594.3391,-2226.9512 590.0542,-2221.7657 595,-2222.5 595,-2222.5 595,-2222.5 590.0542,-2221.7657 595.6609,-2218.0488 585.1084,-2221.0314 585.1084,-2221.0314"/>
<text text-anchor="start" x="337.9875" y="-2232.5" font-family="Arial" font-size="10.00" fill="#000000">FOREIGN KEY (student_id) REFERENCES students(id)</text>
</g>
<!-- public.student_preferences&#45;&gt;public.surveys -->
<g id="edge7" class="edge">
<title>public.student_preferences:survey_id&#45;&gt;public.surveys:id</title>
<path fill="none" stroke="#000000" d="M584.9992,-2190.9263C511.639,-2166.7041 544.1797,-1870.0894 595,-1805 635.5986,-1753.0023 695.4237,-1818.5289 739,-1769 836.8464,-1657.7876 684.4936,-1552.8855 778,-1438 809.939,-1398.7585 856.4157,-1443.046 886,-1402 910.298,-1368.2884 927.5556,-1308.5 886,-1308.5"/>
<polygon fill="#000000" stroke="#000000" points="585.1215,-2190.9455 594.3005,-2196.9453 590.0608,-2191.7227 595,-2192.5 595,-2192.5 595,-2192.5 590.0608,-2191.7227 595.6995,-2188.0547 585.1215,-2190.9455 585.1215,-2190.9455"/>
<text text-anchor="start" x="345.3345" y="-2202.5" font-family="Arial" font-size="10.00" fill="#000000">FOREIGN KEY (survey_id) REFERENCES surveys(id)</text>
</g>
<!-- public.student_preferences&#45;&gt;public.teams -->
<g id="edge8" class="edge">
<title>public.student_preferences:team_id&#45;&gt;public.teams:id</title>
<path fill="none" stroke="#000000" d="M962.3335,-2162.1785C1106.8792,-2152.8972 1019.8457,-1944.7186 952,-1805 921.8616,-1742.9342 860.1384,-1771.0658 830,-1709 811.848,-1671.6186 788.4444,-1615.5 830,-1615.5"/>
<polygon fill="#000000" stroke="#000000" points="961.9952,-2162.1889 951.86,-2158.0022 956.9976,-2162.3445 952,-2162.5 952,-2162.5 952,-2162.5 956.9976,-2162.3445 952.14,-2166.9978 961.9952,-2162.1889 961.9952,-2162.1889"/>
<text text-anchor="start" x="958.5555" y="-2172.5" font-family="Arial" font-size="10.00" fill="#000000">FOREIGN KEY (team_id) REFERENCES teams(id)</text>
</g>
<!-- public.student_dislikes -->
<g id="node9" class="node">
<title>public.student_dislikes</title>
<polygon fill="#efefef" stroke="transparent" points="488,-2529.5 488,-2564.5 809,-2564.5 809,-2529.5 488,-2529.5"/>
<polygon fill="none" stroke="#000000" points="488,-2529.5 488,-2564.5 809,-2564.5 809,-2529.5 488,-2529.5"/>
<text text-anchor="start" x="494.6962" y="-2542.3" font-family="Arial Bold" font-size="18.00" fill="#000000">public.student_dislikes</text>
<text text-anchor="start" x="674.7358" y="-2542.3" font-family="Arial" font-size="14.00" fill="#000000">    </text>
<text text-anchor="start" x="708.9406" y="-2542.3" font-family="Arial" font-size="14.00" fill="#666666">[BASE TABLE]</text>
<polygon fill="none" stroke="#000000" points="488,-2499.5 488,-2529.5 809,-2529.5 809,-2499.5 488,-2499.5"/>
<text text-anchor="start" x="495" y="-2510.9" font-family="Arial" font-size="14.00" fill="#000000">id    </text>
<text text-anchor="start" x="540.094" y="-2510.9" font-family="Arial" font-size="14.00" fill="#666666">[bigint]</text>
<polygon fill="none" stroke="#000000" points="488,-2469.5 488,-2499.5 809,-2499.5 809,-2469.5 488,-2469.5"/>
<text text-anchor="start" x="495" y="-2480.9" font-family="Arial" font-size="14.00" fill="#000000">student_id    </text>
<text text-anchor="start" x="593.7882" y="-2480.9" font-family="Arial" font-size="14.00" fill="#666666">[bigint]</text>
<polygon fill="none" stroke="#000000" points="488,-2439.5 488,-2469.5 809,-2469.5 809,-2439.5 488,-2439.5"/>
<text text-anchor="start" x="495" y="-2450.9" font-family="Arial" font-size="14.00" fill="#000000">preference_id    </text>
<text text-anchor="start" x="614.784" y="-2450.9" font-family="Arial" font-size="14.00" fill="#666666">[bigint]</text>
</g>
<!-- public.student_dislikes&#45;&gt;public.students -->
<g id="edge9" class="edge">
<title>public.student_dislikes:student_id&#45;&gt;public.students:id</title>
<path fill="none" stroke="#000000" d="M480.3811,-2477.988C432.2419,-2401.4255 342.082,-1675.5 385,-1675.5"/>
<polygon fill="#000000" stroke="#000000" points="480.3983,-2478.0027 485.0762,-2487.9208 484.1992,-2481.2513 488,-2484.5 488,-2484.5 488,-2484.5 484.1992,-2481.2513 490.9238,-2481.0792 480.3983,-2478.0027 480.3983,-2478.0027"/>
<text text-anchor="start" x="230.9875" y="-2494.5" font-family="Arial" font-size="10.00" fill="#000000">FOREIGN KEY (student_id) REFERENCES students(id)</text>
</g>
<!-- public.student_dislikes&#45;&gt;public.student_preferences -->
<g id="edge10" class="edge">
<title>public.student_dislikes:preference_id&#45;&gt;public.student_preferences:id</title>
<path fill="none" stroke="#000000" d="M818.8586,-2451.7186C831.2022,-2442.6817 822.2396,-2413.7656 809,-2397 748.4043,-2320.2663 655.5957,-2422.7337 595,-2346 569.246,-2313.3872 553.4444,-2252.5 595,-2252.5"/>
<polygon fill="#000000" stroke="#000000" points="818.6243,-2451.7846 807.7781,-2450.1691 813.8121,-2453.1423 809,-2454.5 809,-2454.5 809,-2454.5 813.8121,-2453.1423 810.2219,-2458.8309 818.6243,-2451.7846 818.6243,-2451.7846"/>
<text text-anchor="start" x="815.814" y="-2464.5" font-family="Arial" font-size="10.00" fill="#000000">FOREIGN KEY (preference_id) REFERENCES student_preferences(id)</text>
</g>
</g>
</svg>
