<?xml version="1.0" encoding="UTF-8" standalone="no"?>
<!DOCTYPE svg PUBLIC "-//W3C//DTD SVG 1.1//EN"
 "http://www.w3.org/Graphics/SVG/1.1/DTD/svg11.dtd">
<!-- Generated by graphviz version 2.40.1 (20161225.0304)
 -->
<!-- Title: db Pages: 1 -->
<svg width="1300pt" height="2174pt"
 viewBox="0.00 0.00 1299.50 2174.00" xmlns="http://www.w3.org/2000/svg" xmlns:xlink="http://www.w3.org/1999/xlink">
<g id="graph0" class="graph" transform="scale(1 1) rotate(0) translate(4 2170)">
<title>db</title>
<polygon fill="#ffffff" stroke="transparent" points="-4,4 -4,-2170 1295.5,-2170 1295.5,4 -4,4"/>
<!-- public.goose_db_version -->
<g id="node1" class="node">
<title>public.goose_db_version</title>
<polygon fill="#efefef" stroke="transparent" points="43,-2087.5 43,-2122.5 353,-2122.5 353,-2087.5 43,-2087.5"/>
<polygon fill="none" stroke="#000000" points="43,-2087.5 43,-2122.5 353,-2122.5 353,-2087.5 43,-2087.5"/>
<text text-anchor="start" x="49.8412" y="-2100.3" font-family="Arial Bold" font-size="18.00" fill="#000000">public.goose_db_version</text>
<text text-anchor="start" x="248.905" y="-2100.3" font-family="Arial" font-size="14.00" fill="#000000"> </text>
<text text-anchor="start" x="252.7956" y="-2100.3" font-family="Arial" font-size="14.00" fill="#666666">[BASE TABLE]</text>
<polygon fill="none" stroke="#000000" points="43,-2057.5 43,-2087.5 353,-2087.5 353,-2057.5 43,-2057.5"/>
<text text-anchor="start" x="50" y="-2068.9" font-family="Arial" font-size="14.00" fill="#000000">id </text>
<text text-anchor="start" x="64.7798" y="-2068.9" font-family="Arial" font-size="14.00" fill="#666666">[integer]</text>
<polygon fill="none" stroke="#000000" points="43,-2027.5 43,-2057.5 353,-2057.5 353,-2027.5 43,-2027.5"/>
<text text-anchor="start" x="50" y="-2038.9" font-family="Arial" font-size="14.00" fill="#000000">version_id </text>
<text text-anchor="start" x="117.6774" y="-2038.9" font-family="Arial" font-size="14.00" fill="#666666">[bigint]</text>
<polygon fill="none" stroke="#000000" points="43,-1997.5 43,-2027.5 353,-2027.5 353,-1997.5 43,-1997.5"/>
<text text-anchor="start" x="50" y="-2008.9" font-family="Arial" font-size="14.00" fill="#000000">is_applied </text>
<text text-anchor="start" x="116.906" y="-2008.9" font-family="Arial" font-size="14.00" fill="#666666">[boolean]</text>
<polygon fill="none" stroke="#000000" points="43,-1967.5 43,-1997.5 353,-1997.5 353,-1967.5 43,-1967.5"/>
<text text-anchor="start" x="50" y="-1978.9" font-family="Arial" font-size="14.00" fill="#000000">tstamp </text>
<text text-anchor="start" x="95.8976" y="-1978.9" font-family="Arial" font-size="14.00" fill="#666666">[timestamp without time zone]</text>
</g>
<!-- public.teachers -->
<g id="node2" class="node">
<title>public.teachers</title>
<polygon fill="#efefef" stroke="transparent" points="410,-312.5 410,-347.5 683,-347.5 683,-312.5 410,-312.5"/>
<polygon fill="none" stroke="#000000" points="410,-312.5 410,-347.5 683,-347.5 683,-312.5 410,-312.5"/>
<text text-anchor="start" x="437.3589" y="-325.3" font-family="Arial Bold" font-size="18.00" fill="#000000">public.teachers</text>
<text text-anchor="start" x="558.3873" y="-325.3" font-family="Arial" font-size="14.00" fill="#000000"> </text>
<text text-anchor="start" x="562.2779" y="-325.3" font-family="Arial" font-size="14.00" fill="#666666">[BASE TABLE]</text>
<polygon fill="none" stroke="#000000" points="410,-282.5 410,-312.5 683,-312.5 683,-282.5 410,-282.5"/>
<text text-anchor="start" x="417" y="-293.9" font-family="Arial" font-size="14.00" fill="#000000">id </text>
<text text-anchor="start" x="431.7798" y="-293.9" font-family="Arial" font-size="14.00" fill="#666666">[bigint]</text>
<polygon fill="none" stroke="#000000" points="410,-252.5 410,-282.5 683,-282.5 683,-252.5 410,-252.5"/>
<text text-anchor="start" x="417" y="-263.9" font-family="Arial" font-size="14.00" fill="#000000">name </text>
<text text-anchor="start" x="455.899" y="-263.9" font-family="Arial" font-size="14.00" fill="#666666">[varchar(256)]</text>
<polygon fill="none" stroke="#000000" points="410,-222.5 410,-252.5 683,-252.5 683,-222.5 410,-222.5"/>
<text text-anchor="start" x="417" y="-233.9" font-family="Arial" font-size="14.00" fill="#000000">family_name </text>
<text text-anchor="start" x="500.2286" y="-233.9" font-family="Arial" font-size="14.00" fill="#666666">[varchar(256)]</text>
<polygon fill="none" stroke="#000000" points="410,-192.5 410,-222.5 683,-222.5 683,-192.5 410,-192.5"/>
<text text-anchor="start" x="417" y="-203.9" font-family="Arial" font-size="14.00" fill="#000000">given_name </text>
<text text-anchor="start" x="497.136" y="-203.9" font-family="Arial" font-size="14.00" fill="#666666">[varchar(256)]</text>
<polygon fill="none" stroke="#000000" points="410,-162.5 410,-192.5 683,-192.5 683,-162.5 410,-162.5"/>
<text text-anchor="start" x="417" y="-173.9" font-family="Arial" font-size="14.00" fill="#000000">email </text>
<text text-anchor="start" x="454.3296" y="-173.9" font-family="Arial" font-size="14.00" fill="#666666">[varchar(256)]</text>
<polygon fill="none" stroke="#000000" points="410,-132.5 410,-162.5 683,-162.5 683,-132.5 410,-132.5"/>
<text text-anchor="start" x="417" y="-143.9" font-family="Arial" font-size="14.00" fill="#000000">status </text>
<text text-anchor="start" x="458.237" y="-143.9" font-family="Arial" font-size="14.00" fill="#666666">[integer]</text>
<polygon fill="none" stroke="#000000" points="410,-102.5 410,-132.5 683,-132.5 683,-102.5 410,-102.5"/>
<text text-anchor="start" x="417" y="-113.9" font-family="Arial" font-size="14.00" fill="#000000">created_at </text>
<text text-anchor="start" x="487.028" y="-113.9" font-family="Arial" font-size="14.00" fill="#666666">[timestamp without time zone]</text>
<polygon fill="none" stroke="#000000" points="410,-72.5 410,-102.5 683,-102.5 683,-72.5 410,-72.5"/>
<text text-anchor="start" x="416.9636" y="-83.9" font-family="Arial" font-size="14.00" fill="#000000">updated_at </text>
<text text-anchor="start" x="490.8962" y="-83.9" font-family="Arial" font-size="14.00" fill="#666666">[timestamp without time zone]</text>
<polygon fill="none" stroke="#000000" points="410,-42.5 410,-72.5 683,-72.5 683,-42.5 410,-42.5"/>
<text text-anchor="start" x="417" y="-53.9" font-family="Arial" font-size="14.00" fill="#000000">expired_at </text>
<text text-anchor="start" x="486.244" y="-53.9" font-family="Arial" font-size="14.00" fill="#666666">[timestamp without time zone]</text>
</g>
<!-- public.classes -->
<g id="node3" class="node">
<title>public.classes</title>
<polygon fill="#efefef" stroke="transparent" points="222,-649.5 222,-684.5 495,-684.5 495,-649.5 222,-649.5"/>
<polygon fill="none" stroke="#000000" points="222,-649.5 222,-684.5 495,-684.5 495,-649.5 222,-649.5"/>
<text text-anchor="start" x="253.8652" y="-662.3" font-family="Arial Bold" font-size="18.00" fill="#000000">public.classes</text>
<text text-anchor="start" x="365.881" y="-662.3" font-family="Arial" font-size="14.00" fill="#000000"> </text>
<text text-anchor="start" x="369.7716" y="-662.3" font-family="Arial" font-size="14.00" fill="#666666">[BASE TABLE]</text>
<polygon fill="none" stroke="#000000" points="222,-619.5 222,-649.5 495,-649.5 495,-619.5 222,-619.5"/>
<text text-anchor="start" x="229" y="-630.9" font-family="Arial" font-size="14.00" fill="#000000">id </text>
<text text-anchor="start" x="243.7798" y="-630.9" font-family="Arial" font-size="14.00" fill="#666666">[integer]</text>
<polygon fill="none" stroke="#000000" points="222,-589.5 222,-619.5 495,-619.5 495,-589.5 222,-589.5"/>
<text text-anchor="start" x="229" y="-600.9" font-family="Arial" font-size="14.00" fill="#000000">name </text>
<text text-anchor="start" x="267.899" y="-600.9" font-family="Arial" font-size="14.00" fill="#666666">[varchar(255)]</text>
<polygon fill="none" stroke="#000000" points="222,-559.5 222,-589.5 495,-589.5 495,-559.5 222,-559.5"/>
<text text-anchor="start" x="229" y="-570.9" font-family="Arial" font-size="14.00" fill="#000000">organization </text>
<text text-anchor="start" x="309.1332" y="-570.9" font-family="Arial" font-size="14.00" fill="#666666">[varchar(255)]</text>
<polygon fill="none" stroke="#000000" points="222,-529.5 222,-559.5 495,-559.5 495,-529.5 222,-529.5"/>
<text text-anchor="start" x="229" y="-540.9" font-family="Arial" font-size="14.00" fill="#000000">teacher_id </text>
<text text-anchor="start" x="298.244" y="-540.9" font-family="Arial" font-size="14.00" fill="#666666">[bigint]</text>
<polygon fill="none" stroke="#000000" points="222,-499.5 222,-529.5 495,-529.5 495,-499.5 222,-499.5"/>
<text text-anchor="start" x="229" y="-510.9" font-family="Arial" font-size="14.00" fill="#000000">created_at </text>
<text text-anchor="start" x="299.028" y="-510.9" font-family="Arial" font-size="14.00" fill="#666666">[timestamp without time zone]</text>
<polygon fill="none" stroke="#000000" points="222,-469.5 222,-499.5 495,-499.5 495,-469.5 222,-469.5"/>
<text text-anchor="start" x="228.9636" y="-480.9" font-family="Arial" font-size="14.00" fill="#000000">updated_at </text>
<text text-anchor="start" x="302.8962" y="-480.9" font-family="Arial" font-size="14.00" fill="#666666">[timestamp without time zone]</text>
</g>
<!-- public.classes&#45;&gt;public.teachers -->
<g id="edge1" class="edge">
<title>public.classes:teacher_id&#45;&gt;public.teachers:id</title>
<path fill="none" stroke="#000000" d="M505.4069,-543.3204C543.7215,-533.6886 521.7003,-467.3046 495,-427 472.3423,-392.7978 432.6577,-425.2022 410,-391 387.0501,-356.3566 368.4444,-297.5 410,-297.5"/>
<polygon fill="#000000" stroke="#000000" points="504.9364,-543.3737 494.4931,-540.0286 499.9682,-543.9368 495,-544.5 495,-544.5 495,-544.5 499.9682,-543.9368 495.5069,-548.9714 504.9364,-543.3737 504.9364,-543.3737"/>
<text text-anchor="start" x="369.9375" y="-528.5" font-family="Arial" font-size="10.00" fill="#000000">FOREIGN KEY (teacher_id) REFERENCES teachers(id)</text>
</g>
<!-- public.histories -->
<g id="node4" class="node">
<title>public.histories</title>
<polygon fill="#efefef" stroke="transparent" points="599,-619.5 599,-654.5 872,-654.5 872,-619.5 599,-619.5"/>
<polygon fill="none" stroke="#000000" points="599,-619.5 599,-654.5 872,-654.5 872,-619.5 599,-619.5"/>
<text text-anchor="start" x="627.3678" y="-632.3" font-family="Arial Bold" font-size="18.00" fill="#000000">public.histories</text>
<text text-anchor="start" x="746.3784" y="-632.3" font-family="Arial" font-size="14.00" fill="#000000"> </text>
<text text-anchor="start" x="750.269" y="-632.3" font-family="Arial" font-size="14.00" fill="#666666">[BASE TABLE]</text>
<polygon fill="none" stroke="#000000" points="599,-589.5 599,-619.5 872,-619.5 872,-589.5 599,-589.5"/>
<text text-anchor="start" x="606" y="-600.9" font-family="Arial" font-size="14.00" fill="#000000">id </text>
<text text-anchor="start" x="620.7798" y="-600.9" font-family="Arial" font-size="14.00" fill="#666666">[bigint]</text>
<polygon fill="none" stroke="#000000" points="599,-559.5 599,-589.5 872,-589.5 872,-559.5 599,-559.5"/>
<text text-anchor="start" x="606" y="-570.9" font-family="Arial" font-size="14.00" fill="#000000">teacher_id </text>
<text text-anchor="start" x="675.244" y="-570.9" font-family="Arial" font-size="14.00" fill="#666666">[bigint]</text>
<polygon fill="none" stroke="#000000" points="599,-529.5 599,-559.5 872,-559.5 872,-529.5 599,-529.5"/>
<text text-anchor="start" x="606" y="-540.9" font-family="Arial" font-size="14.00" fill="#000000">created_at </text>
<text text-anchor="start" x="676.028" y="-540.9" font-family="Arial" font-size="14.00" fill="#666666">[timestamp without time zone]</text>
<polygon fill="none" stroke="#000000" points="599,-499.5 599,-529.5 872,-529.5 872,-499.5 599,-499.5"/>
<text text-anchor="start" x="605.9636" y="-510.9" font-family="Arial" font-size="14.00" fill="#000000">updated_at </text>
<text text-anchor="start" x="679.8962" y="-510.9" font-family="Arial" font-size="14.00" fill="#666666">[timestamp without time zone]</text>
</g>
<!-- public.histories&#45;&gt;public.teachers -->
<g id="edge2" class="edge">
<title>public.histories:teacher_id&#45;&gt;public.teachers:id</title>
<path fill="none" stroke="#000000" d="M588.6851,-573.3729C551.1048,-564.1603 577.866,-500.4825 599,-457 619.7547,-414.298 662.2453,-433.702 683,-391 701.1655,-353.6252 724.5556,-297.5 683,-297.5"/>
<polygon fill="#000000" stroke="#000000" points="589.0592,-573.4137 598.5112,-578.9734 594.0296,-573.9569 599,-574.5 599,-574.5 599,-574.5 594.0296,-573.9569 599.4888,-570.0266 589.0592,-573.4137 589.0592,-573.4137"/>
<text text-anchor="start" x="341.4375" y="-584.5" font-family="Arial" font-size="10.00" fill="#000000">FOREIGN KEY (teacher_id) REFERENCES teachers(id)</text>
</g>
<!-- public.surveys -->
<g id="node5" class="node">
<title>public.surveys</title>
<polygon fill="#efefef" stroke="transparent" points="599,-926.5 599,-961.5 872,-961.5 872,-926.5 599,-926.5"/>
<polygon fill="none" stroke="#000000" points="599,-926.5 599,-961.5 872,-961.5 872,-926.5 599,-926.5"/>
<text text-anchor="start" x="629.8662" y="-939.3" font-family="Arial Bold" font-size="18.00" fill="#000000">public.surveys</text>
<text text-anchor="start" x="743.88" y="-939.3" font-family="Arial" font-size="14.00" fill="#000000"> </text>
<text text-anchor="start" x="747.7706" y="-939.3" font-family="Arial" font-size="14.00" fill="#666666">[BASE TABLE]</text>
<polygon fill="none" stroke="#000000" points="599,-896.5 599,-926.5 872,-926.5 872,-896.5 599,-896.5"/>
<text text-anchor="start" x="606" y="-907.9" font-family="Arial" font-size="14.00" fill="#000000">id </text>
<text text-anchor="start" x="620.7798" y="-907.9" font-family="Arial" font-size="14.00" fill="#666666">[bigint]</text>
<polygon fill="none" stroke="#000000" points="599,-866.5 599,-896.5 872,-896.5 872,-866.5 599,-866.5"/>
<text text-anchor="start" x="606" y="-877.9" font-family="Arial" font-size="14.00" fill="#000000">histories_id </text>
<text text-anchor="start" x="680.6746" y="-877.9" font-family="Arial" font-size="14.00" fill="#666666">[bigint]</text>
<polygon fill="none" stroke="#000000" points="599,-836.5 599,-866.5 872,-866.5 872,-836.5 599,-836.5"/>
<text text-anchor="start" x="606" y="-847.9" font-family="Arial" font-size="14.00" fill="#000000">created_at </text>
<text text-anchor="start" x="676.028" y="-847.9" font-family="Arial" font-size="14.00" fill="#666666">[timestamp without time zone]</text>
<polygon fill="none" stroke="#000000" points="599,-806.5 599,-836.5 872,-836.5 872,-806.5 599,-806.5"/>
<text text-anchor="start" x="605.9636" y="-817.9" font-family="Arial" font-size="14.00" fill="#000000">updated_at </text>
<text text-anchor="start" x="679.8962" y="-817.9" font-family="Arial" font-size="14.00" fill="#666666">[timestamp without time zone]</text>
</g>
<!-- public.surveys&#45;&gt;public.histories -->
<g id="edge3" class="edge">
<title>public.surveys:histories_id&#45;&gt;public.histories:id</title>
<path fill="none" stroke="#000000" d="M589.1328,-878.9347C537.6419,-851.0098 540.931,-604.5 599,-604.5"/>
<polygon fill="#000000" stroke="#000000" points="589.3217,-878.9837 597.8677,-885.8552 594.1609,-880.2419 599,-881.5 599,-881.5 599,-881.5 594.1609,-880.2419 600.1323,-877.1448 589.3217,-878.9837 589.3217,-878.9837"/>
<text text-anchor="start" x="339.0585" y="-891.5" font-family="Arial" font-size="10.00" fill="#000000">FOREIGN KEY (histories_id) REFERENCES histories(id)</text>
</g>
<!-- public.teams -->
<g id="node6" class="node">
<title>public.teams</title>
<polygon fill="#efefef" stroke="transparent" points="599,-1338.5 599,-1373.5 872,-1373.5 872,-1338.5 599,-1338.5"/>
<polygon fill="none" stroke="#000000" points="599,-1338.5 599,-1373.5 872,-1373.5 872,-1338.5 599,-1338.5"/>
<text text-anchor="start" x="636.3651" y="-1351.3" font-family="Arial Bold" font-size="18.00" fill="#000000">public.teams</text>
<text text-anchor="start" x="737.3811" y="-1351.3" font-family="Arial" font-size="14.00" fill="#000000"> </text>
<text text-anchor="start" x="741.2717" y="-1351.3" font-family="Arial" font-size="14.00" fill="#666666">[BASE TABLE]</text>
<polygon fill="none" stroke="#000000" points="599,-1308.5 599,-1338.5 872,-1338.5 872,-1308.5 599,-1308.5"/>
<text text-anchor="start" x="606" y="-1319.9" font-family="Arial" font-size="14.00" fill="#000000">id </text>
<text text-anchor="start" x="620.7798" y="-1319.9" font-family="Arial" font-size="14.00" fill="#666666">[integer]</text>
<polygon fill="none" stroke="#000000" points="599,-1278.5 599,-1308.5 872,-1308.5 872,-1278.5 599,-1278.5"/>
<text text-anchor="start" x="606" y="-1289.9" font-family="Arial" font-size="14.00" fill="#000000">survey_id </text>
<text text-anchor="start" x="669.7882" y="-1289.9" font-family="Arial" font-size="14.00" fill="#666666">[bigint]</text>
<polygon fill="none" stroke="#000000" points="599,-1248.5 599,-1278.5 872,-1278.5 872,-1248.5 599,-1248.5"/>
<text text-anchor="start" x="606" y="-1259.9" font-family="Arial" font-size="14.00" fill="#000000">created_at </text>
<text text-anchor="start" x="676.028" y="-1259.9" font-family="Arial" font-size="14.00" fill="#666666">[timestamp without time zone]</text>
<polygon fill="none" stroke="#000000" points="599,-1218.5 599,-1248.5 872,-1248.5 872,-1218.5 599,-1218.5"/>
<text text-anchor="start" x="605.9636" y="-1229.9" font-family="Arial" font-size="14.00" fill="#000000">updated_at </text>
<text text-anchor="start" x="679.8962" y="-1229.9" font-family="Arial" font-size="14.00" fill="#666666">[timestamp without time zone]</text>
</g>
<!-- public.teams&#45;&gt;public.surveys -->
<g id="edge4" class="edge">
<title>public.teams:survey_id&#45;&gt;public.surveys:id</title>
<path fill="none" stroke="#000000" d="M590.4632,-1287.8035C556.7772,-1240.284 559.6228,-911.5 599,-911.5"/>
<polygon fill="#000000" stroke="#000000" points="590.6818,-1287.9494 596.5022,-1297.2432 594.8409,-1290.7247 599,-1293.5 599,-1293.5 599,-1293.5 594.8409,-1290.7247 601.4978,-1289.7568 590.6818,-1287.9494 590.6818,-1287.9494"/>
<text text-anchor="start" x="606.3345" y="-1303.5" font-family="Arial" font-size="10.00" fill="#000000">FOREIGN KEY (survey_id) REFERENCES surveys(id)</text>
</g>
<!-- public.flavors -->
<g id="node7" class="node">
<title>public.flavors</title>
<polygon fill="#efefef" stroke="transparent" points="976,-1473.5 976,-1508.5 1249,-1508.5 1249,-1473.5 976,-1473.5"/>
<polygon fill="none" stroke="#000000" points="976,-1473.5 976,-1508.5 1249,-1508.5 1249,-1473.5 976,-1473.5"/>
<text text-anchor="start" x="1011.368" y="-1486.3" font-family="Arial Bold" font-size="18.00" fill="#000000">public.flavors</text>
<text text-anchor="start" x="1116.3782" y="-1486.3" font-family="Arial" font-size="14.00" fill="#000000"> </text>
<text text-anchor="start" x="1120.2688" y="-1486.3" font-family="Arial" font-size="14.00" fill="#666666">[BASE TABLE]</text>
<polygon fill="none" stroke="#000000" points="976,-1443.5 976,-1473.5 1249,-1473.5 1249,-1443.5 976,-1443.5"/>
<text text-anchor="start" x="983" y="-1454.9" font-family="Arial" font-size="14.00" fill="#000000">id </text>
<text text-anchor="start" x="997.7798" y="-1454.9" font-family="Arial" font-size="14.00" fill="#666666">[integer]</text>
<polygon fill="none" stroke="#000000" points="976,-1413.5 976,-1443.5 1249,-1443.5 1249,-1413.5 976,-1413.5"/>
<text text-anchor="start" x="983" y="-1424.9" font-family="Arial" font-size="14.00" fill="#000000">mi_a </text>
<text text-anchor="start" x="1017.223" y="-1424.9" font-family="Arial" font-size="14.00" fill="#666666">[integer]</text>
<polygon fill="none" stroke="#000000" points="976,-1383.5 976,-1413.5 1249,-1413.5 1249,-1383.5 976,-1383.5"/>
<text text-anchor="start" x="983" y="-1394.9" font-family="Arial" font-size="14.00" fill="#000000">mi_b </text>
<text text-anchor="start" x="1017.223" y="-1394.9" font-family="Arial" font-size="14.00" fill="#666666">[integer]</text>
<polygon fill="none" stroke="#000000" points="976,-1353.5 976,-1383.5 1249,-1383.5 1249,-1353.5 976,-1353.5"/>
<text text-anchor="start" x="983" y="-1364.9" font-family="Arial" font-size="14.00" fill="#000000">mi_c </text>
<text text-anchor="start" x="1016.4404" y="-1364.9" font-family="Arial" font-size="14.00" fill="#666666">[integer]</text>
<polygon fill="none" stroke="#000000" points="976,-1323.5 976,-1353.5 1249,-1353.5 1249,-1323.5 976,-1323.5"/>
<text text-anchor="start" x="983" y="-1334.9" font-family="Arial" font-size="14.00" fill="#000000">mi_d </text>
<text text-anchor="start" x="1017.223" y="-1334.9" font-family="Arial" font-size="14.00" fill="#666666">[integer]</text>
<polygon fill="none" stroke="#000000" points="976,-1293.5 976,-1323.5 1249,-1323.5 1249,-1293.5 976,-1293.5"/>
<text text-anchor="start" x="983" y="-1304.9" font-family="Arial" font-size="14.00" fill="#000000">mi_e </text>
<text text-anchor="start" x="1017.223" y="-1304.9" font-family="Arial" font-size="14.00" fill="#666666">[integer]</text>
<polygon fill="none" stroke="#000000" points="976,-1263.5 976,-1293.5 1249,-1293.5 1249,-1263.5 976,-1263.5"/>
<text text-anchor="start" x="983" y="-1274.9" font-family="Arial" font-size="14.00" fill="#000000">mi_f </text>
<text text-anchor="start" x="1013.331" y="-1274.9" font-family="Arial" font-size="14.00" fill="#666666">[integer]</text>
<polygon fill="none" stroke="#000000" points="976,-1233.5 976,-1263.5 1249,-1263.5 1249,-1233.5 976,-1233.5"/>
<text text-anchor="start" x="983" y="-1244.9" font-family="Arial" font-size="14.00" fill="#000000">mi_g </text>
<text text-anchor="start" x="1017.223" y="-1244.9" font-family="Arial" font-size="14.00" fill="#666666">[integer]</text>
<polygon fill="none" stroke="#000000" points="976,-1203.5 976,-1233.5 1249,-1233.5 1249,-1203.5 976,-1203.5"/>
<text text-anchor="start" x="983" y="-1214.9" font-family="Arial" font-size="14.00" fill="#000000">mi_h </text>
<text text-anchor="start" x="1017.223" y="-1214.9" font-family="Arial" font-size="14.00" fill="#666666">[integer]</text>
<polygon fill="none" stroke="#000000" points="976,-1173.5 976,-1203.5 1249,-1203.5 1249,-1173.5 976,-1173.5"/>
<text text-anchor="start" x="983" y="-1184.9" font-family="Arial" font-size="14.00" fill="#000000">leader </text>
<text text-anchor="start" x="1025.7882" y="-1184.9" font-family="Arial" font-size="14.00" fill="#666666">[integer]</text>
<polygon fill="none" stroke="#000000" points="976,-1143.5 976,-1173.5 1249,-1173.5 1249,-1143.5 976,-1143.5"/>
<text text-anchor="start" x="983" y="-1154.9" font-family="Arial" font-size="14.00" fill="#000000">eyesight </text>
<text text-anchor="start" x="1039.0182" y="-1154.9" font-family="Arial" font-size="14.00" fill="#666666">[integer]</text>
<polygon fill="none" stroke="#000000" points="976,-1113.5 976,-1143.5 1249,-1143.5 1249,-1113.5 976,-1113.5"/>
<text text-anchor="start" x="983" y="-1124.9" font-family="Arial" font-size="14.00" fill="#000000">created_at </text>
<text text-anchor="start" x="1053.028" y="-1124.9" font-family="Arial" font-size="14.00" fill="#666666">[timestamp without time zone]</text>
<polygon fill="none" stroke="#000000" points="976,-1083.5 976,-1113.5 1249,-1113.5 1249,-1083.5 976,-1083.5"/>
<text text-anchor="start" x="982.9636" y="-1094.9" font-family="Arial" font-size="14.00" fill="#000000">updated_at </text>
<text text-anchor="start" x="1056.8962" y="-1094.9" font-family="Arial" font-size="14.00" fill="#666666">[timestamp without time zone]</text>
</g>
<!-- public.students -->
<g id="node8" class="node">
<title>public.students</title>
<polygon fill="#efefef" stroke="transparent" points="222,-1398.5 222,-1433.5 495,-1433.5 495,-1398.5 222,-1398.5"/>
<polygon fill="none" stroke="#000000" points="222,-1398.5 222,-1433.5 495,-1433.5 495,-1398.5 222,-1398.5"/>
<text text-anchor="start" x="249.8539" y="-1411.3" font-family="Arial Bold" font-size="18.00" fill="#000000">public.students</text>
<text text-anchor="start" x="369.8923" y="-1411.3" font-family="Arial" font-size="14.00" fill="#000000"> </text>
<text text-anchor="start" x="373.7829" y="-1411.3" font-family="Arial" font-size="14.00" fill="#666666">[BASE TABLE]</text>
<polygon fill="none" stroke="#000000" points="222,-1368.5 222,-1398.5 495,-1398.5 495,-1368.5 222,-1368.5"/>
<text text-anchor="start" x="229" y="-1379.9" font-family="Arial" font-size="14.00" fill="#000000">id </text>
<text text-anchor="start" x="243.7798" y="-1379.9" font-family="Arial" font-size="14.00" fill="#666666">[integer]</text>
<polygon fill="none" stroke="#000000" points="222,-1338.5 222,-1368.5 495,-1368.5 495,-1338.5 222,-1338.5"/>
<text text-anchor="start" x="229" y="-1349.9" font-family="Arial" font-size="14.00" fill="#000000">name </text>
<text text-anchor="start" x="267.899" y="-1349.9" font-family="Arial" font-size="14.00" fill="#666666">[varchar(255)]</text>
<polygon fill="none" stroke="#000000" points="222,-1308.5 222,-1338.5 495,-1338.5 495,-1308.5 222,-1308.5"/>
<text text-anchor="start" x="229" y="-1319.9" font-family="Arial" font-size="14.00" fill="#000000">sex </text>
<text text-anchor="start" x="254.6732" y="-1319.9" font-family="Arial" font-size="14.00" fill="#666666">[integer]</text>
<polygon fill="none" stroke="#000000" points="222,-1278.5 222,-1308.5 495,-1308.5 495,-1278.5 222,-1278.5"/>
<text text-anchor="start" x="229" y="-1289.9" font-family="Arial" font-size="14.00" fill="#000000">class_id </text>
<text text-anchor="start" x="283.4516" y="-1289.9" font-family="Arial" font-size="14.00" fill="#666666">[bigint]</text>
<polygon fill="none" stroke="#000000" points="222,-1248.5 222,-1278.5 495,-1278.5 495,-1248.5 222,-1248.5"/>
<text text-anchor="start" x="229" y="-1259.9" font-family="Arial" font-size="14.00" fill="#000000">family_name </text>
<text text-anchor="start" x="312.2286" y="-1259.9" font-family="Arial" font-size="14.00" fill="#666666">[varchar(255)]</text>
<polygon fill="none" stroke="#000000" points="222,-1218.5 222,-1248.5 495,-1248.5 495,-1218.5 222,-1218.5"/>
<text text-anchor="start" x="229" y="-1229.9" font-family="Arial" font-size="14.00" fill="#000000">given_name </text>
<text text-anchor="start" x="309.136" y="-1229.9" font-family="Arial" font-size="14.00" fill="#666666">[varchar(255)]</text>
<polygon fill="none" stroke="#000000" points="222,-1188.5 222,-1218.5 495,-1218.5 495,-1188.5 222,-1188.5"/>
<text text-anchor="start" x="229" y="-1199.9" font-family="Arial" font-size="14.00" fill="#000000">created_at </text>
<text text-anchor="start" x="299.028" y="-1199.9" font-family="Arial" font-size="14.00" fill="#666666">[timestamp without time zone]</text>
<polygon fill="none" stroke="#000000" points="222,-1158.5 222,-1188.5 495,-1188.5 495,-1158.5 222,-1158.5"/>
<text text-anchor="start" x="228.9636" y="-1169.9" font-family="Arial" font-size="14.00" fill="#000000">updated_at </text>
<text text-anchor="start" x="302.8962" y="-1169.9" font-family="Arial" font-size="14.00" fill="#666666">[timestamp without time zone]</text>
</g>
<!-- public.students&#45;&gt;public.classes -->
<g id="edge5" class="edge">
<title>public.students:class_id&#45;&gt;public.classes:id</title>
<path fill="none" stroke="#000000" d="M501.6228,-1285.64C531.459,-1211.2884 529.2514,-634.5 495,-634.5"/>
<polygon fill="#000000" stroke="#000000" points="501.4436,-1285.8527 491.5587,-1290.6004 498.2218,-1289.6764 495,-1293.5 495,-1293.5 495,-1293.5 498.2218,-1289.6764 498.4413,-1296.3996 501.4436,-1285.8527 501.4436,-1285.8527"/>
<text text-anchor="start" x="253.224" y="-1303.5" font-family="Arial" font-size="10.00" fill="#000000">FOREIGN KEY (class_id) REFERENCES classes(id)</text>
</g>
<!-- public.student_flavor -->
<g id="node9" class="node">
<title>public.student_flavor</title>
<polygon fill="#efefef" stroke="transparent" points="556,-1810.5 556,-1845.5 832,-1845.5 832,-1810.5 556,-1810.5"/>
<polygon fill="none" stroke="#000000" points="556,-1810.5 556,-1845.5 832,-1845.5 832,-1810.5 556,-1810.5"/>
<text text-anchor="start" x="562.8503" y="-1823.3" font-family="Arial Bold" font-size="18.00" fill="#000000">public.student_flavor</text>
<text text-anchor="start" x="727.8959" y="-1823.3" font-family="Arial" font-size="14.00" fill="#000000"> </text>
<text text-anchor="start" x="731.7865" y="-1823.3" font-family="Arial" font-size="14.00" fill="#666666">[BASE TABLE]</text>
<polygon fill="none" stroke="#000000" points="556,-1780.5 556,-1810.5 832,-1810.5 832,-1780.5 556,-1780.5"/>
<text text-anchor="start" x="563" y="-1791.9" font-family="Arial" font-size="14.00" fill="#000000">id </text>
<text text-anchor="start" x="577.7798" y="-1791.9" font-family="Arial" font-size="14.00" fill="#666666">[integer]</text>
<polygon fill="none" stroke="#000000" points="556,-1750.5 556,-1780.5 832,-1780.5 832,-1750.5 556,-1750.5"/>
<text text-anchor="start" x="563" y="-1761.9" font-family="Arial" font-size="14.00" fill="#000000">team_id </text>
<text text-anchor="start" x="616.6788" y="-1761.9" font-family="Arial" font-size="14.00" fill="#666666">[bigint]</text>
<polygon fill="none" stroke="#000000" points="556,-1720.5 556,-1750.5 832,-1750.5 832,-1720.5 556,-1720.5"/>
<text text-anchor="start" x="563" y="-1731.9" font-family="Arial" font-size="14.00" fill="#000000">student_id </text>
<text text-anchor="start" x="631.474" y="-1731.9" font-family="Arial" font-size="14.00" fill="#666666">[bigint]</text>
<polygon fill="none" stroke="#000000" points="556,-1690.5 556,-1720.5 832,-1720.5 832,-1690.5 556,-1690.5"/>
<text text-anchor="start" x="563" y="-1701.9" font-family="Arial" font-size="14.00" fill="#000000">flavor_id </text>
<text text-anchor="start" x="619.7854" y="-1701.9" font-family="Arial" font-size="14.00" fill="#666666">[bigint]</text>
<polygon fill="none" stroke="#000000" points="556,-1660.5 556,-1690.5 832,-1690.5 832,-1660.5 556,-1660.5"/>
<text text-anchor="start" x="563" y="-1671.9" font-family="Arial" font-size="14.00" fill="#000000">created_at </text>
<text text-anchor="start" x="633.028" y="-1671.9" font-family="Arial" font-size="14.00" fill="#666666">[timestamp without time zone]</text>
<polygon fill="none" stroke="#000000" points="556,-1630.5 556,-1660.5 832,-1660.5 832,-1630.5 556,-1630.5"/>
<text text-anchor="start" x="563" y="-1641.9" font-family="Arial" font-size="14.00" fill="#000000">updated_at </text>
<text text-anchor="start" x="636.9326" y="-1641.9" font-family="Arial" font-size="14.00" fill="#666666">[timestamp without time zone]</text>
</g>
<!-- public.student_flavor&#45;&gt;public.teams -->
<g id="edge6" class="edge">
<title>public.student_flavor:team_id&#45;&gt;public.teams:id</title>
<path fill="none" stroke="#000000" d="M842.302,-1764.8087C906.8516,-1755.5379 865.975,-1655.0774 832,-1588 773.9593,-1473.4093 657.0407,-1531.5907 599,-1417 580.2231,-1379.9285 557.4444,-1323.5 599,-1323.5"/>
<polygon fill="#000000" stroke="#000000" points="841.9776,-1764.8304 831.6987,-1761.0101 836.9888,-1765.1652 832,-1765.5 832,-1765.5 832,-1765.5 836.9888,-1765.1652 832.3013,-1769.9899 841.9776,-1764.8304 841.9776,-1764.8304"/>
<text text-anchor="start" x="838.5555" y="-1775.5" font-family="Arial" font-size="10.00" fill="#000000">FOREIGN KEY (team_id) REFERENCES teams(id)</text>
</g>
<!-- public.student_flavor&#45;&gt;public.flavors -->
<g id="edge7" class="edge">
<title>public.student_flavor:flavor_id&#45;&gt;public.flavors:id</title>
<path fill="none" stroke="#000000" d="M842.0878,-1704.9968C909.2185,-1697.9288 886.0081,-1617.7814 924,-1552 947.781,-1510.8241 928.4502,-1458.5 976,-1458.5"/>
<polygon fill="#000000" stroke="#000000" points="841.9876,-1705.0017 831.7758,-1701.0056 836.9938,-1705.2508 832,-1705.5 832,-1705.5 832,-1705.5 836.9938,-1705.2508 832.2242,-1709.9944 841.9876,-1705.0017 841.9876,-1705.0017"/>
<text text-anchor="start" x="839.3365" y="-1715.5" font-family="Arial" font-size="10.00" fill="#000000">FOREIGN KEY (flavor_id) REFERENCES flavors(id)</text>
</g>
<!-- public.student_flavor&#45;&gt;public.students -->
<g id="edge8" class="edge">
<title>public.student_flavor:student_id&#45;&gt;public.students:id</title>
<path fill="none" stroke="#000000" d="M545.9674,-1733.2522C485.3891,-1703.2734 570.6668,-1383.5 495,-1383.5"/>
<polygon fill="#000000" stroke="#000000" points="546.2419,-1733.3136 555.0161,-1739.8911 551.121,-1734.4068 556,-1735.5 556,-1735.5 556,-1735.5 551.121,-1734.4068 556.9839,-1731.1089 546.2419,-1733.3136 546.2419,-1733.3136"/>
<text text-anchor="start" x="298.9875" y="-1745.5" font-family="Arial" font-size="10.00" fill="#000000">FOREIGN KEY (student_id) REFERENCES students(id)</text>
</g>
<!-- public.dislikes -->
<g id="node10" class="node">
<title>public.dislikes</title>
<polygon fill="#efefef" stroke="transparent" points="457,-2072.5 457,-2107.5 679,-2107.5 679,-2072.5 457,-2072.5"/>
<polygon fill="none" stroke="#000000" points="457,-2072.5 457,-2107.5 679,-2107.5 679,-2072.5 457,-2072.5"/>
<text text-anchor="start" x="463.871" y="-2085.3" font-family="Arial Bold" font-size="18.00" fill="#000000">public.dislikes</text>
<text text-anchor="start" x="574.8752" y="-2085.3" font-family="Arial" font-size="14.00" fill="#000000"> </text>
<text text-anchor="start" x="578.7658" y="-2085.3" font-family="Arial" font-size="14.00" fill="#666666">[BASE TABLE]</text>
<polygon fill="none" stroke="#000000" points="457,-2042.5 457,-2072.5 679,-2072.5 679,-2042.5 457,-2042.5"/>
<text text-anchor="start" x="464" y="-2053.9" font-family="Arial" font-size="14.00" fill="#000000">id </text>
<text text-anchor="start" x="478.7798" y="-2053.9" font-family="Arial" font-size="14.00" fill="#666666">[integer]</text>
<polygon fill="none" stroke="#000000" points="457,-2012.5 457,-2042.5 679,-2042.5 679,-2012.5 457,-2012.5"/>
<text text-anchor="start" x="464" y="-2023.9" font-family="Arial" font-size="14.00" fill="#000000">student_flavor_id </text>
<text text-anchor="start" x="574.4796" y="-2023.9" font-family="Arial" font-size="14.00" fill="#666666">[bigint]</text>
<polygon fill="none" stroke="#000000" points="457,-1982.5 457,-2012.5 679,-2012.5 679,-1982.5 457,-1982.5"/>
<text text-anchor="start" x="464" y="-1993.9" font-family="Arial" font-size="14.00" fill="#000000">student_id </text>
<text text-anchor="start" x="532.474" y="-1993.9" font-family="Arial" font-size="14.00" fill="#666666">[bigint]</text>
</g>
<!-- public.dislikes&#45;&gt;public.students -->
<g id="edge9" class="edge">
<title>public.dislikes:student_id&#45;&gt;public.students:id</title>
<path fill="none" stroke="#000000" d="M448.1429,-1992.5576C406.3973,-1934.4497 559.7482,-1383.5 495,-1383.5"/>
<polygon fill="#000000" stroke="#000000" points="448.2675,-1992.6272 454.8072,-2001.4296 452.6338,-1995.0636 457,-1997.5 457,-1997.5 457,-1997.5 452.6338,-1995.0636 459.1928,-1993.5704 448.2675,-1992.6272 448.2675,-1992.6272"/>
<text text-anchor="start" x="463.9875" y="-2007.5" font-family="Arial" font-size="10.00" fill="#000000">FOREIGN KEY (student_id) REFERENCES students(id)</text>
</g>
<!-- public.dislikes&#45;&gt;public.student_flavor -->
<g id="edge10" class="edge">
<title>public.dislikes:student_flavor_id&#45;&gt;public.student_flavor:id</title>
<path fill="none" stroke="#000000" d="M689.1649,-2025.8747C714.3326,-2016.5308 698.406,-1969.0544 679,-1940 646.1304,-1890.7881 588.8696,-1938.2119 556,-1889 532.9192,-1854.4437 514.4444,-1795.5 556,-1795.5"/>
<polygon fill="#000000" stroke="#000000" points="688.8746,-2025.9211 678.2895,-2023.0564 683.9373,-2026.7105 679,-2027.5 679,-2027.5 679,-2027.5 683.9373,-2026.7105 679.7105,-2031.9436 688.8746,-2025.9211 688.8746,-2025.9211"/>
<text text-anchor="start" x="686.4835" y="-2037.5" font-family="Arial" font-size="10.00" fill="#000000">FOREIGN KEY (student_flavor_id) REFERENCES student_flavor(id)</text>
</g>
</g>
</svg>
