<?xml version="1.0" encoding="UTF-8" standalone="no"?>
<!DOCTYPE svg PUBLIC "-//W3C//DTD SVG 1.1//EN"
 "http://www.w3.org/Graphics/SVG/1.1/DTD/svg11.dtd">
<!-- Generated by graphviz version 2.40.1 (20161225.0304)
 -->
<!-- Title: db Pages: 1 -->
<svg width="1202pt" height="2781pt"
 viewBox="0.00 0.00 1202.00 2781.00" xmlns="http://www.w3.org/2000/svg" xmlns:xlink="http://www.w3.org/1999/xlink">
<g id="graph0" class="graph" transform="scale(1 1) rotate(0) translate(4 2777)">
<title>db</title>
<polygon fill="#ffffff" stroke="transparent" points="-4,4 -4,-2777 1198,-2777 1198,4 -4,4"/>
<!-- public.goose_db_version -->
<g id="node1" class="node">
<title>public.goose_db_version</title>
<polygon fill="#efefef" stroke="transparent" points="43,-2679.5 43,-2714.5 383,-2714.5 383,-2679.5 43,-2679.5"/>
<polygon fill="none" stroke="#000000" points="43,-2679.5 43,-2714.5 383,-2714.5 383,-2679.5 43,-2679.5"/>
<text text-anchor="start" x="49.6841" y="-2692.3" font-family="Arial Bold" font-size="18.00" fill="#000000">public.goose_db_version</text>
<text text-anchor="start" x="248.7479" y="-2692.3" font-family="Arial" font-size="14.00" fill="#000000">    </text>
<text text-anchor="start" x="282.9527" y="-2692.3" font-family="Arial" font-size="14.00" fill="#666666">[BASE TABLE]</text>
<polygon fill="none" stroke="#000000" points="43,-2649.5 43,-2679.5 383,-2679.5 383,-2649.5 43,-2649.5"/>
<text text-anchor="start" x="50" y="-2660.9" font-family="Arial" font-size="14.00" fill="#000000">id    </text>
<text text-anchor="start" x="95.094" y="-2660.9" font-family="Arial" font-size="14.00" fill="#666666">[integer]</text>
<polygon fill="none" stroke="#000000" points="43,-2619.5 43,-2649.5 383,-2649.5 383,-2619.5 43,-2619.5"/>
<text text-anchor="start" x="50" y="-2630.9" font-family="Arial" font-size="14.00" fill="#000000">version_id    </text>
<text text-anchor="start" x="147.9916" y="-2630.9" font-family="Arial" font-size="14.00" fill="#666666">[bigint]</text>
<polygon fill="none" stroke="#000000" points="43,-2589.5 43,-2619.5 383,-2619.5 383,-2589.5 43,-2589.5"/>
<text text-anchor="start" x="50" y="-2600.9" font-family="Arial" font-size="14.00" fill="#000000">is_applied    </text>
<text text-anchor="start" x="147.2202" y="-2600.9" font-family="Arial" font-size="14.00" fill="#666666">[boolean]</text>
<polygon fill="none" stroke="#000000" points="43,-2559.5 43,-2589.5 383,-2589.5 383,-2559.5 43,-2559.5"/>
<text text-anchor="start" x="50" y="-2570.9" font-family="Arial" font-size="14.00" fill="#000000">tstamp    </text>
<text text-anchor="start" x="126.2118" y="-2570.9" font-family="Arial" font-size="14.00" fill="#666666">[timestamp without time zone]</text>
</g>
<!-- public.schools -->
<g id="node2" class="node">
<title>public.schools</title>
<polygon fill="#efefef" stroke="transparent" points="497,-282.5 497,-317.5 800,-317.5 800,-282.5 497,-282.5"/>
<polygon fill="none" stroke="#000000" points="497,-282.5 497,-317.5 800,-317.5 800,-282.5 497,-282.5"/>
<text text-anchor="start" x="528.205" y="-295.3" font-family="Arial Bold" font-size="18.00" fill="#000000">public.schools</text>
<text text-anchor="start" x="641.227" y="-295.3" font-family="Arial" font-size="14.00" fill="#000000">    </text>
<text text-anchor="start" x="675.4318" y="-295.3" font-family="Arial" font-size="14.00" fill="#666666">[BASE TABLE]</text>
<polygon fill="none" stroke="#000000" points="497,-252.5 497,-282.5 800,-282.5 800,-252.5 497,-252.5"/>
<text text-anchor="start" x="504" y="-263.9" font-family="Arial" font-size="14.00" fill="#000000">id    </text>
<text text-anchor="start" x="549.094" y="-263.9" font-family="Arial" font-size="14.00" fill="#666666">[bigint]</text>
<polygon fill="none" stroke="#000000" points="497,-222.5 497,-252.5 800,-252.5 800,-222.5 497,-222.5"/>
<text text-anchor="start" x="504" y="-233.9" font-family="Arial" font-size="14.00" fill="#000000">name    </text>
<text text-anchor="start" x="573.2132" y="-233.9" font-family="Arial" font-size="14.00" fill="#666666">[varchar(255)]</text>
<polygon fill="none" stroke="#000000" points="497,-192.5 497,-222.5 800,-222.5 800,-192.5 497,-192.5"/>
<text text-anchor="start" x="504" y="-203.9" font-family="Arial" font-size="14.00" fill="#000000">postal_code    </text>
<text text-anchor="start" x="613.6802" y="-203.9" font-family="Arial" font-size="14.00" fill="#666666">[varchar(255)]</text>
<polygon fill="none" stroke="#000000" points="497,-162.5 497,-192.5 800,-192.5 800,-162.5 497,-162.5"/>
<text text-anchor="start" x="504" y="-173.9" font-family="Arial" font-size="14.00" fill="#000000">prefecture    </text>
<text text-anchor="start" x="601.2202" y="-173.9" font-family="Arial" font-size="14.00" fill="#666666">[varchar(255)]</text>
<polygon fill="none" stroke="#000000" points="497,-132.5 497,-162.5 800,-162.5 800,-132.5 497,-132.5"/>
<text text-anchor="start" x="504" y="-143.9" font-family="Arial" font-size="14.00" fill="#000000">city    </text>
<text text-anchor="start" x="559.202" y="-143.9" font-family="Arial" font-size="14.00" fill="#666666">[varchar(255)]</text>
<polygon fill="none" stroke="#000000" points="497,-102.5 497,-132.5 800,-132.5 800,-102.5 497,-102.5"/>
<text text-anchor="start" x="504" y="-113.9" font-family="Arial" font-size="14.00" fill="#000000">address    </text>
<text text-anchor="start" x="587.9958" y="-113.9" font-family="Arial" font-size="14.00" fill="#666666">[varchar(255)]</text>
<polygon fill="none" stroke="#000000" points="497,-72.5 497,-102.5 800,-102.5 800,-72.5 497,-72.5"/>
<text text-anchor="start" x="504" y="-83.9" font-family="Arial" font-size="14.00" fill="#000000">created_at    </text>
<text text-anchor="start" x="604.3422" y="-83.9" font-family="Arial" font-size="14.00" fill="#666666">[timestamp without time zone]</text>
<polygon fill="none" stroke="#000000" points="497,-42.5 497,-72.5 800,-72.5 800,-42.5 497,-42.5"/>
<text text-anchor="start" x="503.8065" y="-53.9" font-family="Arial" font-size="14.00" fill="#000000">updated_at    </text>
<text text-anchor="start" x="608.0533" y="-53.9" font-family="Arial" font-size="14.00" fill="#666666">[timestamp without time zone]</text>
</g>
<!-- public.teachers -->
<g id="node3" class="node">
<title>public.teachers</title>
<polygon fill="#efefef" stroke="transparent" points="497,-739.5 497,-774.5 800,-774.5 800,-739.5 497,-739.5"/>
<polygon fill="none" stroke="#000000" points="497,-739.5 497,-774.5 800,-774.5 800,-739.5 497,-739.5"/>
<text text-anchor="start" x="524.2018" y="-752.3" font-family="Arial Bold" font-size="18.00" fill="#000000">public.teachers</text>
<text text-anchor="start" x="645.2302" y="-752.3" font-family="Arial" font-size="14.00" fill="#000000">    </text>
<text text-anchor="start" x="679.435" y="-752.3" font-family="Arial" font-size="14.00" fill="#666666">[BASE TABLE]</text>
<polygon fill="none" stroke="#000000" points="497,-709.5 497,-739.5 800,-739.5 800,-709.5 497,-709.5"/>
<text text-anchor="start" x="504" y="-720.9" font-family="Arial" font-size="14.00" fill="#000000">id    </text>
<text text-anchor="start" x="549.094" y="-720.9" font-family="Arial" font-size="14.00" fill="#666666">[bigint]</text>
<polygon fill="none" stroke="#000000" points="497,-679.5 497,-709.5 800,-709.5 800,-679.5 497,-679.5"/>
<text text-anchor="start" x="504" y="-690.9" font-family="Arial" font-size="14.00" fill="#000000">name    </text>
<text text-anchor="start" x="573.2132" y="-690.9" font-family="Arial" font-size="14.00" fill="#666666">[varchar(255)]</text>
<polygon fill="none" stroke="#000000" points="497,-649.5 497,-679.5 800,-679.5 800,-649.5 497,-649.5"/>
<text text-anchor="start" x="504" y="-660.9" font-family="Arial" font-size="14.00" fill="#000000">family_name    </text>
<text text-anchor="start" x="617.5428" y="-660.9" font-family="Arial" font-size="14.00" fill="#666666">[varchar(255)]</text>
<polygon fill="none" stroke="#000000" points="497,-619.5 497,-649.5 800,-649.5 800,-619.5 497,-619.5"/>
<text text-anchor="start" x="504" y="-630.9" font-family="Arial" font-size="14.00" fill="#000000">given_name    </text>
<text text-anchor="start" x="614.4502" y="-630.9" font-family="Arial" font-size="14.00" fill="#666666">[varchar(255)]</text>
<polygon fill="none" stroke="#000000" points="497,-589.5 497,-619.5 800,-619.5 800,-589.5 497,-589.5"/>
<text text-anchor="start" x="504" y="-600.9" font-family="Arial" font-size="14.00" fill="#000000">school_id    </text>
<text text-anchor="start" x="597.331" y="-600.9" font-family="Arial" font-size="14.00" fill="#666666">[bigint]</text>
<polygon fill="none" stroke="#000000" points="497,-559.5 497,-589.5 800,-589.5 800,-559.5 497,-559.5"/>
<text text-anchor="start" x="504" y="-570.9" font-family="Arial" font-size="14.00" fill="#000000">email    </text>
<text text-anchor="start" x="571.6438" y="-570.9" font-family="Arial" font-size="14.00" fill="#666666">[varchar(255)]</text>
<polygon fill="none" stroke="#000000" points="497,-529.5 497,-559.5 800,-559.5 800,-529.5 497,-529.5"/>
<text text-anchor="start" x="504" y="-540.9" font-family="Arial" font-size="14.00" fill="#000000">status    </text>
<text text-anchor="start" x="575.5512" y="-540.9" font-family="Arial" font-size="14.00" fill="#666666">[integer]</text>
<polygon fill="none" stroke="#000000" points="497,-499.5 497,-529.5 800,-529.5 800,-499.5 497,-499.5"/>
<text text-anchor="start" x="504" y="-510.9" font-family="Arial" font-size="14.00" fill="#000000">created_at    </text>
<text text-anchor="start" x="604.3422" y="-510.9" font-family="Arial" font-size="14.00" fill="#666666">[timestamp without time zone]</text>
<polygon fill="none" stroke="#000000" points="497,-469.5 497,-499.5 800,-499.5 800,-469.5 497,-469.5"/>
<text text-anchor="start" x="503.8065" y="-480.9" font-family="Arial" font-size="14.00" fill="#000000">updated_at    </text>
<text text-anchor="start" x="608.0533" y="-480.9" font-family="Arial" font-size="14.00" fill="#666666">[timestamp without time zone]</text>
<polygon fill="none" stroke="#000000" points="497,-439.5 497,-469.5 800,-469.5 800,-439.5 497,-439.5"/>
<text text-anchor="start" x="504" y="-450.9" font-family="Arial" font-size="14.00" fill="#000000">expired_at    </text>
<text text-anchor="start" x="603.5582" y="-450.9" font-family="Arial" font-size="14.00" fill="#666666">[timestamp without time zone]</text>
</g>
<!-- public.teachers&#45;&gt;public.schools -->
<g id="edge1" class="edge">
<title>public.teachers:school_id&#45;&gt;public.schools:id</title>
<path fill="none" stroke="#000000" d="M486.7156,-603.9533C347.3045,-588.8882 350.7326,-267.5 497,-267.5"/>
<polygon fill="#000000" stroke="#000000" points="487.0141,-603.9691 496.7611,-608.9937 492.007,-604.2345 497,-604.5 497,-604.5 497,-604.5 492.007,-604.2345 497.2389,-600.0063 487.0141,-603.9691 487.0141,-603.9691"/>
<text text-anchor="start" x="247.8855" y="-614.5" font-family="Arial" font-size="10.00" fill="#000000">FOREIGN KEY (school_id) REFERENCES schools(id)</text>
</g>
<!-- public.classes -->
<g id="node4" class="node">
<title>public.classes</title>
<polygon fill="#efefef" stroke="transparent" points="497,-1046.5 497,-1081.5 800,-1081.5 800,-1046.5 497,-1046.5"/>
<polygon fill="none" stroke="#000000" points="497,-1046.5 497,-1081.5 800,-1081.5 800,-1046.5 497,-1046.5"/>
<text text-anchor="start" x="528.7081" y="-1059.3" font-family="Arial Bold" font-size="18.00" fill="#000000">public.classes</text>
<text text-anchor="start" x="640.7239" y="-1059.3" font-family="Arial" font-size="14.00" fill="#000000">    </text>
<text text-anchor="start" x="674.9287" y="-1059.3" font-family="Arial" font-size="14.00" fill="#666666">[BASE TABLE]</text>
<polygon fill="none" stroke="#000000" points="497,-1016.5 497,-1046.5 800,-1046.5 800,-1016.5 497,-1016.5"/>
<text text-anchor="start" x="504" y="-1027.9" font-family="Arial" font-size="14.00" fill="#000000">id    </text>
<text text-anchor="start" x="549.094" y="-1027.9" font-family="Arial" font-size="14.00" fill="#666666">[bigint]</text>
<polygon fill="none" stroke="#000000" points="497,-986.5 497,-1016.5 800,-1016.5 800,-986.5 497,-986.5"/>
<text text-anchor="start" x="504" y="-997.9" font-family="Arial" font-size="14.00" fill="#000000">name    </text>
<text text-anchor="start" x="573.2132" y="-997.9" font-family="Arial" font-size="14.00" fill="#666666">[varchar(255)]</text>
<polygon fill="none" stroke="#000000" points="497,-956.5 497,-986.5 800,-986.5 800,-956.5 497,-956.5"/>
<text text-anchor="start" x="504" y="-967.9" font-family="Arial" font-size="14.00" fill="#000000">teacher_id    </text>
<text text-anchor="start" x="603.5582" y="-967.9" font-family="Arial" font-size="14.00" fill="#666666">[bigint]</text>
<polygon fill="none" stroke="#000000" points="497,-926.5 497,-956.5 800,-956.5 800,-926.5 497,-926.5"/>
<text text-anchor="start" x="504" y="-937.9" font-family="Arial" font-size="14.00" fill="#000000">created_at    </text>
<text text-anchor="start" x="604.3422" y="-937.9" font-family="Arial" font-size="14.00" fill="#666666">[timestamp without time zone]</text>
<polygon fill="none" stroke="#000000" points="497,-896.5 497,-926.5 800,-926.5 800,-896.5 497,-896.5"/>
<text text-anchor="start" x="503.8065" y="-907.9" font-family="Arial" font-size="14.00" fill="#000000">updated_at    </text>
<text text-anchor="start" x="608.0533" y="-907.9" font-family="Arial" font-size="14.00" fill="#666666">[timestamp without time zone]</text>
</g>
<!-- public.classes&#45;&gt;public.teachers -->
<g id="edge2" class="edge">
<title>public.classes:teacher_id&#45;&gt;public.teachers:id</title>
<path fill="none" stroke="#000000" d="M486.7287,-970.747C387.3362,-955.8366 390.76,-724.5 497,-724.5"/>
<polygon fill="#000000" stroke="#000000" points="487.0268,-970.7687 496.6709,-975.988 492.0134,-971.1344 497,-971.5 497,-971.5 497,-971.5 492.0134,-971.1344 497.3291,-967.012 487.0268,-970.7687 487.0268,-970.7687"/>
<text text-anchor="start" x="239.4375" y="-981.5" font-family="Arial" font-size="10.00" fill="#000000">FOREIGN KEY (teacher_id) REFERENCES teachers(id)</text>
</g>
<!-- public.students -->
<g id="node5" class="node">
<title>public.students</title>
<polygon fill="#efefef" stroke="transparent" points="385,-1750.5 385,-1785.5 688,-1785.5 688,-1750.5 385,-1750.5"/>
<polygon fill="none" stroke="#000000" points="385,-1750.5 385,-1785.5 688,-1785.5 688,-1750.5 385,-1750.5"/>
<text text-anchor="start" x="412.6968" y="-1763.3" font-family="Arial Bold" font-size="18.00" fill="#000000">public.students</text>
<text text-anchor="start" x="532.7352" y="-1763.3" font-family="Arial" font-size="14.00" fill="#000000">    </text>
<text text-anchor="start" x="566.94" y="-1763.3" font-family="Arial" font-size="14.00" fill="#666666">[BASE TABLE]</text>
<polygon fill="none" stroke="#000000" points="385,-1720.5 385,-1750.5 688,-1750.5 688,-1720.5 385,-1720.5"/>
<text text-anchor="start" x="392" y="-1731.9" font-family="Arial" font-size="14.00" fill="#000000">id    </text>
<text text-anchor="start" x="437.094" y="-1731.9" font-family="Arial" font-size="14.00" fill="#666666">[bigint]</text>
<polygon fill="none" stroke="#000000" points="385,-1690.5 385,-1720.5 688,-1720.5 688,-1690.5 385,-1690.5"/>
<text text-anchor="start" x="392" y="-1701.9" font-family="Arial" font-size="14.00" fill="#000000">name    </text>
<text text-anchor="start" x="461.2132" y="-1701.9" font-family="Arial" font-size="14.00" fill="#666666">[varchar(255)]</text>
<polygon fill="none" stroke="#000000" points="385,-1660.5 385,-1690.5 688,-1690.5 688,-1660.5 385,-1660.5"/>
<text text-anchor="start" x="392" y="-1671.9" font-family="Arial" font-size="14.00" fill="#000000">sex    </text>
<text text-anchor="start" x="447.9874" y="-1671.9" font-family="Arial" font-size="14.00" fill="#666666">[integer]</text>
<polygon fill="none" stroke="#000000" points="385,-1630.5 385,-1660.5 688,-1660.5 688,-1630.5 385,-1630.5"/>
<text text-anchor="start" x="392" y="-1641.9" font-family="Arial" font-size="14.00" fill="#000000">memo    </text>
<text text-anchor="start" x="465.0912" y="-1641.9" font-family="Arial" font-size="14.00" fill="#666666">[text]</text>
<polygon fill="none" stroke="#000000" points="385,-1600.5 385,-1630.5 688,-1630.5 688,-1600.5 385,-1600.5"/>
<text text-anchor="start" x="392" y="-1611.9" font-family="Arial" font-size="14.00" fill="#000000">class_id    </text>
<text text-anchor="start" x="476.7658" y="-1611.9" font-family="Arial" font-size="14.00" fill="#666666">[bigint]</text>
<polygon fill="none" stroke="#000000" points="385,-1570.5 385,-1600.5 688,-1600.5 688,-1570.5 385,-1570.5"/>
<text text-anchor="start" x="392" y="-1581.9" font-family="Arial" font-size="14.00" fill="#000000">created_at    </text>
<text text-anchor="start" x="492.3422" y="-1581.9" font-family="Arial" font-size="14.00" fill="#666666">[timestamp without time zone]</text>
<polygon fill="none" stroke="#000000" points="385,-1540.5 385,-1570.5 688,-1570.5 688,-1540.5 385,-1540.5"/>
<text text-anchor="start" x="391.8065" y="-1551.9" font-family="Arial" font-size="14.00" fill="#000000">updated_at    </text>
<text text-anchor="start" x="496.0533" y="-1551.9" font-family="Arial" font-size="14.00" fill="#666666">[timestamp without time zone]</text>
</g>
<!-- public.students&#45;&gt;public.classes -->
<g id="edge3" class="edge">
<title>public.students:class_id&#45;&gt;public.classes:id</title>
<path fill="none" stroke="#000000" d="M697.9581,-1614.4112C737.2808,-1604.9832 717.4698,-1536.5833 688,-1498 651.0891,-1449.6744 596.955,-1506.9496 556,-1462 425.9328,-1319.2465 303.8781,-1031.5 497,-1031.5"/>
<polygon fill="#000000" stroke="#000000" points="697.9408,-1614.413 687.5109,-1611.0267 692.9704,-1614.9565 688,-1615.5 688,-1615.5 688,-1615.5 692.9704,-1614.9565 688.4891,-1619.9733 697.9408,-1614.413 697.9408,-1614.413"/>
<text text-anchor="start" x="695.224" y="-1625.5" font-family="Arial" font-size="10.00" fill="#000000">FOREIGN KEY (class_id) REFERENCES classes(id)</text>
</g>
<!-- public.surveys -->
<g id="node6" class="node">
<title>public.surveys</title>
<polygon fill="#efefef" stroke="transparent" points="609,-1383.5 609,-1418.5 912,-1418.5 912,-1383.5 609,-1383.5"/>
<polygon fill="none" stroke="#000000" points="609,-1383.5 609,-1418.5 912,-1418.5 912,-1383.5 609,-1383.5"/>
<text text-anchor="start" x="639.7091" y="-1396.3" font-family="Arial Bold" font-size="18.00" fill="#000000">public.surveys</text>
<text text-anchor="start" x="753.7229" y="-1396.3" font-family="Arial" font-size="14.00" fill="#000000">    </text>
<text text-anchor="start" x="787.9277" y="-1396.3" font-family="Arial" font-size="14.00" fill="#666666">[BASE TABLE]</text>
<polygon fill="none" stroke="#000000" points="609,-1353.5 609,-1383.5 912,-1383.5 912,-1353.5 609,-1353.5"/>
<text text-anchor="start" x="616" y="-1364.9" font-family="Arial" font-size="14.00" fill="#000000">id    </text>
<text text-anchor="start" x="661.094" y="-1364.9" font-family="Arial" font-size="14.00" fill="#666666">[bigint]</text>
<polygon fill="none" stroke="#000000" points="609,-1323.5 609,-1353.5 912,-1353.5 912,-1323.5 609,-1323.5"/>
<text text-anchor="start" x="616" y="-1334.9" font-family="Arial" font-size="14.00" fill="#000000">name    </text>
<text text-anchor="start" x="685.2132" y="-1334.9" font-family="Arial" font-size="14.00" fill="#666666">[varchar(255)]</text>
<polygon fill="none" stroke="#000000" points="609,-1293.5 609,-1323.5 912,-1323.5 912,-1293.5 609,-1293.5"/>
<text text-anchor="start" x="616" y="-1304.9" font-family="Arial" font-size="14.00" fill="#000000">status    </text>
<text text-anchor="start" x="687.5512" y="-1304.9" font-family="Arial" font-size="14.00" fill="#666666">[integer]</text>
<polygon fill="none" stroke="#000000" points="609,-1263.5 609,-1293.5 912,-1293.5 912,-1263.5 609,-1263.5"/>
<text text-anchor="start" x="616" y="-1274.9" font-family="Arial" font-size="14.00" fill="#000000">class_id    </text>
<text text-anchor="start" x="700.7658" y="-1274.9" font-family="Arial" font-size="14.00" fill="#666666">[bigint]</text>
<polygon fill="none" stroke="#000000" points="609,-1233.5 609,-1263.5 912,-1263.5 912,-1233.5 609,-1233.5"/>
<text text-anchor="start" x="616" y="-1244.9" font-family="Arial" font-size="14.00" fill="#000000">created_at    </text>
<text text-anchor="start" x="716.3422" y="-1244.9" font-family="Arial" font-size="14.00" fill="#666666">[timestamp without time zone]</text>
<polygon fill="none" stroke="#000000" points="609,-1203.5 609,-1233.5 912,-1233.5 912,-1203.5 609,-1203.5"/>
<text text-anchor="start" x="615.8065" y="-1214.9" font-family="Arial" font-size="14.00" fill="#000000">updated_at    </text>
<text text-anchor="start" x="720.0533" y="-1214.9" font-family="Arial" font-size="14.00" fill="#666666">[timestamp without time zone]</text>
</g>
<!-- public.surveys&#45;&gt;public.classes -->
<g id="edge4" class="edge">
<title>public.surveys:class_id&#45;&gt;public.classes:id</title>
<path fill="none" stroke="#000000" d="M599.0194,-1277.3933C559.5056,-1267.8133 578.0117,-1198.3746 609,-1161 664.1361,-1094.5009 744.8639,-1191.4991 800,-1125 826.5237,-1093.01 841.5556,-1031.5 800,-1031.5"/>
<polygon fill="#000000" stroke="#000000" points="599.0609,-1277.3978 608.504,-1282.9726 604.0305,-1277.9489 609,-1278.5 609,-1278.5 609,-1278.5 604.0305,-1277.9489 609.496,-1274.0274 599.0609,-1277.3978 599.0609,-1277.3978"/>
<text text-anchor="start" x="367.224" y="-1288.5" font-family="Arial" font-size="10.00" fill="#000000">FOREIGN KEY (class_id) REFERENCES classes(id)</text>
</g>
<!-- public.teams -->
<g id="node7" class="node">
<title>public.teams</title>
<polygon fill="#efefef" stroke="transparent" points="832,-1735.5 832,-1770.5 1135,-1770.5 1135,-1735.5 832,-1735.5"/>
<polygon fill="none" stroke="#000000" points="832,-1735.5 832,-1770.5 1135,-1770.5 1135,-1735.5 832,-1735.5"/>
<text text-anchor="start" x="869.208" y="-1748.3" font-family="Arial Bold" font-size="18.00" fill="#000000">public.teams</text>
<text text-anchor="start" x="970.224" y="-1748.3" font-family="Arial" font-size="14.00" fill="#000000">    </text>
<text text-anchor="start" x="1004.4288" y="-1748.3" font-family="Arial" font-size="14.00" fill="#666666">[BASE TABLE]</text>
<polygon fill="none" stroke="#000000" points="832,-1705.5 832,-1735.5 1135,-1735.5 1135,-1705.5 832,-1705.5"/>
<text text-anchor="start" x="839" y="-1716.9" font-family="Arial" font-size="14.00" fill="#000000">id    </text>
<text text-anchor="start" x="884.094" y="-1716.9" font-family="Arial" font-size="14.00" fill="#666666">[bigint]</text>
<polygon fill="none" stroke="#000000" points="832,-1675.5 832,-1705.5 1135,-1705.5 1135,-1675.5 832,-1675.5"/>
<text text-anchor="start" x="839" y="-1686.9" font-family="Arial" font-size="14.00" fill="#000000">team_id    </text>
<text text-anchor="start" x="922.993" y="-1686.9" font-family="Arial" font-size="14.00" fill="#666666">[bigint]</text>
<polygon fill="none" stroke="#000000" points="832,-1645.5 832,-1675.5 1135,-1675.5 1135,-1645.5 832,-1645.5"/>
<text text-anchor="start" x="839" y="-1656.9" font-family="Arial" font-size="14.00" fill="#000000">name    </text>
<text text-anchor="start" x="908.2132" y="-1656.9" font-family="Arial" font-size="14.00" fill="#666666">[varchar(255)]</text>
<polygon fill="none" stroke="#000000" points="832,-1615.5 832,-1645.5 1135,-1645.5 1135,-1615.5 832,-1615.5"/>
<text text-anchor="start" x="839" y="-1626.9" font-family="Arial" font-size="14.00" fill="#000000">survey_id    </text>
<text text-anchor="start" x="933.1024" y="-1626.9" font-family="Arial" font-size="14.00" fill="#666666">[bigint]</text>
<polygon fill="none" stroke="#000000" points="832,-1585.5 832,-1615.5 1135,-1615.5 1135,-1585.5 832,-1585.5"/>
<text text-anchor="start" x="839" y="-1596.9" font-family="Arial" font-size="14.00" fill="#000000">created_at    </text>
<text text-anchor="start" x="939.3422" y="-1596.9" font-family="Arial" font-size="14.00" fill="#666666">[timestamp without time zone]</text>
<polygon fill="none" stroke="#000000" points="832,-1555.5 832,-1585.5 1135,-1585.5 1135,-1555.5 832,-1555.5"/>
<text text-anchor="start" x="838.8065" y="-1566.9" font-family="Arial" font-size="14.00" fill="#000000">updated_at    </text>
<text text-anchor="start" x="943.0533" y="-1566.9" font-family="Arial" font-size="14.00" fill="#666666">[timestamp without time zone]</text>
</g>
<!-- public.teams&#45;&gt;public.surveys -->
<g id="edge5" class="edge">
<title>public.teams:survey_id&#45;&gt;public.surveys:id</title>
<path fill="none" stroke="#000000" d="M821.6501,-1629.3549C783.791,-1619.9981 808.7524,-1555.3901 832,-1513 852.2757,-1476.0288 891.7243,-1498.9712 912,-1462 931.9822,-1425.5641 953.5556,-1368.5 912,-1368.5"/>
<polygon fill="#000000" stroke="#000000" points="822.0607,-1629.4002 831.5051,-1634.9727 827.0303,-1629.9501 832,-1630.5 832,-1630.5 832,-1630.5 827.0303,-1629.9501 832.4949,-1626.0273 822.0607,-1629.4002 822.0607,-1629.4002"/>
<text text-anchor="start" x="839.3345" y="-1640.5" font-family="Arial" font-size="10.00" fill="#000000">FOREIGN KEY (survey_id) REFERENCES surveys(id)</text>
</g>
<!-- public.student_preferences -->
<g id="node8" class="node">
<title>public.student_preferences</title>
<polygon fill="#efefef" stroke="transparent" points="595,-2387.5 595,-2422.5 952,-2422.5 952,-2387.5 595,-2387.5"/>
<polygon fill="none" stroke="#000000" points="595,-2387.5 595,-2422.5 952,-2422.5 952,-2387.5 595,-2387.5"/>
<text text-anchor="start" x="601.6818" y="-2400.3" font-family="Arial Bold" font-size="18.00" fill="#000000">public.student_preferences</text>
<text text-anchor="start" x="817.7502" y="-2400.3" font-family="Arial" font-size="14.00" fill="#000000">    </text>
<text text-anchor="start" x="851.955" y="-2400.3" font-family="Arial" font-size="14.00" fill="#666666">[BASE TABLE]</text>
<polygon fill="none" stroke="#000000" points="595,-2357.5 595,-2387.5 952,-2387.5 952,-2357.5 595,-2357.5"/>
<text text-anchor="start" x="602" y="-2368.9" font-family="Arial" font-size="14.00" fill="#000000">id    </text>
<text text-anchor="start" x="647.094" y="-2368.9" font-family="Arial" font-size="14.00" fill="#666666">[bigint]</text>
<polygon fill="none" stroke="#000000" points="595,-2327.5 595,-2357.5 952,-2357.5 952,-2327.5 595,-2327.5"/>
<text text-anchor="start" x="602" y="-2338.9" font-family="Arial" font-size="14.00" fill="#000000">student_id    </text>
<text text-anchor="start" x="700.7882" y="-2338.9" font-family="Arial" font-size="14.00" fill="#666666">[bigint]</text>
<polygon fill="none" stroke="#000000" points="595,-2297.5 595,-2327.5 952,-2327.5 952,-2297.5 595,-2297.5"/>
<text text-anchor="start" x="602" y="-2308.9" font-family="Arial" font-size="14.00" fill="#000000">survey_id    </text>
<text text-anchor="start" x="696.1024" y="-2308.9" font-family="Arial" font-size="14.00" fill="#666666">[bigint]</text>
<polygon fill="none" stroke="#000000" points="595,-2267.5 595,-2297.5 952,-2297.5 952,-2267.5 595,-2267.5"/>
<text text-anchor="start" x="602" y="-2278.9" font-family="Arial" font-size="14.00" fill="#000000">team_id    </text>
<text text-anchor="start" x="685.993" y="-2278.9" font-family="Arial" font-size="14.00" fill="#666666">[bigint]</text>
<polygon fill="none" stroke="#000000" points="595,-2237.5 595,-2267.5 952,-2267.5 952,-2237.5 595,-2237.5"/>
<text text-anchor="start" x="602" y="-2248.9" font-family="Arial" font-size="14.00" fill="#000000">mi_a    </text>
<text text-anchor="start" x="666.5372" y="-2248.9" font-family="Arial" font-size="14.00" fill="#666666">[integer]</text>
<polygon fill="none" stroke="#000000" points="595,-2207.5 595,-2237.5 952,-2237.5 952,-2207.5 595,-2207.5"/>
<text text-anchor="start" x="602" y="-2218.9" font-family="Arial" font-size="14.00" fill="#000000">mi_b    </text>
<text text-anchor="start" x="666.5372" y="-2218.9" font-family="Arial" font-size="14.00" fill="#666666">[integer]</text>
<polygon fill="none" stroke="#000000" points="595,-2177.5 595,-2207.5 952,-2207.5 952,-2177.5 595,-2177.5"/>
<text text-anchor="start" x="602" y="-2188.9" font-family="Arial" font-size="14.00" fill="#000000">mi_c    </text>
<text text-anchor="start" x="665.7546" y="-2188.9" font-family="Arial" font-size="14.00" fill="#666666">[integer]</text>
<polygon fill="none" stroke="#000000" points="595,-2147.5 595,-2177.5 952,-2177.5 952,-2147.5 595,-2147.5"/>
<text text-anchor="start" x="602" y="-2158.9" font-family="Arial" font-size="14.00" fill="#000000">mi_d    </text>
<text text-anchor="start" x="666.5372" y="-2158.9" font-family="Arial" font-size="14.00" fill="#666666">[integer]</text>
<polygon fill="none" stroke="#000000" points="595,-2117.5 595,-2147.5 952,-2147.5 952,-2117.5 595,-2117.5"/>
<text text-anchor="start" x="602" y="-2128.9" font-family="Arial" font-size="14.00" fill="#000000">mi_e    </text>
<text text-anchor="start" x="666.5372" y="-2128.9" font-family="Arial" font-size="14.00" fill="#666666">[integer]</text>
<polygon fill="none" stroke="#000000" points="595,-2087.5 595,-2117.5 952,-2117.5 952,-2087.5 595,-2087.5"/>
<text text-anchor="start" x="602" y="-2098.9" font-family="Arial" font-size="14.00" fill="#000000">mi_f    </text>
<text text-anchor="start" x="662.6452" y="-2098.9" font-family="Arial" font-size="14.00" fill="#666666">[integer]</text>
<polygon fill="none" stroke="#000000" points="595,-2057.5 595,-2087.5 952,-2087.5 952,-2057.5 595,-2057.5"/>
<text text-anchor="start" x="602" y="-2068.9" font-family="Arial" font-size="14.00" fill="#000000">mi_g    </text>
<text text-anchor="start" x="666.5372" y="-2068.9" font-family="Arial" font-size="14.00" fill="#666666">[integer]</text>
<polygon fill="none" stroke="#000000" points="595,-2027.5 595,-2057.5 952,-2057.5 952,-2027.5 595,-2027.5"/>
<text text-anchor="start" x="602" y="-2038.9" font-family="Arial" font-size="14.00" fill="#000000">mi_h    </text>
<text text-anchor="start" x="666.5372" y="-2038.9" font-family="Arial" font-size="14.00" fill="#666666">[integer]</text>
<polygon fill="none" stroke="#000000" points="595,-1997.5 595,-2027.5 952,-2027.5 952,-1997.5 595,-1997.5"/>
<text text-anchor="start" x="602" y="-2008.9" font-family="Arial" font-size="14.00" fill="#000000">leader    </text>
<text text-anchor="start" x="675.1024" y="-2008.9" font-family="Arial" font-size="14.00" fill="#666666">[integer]</text>
<polygon fill="none" stroke="#000000" points="595,-1967.5 595,-1997.5 952,-1997.5 952,-1967.5 595,-1967.5"/>
<text text-anchor="start" x="602" y="-1978.9" font-family="Arial" font-size="14.00" fill="#000000">eyesight    </text>
<text text-anchor="start" x="688.3324" y="-1978.9" font-family="Arial" font-size="14.00" fill="#666666">[integer]</text>
<polygon fill="none" stroke="#000000" points="595,-1937.5 595,-1967.5 952,-1967.5 952,-1937.5 595,-1937.5"/>
<text text-anchor="start" x="602" y="-1948.9" font-family="Arial" font-size="14.00" fill="#000000">created_at    </text>
<text text-anchor="start" x="702.3422" y="-1948.9" font-family="Arial" font-size="14.00" fill="#666666">[timestamp without time zone]</text>
<polygon fill="none" stroke="#000000" points="595,-1907.5 595,-1937.5 952,-1937.5 952,-1907.5 595,-1907.5"/>
<text text-anchor="start" x="602" y="-1918.9" font-family="Arial" font-size="14.00" fill="#000000">updated_at    </text>
<text text-anchor="start" x="706.2468" y="-1918.9" font-family="Arial" font-size="14.00" fill="#666666">[timestamp without time zone]</text>
</g>
<!-- public.student_preferences&#45;&gt;public.students -->
<g id="edge6" class="edge">
<title>public.student_preferences:student_id&#45;&gt;public.students:id</title>
<path fill="none" stroke="#000000" d="M585.9272,-2337.6183C544.8548,-2289.8066 566.8849,-1906.0313 595,-1865 620.0529,-1828.4377 662.9471,-1865.5623 688,-1829 711.4891,-1794.7199 729.5556,-1735.5 688,-1735.5"/>
<polygon fill="#000000" stroke="#000000" points="586.1938,-2337.7617 592.8678,-2346.4628 590.5969,-2340.1308 595,-2342.5 595,-2342.5 595,-2342.5 590.5969,-2340.1308 597.1322,-2338.5372 586.1938,-2337.7617 586.1938,-2337.7617"/>
<text text-anchor="start" x="337.9875" y="-2352.5" font-family="Arial" font-size="10.00" fill="#000000">FOREIGN KEY (student_id) REFERENCES students(id)</text>
</g>
<!-- public.student_preferences&#45;&gt;public.surveys -->
<g id="edge7" class="edge">
<title>public.student_preferences:survey_id&#45;&gt;public.surveys:id</title>
<path fill="none" stroke="#000000" d="M586.2284,-2307.6196C547.7905,-2261.3998 566.3726,-1901.6653 595,-1865 635.5986,-1813.0023 698.4014,-1880.9977 739,-1829 784.267,-1771.0231 783.5336,-1556.5421 739,-1498 702.7024,-1450.2847 645.2976,-1509.7153 609,-1462 583.8405,-1428.9264 567.4444,-1368.5 609,-1368.5"/>
<polygon fill="#000000" stroke="#000000" points="586.2615,-2307.638 592.8121,-2316.4323 590.6308,-2310.069 595,-2312.5 595,-2312.5 595,-2312.5 590.6308,-2310.069 597.1879,-2308.5677 586.2615,-2307.638 586.2615,-2307.638"/>
<text text-anchor="start" x="345.3345" y="-2322.5" font-family="Arial" font-size="10.00" fill="#000000">FOREIGN KEY (survey_id) REFERENCES surveys(id)</text>
</g>
<!-- public.student_preferences&#45;&gt;public.teams -->
<g id="edge8" class="edge">
<title>public.student_preferences:team_id&#45;&gt;public.teams:id</title>
<path fill="none" stroke="#000000" d="M962.0528,-2282.231C1134.4624,-2272.7869 1052.4809,-2016.8835 952,-1865 920.0259,-1816.6691 863.9741,-1862.3309 832,-1814 809.0717,-1779.3423 790.4444,-1720.5 832,-1720.5"/>
<polygon fill="#000000" stroke="#000000" points="961.9964,-2282.2324 951.8796,-2278.0016 956.9982,-2282.3662 952,-2282.5 952,-2282.5 952,-2282.5 956.9982,-2282.3662 952.1204,-2286.9984 961.9964,-2282.2324 961.9964,-2282.2324"/>
<text text-anchor="start" x="958.5555" y="-2292.5" font-family="Arial" font-size="10.00" fill="#000000">FOREIGN KEY (team_id) REFERENCES teams(id)</text>
</g>
<!-- public.student_dislikes -->
<g id="node9" class="node">
<title>public.student_dislikes</title>
<polygon fill="#efefef" stroke="transparent" points="488,-2694.5 488,-2729.5 809,-2729.5 809,-2694.5 488,-2694.5"/>
<polygon fill="none" stroke="#000000" points="488,-2694.5 488,-2729.5 809,-2729.5 809,-2694.5 488,-2694.5"/>
<text text-anchor="start" x="494.6962" y="-2707.3" font-family="Arial Bold" font-size="18.00" fill="#000000">public.student_dislikes</text>
<text text-anchor="start" x="674.7358" y="-2707.3" font-family="Arial" font-size="14.00" fill="#000000">    </text>
<text text-anchor="start" x="708.9406" y="-2707.3" font-family="Arial" font-size="14.00" fill="#666666">[BASE TABLE]</text>
<polygon fill="none" stroke="#000000" points="488,-2664.5 488,-2694.5 809,-2694.5 809,-2664.5 488,-2664.5"/>
<text text-anchor="start" x="495" y="-2675.9" font-family="Arial" font-size="14.00" fill="#000000">id    </text>
<text text-anchor="start" x="540.094" y="-2675.9" font-family="Arial" font-size="14.00" fill="#666666">[bigint]</text>
<polygon fill="none" stroke="#000000" points="488,-2634.5 488,-2664.5 809,-2664.5 809,-2634.5 488,-2634.5"/>
<text text-anchor="start" x="495" y="-2645.9" font-family="Arial" font-size="14.00" fill="#000000">student_id    </text>
<text text-anchor="start" x="593.7882" y="-2645.9" font-family="Arial" font-size="14.00" fill="#666666">[bigint]</text>
<polygon fill="none" stroke="#000000" points="488,-2604.5 488,-2634.5 809,-2634.5 809,-2604.5 488,-2604.5"/>
<text text-anchor="start" x="495" y="-2615.9" font-family="Arial" font-size="14.00" fill="#000000">preference_id    </text>
<text text-anchor="start" x="614.784" y="-2615.9" font-family="Arial" font-size="14.00" fill="#666666">[bigint]</text>
<polygon fill="none" stroke="#000000" points="488,-2574.5 488,-2604.5 809,-2604.5 809,-2574.5 488,-2574.5"/>
<text text-anchor="start" x="495" y="-2585.9" font-family="Arial" font-size="14.00" fill="#000000">created_at    </text>
<text text-anchor="start" x="595.3422" y="-2585.9" font-family="Arial" font-size="14.00" fill="#666666">[timestamp without time zone]</text>
<polygon fill="none" stroke="#000000" points="488,-2544.5 488,-2574.5 809,-2574.5 809,-2544.5 488,-2544.5"/>
<text text-anchor="start" x="495" y="-2555.9" font-family="Arial" font-size="14.00" fill="#000000">updated_at    </text>
<text text-anchor="start" x="599.2468" y="-2555.9" font-family="Arial" font-size="14.00" fill="#666666">[timestamp without time zone]</text>
</g>
<!-- public.student_dislikes&#45;&gt;public.students -->
<g id="edge9" class="edge">
<title>public.student_dislikes:student_id&#45;&gt;public.students:id</title>
<path fill="none" stroke="#000000" d="M480.1675,-2643.1754C427.2096,-2562.4213 336.3959,-1735.5 385,-1735.5"/>
<polygon fill="#000000" stroke="#000000" points="480.2198,-2643.2176 485.1729,-2653.0011 484.1099,-2646.3588 488,-2649.5 488,-2649.5 488,-2649.5 484.1099,-2646.3588 490.8271,-2645.9989 480.2198,-2643.2176 480.2198,-2643.2176"/>
<text text-anchor="start" x="494.9875" y="-2659.5" font-family="Arial" font-size="10.00" fill="#000000">FOREIGN KEY (student_id) REFERENCES students(id)</text>
</g>
<!-- public.student_dislikes&#45;&gt;public.student_preferences -->
<g id="edge10" class="edge">
<title>public.student_dislikes:preference_id&#45;&gt;public.student_preferences:id</title>
<path fill="none" stroke="#000000" d="M818.986,-2618.3888C858.5458,-2608.7702 840.3537,-2539.0686 809,-2502 746.7145,-2428.3614 657.2855,-2539.6386 595,-2466 568.1636,-2434.2719 553.4444,-2372.5 595,-2372.5"/>
<polygon fill="#000000" stroke="#000000" points="818.9387,-2618.394 808.5023,-2615.0276 813.9693,-2618.947 809,-2619.5 809,-2619.5 809,-2619.5 813.9693,-2618.947 809.4977,-2623.9724 818.9387,-2618.394 818.9387,-2618.394"/>
<text text-anchor="start" x="815.814" y="-2629.5" font-family="Arial" font-size="10.00" fill="#000000">FOREIGN KEY (preference_id) REFERENCES student_preferences(id)</text>
</g>
</g>
</svg>
